G04 #@! TF.GenerationSoftware,KiCad,Pcbnew,(5.0.1)-3*
G04 #@! TF.CreationDate,2018-11-16T23:33:18-08:00*
G04 #@! TF.ProjectId,ErgoMaxLeft,4572676F4D61784C6566742E6B696361,rev?*
G04 #@! TF.SameCoordinates,Original*
G04 #@! TF.FileFunction,Legend,Top*
G04 #@! TF.FilePolarity,Positive*
%FSLAX46Y46*%
G04 Gerber Fmt 4.6, Leading zero omitted, Abs format (unit mm)*
G04 Created by KiCad (PCBNEW (5.0.1)-3) date 16/11/2018 23:33:18*
%MOMM*%
%LPD*%
G01*
G04 APERTURE LIST*
%ADD10C,0.150000*%
%ADD11C,0.304800*%
%ADD12C,0.200000*%
G04 APERTURE END LIST*
D10*
G04 #@! TO.C,U1*
X134439660Y-66588640D02*
X116659660Y-66588640D01*
X134439660Y-36108640D02*
X134439660Y-66588640D01*
X129359660Y-36108640D02*
X134439660Y-36108640D01*
X129359660Y-33568640D02*
X129359660Y-36108640D01*
X121739660Y-33568640D02*
X129359660Y-33568640D01*
X121739660Y-36108640D02*
X121739660Y-33568640D01*
X116659660Y-36108640D02*
X121739660Y-36108640D01*
X116659660Y-36108640D02*
X116659660Y-66588640D01*
G04 #@! TO.C,J1*
X236833060Y-34146740D02*
X231233060Y-34146740D01*
X231233060Y-36146740D02*
X231233060Y-34146740D01*
X236833060Y-36146740D02*
X236833060Y-34146740D01*
X230983060Y-36146740D02*
X230983060Y-48246740D01*
X237083060Y-36146740D02*
X237083060Y-48246740D01*
X237083060Y-48246740D02*
X230983060Y-48246740D01*
X237083060Y-36146740D02*
X230983060Y-36146740D01*
G04 #@! TO.C,D25*
X214142161Y-124121326D02*
X215666161Y-124121326D01*
X215666161Y-120057326D02*
X215666161Y-124121326D01*
X215666161Y-124121326D02*
X215666161Y-120057326D01*
X215666161Y-120057326D02*
X214142161Y-120057326D01*
X214142161Y-120057326D02*
X214142161Y-124121326D01*
X214142161Y-123613326D02*
X215666161Y-123613326D01*
G04 #@! TO.C,D26*
X233192161Y-124924166D02*
X234716161Y-124924166D01*
X233192161Y-121368166D02*
X233192161Y-125432166D01*
X234716161Y-121368166D02*
X233192161Y-121368166D01*
X234716161Y-125432166D02*
X234716161Y-121368166D01*
X234716161Y-121368166D02*
X234716161Y-125432166D01*
X233192161Y-125432166D02*
X234716161Y-125432166D01*
G04 #@! TO.C,D27*
X255584993Y-145458842D02*
X256966206Y-146102913D01*
X258683727Y-142419678D02*
X256966206Y-146102913D01*
X256966206Y-146102913D02*
X258683727Y-142419678D01*
X258683727Y-142419678D02*
X257302514Y-141775607D01*
X257302514Y-141775607D02*
X255584993Y-145458842D01*
X255799683Y-144998438D02*
X257180896Y-145642508D01*
G04 #@! TO.C,D28*
X270582483Y-158104838D02*
X271963696Y-158748908D01*
X272085314Y-154882007D02*
X270367793Y-158565242D01*
X273466527Y-155526078D02*
X272085314Y-154882007D01*
X271749006Y-159209313D02*
X273466527Y-155526078D01*
X273466527Y-155526078D02*
X271749006Y-159209313D01*
X270367793Y-158565242D02*
X271749006Y-159209313D01*
G04 #@! TO.C,D29*
X133182161Y-146371326D02*
X134706161Y-146371326D01*
X134706161Y-142307326D02*
X134706161Y-146371326D01*
X134706161Y-146371326D02*
X134706161Y-142307326D01*
X134706161Y-142307326D02*
X133182161Y-142307326D01*
X133182161Y-142307326D02*
X133182161Y-146371326D01*
X133182161Y-145863326D02*
X134706161Y-145863326D01*
G04 #@! TO.C,D30*
X156992161Y-145863326D02*
X158516161Y-145863326D01*
X156992161Y-142307326D02*
X156992161Y-146371326D01*
X158516161Y-142307326D02*
X156992161Y-142307326D01*
X158516161Y-146371326D02*
X158516161Y-142307326D01*
X158516161Y-142307326D02*
X158516161Y-146371326D01*
X156992161Y-146371326D02*
X158516161Y-146371326D01*
G04 #@! TO.C,D31*
X176042161Y-143191326D02*
X177566161Y-143191326D01*
X177566161Y-139127326D02*
X177566161Y-143191326D01*
X177566161Y-143191326D02*
X177566161Y-139127326D01*
X177566161Y-139127326D02*
X176042161Y-139127326D01*
X176042161Y-139127326D02*
X176042161Y-143191326D01*
X176042161Y-142683326D02*
X177566161Y-142683326D01*
G04 #@! TO.C,D32*
X195092161Y-141073326D02*
X196616161Y-141073326D01*
X195092161Y-137517326D02*
X195092161Y-141581326D01*
X196616161Y-137517326D02*
X195092161Y-137517326D01*
X196616161Y-141581326D02*
X196616161Y-137517326D01*
X196616161Y-137517326D02*
X196616161Y-141581326D01*
X195092161Y-141581326D02*
X196616161Y-141581326D01*
G04 #@! TO.C,D33*
X214142161Y-143161326D02*
X215666161Y-143161326D01*
X215666161Y-139097326D02*
X215666161Y-143161326D01*
X215666161Y-143161326D02*
X215666161Y-139097326D01*
X215666161Y-139097326D02*
X214142161Y-139097326D01*
X214142161Y-139097326D02*
X214142161Y-143161326D01*
X214142161Y-142653326D02*
X215666161Y-142653326D01*
G04 #@! TO.C,D34*
X233192161Y-143953326D02*
X234716161Y-143953326D01*
X233192161Y-140397326D02*
X233192161Y-144461326D01*
X234716161Y-140397326D02*
X233192161Y-140397326D01*
X234716161Y-144461326D02*
X234716161Y-140397326D01*
X234716161Y-140397326D02*
X234716161Y-144461326D01*
X233192161Y-144461326D02*
X234716161Y-144461326D01*
G04 #@! TO.C,D12*
X233192161Y-87334846D02*
X234716161Y-87334846D01*
X234716161Y-83270846D02*
X234716161Y-87334846D01*
X234716161Y-87334846D02*
X234716161Y-83270846D01*
X234716161Y-83270846D02*
X233192161Y-83270846D01*
X233192161Y-83270846D02*
X233192161Y-87334846D01*
X233192161Y-86826846D02*
X234716161Y-86826846D01*
G04 #@! TO.C,D36*
X268799217Y-166938962D02*
X267418004Y-166294892D01*
X267296386Y-170161793D02*
X269013907Y-166478558D01*
X265915173Y-169517722D02*
X267296386Y-170161793D01*
X267632694Y-165834487D02*
X265915173Y-169517722D01*
X265915173Y-169517722D02*
X267632694Y-165834487D01*
X269013907Y-166478558D02*
X267632694Y-165834487D01*
G04 #@! TO.C,D37*
X138298000Y-164982000D02*
X139822000Y-164982000D01*
X139822000Y-160918000D02*
X139822000Y-164982000D01*
X139822000Y-164982000D02*
X139822000Y-160918000D01*
X139822000Y-160918000D02*
X138298000Y-160918000D01*
X138298000Y-160918000D02*
X138298000Y-164982000D01*
X138298000Y-164474000D02*
X139822000Y-164474000D01*
G04 #@! TO.C,D38*
X157418000Y-164554000D02*
X158942000Y-164554000D01*
X157418000Y-160998000D02*
X157418000Y-165062000D01*
X158942000Y-160998000D02*
X157418000Y-160998000D01*
X158942000Y-165062000D02*
X158942000Y-160998000D01*
X158942000Y-160998000D02*
X158942000Y-165062000D01*
X157418000Y-165062000D02*
X158942000Y-165062000D01*
G04 #@! TO.C,D39*
X176042161Y-162221326D02*
X177566161Y-162221326D01*
X177566161Y-158157326D02*
X177566161Y-162221326D01*
X177566161Y-162221326D02*
X177566161Y-158157326D01*
X177566161Y-158157326D02*
X176042161Y-158157326D01*
X176042161Y-158157326D02*
X176042161Y-162221326D01*
X176042161Y-161713326D02*
X177566161Y-161713326D01*
G04 #@! TO.C,D40*
X195092161Y-160113326D02*
X196616161Y-160113326D01*
X195092161Y-156557326D02*
X195092161Y-160621326D01*
X196616161Y-156557326D02*
X195092161Y-156557326D01*
X196616161Y-160621326D02*
X196616161Y-156557326D01*
X196616161Y-156557326D02*
X196616161Y-160621326D01*
X195092161Y-160621326D02*
X196616161Y-160621326D01*
G04 #@! TO.C,D41*
X214142161Y-162201326D02*
X215666161Y-162201326D01*
X215666161Y-158137326D02*
X215666161Y-162201326D01*
X215666161Y-162201326D02*
X215666161Y-158137326D01*
X215666161Y-158137326D02*
X214142161Y-158137326D01*
X214142161Y-158137326D02*
X214142161Y-162201326D01*
X214142161Y-161693326D02*
X215666161Y-161693326D01*
G04 #@! TO.C,D42*
X246564677Y-168710822D02*
X245183464Y-168066752D01*
X245061846Y-171933653D02*
X246779367Y-168250418D01*
X243680633Y-171289582D02*
X245061846Y-171933653D01*
X245398154Y-167606347D02*
X243680633Y-171289582D01*
X243680633Y-171289582D02*
X245398154Y-167606347D01*
X246779367Y-168250418D02*
X245398154Y-167606347D01*
G04 #@! TO.C,D43*
X254274287Y-160895638D02*
X252893074Y-160251567D01*
X251175553Y-163934802D02*
X252893074Y-160251567D01*
X252893074Y-160251567D02*
X251175553Y-163934802D01*
X251175553Y-163934802D02*
X252556766Y-164578873D01*
X252556766Y-164578873D02*
X254274287Y-160895638D01*
X254059597Y-161356042D02*
X252678384Y-160711972D01*
G04 #@! TO.C,D44*
X273657058Y-186874057D02*
X274301128Y-185492844D01*
X270434227Y-185371226D02*
X274117462Y-187088747D01*
X271078298Y-183990013D02*
X270434227Y-185371226D01*
X274761533Y-185707534D02*
X271078298Y-183990013D01*
X271078298Y-183990013D02*
X274761533Y-185707534D01*
X274117462Y-187088747D02*
X274761533Y-185707534D01*
G04 #@! TO.C,D22*
X156983761Y-127333366D02*
X158507761Y-127333366D01*
X158507761Y-123269366D02*
X158507761Y-127333366D01*
X158507761Y-127333366D02*
X158507761Y-123269366D01*
X158507761Y-123269366D02*
X156983761Y-123269366D01*
X156983761Y-123269366D02*
X156983761Y-127333366D01*
X156983761Y-126825366D02*
X158507761Y-126825366D01*
G04 #@! TO.C,D35*
X250418000Y-140514000D02*
X251942000Y-140514000D01*
X250418000Y-136958000D02*
X250418000Y-141022000D01*
X251942000Y-136958000D02*
X250418000Y-136958000D01*
X251942000Y-141022000D02*
X251942000Y-136958000D01*
X251942000Y-136958000D02*
X251942000Y-141022000D01*
X250418000Y-141022000D02*
X251942000Y-141022000D01*
G04 #@! TO.C,D2*
X176032161Y-66998366D02*
X177556161Y-66998366D01*
X177556161Y-62934366D02*
X177556161Y-66998366D01*
X177556161Y-66998366D02*
X177556161Y-62934366D01*
X177556161Y-62934366D02*
X176032161Y-62934366D01*
X176032161Y-62934366D02*
X176032161Y-66998366D01*
X176032161Y-66490366D02*
X177556161Y-66490366D01*
G04 #@! TO.C,D3*
X195072161Y-64892966D02*
X196596161Y-64892966D01*
X195072161Y-61336966D02*
X195072161Y-65400966D01*
X196596161Y-61336966D02*
X195072161Y-61336966D01*
X196596161Y-65400966D02*
X196596161Y-61336966D01*
X196596161Y-61336966D02*
X196596161Y-65400966D01*
X195072161Y-65400966D02*
X196596161Y-65400966D01*
G04 #@! TO.C,D4*
X214112161Y-66984966D02*
X215636161Y-66984966D01*
X215636161Y-62920966D02*
X215636161Y-66984966D01*
X215636161Y-66984966D02*
X215636161Y-62920966D01*
X215636161Y-62920966D02*
X214112161Y-62920966D01*
X214112161Y-62920966D02*
X214112161Y-66984966D01*
X214112161Y-66476966D02*
X215636161Y-66476966D01*
G04 #@! TO.C,D5*
X233149912Y-67776966D02*
X234673912Y-67776966D01*
X233149912Y-64220966D02*
X233149912Y-68284966D01*
X234673912Y-64220966D02*
X233149912Y-64220966D01*
X234673912Y-68284966D02*
X234673912Y-64220966D01*
X234673912Y-64220966D02*
X234673912Y-68284966D01*
X233149912Y-68284966D02*
X234673912Y-68284966D01*
G04 #@! TO.C,D6*
X250797060Y-68267580D02*
X252321060Y-68267580D01*
X252321060Y-64203580D02*
X252321060Y-68267580D01*
X252321060Y-68267580D02*
X252321060Y-64203580D01*
X252321060Y-64203580D02*
X250797060Y-64203580D01*
X250797060Y-64203580D02*
X250797060Y-68267580D01*
X250797060Y-67759580D02*
X252321060Y-67759580D01*
G04 #@! TO.C,D7*
X133173841Y-88733966D02*
X134697841Y-88733966D01*
X133173841Y-85177966D02*
X133173841Y-89241966D01*
X134697841Y-85177966D02*
X133173841Y-85177966D01*
X134697841Y-89241966D02*
X134697841Y-85177966D01*
X134697841Y-85177966D02*
X134697841Y-89241966D01*
X133173841Y-89241966D02*
X134697841Y-89241966D01*
G04 #@! TO.C,D8*
X156979261Y-89241966D02*
X158503261Y-89241966D01*
X158503261Y-85177966D02*
X158503261Y-89241966D01*
X158503261Y-89241966D02*
X158503261Y-85177966D01*
X158503261Y-85177966D02*
X156979261Y-85177966D01*
X156979261Y-85177966D02*
X156979261Y-89241966D01*
X156979261Y-88733966D02*
X158503261Y-88733966D01*
G04 #@! TO.C,D9*
X176029261Y-85543966D02*
X177553261Y-85543966D01*
X176029261Y-81987966D02*
X176029261Y-86051966D01*
X177553261Y-81987966D02*
X176029261Y-81987966D01*
X177553261Y-86051966D02*
X177553261Y-81987966D01*
X177553261Y-81987966D02*
X177553261Y-86051966D01*
X176029261Y-86051966D02*
X177553261Y-86051966D01*
G04 #@! TO.C,D10*
X195074861Y-84446406D02*
X196598861Y-84446406D01*
X196598861Y-80382406D02*
X196598861Y-84446406D01*
X196598861Y-84446406D02*
X196598861Y-80382406D01*
X196598861Y-80382406D02*
X195074861Y-80382406D01*
X195074861Y-80382406D02*
X195074861Y-84446406D01*
X195074861Y-83938406D02*
X196598861Y-83938406D01*
G04 #@! TO.C,D23*
X176042161Y-123633566D02*
X177566161Y-123633566D01*
X176042161Y-120077566D02*
X176042161Y-124141566D01*
X177566161Y-120077566D02*
X176042161Y-120077566D01*
X177566161Y-124141566D02*
X177566161Y-120077566D01*
X177566161Y-120077566D02*
X177566161Y-124141566D01*
X176042161Y-124141566D02*
X177566161Y-124141566D01*
G04 #@! TO.C,D24*
X195092161Y-122538566D02*
X196616161Y-122538566D01*
X196616161Y-118474566D02*
X196616161Y-122538566D01*
X196616161Y-122538566D02*
X196616161Y-118474566D01*
X196616161Y-118474566D02*
X195092161Y-118474566D01*
X195092161Y-118474566D02*
X195092161Y-122538566D01*
X195092161Y-122030566D02*
X196616161Y-122030566D01*
G04 #@! TO.C,D13*
X250751340Y-86903560D02*
X252275340Y-86903560D01*
X250751340Y-83347560D02*
X250751340Y-87411560D01*
X252275340Y-83347560D02*
X250751340Y-83347560D01*
X252275340Y-87411560D02*
X252275340Y-83347560D01*
X252275340Y-83347560D02*
X252275340Y-87411560D01*
X250751340Y-87411560D02*
X252275340Y-87411560D01*
G04 #@! TO.C,D14*
X133177241Y-108285066D02*
X134701241Y-108285066D01*
X134701241Y-104221066D02*
X134701241Y-108285066D01*
X134701241Y-108285066D02*
X134701241Y-104221066D01*
X134701241Y-104221066D02*
X133177241Y-104221066D01*
X133177241Y-104221066D02*
X133177241Y-108285066D01*
X133177241Y-107777066D02*
X134701241Y-107777066D01*
G04 #@! TO.C,D15*
X156978021Y-107786666D02*
X158502021Y-107786666D01*
X156978021Y-104230666D02*
X156978021Y-108294666D01*
X158502021Y-104230666D02*
X156978021Y-104230666D01*
X158502021Y-108294666D02*
X158502021Y-104230666D01*
X158502021Y-104230666D02*
X158502021Y-108294666D01*
X156978021Y-108294666D02*
X158502021Y-108294666D01*
G04 #@! TO.C,D16*
X176026761Y-105093946D02*
X177550761Y-105093946D01*
X177550761Y-101029946D02*
X177550761Y-105093946D01*
X177550761Y-105093946D02*
X177550761Y-101029946D01*
X177550761Y-101029946D02*
X176026761Y-101029946D01*
X176026761Y-101029946D02*
X176026761Y-105093946D01*
X176026761Y-104585946D02*
X177550761Y-104585946D01*
G04 #@! TO.C,D17*
X195071201Y-102982866D02*
X196595201Y-102982866D01*
X195071201Y-99426866D02*
X195071201Y-103490866D01*
X196595201Y-99426866D02*
X195071201Y-99426866D01*
X196595201Y-103490866D02*
X196595201Y-99426866D01*
X196595201Y-99426866D02*
X196595201Y-103490866D01*
X195071201Y-103490866D02*
X196595201Y-103490866D01*
G04 #@! TO.C,D18*
X214116601Y-105076586D02*
X215640601Y-105076586D01*
X215640601Y-101012586D02*
X215640601Y-105076586D01*
X215640601Y-105076586D02*
X215640601Y-101012586D01*
X215640601Y-101012586D02*
X214116601Y-101012586D01*
X214116601Y-101012586D02*
X214116601Y-105076586D01*
X214116601Y-104568586D02*
X215640601Y-104568586D01*
G04 #@! TO.C,D19*
X233149761Y-105879366D02*
X234673761Y-105879366D01*
X233149761Y-102323366D02*
X233149761Y-106387366D01*
X234673761Y-102323366D02*
X233149761Y-102323366D01*
X234673761Y-106387366D02*
X234673761Y-102323366D01*
X234673761Y-102323366D02*
X234673761Y-106387366D01*
X233149761Y-106387366D02*
X234673761Y-106387366D01*
G04 #@! TO.C,D20*
X250710700Y-111533940D02*
X252234700Y-111533940D01*
X252234700Y-107469940D02*
X252234700Y-111533940D01*
X252234700Y-111533940D02*
X252234700Y-107469940D01*
X252234700Y-107469940D02*
X250710700Y-107469940D01*
X250710700Y-107469940D02*
X250710700Y-111533940D01*
X250710700Y-111025940D02*
X252234700Y-111025940D01*
G04 #@! TO.C,D21*
X133187561Y-126817166D02*
X134711561Y-126817166D01*
X133187561Y-123261166D02*
X133187561Y-127325166D01*
X134711561Y-123261166D02*
X133187561Y-123261166D01*
X134711561Y-127325166D02*
X134711561Y-123261166D01*
X134711561Y-123261166D02*
X134711561Y-127325166D01*
X133187561Y-127325166D02*
X134711561Y-127325166D01*
G04 #@! TO.C,D11*
X214116761Y-86038746D02*
X215640761Y-86038746D01*
X215640761Y-81974746D02*
X215640761Y-86038746D01*
X215640761Y-86038746D02*
X215640761Y-81974746D01*
X215640761Y-81974746D02*
X214116761Y-81974746D01*
X214116761Y-81974746D02*
X214116761Y-86038746D01*
X214116761Y-85530746D02*
X215640761Y-85530746D01*
G04 #@! TO.C,D1*
X156982161Y-69696966D02*
X158506161Y-69696966D01*
X156982161Y-66140966D02*
X156982161Y-70204966D01*
X158506161Y-66140966D02*
X156982161Y-66140966D01*
X158506161Y-70204966D02*
X158506161Y-66140966D01*
X158506161Y-66140966D02*
X158506161Y-70204966D01*
X156982161Y-70204966D02*
X158506161Y-70204966D01*
G04 #@! TO.C,K1*
X154735000Y-62788640D02*
X151140000Y-62788640D01*
X154735000Y-58573640D02*
X154735000Y-62788640D01*
X143735000Y-56903640D02*
X143735000Y-61113640D01*
X153060000Y-56898640D02*
X143735000Y-56898640D01*
X154735000Y-58573640D02*
G75*
G03X153060000Y-56898640I-1675000J0D01*
G01*
X151140000Y-62788640D02*
G75*
G03X149465000Y-61113640I-1675000J0D01*
G01*
X149465000Y-61113640D02*
X143735000Y-61113640D01*
G04 #@! TO.C,K2*
X168515000Y-57907040D02*
X162785000Y-57907040D01*
X170190000Y-59582040D02*
G75*
G03X168515000Y-57907040I-1675000J0D01*
G01*
X173785000Y-55367040D02*
G75*
G03X172110000Y-53692040I-1675000J0D01*
G01*
X172110000Y-53692040D02*
X162785000Y-53692040D01*
X162785000Y-53697040D02*
X162785000Y-57907040D01*
X173785000Y-55367040D02*
X173785000Y-59582040D01*
X173785000Y-59582040D02*
X170190000Y-59582040D01*
G04 #@! TO.C,K3*
X187555000Y-56309640D02*
X181825000Y-56309640D01*
X189230000Y-57984640D02*
G75*
G03X187555000Y-56309640I-1675000J0D01*
G01*
X192825000Y-53769640D02*
G75*
G03X191150000Y-52094640I-1675000J0D01*
G01*
X191150000Y-52094640D02*
X181825000Y-52094640D01*
X181825000Y-52099640D02*
X181825000Y-56309640D01*
X192825000Y-53769640D02*
X192825000Y-57984640D01*
X192825000Y-57984640D02*
X189230000Y-57984640D01*
G04 #@! TO.C,K4*
X206595000Y-57893640D02*
X200865000Y-57893640D01*
X208270000Y-59568640D02*
G75*
G03X206595000Y-57893640I-1675000J0D01*
G01*
X211865000Y-55353640D02*
G75*
G03X210190000Y-53678640I-1675000J0D01*
G01*
X210190000Y-53678640D02*
X200865000Y-53678640D01*
X200865000Y-53683640D02*
X200865000Y-57893640D01*
X211865000Y-55353640D02*
X211865000Y-59568640D01*
X211865000Y-59568640D02*
X208270000Y-59568640D01*
G04 #@! TO.C,K5*
X225632751Y-59193640D02*
X219902751Y-59193640D01*
X227307751Y-60868640D02*
G75*
G03X225632751Y-59193640I-1675000J0D01*
G01*
X230902751Y-56653640D02*
G75*
G03X229227751Y-54978640I-1675000J0D01*
G01*
X229227751Y-54978640D02*
X219902751Y-54978640D01*
X219902751Y-54983640D02*
X219902751Y-59193640D01*
X230902751Y-56653640D02*
X230902751Y-60868640D01*
X230902751Y-60868640D02*
X227307751Y-60868640D01*
G04 #@! TO.C,K6*
X244725000Y-59195640D02*
X238995000Y-59195640D01*
X246400000Y-60870640D02*
G75*
G03X244725000Y-59195640I-1675000J0D01*
G01*
X249995000Y-56655640D02*
G75*
G03X248320000Y-54980640I-1675000J0D01*
G01*
X248320000Y-54980640D02*
X238995000Y-54980640D01*
X238995000Y-54985640D02*
X238995000Y-59195640D01*
X249995000Y-56655640D02*
X249995000Y-60870640D01*
X249995000Y-60870640D02*
X246400000Y-60870640D01*
G04 #@! TO.C,K7*
X125656680Y-80150640D02*
X119926680Y-80150640D01*
X127331680Y-81825640D02*
G75*
G03X125656680Y-80150640I-1675000J0D01*
G01*
X130926680Y-77610640D02*
G75*
G03X129251680Y-75935640I-1675000J0D01*
G01*
X129251680Y-75935640D02*
X119926680Y-75935640D01*
X119926680Y-75940640D02*
X119926680Y-80150640D01*
X130926680Y-77610640D02*
X130926680Y-81825640D01*
X130926680Y-81825640D02*
X127331680Y-81825640D01*
G04 #@! TO.C,K8*
X149462100Y-80150640D02*
X143732100Y-80150640D01*
X151137100Y-81825640D02*
G75*
G03X149462100Y-80150640I-1675000J0D01*
G01*
X154732100Y-77610640D02*
G75*
G03X153057100Y-75935640I-1675000J0D01*
G01*
X153057100Y-75935640D02*
X143732100Y-75935640D01*
X143732100Y-75940640D02*
X143732100Y-80150640D01*
X154732100Y-77610640D02*
X154732100Y-81825640D01*
X154732100Y-81825640D02*
X151137100Y-81825640D01*
G04 #@! TO.C,K9*
X168512100Y-76960640D02*
X162782100Y-76960640D01*
X170187100Y-78635640D02*
G75*
G03X168512100Y-76960640I-1675000J0D01*
G01*
X173782100Y-74420640D02*
G75*
G03X172107100Y-72745640I-1675000J0D01*
G01*
X172107100Y-72745640D02*
X162782100Y-72745640D01*
X162782100Y-72750640D02*
X162782100Y-76960640D01*
X173782100Y-74420640D02*
X173782100Y-78635640D01*
X173782100Y-78635640D02*
X170187100Y-78635640D01*
G04 #@! TO.C,K10*
X187557700Y-75355080D02*
X181827700Y-75355080D01*
X189232700Y-77030080D02*
G75*
G03X187557700Y-75355080I-1675000J0D01*
G01*
X192827700Y-72815080D02*
G75*
G03X191152700Y-71140080I-1675000J0D01*
G01*
X191152700Y-71140080D02*
X181827700Y-71140080D01*
X181827700Y-71145080D02*
X181827700Y-75355080D01*
X192827700Y-72815080D02*
X192827700Y-77030080D01*
X192827700Y-77030080D02*
X189232700Y-77030080D01*
G04 #@! TO.C,K11*
X206599600Y-76947420D02*
X200869600Y-76947420D01*
X208274600Y-78622420D02*
G75*
G03X206599600Y-76947420I-1675000J0D01*
G01*
X211869600Y-74407420D02*
G75*
G03X210194600Y-72732420I-1675000J0D01*
G01*
X210194600Y-72732420D02*
X200869600Y-72732420D01*
X200869600Y-72737420D02*
X200869600Y-76947420D01*
X211869600Y-74407420D02*
X211869600Y-78622420D01*
X211869600Y-78622420D02*
X208274600Y-78622420D01*
G04 #@! TO.C,K12*
X225675000Y-78243520D02*
X219945000Y-78243520D01*
X227350000Y-79918520D02*
G75*
G03X225675000Y-78243520I-1675000J0D01*
G01*
X230945000Y-75703520D02*
G75*
G03X229270000Y-74028520I-1675000J0D01*
G01*
X229270000Y-74028520D02*
X219945000Y-74028520D01*
X219945000Y-74033520D02*
X219945000Y-78243520D01*
X230945000Y-75703520D02*
X230945000Y-79918520D01*
X230945000Y-79918520D02*
X227350000Y-79918520D01*
G04 #@! TO.C,K13*
X244725000Y-78235940D02*
X238995000Y-78235940D01*
X246400000Y-79910940D02*
G75*
G03X244725000Y-78235940I-1675000J0D01*
G01*
X249995000Y-75695940D02*
G75*
G03X248320000Y-74020940I-1675000J0D01*
G01*
X248320000Y-74020940D02*
X238995000Y-74020940D01*
X238995000Y-74025940D02*
X238995000Y-78235940D01*
X249995000Y-75695940D02*
X249995000Y-79910940D01*
X249995000Y-79910940D02*
X246400000Y-79910940D01*
G04 #@! TO.C,K14*
X125660080Y-99193740D02*
X119930080Y-99193740D01*
X127335080Y-100868740D02*
G75*
G03X125660080Y-99193740I-1675000J0D01*
G01*
X130930080Y-96653740D02*
G75*
G03X129255080Y-94978740I-1675000J0D01*
G01*
X129255080Y-94978740D02*
X119930080Y-94978740D01*
X119930080Y-94983740D02*
X119930080Y-99193740D01*
X130930080Y-96653740D02*
X130930080Y-100868740D01*
X130930080Y-100868740D02*
X127335080Y-100868740D01*
G04 #@! TO.C,K15*
X149460860Y-99203340D02*
X143730860Y-99203340D01*
X151135860Y-100878340D02*
G75*
G03X149460860Y-99203340I-1675000J0D01*
G01*
X154730860Y-96663340D02*
G75*
G03X153055860Y-94988340I-1675000J0D01*
G01*
X153055860Y-94988340D02*
X143730860Y-94988340D01*
X143730860Y-94993340D02*
X143730860Y-99203340D01*
X154730860Y-96663340D02*
X154730860Y-100878340D01*
X154730860Y-100878340D02*
X151135860Y-100878340D01*
G04 #@! TO.C,K16*
X168509600Y-96002620D02*
X162779600Y-96002620D01*
X170184600Y-97677620D02*
G75*
G03X168509600Y-96002620I-1675000J0D01*
G01*
X173779600Y-93462620D02*
G75*
G03X172104600Y-91787620I-1675000J0D01*
G01*
X172104600Y-91787620D02*
X162779600Y-91787620D01*
X162779600Y-91792620D02*
X162779600Y-96002620D01*
X173779600Y-93462620D02*
X173779600Y-97677620D01*
X173779600Y-97677620D02*
X170184600Y-97677620D01*
G04 #@! TO.C,K17*
X187554040Y-94399540D02*
X181824040Y-94399540D01*
X189229040Y-96074540D02*
G75*
G03X187554040Y-94399540I-1675000J0D01*
G01*
X192824040Y-91859540D02*
G75*
G03X191149040Y-90184540I-1675000J0D01*
G01*
X191149040Y-90184540D02*
X181824040Y-90184540D01*
X181824040Y-90189540D02*
X181824040Y-94399540D01*
X192824040Y-91859540D02*
X192824040Y-96074540D01*
X192824040Y-96074540D02*
X189229040Y-96074540D01*
G04 #@! TO.C,K18*
X206599440Y-95985260D02*
X200869440Y-95985260D01*
X208274440Y-97660260D02*
G75*
G03X206599440Y-95985260I-1675000J0D01*
G01*
X211869440Y-93445260D02*
G75*
G03X210194440Y-91770260I-1675000J0D01*
G01*
X210194440Y-91770260D02*
X200869440Y-91770260D01*
X200869440Y-91775260D02*
X200869440Y-95985260D01*
X211869440Y-93445260D02*
X211869440Y-97660260D01*
X211869440Y-97660260D02*
X208274440Y-97660260D01*
G04 #@! TO.C,K19*
X225632600Y-97296040D02*
X219902600Y-97296040D01*
X227307600Y-98971040D02*
G75*
G03X225632600Y-97296040I-1675000J0D01*
G01*
X230902600Y-94756040D02*
G75*
G03X229227600Y-93081040I-1675000J0D01*
G01*
X229227600Y-93081040D02*
X219902600Y-93081040D01*
X219902600Y-93086040D02*
X219902600Y-97296040D01*
X230902600Y-94756040D02*
X230902600Y-98971040D01*
X230902600Y-98971040D02*
X227307600Y-98971040D01*
G04 #@! TO.C,K20*
X244725000Y-102055640D02*
X238995000Y-102055640D01*
X246400000Y-103730640D02*
G75*
G03X244725000Y-102055640I-1675000J0D01*
G01*
X249995000Y-99515640D02*
G75*
G03X248320000Y-97840640I-1675000J0D01*
G01*
X248320000Y-97840640D02*
X238995000Y-97840640D01*
X238995000Y-97845640D02*
X238995000Y-102055640D01*
X249995000Y-99515640D02*
X249995000Y-103730640D01*
X249995000Y-103730640D02*
X246400000Y-103730640D01*
G04 #@! TO.C,K21*
X125670400Y-118233840D02*
X119940400Y-118233840D01*
X127345400Y-119908840D02*
G75*
G03X125670400Y-118233840I-1675000J0D01*
G01*
X130940400Y-115693840D02*
G75*
G03X129265400Y-114018840I-1675000J0D01*
G01*
X129265400Y-114018840D02*
X119940400Y-114018840D01*
X119940400Y-114023840D02*
X119940400Y-118233840D01*
X130940400Y-115693840D02*
X130940400Y-119908840D01*
X130940400Y-119908840D02*
X127345400Y-119908840D01*
G04 #@! TO.C,K22*
X149466600Y-118242040D02*
X143736600Y-118242040D01*
X151141600Y-119917040D02*
G75*
G03X149466600Y-118242040I-1675000J0D01*
G01*
X154736600Y-115702040D02*
G75*
G03X153061600Y-114027040I-1675000J0D01*
G01*
X153061600Y-114027040D02*
X143736600Y-114027040D01*
X143736600Y-114032040D02*
X143736600Y-118242040D01*
X154736600Y-115702040D02*
X154736600Y-119917040D01*
X154736600Y-119917040D02*
X151141600Y-119917040D01*
G04 #@! TO.C,K23*
X168525000Y-115050240D02*
X162795000Y-115050240D01*
X170200000Y-116725240D02*
G75*
G03X168525000Y-115050240I-1675000J0D01*
G01*
X173795000Y-112510240D02*
G75*
G03X172120000Y-110835240I-1675000J0D01*
G01*
X172120000Y-110835240D02*
X162795000Y-110835240D01*
X162795000Y-110840240D02*
X162795000Y-115050240D01*
X173795000Y-112510240D02*
X173795000Y-116725240D01*
X173795000Y-116725240D02*
X170200000Y-116725240D01*
G04 #@! TO.C,K24*
X187575000Y-113447240D02*
X181845000Y-113447240D01*
X189250000Y-115122240D02*
G75*
G03X187575000Y-113447240I-1675000J0D01*
G01*
X192845000Y-110907240D02*
G75*
G03X191170000Y-109232240I-1675000J0D01*
G01*
X191170000Y-109232240D02*
X181845000Y-109232240D01*
X181845000Y-109237240D02*
X181845000Y-113447240D01*
X192845000Y-110907240D02*
X192845000Y-115122240D01*
X192845000Y-115122240D02*
X189250000Y-115122240D01*
G04 #@! TO.C,K25*
X206625000Y-115030000D02*
X200895000Y-115030000D01*
X208300000Y-116705000D02*
G75*
G03X206625000Y-115030000I-1675000J0D01*
G01*
X211895000Y-112490000D02*
G75*
G03X210220000Y-110815000I-1675000J0D01*
G01*
X210220000Y-110815000D02*
X200895000Y-110815000D01*
X200895000Y-110820000D02*
X200895000Y-115030000D01*
X211895000Y-112490000D02*
X211895000Y-116705000D01*
X211895000Y-116705000D02*
X208300000Y-116705000D01*
G04 #@! TO.C,K26*
X225675000Y-116340840D02*
X219945000Y-116340840D01*
X227350000Y-118015840D02*
G75*
G03X225675000Y-116340840I-1675000J0D01*
G01*
X230945000Y-113800840D02*
G75*
G03X229270000Y-112125840I-1675000J0D01*
G01*
X229270000Y-112125840D02*
X219945000Y-112125840D01*
X219945000Y-112130840D02*
X219945000Y-116340840D01*
X230945000Y-113800840D02*
X230945000Y-118015840D01*
X230945000Y-118015840D02*
X227350000Y-118015840D01*
G04 #@! TO.C,K27*
X262338437Y-149038989D02*
X259916834Y-154232133D01*
X264564389Y-148228809D02*
G75*
G03X262338437Y-149038989I-707886J-1518066D01*
G01*
X262263614Y-143189297D02*
G75*
G03X260037662Y-143999477I-707886J-1518066D01*
G01*
X260037662Y-143999477D02*
X256096747Y-152450797D01*
X256101279Y-152452910D02*
X259916834Y-154232133D01*
X262263613Y-143189297D02*
X266083701Y-144970633D01*
X266083701Y-144970633D02*
X264564388Y-148228809D01*
G04 #@! TO.C,K28*
X283471139Y-160803800D02*
X285892742Y-155610656D01*
X281245187Y-161613980D02*
G75*
G03X283471139Y-160803800I707886J1518066D01*
G01*
X283545962Y-166653492D02*
G75*
G03X285771914Y-165843312I707886J1518066D01*
G01*
X285771914Y-165843312D02*
X289712829Y-157391992D01*
X289708297Y-157389879D02*
X285892742Y-155610656D01*
X283545963Y-166653492D02*
X279725875Y-164872156D01*
X279725875Y-164872156D02*
X281245188Y-161613980D01*
G04 #@! TO.C,K29*
X125665000Y-137280000D02*
X119935000Y-137280000D01*
X127340000Y-138955000D02*
G75*
G03X125665000Y-137280000I-1675000J0D01*
G01*
X130935000Y-134740000D02*
G75*
G03X129260000Y-133065000I-1675000J0D01*
G01*
X129260000Y-133065000D02*
X119935000Y-133065000D01*
X119935000Y-133070000D02*
X119935000Y-137280000D01*
X130935000Y-134740000D02*
X130935000Y-138955000D01*
X130935000Y-138955000D02*
X127340000Y-138955000D01*
G04 #@! TO.C,K30*
X149475000Y-137280000D02*
X143745000Y-137280000D01*
X151150000Y-138955000D02*
G75*
G03X149475000Y-137280000I-1675000J0D01*
G01*
X154745000Y-134740000D02*
G75*
G03X153070000Y-133065000I-1675000J0D01*
G01*
X153070000Y-133065000D02*
X143745000Y-133065000D01*
X143745000Y-133070000D02*
X143745000Y-137280000D01*
X154745000Y-134740000D02*
X154745000Y-138955000D01*
X154745000Y-138955000D02*
X151150000Y-138955000D01*
G04 #@! TO.C,K31*
X168525000Y-134100000D02*
X162795000Y-134100000D01*
X170200000Y-135775000D02*
G75*
G03X168525000Y-134100000I-1675000J0D01*
G01*
X173795000Y-131560000D02*
G75*
G03X172120000Y-129885000I-1675000J0D01*
G01*
X172120000Y-129885000D02*
X162795000Y-129885000D01*
X162795000Y-129890000D02*
X162795000Y-134100000D01*
X173795000Y-131560000D02*
X173795000Y-135775000D01*
X173795000Y-135775000D02*
X170200000Y-135775000D01*
G04 #@! TO.C,K32*
X187575000Y-132490000D02*
X181845000Y-132490000D01*
X189250000Y-134165000D02*
G75*
G03X187575000Y-132490000I-1675000J0D01*
G01*
X192845000Y-129950000D02*
G75*
G03X191170000Y-128275000I-1675000J0D01*
G01*
X191170000Y-128275000D02*
X181845000Y-128275000D01*
X181845000Y-128280000D02*
X181845000Y-132490000D01*
X192845000Y-129950000D02*
X192845000Y-134165000D01*
X192845000Y-134165000D02*
X189250000Y-134165000D01*
G04 #@! TO.C,K33*
X206625000Y-134070000D02*
X200895000Y-134070000D01*
X208300000Y-135745000D02*
G75*
G03X206625000Y-134070000I-1675000J0D01*
G01*
X211895000Y-131530000D02*
G75*
G03X210220000Y-129855000I-1675000J0D01*
G01*
X210220000Y-129855000D02*
X200895000Y-129855000D01*
X200895000Y-129860000D02*
X200895000Y-134070000D01*
X211895000Y-131530000D02*
X211895000Y-135745000D01*
X211895000Y-135745000D02*
X208300000Y-135745000D01*
G04 #@! TO.C,K34*
X225675000Y-135370000D02*
X219945000Y-135370000D01*
X227350000Y-137045000D02*
G75*
G03X225675000Y-135370000I-1675000J0D01*
G01*
X230945000Y-132830000D02*
G75*
G03X229270000Y-131155000I-1675000J0D01*
G01*
X229270000Y-131155000D02*
X219945000Y-131155000D01*
X219945000Y-131160000D02*
X219945000Y-135370000D01*
X230945000Y-132830000D02*
X230945000Y-137045000D01*
X230945000Y-137045000D02*
X227350000Y-137045000D01*
G04 #@! TO.C,K35*
X244725000Y-130610000D02*
X238995000Y-130610000D01*
X246400000Y-132285000D02*
G75*
G03X244725000Y-130610000I-1675000J0D01*
G01*
X249995000Y-128070000D02*
G75*
G03X248320000Y-126395000I-1675000J0D01*
G01*
X248320000Y-126395000D02*
X238995000Y-126395000D01*
X238995000Y-126400000D02*
X238995000Y-130610000D01*
X249995000Y-128070000D02*
X249995000Y-132285000D01*
X249995000Y-132285000D02*
X246400000Y-132285000D01*
G04 #@! TO.C,K36*
X275292612Y-170285793D02*
X273773299Y-173543969D01*
X271472524Y-168504457D02*
X275292612Y-170285793D01*
X265310190Y-177768070D02*
X269125745Y-179547293D01*
X269246573Y-169314637D02*
X265305658Y-177765957D01*
X271472525Y-168504457D02*
G75*
G03X269246573Y-169314637I-707886J-1518066D01*
G01*
X273773300Y-173543969D02*
G75*
G03X271547348Y-174354149I-707886J-1518066D01*
G01*
X271547348Y-174354149D02*
X269125745Y-179547293D01*
G04 #@! TO.C,K37*
X130425000Y-156330000D02*
X124695000Y-156330000D01*
X132100000Y-158005000D02*
G75*
G03X130425000Y-156330000I-1675000J0D01*
G01*
X135695000Y-153790000D02*
G75*
G03X134020000Y-152115000I-1675000J0D01*
G01*
X134020000Y-152115000D02*
X124695000Y-152115000D01*
X124695000Y-152120000D02*
X124695000Y-156330000D01*
X135695000Y-153790000D02*
X135695000Y-158005000D01*
X135695000Y-158005000D02*
X132100000Y-158005000D01*
G04 #@! TO.C,K38*
X149475000Y-156330000D02*
X143745000Y-156330000D01*
X151150000Y-158005000D02*
G75*
G03X149475000Y-156330000I-1675000J0D01*
G01*
X154745000Y-153790000D02*
G75*
G03X153070000Y-152115000I-1675000J0D01*
G01*
X153070000Y-152115000D02*
X143745000Y-152115000D01*
X143745000Y-152120000D02*
X143745000Y-156330000D01*
X154745000Y-153790000D02*
X154745000Y-158005000D01*
X154745000Y-158005000D02*
X151150000Y-158005000D01*
G04 #@! TO.C,K39*
X168525000Y-153130000D02*
X162795000Y-153130000D01*
X170200000Y-154805000D02*
G75*
G03X168525000Y-153130000I-1675000J0D01*
G01*
X173795000Y-150590000D02*
G75*
G03X172120000Y-148915000I-1675000J0D01*
G01*
X172120000Y-148915000D02*
X162795000Y-148915000D01*
X162795000Y-148920000D02*
X162795000Y-153130000D01*
X173795000Y-150590000D02*
X173795000Y-154805000D01*
X173795000Y-154805000D02*
X170200000Y-154805000D01*
G04 #@! TO.C,K40*
X187575000Y-151530000D02*
X181845000Y-151530000D01*
X189250000Y-153205000D02*
G75*
G03X187575000Y-151530000I-1675000J0D01*
G01*
X192845000Y-148990000D02*
G75*
G03X191170000Y-147315000I-1675000J0D01*
G01*
X191170000Y-147315000D02*
X181845000Y-147315000D01*
X181845000Y-147320000D02*
X181845000Y-151530000D01*
X192845000Y-148990000D02*
X192845000Y-153205000D01*
X192845000Y-153205000D02*
X189250000Y-153205000D01*
G04 #@! TO.C,K41*
X206625000Y-153110000D02*
X200895000Y-153110000D01*
X208300000Y-154785000D02*
G75*
G03X206625000Y-153110000I-1675000J0D01*
G01*
X211895000Y-150570000D02*
G75*
G03X210220000Y-148895000I-1675000J0D01*
G01*
X210220000Y-148895000D02*
X200895000Y-148895000D01*
X200895000Y-148900000D02*
X200895000Y-153110000D01*
X211895000Y-150570000D02*
X211895000Y-154785000D01*
X211895000Y-154785000D02*
X208300000Y-154785000D01*
G04 #@! TO.C,K42*
X233015979Y-166851001D02*
X230594376Y-172044145D01*
X235241931Y-166040821D02*
G75*
G03X233015979Y-166851001I-707886J-1518066D01*
G01*
X232941156Y-161001309D02*
G75*
G03X230715204Y-161811489I-707886J-1518066D01*
G01*
X230715204Y-161811489D02*
X226774289Y-170262809D01*
X226778821Y-170264922D02*
X230594376Y-172044145D01*
X232941155Y-161001309D02*
X236761243Y-162782645D01*
X236761243Y-162782645D02*
X235241930Y-166040821D01*
G04 #@! TO.C,K43*
X254031887Y-170800825D02*
X252512574Y-174059001D01*
X250211799Y-169019489D02*
X254031887Y-170800825D01*
X244049465Y-178283102D02*
X247865020Y-180062325D01*
X247985848Y-169829669D02*
X244044933Y-178280989D01*
X250211800Y-169019489D02*
G75*
G03X247985848Y-169829669I-707886J-1518066D01*
G01*
X252512575Y-174059001D02*
G75*
G03X250286623Y-174869181I-707886J-1518066D01*
G01*
X250286623Y-174869181D02*
X247865020Y-180062325D01*
G04 #@! TO.C,K44*
X263514494Y-191593781D02*
X261092891Y-196786925D01*
X265740446Y-190783601D02*
G75*
G03X263514494Y-191593781I-707886J-1518066D01*
G01*
X263439671Y-185744089D02*
G75*
G03X261213719Y-186554269I-707886J-1518066D01*
G01*
X261213719Y-186554269D02*
X257272804Y-195005589D01*
X257277336Y-195007702D02*
X261092891Y-196786925D01*
X263439670Y-185744089D02*
X267259758Y-187525425D01*
X267259758Y-187525425D02*
X265740445Y-190783601D01*
G04 #@! TO.C,R1*
X206845920Y-40675460D02*
X202845920Y-40675460D01*
X202845920Y-40675460D02*
X202645920Y-40875460D01*
X202645920Y-40875460D02*
X202245920Y-40875460D01*
X202245920Y-40875460D02*
X202045920Y-40675460D01*
X202045920Y-40675460D02*
X201845920Y-39875460D01*
X201845920Y-39875460D02*
X202045920Y-39075460D01*
X202045920Y-39075460D02*
X202245920Y-38875460D01*
X202245920Y-38875460D02*
X202645920Y-38875460D01*
X202645920Y-38875460D02*
X202845920Y-39075460D01*
X202845920Y-39075460D02*
X206845920Y-39075460D01*
X206845920Y-39075460D02*
X207045920Y-38875460D01*
X207045920Y-38875460D02*
X207445920Y-38875460D01*
X207445920Y-38875460D02*
X207645920Y-39075460D01*
X207645920Y-39075460D02*
X207845920Y-39875460D01*
X207845920Y-39875460D02*
X207645920Y-40675460D01*
X207645920Y-40675460D02*
X207445920Y-40875460D01*
X207445920Y-40875460D02*
X207045920Y-40875460D01*
X207045920Y-40875460D02*
X206845920Y-40675460D01*
X209045920Y-39875460D02*
X207845920Y-39875460D01*
X201845920Y-39875460D02*
X200645920Y-39875460D01*
G04 #@! TO.C,R2*
X187907680Y-40675460D02*
X183907680Y-40675460D01*
X183907680Y-40675460D02*
X183707680Y-40875460D01*
X183707680Y-40875460D02*
X183307680Y-40875460D01*
X183307680Y-40875460D02*
X183107680Y-40675460D01*
X183107680Y-40675460D02*
X182907680Y-39875460D01*
X182907680Y-39875460D02*
X183107680Y-39075460D01*
X183107680Y-39075460D02*
X183307680Y-38875460D01*
X183307680Y-38875460D02*
X183707680Y-38875460D01*
X183707680Y-38875460D02*
X183907680Y-39075460D01*
X183907680Y-39075460D02*
X187907680Y-39075460D01*
X187907680Y-39075460D02*
X188107680Y-38875460D01*
X188107680Y-38875460D02*
X188507680Y-38875460D01*
X188507680Y-38875460D02*
X188707680Y-39075460D01*
X188707680Y-39075460D02*
X188907680Y-39875460D01*
X188907680Y-39875460D02*
X188707680Y-40675460D01*
X188707680Y-40675460D02*
X188507680Y-40875460D01*
X188507680Y-40875460D02*
X188107680Y-40875460D01*
X188107680Y-40875460D02*
X187907680Y-40675460D01*
X190107680Y-39875460D02*
X188907680Y-39875460D01*
X182907680Y-39875460D02*
X181707680Y-39875460D01*
G04 #@! TO.C,D25*
X215266065Y-122939326D02*
X214466065Y-122939326D01*
X214466065Y-122772659D01*
X214504161Y-122672659D01*
X214580351Y-122605992D01*
X214656541Y-122572659D01*
X214808922Y-122539326D01*
X214923208Y-122539326D01*
X215075589Y-122572659D01*
X215151780Y-122605992D01*
X215227970Y-122672659D01*
X215266065Y-122772659D01*
X215266065Y-122939326D01*
X214542256Y-122272659D02*
X214504161Y-122239326D01*
X214466065Y-122172659D01*
X214466065Y-122005992D01*
X214504161Y-121939326D01*
X214542256Y-121905992D01*
X214618446Y-121872659D01*
X214694637Y-121872659D01*
X214808922Y-121905992D01*
X215266065Y-122305992D01*
X215266065Y-121872659D01*
X214466065Y-121239326D02*
X214466065Y-121572659D01*
X214847018Y-121605992D01*
X214808922Y-121572659D01*
X214770827Y-121505992D01*
X214770827Y-121339326D01*
X214808922Y-121272659D01*
X214847018Y-121239326D01*
X214923208Y-121205992D01*
X215113684Y-121205992D01*
X215189875Y-121239326D01*
X215227970Y-121272659D01*
X215266065Y-121339326D01*
X215266065Y-121505992D01*
X215227970Y-121572659D01*
X215189875Y-121605992D01*
G04 #@! TO.C,D26*
X234316065Y-124250166D02*
X233516065Y-124250166D01*
X233516065Y-124083499D01*
X233554161Y-123983499D01*
X233630351Y-123916832D01*
X233706541Y-123883499D01*
X233858922Y-123850166D01*
X233973208Y-123850166D01*
X234125589Y-123883499D01*
X234201780Y-123916832D01*
X234277970Y-123983499D01*
X234316065Y-124083499D01*
X234316065Y-124250166D01*
X233592256Y-123583499D02*
X233554161Y-123550166D01*
X233516065Y-123483499D01*
X233516065Y-123316832D01*
X233554161Y-123250166D01*
X233592256Y-123216832D01*
X233668446Y-123183499D01*
X233744637Y-123183499D01*
X233858922Y-123216832D01*
X234316065Y-123616832D01*
X234316065Y-123183499D01*
X233516065Y-122583499D02*
X233516065Y-122716832D01*
X233554161Y-122783499D01*
X233592256Y-122816832D01*
X233706541Y-122883499D01*
X233858922Y-122916832D01*
X234163684Y-122916832D01*
X234239875Y-122883499D01*
X234277970Y-122850166D01*
X234316065Y-122783499D01*
X234316065Y-122650166D01*
X234277970Y-122583499D01*
X234239875Y-122550166D01*
X234163684Y-122516832D01*
X233973208Y-122516832D01*
X233897018Y-122550166D01*
X233858922Y-122583499D01*
X233820827Y-122650166D01*
X233820827Y-122783499D01*
X233858922Y-122850166D01*
X233897018Y-122883499D01*
X233973208Y-122916832D01*
G04 #@! TO.C,D27*
X257103131Y-144862569D02*
X256378085Y-144524474D01*
X256448521Y-144373423D01*
X256525309Y-144298892D01*
X256622536Y-144270671D01*
X256705675Y-144272660D01*
X256857866Y-144306849D01*
X256961444Y-144355148D01*
X257085461Y-144449757D01*
X257140426Y-144512167D01*
X257181303Y-144604787D01*
X257173567Y-144711517D01*
X257103131Y-144862569D01*
X256728882Y-143952468D02*
X256708444Y-143906158D01*
X256702092Y-143829638D01*
X256772529Y-143678587D01*
X256835229Y-143634266D01*
X256883842Y-143620156D01*
X256966982Y-143622145D01*
X257036034Y-143654344D01*
X257125524Y-143732854D01*
X257370789Y-144288574D01*
X257553924Y-143895840D01*
X256927489Y-143346274D02*
X257124710Y-142923330D01*
X257722971Y-143533317D01*
G04 #@! TO.C,D28*
X271885931Y-157968969D02*
X271160885Y-157630874D01*
X271231321Y-157479823D01*
X271308109Y-157405292D01*
X271405336Y-157377071D01*
X271488475Y-157379060D01*
X271640666Y-157413249D01*
X271744244Y-157461548D01*
X271868261Y-157556157D01*
X271923226Y-157618567D01*
X271964103Y-157711187D01*
X271956367Y-157817917D01*
X271885931Y-157968969D01*
X271511682Y-157058868D02*
X271491244Y-157012558D01*
X271484892Y-156936038D01*
X271555329Y-156784987D01*
X271618029Y-156740666D01*
X271666642Y-156726556D01*
X271749782Y-156728545D01*
X271818834Y-156760744D01*
X271908324Y-156839254D01*
X272153589Y-157394974D01*
X272336724Y-157002240D01*
X272091459Y-156446520D02*
X272028759Y-156490841D01*
X271980145Y-156504952D01*
X271897006Y-156502962D01*
X271862480Y-156486863D01*
X271807515Y-156424453D01*
X271787076Y-156378143D01*
X271780725Y-156301623D01*
X271837074Y-156180782D01*
X271899775Y-156136461D01*
X271948388Y-156122350D01*
X272031527Y-156124340D01*
X272066053Y-156140439D01*
X272121018Y-156202849D01*
X272141457Y-156249159D01*
X272147808Y-156325679D01*
X272091459Y-156446520D01*
X272097811Y-156523041D01*
X272118249Y-156569351D01*
X272173214Y-156631760D01*
X272311318Y-156696159D01*
X272394457Y-156698149D01*
X272443071Y-156684038D01*
X272505771Y-156639717D01*
X272562120Y-156518876D01*
X272555769Y-156442356D01*
X272535330Y-156396046D01*
X272480365Y-156333636D01*
X272342261Y-156269237D01*
X272259122Y-156267248D01*
X272210509Y-156281359D01*
X272147808Y-156325679D01*
G04 #@! TO.C,D29*
X134306065Y-145189326D02*
X133506065Y-145189326D01*
X133506065Y-145022659D01*
X133544161Y-144922659D01*
X133620351Y-144855992D01*
X133696541Y-144822659D01*
X133848922Y-144789326D01*
X133963208Y-144789326D01*
X134115589Y-144822659D01*
X134191780Y-144855992D01*
X134267970Y-144922659D01*
X134306065Y-145022659D01*
X134306065Y-145189326D01*
X133582256Y-144522659D02*
X133544161Y-144489326D01*
X133506065Y-144422659D01*
X133506065Y-144255992D01*
X133544161Y-144189326D01*
X133582256Y-144155992D01*
X133658446Y-144122659D01*
X133734637Y-144122659D01*
X133848922Y-144155992D01*
X134306065Y-144555992D01*
X134306065Y-144122659D01*
X134306065Y-143789326D02*
X134306065Y-143655992D01*
X134267970Y-143589326D01*
X134229875Y-143555992D01*
X134115589Y-143489326D01*
X133963208Y-143455992D01*
X133658446Y-143455992D01*
X133582256Y-143489326D01*
X133544161Y-143522659D01*
X133506065Y-143589326D01*
X133506065Y-143722659D01*
X133544161Y-143789326D01*
X133582256Y-143822659D01*
X133658446Y-143855992D01*
X133848922Y-143855992D01*
X133925113Y-143822659D01*
X133963208Y-143789326D01*
X134001303Y-143722659D01*
X134001303Y-143589326D01*
X133963208Y-143522659D01*
X133925113Y-143489326D01*
X133848922Y-143455992D01*
G04 #@! TO.C,D30*
X158116065Y-145189326D02*
X157316065Y-145189326D01*
X157316065Y-145022659D01*
X157354161Y-144922659D01*
X157430351Y-144855992D01*
X157506541Y-144822659D01*
X157658922Y-144789326D01*
X157773208Y-144789326D01*
X157925589Y-144822659D01*
X158001780Y-144855992D01*
X158077970Y-144922659D01*
X158116065Y-145022659D01*
X158116065Y-145189326D01*
X157316065Y-144555992D02*
X157316065Y-144122659D01*
X157620827Y-144355992D01*
X157620827Y-144255992D01*
X157658922Y-144189326D01*
X157697018Y-144155992D01*
X157773208Y-144122659D01*
X157963684Y-144122659D01*
X158039875Y-144155992D01*
X158077970Y-144189326D01*
X158116065Y-144255992D01*
X158116065Y-144455992D01*
X158077970Y-144522659D01*
X158039875Y-144555992D01*
X157316065Y-143689326D02*
X157316065Y-143622659D01*
X157354161Y-143555992D01*
X157392256Y-143522659D01*
X157468446Y-143489326D01*
X157620827Y-143455992D01*
X157811303Y-143455992D01*
X157963684Y-143489326D01*
X158039875Y-143522659D01*
X158077970Y-143555992D01*
X158116065Y-143622659D01*
X158116065Y-143689326D01*
X158077970Y-143755992D01*
X158039875Y-143789326D01*
X157963684Y-143822659D01*
X157811303Y-143855992D01*
X157620827Y-143855992D01*
X157468446Y-143822659D01*
X157392256Y-143789326D01*
X157354161Y-143755992D01*
X157316065Y-143689326D01*
G04 #@! TO.C,D31*
X177166065Y-142009326D02*
X176366065Y-142009326D01*
X176366065Y-141842659D01*
X176404161Y-141742659D01*
X176480351Y-141675992D01*
X176556541Y-141642659D01*
X176708922Y-141609326D01*
X176823208Y-141609326D01*
X176975589Y-141642659D01*
X177051780Y-141675992D01*
X177127970Y-141742659D01*
X177166065Y-141842659D01*
X177166065Y-142009326D01*
X176366065Y-141375992D02*
X176366065Y-140942659D01*
X176670827Y-141175992D01*
X176670827Y-141075992D01*
X176708922Y-141009326D01*
X176747018Y-140975992D01*
X176823208Y-140942659D01*
X177013684Y-140942659D01*
X177089875Y-140975992D01*
X177127970Y-141009326D01*
X177166065Y-141075992D01*
X177166065Y-141275992D01*
X177127970Y-141342659D01*
X177089875Y-141375992D01*
X177166065Y-140275992D02*
X177166065Y-140675992D01*
X177166065Y-140475992D02*
X176366065Y-140475992D01*
X176480351Y-140542659D01*
X176556541Y-140609326D01*
X176594637Y-140675992D01*
G04 #@! TO.C,D32*
X196216065Y-140399326D02*
X195416065Y-140399326D01*
X195416065Y-140232659D01*
X195454161Y-140132659D01*
X195530351Y-140065992D01*
X195606541Y-140032659D01*
X195758922Y-139999326D01*
X195873208Y-139999326D01*
X196025589Y-140032659D01*
X196101780Y-140065992D01*
X196177970Y-140132659D01*
X196216065Y-140232659D01*
X196216065Y-140399326D01*
X195416065Y-139765992D02*
X195416065Y-139332659D01*
X195720827Y-139565992D01*
X195720827Y-139465992D01*
X195758922Y-139399326D01*
X195797018Y-139365992D01*
X195873208Y-139332659D01*
X196063684Y-139332659D01*
X196139875Y-139365992D01*
X196177970Y-139399326D01*
X196216065Y-139465992D01*
X196216065Y-139665992D01*
X196177970Y-139732659D01*
X196139875Y-139765992D01*
X195492256Y-139065992D02*
X195454161Y-139032659D01*
X195416065Y-138965992D01*
X195416065Y-138799326D01*
X195454161Y-138732659D01*
X195492256Y-138699326D01*
X195568446Y-138665992D01*
X195644637Y-138665992D01*
X195758922Y-138699326D01*
X196216065Y-139099326D01*
X196216065Y-138665992D01*
G04 #@! TO.C,D33*
X215266065Y-141979326D02*
X214466065Y-141979326D01*
X214466065Y-141812659D01*
X214504161Y-141712659D01*
X214580351Y-141645992D01*
X214656541Y-141612659D01*
X214808922Y-141579326D01*
X214923208Y-141579326D01*
X215075589Y-141612659D01*
X215151780Y-141645992D01*
X215227970Y-141712659D01*
X215266065Y-141812659D01*
X215266065Y-141979326D01*
X214466065Y-141345992D02*
X214466065Y-140912659D01*
X214770827Y-141145992D01*
X214770827Y-141045992D01*
X214808922Y-140979326D01*
X214847018Y-140945992D01*
X214923208Y-140912659D01*
X215113684Y-140912659D01*
X215189875Y-140945992D01*
X215227970Y-140979326D01*
X215266065Y-141045992D01*
X215266065Y-141245992D01*
X215227970Y-141312659D01*
X215189875Y-141345992D01*
X214466065Y-140679326D02*
X214466065Y-140245992D01*
X214770827Y-140479326D01*
X214770827Y-140379326D01*
X214808922Y-140312659D01*
X214847018Y-140279326D01*
X214923208Y-140245992D01*
X215113684Y-140245992D01*
X215189875Y-140279326D01*
X215227970Y-140312659D01*
X215266065Y-140379326D01*
X215266065Y-140579326D01*
X215227970Y-140645992D01*
X215189875Y-140679326D01*
G04 #@! TO.C,D34*
X234316065Y-143279326D02*
X233516065Y-143279326D01*
X233516065Y-143112659D01*
X233554161Y-143012659D01*
X233630351Y-142945992D01*
X233706541Y-142912659D01*
X233858922Y-142879326D01*
X233973208Y-142879326D01*
X234125589Y-142912659D01*
X234201780Y-142945992D01*
X234277970Y-143012659D01*
X234316065Y-143112659D01*
X234316065Y-143279326D01*
X233516065Y-142645992D02*
X233516065Y-142212659D01*
X233820827Y-142445992D01*
X233820827Y-142345992D01*
X233858922Y-142279326D01*
X233897018Y-142245992D01*
X233973208Y-142212659D01*
X234163684Y-142212659D01*
X234239875Y-142245992D01*
X234277970Y-142279326D01*
X234316065Y-142345992D01*
X234316065Y-142545992D01*
X234277970Y-142612659D01*
X234239875Y-142645992D01*
X233782732Y-141612659D02*
X234316065Y-141612659D01*
X233477970Y-141779326D02*
X234049399Y-141945992D01*
X234049399Y-141512659D01*
G04 #@! TO.C,D12*
X234316065Y-86152846D02*
X233516065Y-86152846D01*
X233516065Y-85986179D01*
X233554161Y-85886179D01*
X233630351Y-85819512D01*
X233706541Y-85786179D01*
X233858922Y-85752846D01*
X233973208Y-85752846D01*
X234125589Y-85786179D01*
X234201780Y-85819512D01*
X234277970Y-85886179D01*
X234316065Y-85986179D01*
X234316065Y-86152846D01*
X234316065Y-85086179D02*
X234316065Y-85486179D01*
X234316065Y-85286179D02*
X233516065Y-85286179D01*
X233630351Y-85352846D01*
X233706541Y-85419512D01*
X233744637Y-85486179D01*
X233592256Y-84819512D02*
X233554161Y-84786179D01*
X233516065Y-84719512D01*
X233516065Y-84552846D01*
X233554161Y-84486179D01*
X233592256Y-84452846D01*
X233668446Y-84419512D01*
X233744637Y-84419512D01*
X233858922Y-84452846D01*
X234316065Y-84852846D01*
X234316065Y-84419512D01*
G04 #@! TO.C,D36*
X267433311Y-168921449D02*
X266708265Y-168583354D01*
X266778701Y-168432303D01*
X266855489Y-168357772D01*
X266952716Y-168329551D01*
X267035855Y-168331540D01*
X267188046Y-168365729D01*
X267291624Y-168414028D01*
X267415641Y-168508637D01*
X267470606Y-168571047D01*
X267511483Y-168663667D01*
X267503747Y-168770397D01*
X267433311Y-168921449D01*
X266975923Y-168009359D02*
X267159058Y-167616626D01*
X267336655Y-167956896D01*
X267378917Y-167866265D01*
X267441617Y-167821944D01*
X267490230Y-167807833D01*
X267573370Y-167809823D01*
X267746000Y-167890321D01*
X267800965Y-167952731D01*
X267821403Y-167999041D01*
X267827755Y-168075561D01*
X267743231Y-168256823D01*
X267680531Y-168301144D01*
X267631917Y-168315254D01*
X267412629Y-167072841D02*
X267356280Y-167193682D01*
X267362631Y-167270202D01*
X267383070Y-167316512D01*
X267458473Y-167425232D01*
X267582490Y-167519841D01*
X267858698Y-167648639D01*
X267941837Y-167650629D01*
X267990451Y-167636518D01*
X268053151Y-167592197D01*
X268109500Y-167471356D01*
X268103149Y-167394836D01*
X268082710Y-167348526D01*
X268027745Y-167286116D01*
X267855115Y-167205617D01*
X267771976Y-167203628D01*
X267723363Y-167217739D01*
X267660662Y-167262060D01*
X267604313Y-167382901D01*
X267610665Y-167459421D01*
X267631103Y-167505731D01*
X267686068Y-167568141D01*
G04 #@! TO.C,D37*
X139421904Y-163800000D02*
X138621904Y-163800000D01*
X138621904Y-163633333D01*
X138660000Y-163533333D01*
X138736190Y-163466666D01*
X138812380Y-163433333D01*
X138964761Y-163400000D01*
X139079047Y-163400000D01*
X139231428Y-163433333D01*
X139307619Y-163466666D01*
X139383809Y-163533333D01*
X139421904Y-163633333D01*
X139421904Y-163800000D01*
X138621904Y-163166666D02*
X138621904Y-162733333D01*
X138926666Y-162966666D01*
X138926666Y-162866666D01*
X138964761Y-162800000D01*
X139002857Y-162766666D01*
X139079047Y-162733333D01*
X139269523Y-162733333D01*
X139345714Y-162766666D01*
X139383809Y-162800000D01*
X139421904Y-162866666D01*
X139421904Y-163066666D01*
X139383809Y-163133333D01*
X139345714Y-163166666D01*
X138621904Y-162500000D02*
X138621904Y-162033333D01*
X139421904Y-162333333D01*
G04 #@! TO.C,D38*
X158541904Y-163880000D02*
X157741904Y-163880000D01*
X157741904Y-163713333D01*
X157780000Y-163613333D01*
X157856190Y-163546666D01*
X157932380Y-163513333D01*
X158084761Y-163480000D01*
X158199047Y-163480000D01*
X158351428Y-163513333D01*
X158427619Y-163546666D01*
X158503809Y-163613333D01*
X158541904Y-163713333D01*
X158541904Y-163880000D01*
X157741904Y-163246666D02*
X157741904Y-162813333D01*
X158046666Y-163046666D01*
X158046666Y-162946666D01*
X158084761Y-162880000D01*
X158122857Y-162846666D01*
X158199047Y-162813333D01*
X158389523Y-162813333D01*
X158465714Y-162846666D01*
X158503809Y-162880000D01*
X158541904Y-162946666D01*
X158541904Y-163146666D01*
X158503809Y-163213333D01*
X158465714Y-163246666D01*
X158084761Y-162413333D02*
X158046666Y-162480000D01*
X158008571Y-162513333D01*
X157932380Y-162546666D01*
X157894285Y-162546666D01*
X157818095Y-162513333D01*
X157780000Y-162480000D01*
X157741904Y-162413333D01*
X157741904Y-162280000D01*
X157780000Y-162213333D01*
X157818095Y-162180000D01*
X157894285Y-162146666D01*
X157932380Y-162146666D01*
X158008571Y-162180000D01*
X158046666Y-162213333D01*
X158084761Y-162280000D01*
X158084761Y-162413333D01*
X158122857Y-162480000D01*
X158160952Y-162513333D01*
X158237142Y-162546666D01*
X158389523Y-162546666D01*
X158465714Y-162513333D01*
X158503809Y-162480000D01*
X158541904Y-162413333D01*
X158541904Y-162280000D01*
X158503809Y-162213333D01*
X158465714Y-162180000D01*
X158389523Y-162146666D01*
X158237142Y-162146666D01*
X158160952Y-162180000D01*
X158122857Y-162213333D01*
X158084761Y-162280000D01*
G04 #@! TO.C,D39*
X177166065Y-161039326D02*
X176366065Y-161039326D01*
X176366065Y-160872659D01*
X176404161Y-160772659D01*
X176480351Y-160705992D01*
X176556541Y-160672659D01*
X176708922Y-160639326D01*
X176823208Y-160639326D01*
X176975589Y-160672659D01*
X177051780Y-160705992D01*
X177127970Y-160772659D01*
X177166065Y-160872659D01*
X177166065Y-161039326D01*
X176366065Y-160405992D02*
X176366065Y-159972659D01*
X176670827Y-160205992D01*
X176670827Y-160105992D01*
X176708922Y-160039326D01*
X176747018Y-160005992D01*
X176823208Y-159972659D01*
X177013684Y-159972659D01*
X177089875Y-160005992D01*
X177127970Y-160039326D01*
X177166065Y-160105992D01*
X177166065Y-160305992D01*
X177127970Y-160372659D01*
X177089875Y-160405992D01*
X177166065Y-159639326D02*
X177166065Y-159505992D01*
X177127970Y-159439326D01*
X177089875Y-159405992D01*
X176975589Y-159339326D01*
X176823208Y-159305992D01*
X176518446Y-159305992D01*
X176442256Y-159339326D01*
X176404161Y-159372659D01*
X176366065Y-159439326D01*
X176366065Y-159572659D01*
X176404161Y-159639326D01*
X176442256Y-159672659D01*
X176518446Y-159705992D01*
X176708922Y-159705992D01*
X176785113Y-159672659D01*
X176823208Y-159639326D01*
X176861303Y-159572659D01*
X176861303Y-159439326D01*
X176823208Y-159372659D01*
X176785113Y-159339326D01*
X176708922Y-159305992D01*
G04 #@! TO.C,D40*
X196216065Y-159439326D02*
X195416065Y-159439326D01*
X195416065Y-159272659D01*
X195454161Y-159172659D01*
X195530351Y-159105992D01*
X195606541Y-159072659D01*
X195758922Y-159039326D01*
X195873208Y-159039326D01*
X196025589Y-159072659D01*
X196101780Y-159105992D01*
X196177970Y-159172659D01*
X196216065Y-159272659D01*
X196216065Y-159439326D01*
X195682732Y-158439326D02*
X196216065Y-158439326D01*
X195377970Y-158605992D02*
X195949399Y-158772659D01*
X195949399Y-158339326D01*
X195416065Y-157939326D02*
X195416065Y-157872659D01*
X195454161Y-157805992D01*
X195492256Y-157772659D01*
X195568446Y-157739326D01*
X195720827Y-157705992D01*
X195911303Y-157705992D01*
X196063684Y-157739326D01*
X196139875Y-157772659D01*
X196177970Y-157805992D01*
X196216065Y-157872659D01*
X196216065Y-157939326D01*
X196177970Y-158005992D01*
X196139875Y-158039326D01*
X196063684Y-158072659D01*
X195911303Y-158105992D01*
X195720827Y-158105992D01*
X195568446Y-158072659D01*
X195492256Y-158039326D01*
X195454161Y-158005992D01*
X195416065Y-157939326D01*
G04 #@! TO.C,D41*
X215266065Y-161019326D02*
X214466065Y-161019326D01*
X214466065Y-160852659D01*
X214504161Y-160752659D01*
X214580351Y-160685992D01*
X214656541Y-160652659D01*
X214808922Y-160619326D01*
X214923208Y-160619326D01*
X215075589Y-160652659D01*
X215151780Y-160685992D01*
X215227970Y-160752659D01*
X215266065Y-160852659D01*
X215266065Y-161019326D01*
X214732732Y-160019326D02*
X215266065Y-160019326D01*
X214427970Y-160185992D02*
X214999399Y-160352659D01*
X214999399Y-159919326D01*
X215266065Y-159285992D02*
X215266065Y-159685992D01*
X215266065Y-159485992D02*
X214466065Y-159485992D01*
X214580351Y-159552659D01*
X214656541Y-159619326D01*
X214694637Y-159685992D01*
G04 #@! TO.C,D42*
X245198771Y-170693309D02*
X244473725Y-170355214D01*
X244544161Y-170204163D01*
X244620949Y-170129632D01*
X244718176Y-170101411D01*
X244801315Y-170103400D01*
X244953506Y-170137589D01*
X245057084Y-170185888D01*
X245181101Y-170280497D01*
X245236066Y-170342907D01*
X245276943Y-170435527D01*
X245269207Y-170542257D01*
X245198771Y-170693309D01*
X245138025Y-169561604D02*
X245621389Y-169787001D01*
X244791381Y-169583858D02*
X245238835Y-169976405D01*
X245421969Y-169583672D01*
X245106268Y-169179003D02*
X245085829Y-169132693D01*
X245079478Y-169056173D01*
X245149914Y-168905122D01*
X245212615Y-168860801D01*
X245261228Y-168846690D01*
X245344367Y-168848680D01*
X245413419Y-168880879D01*
X245502910Y-168959389D01*
X245748175Y-169515109D01*
X245931309Y-169122375D01*
G04 #@! TO.C,D43*
X252693691Y-163338529D02*
X251968645Y-163000434D01*
X252039081Y-162849383D01*
X252115869Y-162774852D01*
X252213096Y-162746631D01*
X252296235Y-162748620D01*
X252448426Y-162782809D01*
X252552004Y-162831108D01*
X252676021Y-162925717D01*
X252730986Y-162988127D01*
X252771863Y-163080747D01*
X252764127Y-163187477D01*
X252693691Y-163338529D01*
X252632945Y-162206824D02*
X253116309Y-162432221D01*
X252286301Y-162229078D02*
X252733755Y-162621625D01*
X252916889Y-162228892D01*
X252518049Y-161822234D02*
X252701183Y-161429501D01*
X252878780Y-161769770D01*
X252921042Y-161679140D01*
X252983743Y-161634819D01*
X253032356Y-161620708D01*
X253115495Y-161622697D01*
X253288125Y-161703196D01*
X253343090Y-161765606D01*
X253363529Y-161811916D01*
X253369880Y-161888436D01*
X253285357Y-162069698D01*
X253222656Y-162114019D01*
X253174043Y-162128129D01*
G04 #@! TO.C,D44*
X271674570Y-185508151D02*
X272012665Y-184783105D01*
X272163716Y-184853541D01*
X272238247Y-184930329D01*
X272266468Y-185027556D01*
X272264479Y-185110695D01*
X272230290Y-185262886D01*
X272181991Y-185366464D01*
X272087382Y-185490481D01*
X272024972Y-185545446D01*
X271932352Y-185586323D01*
X271825622Y-185578587D01*
X271674570Y-185508151D01*
X272806275Y-185447405D02*
X272580878Y-185930769D01*
X272784021Y-185100761D02*
X272391474Y-185548215D01*
X272784207Y-185731349D01*
X273410480Y-185729151D02*
X273185083Y-186212515D01*
X273388226Y-185382506D02*
X272995679Y-185829960D01*
X273388412Y-186013095D01*
G04 #@! TO.C,D22*
X158107665Y-126151366D02*
X157307665Y-126151366D01*
X157307665Y-125984699D01*
X157345761Y-125884699D01*
X157421951Y-125818032D01*
X157498141Y-125784699D01*
X157650522Y-125751366D01*
X157764808Y-125751366D01*
X157917189Y-125784699D01*
X157993380Y-125818032D01*
X158069570Y-125884699D01*
X158107665Y-125984699D01*
X158107665Y-126151366D01*
X157383856Y-125484699D02*
X157345761Y-125451366D01*
X157307665Y-125384699D01*
X157307665Y-125218032D01*
X157345761Y-125151366D01*
X157383856Y-125118032D01*
X157460046Y-125084699D01*
X157536237Y-125084699D01*
X157650522Y-125118032D01*
X158107665Y-125518032D01*
X158107665Y-125084699D01*
X157383856Y-124818032D02*
X157345761Y-124784699D01*
X157307665Y-124718032D01*
X157307665Y-124551366D01*
X157345761Y-124484699D01*
X157383856Y-124451366D01*
X157460046Y-124418032D01*
X157536237Y-124418032D01*
X157650522Y-124451366D01*
X158107665Y-124851366D01*
X158107665Y-124418032D01*
G04 #@! TO.C,D35*
X251541904Y-139840000D02*
X250741904Y-139840000D01*
X250741904Y-139673333D01*
X250780000Y-139573333D01*
X250856190Y-139506666D01*
X250932380Y-139473333D01*
X251084761Y-139440000D01*
X251199047Y-139440000D01*
X251351428Y-139473333D01*
X251427619Y-139506666D01*
X251503809Y-139573333D01*
X251541904Y-139673333D01*
X251541904Y-139840000D01*
X250741904Y-139206666D02*
X250741904Y-138773333D01*
X251046666Y-139006666D01*
X251046666Y-138906666D01*
X251084761Y-138840000D01*
X251122857Y-138806666D01*
X251199047Y-138773333D01*
X251389523Y-138773333D01*
X251465714Y-138806666D01*
X251503809Y-138840000D01*
X251541904Y-138906666D01*
X251541904Y-139106666D01*
X251503809Y-139173333D01*
X251465714Y-139206666D01*
X250741904Y-138140000D02*
X250741904Y-138473333D01*
X251122857Y-138506666D01*
X251084761Y-138473333D01*
X251046666Y-138406666D01*
X251046666Y-138240000D01*
X251084761Y-138173333D01*
X251122857Y-138140000D01*
X251199047Y-138106666D01*
X251389523Y-138106666D01*
X251465714Y-138140000D01*
X251503809Y-138173333D01*
X251541904Y-138240000D01*
X251541904Y-138406666D01*
X251503809Y-138473333D01*
X251465714Y-138506666D01*
G04 #@! TO.C,D2*
X177156065Y-65483032D02*
X176356065Y-65483032D01*
X176356065Y-65316366D01*
X176394161Y-65216366D01*
X176470351Y-65149699D01*
X176546541Y-65116366D01*
X176698922Y-65083032D01*
X176813208Y-65083032D01*
X176965589Y-65116366D01*
X177041780Y-65149699D01*
X177117970Y-65216366D01*
X177156065Y-65316366D01*
X177156065Y-65483032D01*
X176432256Y-64816366D02*
X176394161Y-64783032D01*
X176356065Y-64716366D01*
X176356065Y-64549699D01*
X176394161Y-64483032D01*
X176432256Y-64449699D01*
X176508446Y-64416366D01*
X176584637Y-64416366D01*
X176698922Y-64449699D01*
X177156065Y-64849699D01*
X177156065Y-64416366D01*
G04 #@! TO.C,D3*
X196196065Y-63885632D02*
X195396065Y-63885632D01*
X195396065Y-63718966D01*
X195434161Y-63618966D01*
X195510351Y-63552299D01*
X195586541Y-63518966D01*
X195738922Y-63485632D01*
X195853208Y-63485632D01*
X196005589Y-63518966D01*
X196081780Y-63552299D01*
X196157970Y-63618966D01*
X196196065Y-63718966D01*
X196196065Y-63885632D01*
X195396065Y-63252299D02*
X195396065Y-62818966D01*
X195700827Y-63052299D01*
X195700827Y-62952299D01*
X195738922Y-62885632D01*
X195777018Y-62852299D01*
X195853208Y-62818966D01*
X196043684Y-62818966D01*
X196119875Y-62852299D01*
X196157970Y-62885632D01*
X196196065Y-62952299D01*
X196196065Y-63152299D01*
X196157970Y-63218966D01*
X196119875Y-63252299D01*
G04 #@! TO.C,D4*
X215236065Y-65469632D02*
X214436065Y-65469632D01*
X214436065Y-65302966D01*
X214474161Y-65202966D01*
X214550351Y-65136299D01*
X214626541Y-65102966D01*
X214778922Y-65069632D01*
X214893208Y-65069632D01*
X215045589Y-65102966D01*
X215121780Y-65136299D01*
X215197970Y-65202966D01*
X215236065Y-65302966D01*
X215236065Y-65469632D01*
X214702732Y-64469632D02*
X215236065Y-64469632D01*
X214397970Y-64636299D02*
X214969399Y-64802966D01*
X214969399Y-64369632D01*
G04 #@! TO.C,D5*
X234273816Y-66769632D02*
X233473816Y-66769632D01*
X233473816Y-66602966D01*
X233511912Y-66502966D01*
X233588102Y-66436299D01*
X233664292Y-66402966D01*
X233816673Y-66369632D01*
X233930959Y-66369632D01*
X234083340Y-66402966D01*
X234159531Y-66436299D01*
X234235721Y-66502966D01*
X234273816Y-66602966D01*
X234273816Y-66769632D01*
X233473816Y-65736299D02*
X233473816Y-66069632D01*
X233854769Y-66102966D01*
X233816673Y-66069632D01*
X233778578Y-66002966D01*
X233778578Y-65836299D01*
X233816673Y-65769632D01*
X233854769Y-65736299D01*
X233930959Y-65702966D01*
X234121435Y-65702966D01*
X234197626Y-65736299D01*
X234235721Y-65769632D01*
X234273816Y-65836299D01*
X234273816Y-66002966D01*
X234235721Y-66069632D01*
X234197626Y-66102966D01*
G04 #@! TO.C,D6*
X251920964Y-66752246D02*
X251120964Y-66752246D01*
X251120964Y-66585580D01*
X251159060Y-66485580D01*
X251235250Y-66418913D01*
X251311440Y-66385580D01*
X251463821Y-66352246D01*
X251578107Y-66352246D01*
X251730488Y-66385580D01*
X251806679Y-66418913D01*
X251882869Y-66485580D01*
X251920964Y-66585580D01*
X251920964Y-66752246D01*
X251120964Y-65752246D02*
X251120964Y-65885580D01*
X251159060Y-65952246D01*
X251197155Y-65985580D01*
X251311440Y-66052246D01*
X251463821Y-66085580D01*
X251768583Y-66085580D01*
X251844774Y-66052246D01*
X251882869Y-66018913D01*
X251920964Y-65952246D01*
X251920964Y-65818913D01*
X251882869Y-65752246D01*
X251844774Y-65718913D01*
X251768583Y-65685580D01*
X251578107Y-65685580D01*
X251501917Y-65718913D01*
X251463821Y-65752246D01*
X251425726Y-65818913D01*
X251425726Y-65952246D01*
X251463821Y-66018913D01*
X251501917Y-66052246D01*
X251578107Y-66085580D01*
G04 #@! TO.C,D7*
X134297745Y-87726632D02*
X133497745Y-87726632D01*
X133497745Y-87559966D01*
X133535841Y-87459966D01*
X133612031Y-87393299D01*
X133688221Y-87359966D01*
X133840602Y-87326632D01*
X133954888Y-87326632D01*
X134107269Y-87359966D01*
X134183460Y-87393299D01*
X134259650Y-87459966D01*
X134297745Y-87559966D01*
X134297745Y-87726632D01*
X133497745Y-87093299D02*
X133497745Y-86626632D01*
X134297745Y-86926632D01*
G04 #@! TO.C,D8*
X158103165Y-87726632D02*
X157303165Y-87726632D01*
X157303165Y-87559966D01*
X157341261Y-87459966D01*
X157417451Y-87393299D01*
X157493641Y-87359966D01*
X157646022Y-87326632D01*
X157760308Y-87326632D01*
X157912689Y-87359966D01*
X157988880Y-87393299D01*
X158065070Y-87459966D01*
X158103165Y-87559966D01*
X158103165Y-87726632D01*
X157646022Y-86926632D02*
X157607927Y-86993299D01*
X157569832Y-87026632D01*
X157493641Y-87059966D01*
X157455546Y-87059966D01*
X157379356Y-87026632D01*
X157341261Y-86993299D01*
X157303165Y-86926632D01*
X157303165Y-86793299D01*
X157341261Y-86726632D01*
X157379356Y-86693299D01*
X157455546Y-86659966D01*
X157493641Y-86659966D01*
X157569832Y-86693299D01*
X157607927Y-86726632D01*
X157646022Y-86793299D01*
X157646022Y-86926632D01*
X157684118Y-86993299D01*
X157722213Y-87026632D01*
X157798403Y-87059966D01*
X157950784Y-87059966D01*
X158026975Y-87026632D01*
X158065070Y-86993299D01*
X158103165Y-86926632D01*
X158103165Y-86793299D01*
X158065070Y-86726632D01*
X158026975Y-86693299D01*
X157950784Y-86659966D01*
X157798403Y-86659966D01*
X157722213Y-86693299D01*
X157684118Y-86726632D01*
X157646022Y-86793299D01*
G04 #@! TO.C,D9*
X177153165Y-84536632D02*
X176353165Y-84536632D01*
X176353165Y-84369966D01*
X176391261Y-84269966D01*
X176467451Y-84203299D01*
X176543641Y-84169966D01*
X176696022Y-84136632D01*
X176810308Y-84136632D01*
X176962689Y-84169966D01*
X177038880Y-84203299D01*
X177115070Y-84269966D01*
X177153165Y-84369966D01*
X177153165Y-84536632D01*
X177153165Y-83803299D02*
X177153165Y-83669966D01*
X177115070Y-83603299D01*
X177076975Y-83569966D01*
X176962689Y-83503299D01*
X176810308Y-83469966D01*
X176505546Y-83469966D01*
X176429356Y-83503299D01*
X176391261Y-83536632D01*
X176353165Y-83603299D01*
X176353165Y-83736632D01*
X176391261Y-83803299D01*
X176429356Y-83836632D01*
X176505546Y-83869966D01*
X176696022Y-83869966D01*
X176772213Y-83836632D01*
X176810308Y-83803299D01*
X176848403Y-83736632D01*
X176848403Y-83603299D01*
X176810308Y-83536632D01*
X176772213Y-83503299D01*
X176696022Y-83469966D01*
G04 #@! TO.C,D10*
X196198765Y-83264406D02*
X195398765Y-83264406D01*
X195398765Y-83097739D01*
X195436861Y-82997739D01*
X195513051Y-82931072D01*
X195589241Y-82897739D01*
X195741622Y-82864406D01*
X195855908Y-82864406D01*
X196008289Y-82897739D01*
X196084480Y-82931072D01*
X196160670Y-82997739D01*
X196198765Y-83097739D01*
X196198765Y-83264406D01*
X196198765Y-82197739D02*
X196198765Y-82597739D01*
X196198765Y-82397739D02*
X195398765Y-82397739D01*
X195513051Y-82464406D01*
X195589241Y-82531072D01*
X195627337Y-82597739D01*
X195398765Y-81764406D02*
X195398765Y-81697739D01*
X195436861Y-81631072D01*
X195474956Y-81597739D01*
X195551146Y-81564406D01*
X195703527Y-81531072D01*
X195894003Y-81531072D01*
X196046384Y-81564406D01*
X196122575Y-81597739D01*
X196160670Y-81631072D01*
X196198765Y-81697739D01*
X196198765Y-81764406D01*
X196160670Y-81831072D01*
X196122575Y-81864406D01*
X196046384Y-81897739D01*
X195894003Y-81931072D01*
X195703527Y-81931072D01*
X195551146Y-81897739D01*
X195474956Y-81864406D01*
X195436861Y-81831072D01*
X195398765Y-81764406D01*
G04 #@! TO.C,D23*
X177166065Y-122959566D02*
X176366065Y-122959566D01*
X176366065Y-122792899D01*
X176404161Y-122692899D01*
X176480351Y-122626232D01*
X176556541Y-122592899D01*
X176708922Y-122559566D01*
X176823208Y-122559566D01*
X176975589Y-122592899D01*
X177051780Y-122626232D01*
X177127970Y-122692899D01*
X177166065Y-122792899D01*
X177166065Y-122959566D01*
X176442256Y-122292899D02*
X176404161Y-122259566D01*
X176366065Y-122192899D01*
X176366065Y-122026232D01*
X176404161Y-121959566D01*
X176442256Y-121926232D01*
X176518446Y-121892899D01*
X176594637Y-121892899D01*
X176708922Y-121926232D01*
X177166065Y-122326232D01*
X177166065Y-121892899D01*
X176366065Y-121659566D02*
X176366065Y-121226232D01*
X176670827Y-121459566D01*
X176670827Y-121359566D01*
X176708922Y-121292899D01*
X176747018Y-121259566D01*
X176823208Y-121226232D01*
X177013684Y-121226232D01*
X177089875Y-121259566D01*
X177127970Y-121292899D01*
X177166065Y-121359566D01*
X177166065Y-121559566D01*
X177127970Y-121626232D01*
X177089875Y-121659566D01*
G04 #@! TO.C,D24*
X196216065Y-121356566D02*
X195416065Y-121356566D01*
X195416065Y-121189899D01*
X195454161Y-121089899D01*
X195530351Y-121023232D01*
X195606541Y-120989899D01*
X195758922Y-120956566D01*
X195873208Y-120956566D01*
X196025589Y-120989899D01*
X196101780Y-121023232D01*
X196177970Y-121089899D01*
X196216065Y-121189899D01*
X196216065Y-121356566D01*
X195492256Y-120689899D02*
X195454161Y-120656566D01*
X195416065Y-120589899D01*
X195416065Y-120423232D01*
X195454161Y-120356566D01*
X195492256Y-120323232D01*
X195568446Y-120289899D01*
X195644637Y-120289899D01*
X195758922Y-120323232D01*
X196216065Y-120723232D01*
X196216065Y-120289899D01*
X195682732Y-119689899D02*
X196216065Y-119689899D01*
X195377970Y-119856566D02*
X195949399Y-120023232D01*
X195949399Y-119589899D01*
G04 #@! TO.C,D13*
X251875244Y-86229560D02*
X251075244Y-86229560D01*
X251075244Y-86062893D01*
X251113340Y-85962893D01*
X251189530Y-85896226D01*
X251265720Y-85862893D01*
X251418101Y-85829560D01*
X251532387Y-85829560D01*
X251684768Y-85862893D01*
X251760959Y-85896226D01*
X251837149Y-85962893D01*
X251875244Y-86062893D01*
X251875244Y-86229560D01*
X251875244Y-85162893D02*
X251875244Y-85562893D01*
X251875244Y-85362893D02*
X251075244Y-85362893D01*
X251189530Y-85429560D01*
X251265720Y-85496226D01*
X251303816Y-85562893D01*
X251075244Y-84929560D02*
X251075244Y-84496226D01*
X251380006Y-84729560D01*
X251380006Y-84629560D01*
X251418101Y-84562893D01*
X251456197Y-84529560D01*
X251532387Y-84496226D01*
X251722863Y-84496226D01*
X251799054Y-84529560D01*
X251837149Y-84562893D01*
X251875244Y-84629560D01*
X251875244Y-84829560D01*
X251837149Y-84896226D01*
X251799054Y-84929560D01*
G04 #@! TO.C,D14*
X134301145Y-107103066D02*
X133501145Y-107103066D01*
X133501145Y-106936399D01*
X133539241Y-106836399D01*
X133615431Y-106769732D01*
X133691621Y-106736399D01*
X133844002Y-106703066D01*
X133958288Y-106703066D01*
X134110669Y-106736399D01*
X134186860Y-106769732D01*
X134263050Y-106836399D01*
X134301145Y-106936399D01*
X134301145Y-107103066D01*
X134301145Y-106036399D02*
X134301145Y-106436399D01*
X134301145Y-106236399D02*
X133501145Y-106236399D01*
X133615431Y-106303066D01*
X133691621Y-106369732D01*
X133729717Y-106436399D01*
X133767812Y-105436399D02*
X134301145Y-105436399D01*
X133463050Y-105603066D02*
X134034479Y-105769732D01*
X134034479Y-105336399D01*
G04 #@! TO.C,D15*
X158101925Y-107112666D02*
X157301925Y-107112666D01*
X157301925Y-106945999D01*
X157340021Y-106845999D01*
X157416211Y-106779332D01*
X157492401Y-106745999D01*
X157644782Y-106712666D01*
X157759068Y-106712666D01*
X157911449Y-106745999D01*
X157987640Y-106779332D01*
X158063830Y-106845999D01*
X158101925Y-106945999D01*
X158101925Y-107112666D01*
X158101925Y-106045999D02*
X158101925Y-106445999D01*
X158101925Y-106245999D02*
X157301925Y-106245999D01*
X157416211Y-106312666D01*
X157492401Y-106379332D01*
X157530497Y-106445999D01*
X157301925Y-105412666D02*
X157301925Y-105745999D01*
X157682878Y-105779332D01*
X157644782Y-105745999D01*
X157606687Y-105679332D01*
X157606687Y-105512666D01*
X157644782Y-105445999D01*
X157682878Y-105412666D01*
X157759068Y-105379332D01*
X157949544Y-105379332D01*
X158025735Y-105412666D01*
X158063830Y-105445999D01*
X158101925Y-105512666D01*
X158101925Y-105679332D01*
X158063830Y-105745999D01*
X158025735Y-105779332D01*
G04 #@! TO.C,D16*
X177150665Y-103911946D02*
X176350665Y-103911946D01*
X176350665Y-103745279D01*
X176388761Y-103645279D01*
X176464951Y-103578612D01*
X176541141Y-103545279D01*
X176693522Y-103511946D01*
X176807808Y-103511946D01*
X176960189Y-103545279D01*
X177036380Y-103578612D01*
X177112570Y-103645279D01*
X177150665Y-103745279D01*
X177150665Y-103911946D01*
X177150665Y-102845279D02*
X177150665Y-103245279D01*
X177150665Y-103045279D02*
X176350665Y-103045279D01*
X176464951Y-103111946D01*
X176541141Y-103178612D01*
X176579237Y-103245279D01*
X176350665Y-102245279D02*
X176350665Y-102378612D01*
X176388761Y-102445279D01*
X176426856Y-102478612D01*
X176541141Y-102545279D01*
X176693522Y-102578612D01*
X176998284Y-102578612D01*
X177074475Y-102545279D01*
X177112570Y-102511946D01*
X177150665Y-102445279D01*
X177150665Y-102311946D01*
X177112570Y-102245279D01*
X177074475Y-102211946D01*
X176998284Y-102178612D01*
X176807808Y-102178612D01*
X176731618Y-102211946D01*
X176693522Y-102245279D01*
X176655427Y-102311946D01*
X176655427Y-102445279D01*
X176693522Y-102511946D01*
X176731618Y-102545279D01*
X176807808Y-102578612D01*
G04 #@! TO.C,D17*
X196195105Y-102308866D02*
X195395105Y-102308866D01*
X195395105Y-102142199D01*
X195433201Y-102042199D01*
X195509391Y-101975532D01*
X195585581Y-101942199D01*
X195737962Y-101908866D01*
X195852248Y-101908866D01*
X196004629Y-101942199D01*
X196080820Y-101975532D01*
X196157010Y-102042199D01*
X196195105Y-102142199D01*
X196195105Y-102308866D01*
X196195105Y-101242199D02*
X196195105Y-101642199D01*
X196195105Y-101442199D02*
X195395105Y-101442199D01*
X195509391Y-101508866D01*
X195585581Y-101575532D01*
X195623677Y-101642199D01*
X195395105Y-101008866D02*
X195395105Y-100542199D01*
X196195105Y-100842199D01*
G04 #@! TO.C,D18*
X215240505Y-103894586D02*
X214440505Y-103894586D01*
X214440505Y-103727919D01*
X214478601Y-103627919D01*
X214554791Y-103561252D01*
X214630981Y-103527919D01*
X214783362Y-103494586D01*
X214897648Y-103494586D01*
X215050029Y-103527919D01*
X215126220Y-103561252D01*
X215202410Y-103627919D01*
X215240505Y-103727919D01*
X215240505Y-103894586D01*
X215240505Y-102827919D02*
X215240505Y-103227919D01*
X215240505Y-103027919D02*
X214440505Y-103027919D01*
X214554791Y-103094586D01*
X214630981Y-103161252D01*
X214669077Y-103227919D01*
X214783362Y-102427919D02*
X214745267Y-102494586D01*
X214707172Y-102527919D01*
X214630981Y-102561252D01*
X214592886Y-102561252D01*
X214516696Y-102527919D01*
X214478601Y-102494586D01*
X214440505Y-102427919D01*
X214440505Y-102294586D01*
X214478601Y-102227919D01*
X214516696Y-102194586D01*
X214592886Y-102161252D01*
X214630981Y-102161252D01*
X214707172Y-102194586D01*
X214745267Y-102227919D01*
X214783362Y-102294586D01*
X214783362Y-102427919D01*
X214821458Y-102494586D01*
X214859553Y-102527919D01*
X214935743Y-102561252D01*
X215088124Y-102561252D01*
X215164315Y-102527919D01*
X215202410Y-102494586D01*
X215240505Y-102427919D01*
X215240505Y-102294586D01*
X215202410Y-102227919D01*
X215164315Y-102194586D01*
X215088124Y-102161252D01*
X214935743Y-102161252D01*
X214859553Y-102194586D01*
X214821458Y-102227919D01*
X214783362Y-102294586D01*
G04 #@! TO.C,D19*
X234273665Y-105205366D02*
X233473665Y-105205366D01*
X233473665Y-105038699D01*
X233511761Y-104938699D01*
X233587951Y-104872032D01*
X233664141Y-104838699D01*
X233816522Y-104805366D01*
X233930808Y-104805366D01*
X234083189Y-104838699D01*
X234159380Y-104872032D01*
X234235570Y-104938699D01*
X234273665Y-105038699D01*
X234273665Y-105205366D01*
X234273665Y-104138699D02*
X234273665Y-104538699D01*
X234273665Y-104338699D02*
X233473665Y-104338699D01*
X233587951Y-104405366D01*
X233664141Y-104472032D01*
X233702237Y-104538699D01*
X234273665Y-103805366D02*
X234273665Y-103672032D01*
X234235570Y-103605366D01*
X234197475Y-103572032D01*
X234083189Y-103505366D01*
X233930808Y-103472032D01*
X233626046Y-103472032D01*
X233549856Y-103505366D01*
X233511761Y-103538699D01*
X233473665Y-103605366D01*
X233473665Y-103738699D01*
X233511761Y-103805366D01*
X233549856Y-103838699D01*
X233626046Y-103872032D01*
X233816522Y-103872032D01*
X233892713Y-103838699D01*
X233930808Y-103805366D01*
X233968903Y-103738699D01*
X233968903Y-103605366D01*
X233930808Y-103538699D01*
X233892713Y-103505366D01*
X233816522Y-103472032D01*
G04 #@! TO.C,D20*
X251834604Y-110351940D02*
X251034604Y-110351940D01*
X251034604Y-110185273D01*
X251072700Y-110085273D01*
X251148890Y-110018606D01*
X251225080Y-109985273D01*
X251377461Y-109951940D01*
X251491747Y-109951940D01*
X251644128Y-109985273D01*
X251720319Y-110018606D01*
X251796509Y-110085273D01*
X251834604Y-110185273D01*
X251834604Y-110351940D01*
X251110795Y-109685273D02*
X251072700Y-109651940D01*
X251034604Y-109585273D01*
X251034604Y-109418606D01*
X251072700Y-109351940D01*
X251110795Y-109318606D01*
X251186985Y-109285273D01*
X251263176Y-109285273D01*
X251377461Y-109318606D01*
X251834604Y-109718606D01*
X251834604Y-109285273D01*
X251034604Y-108851940D02*
X251034604Y-108785273D01*
X251072700Y-108718606D01*
X251110795Y-108685273D01*
X251186985Y-108651940D01*
X251339366Y-108618606D01*
X251529842Y-108618606D01*
X251682223Y-108651940D01*
X251758414Y-108685273D01*
X251796509Y-108718606D01*
X251834604Y-108785273D01*
X251834604Y-108851940D01*
X251796509Y-108918606D01*
X251758414Y-108951940D01*
X251682223Y-108985273D01*
X251529842Y-109018606D01*
X251339366Y-109018606D01*
X251186985Y-108985273D01*
X251110795Y-108951940D01*
X251072700Y-108918606D01*
X251034604Y-108851940D01*
G04 #@! TO.C,D21*
X134311465Y-126143166D02*
X133511465Y-126143166D01*
X133511465Y-125976499D01*
X133549561Y-125876499D01*
X133625751Y-125809832D01*
X133701941Y-125776499D01*
X133854322Y-125743166D01*
X133968608Y-125743166D01*
X134120989Y-125776499D01*
X134197180Y-125809832D01*
X134273370Y-125876499D01*
X134311465Y-125976499D01*
X134311465Y-126143166D01*
X133587656Y-125476499D02*
X133549561Y-125443166D01*
X133511465Y-125376499D01*
X133511465Y-125209832D01*
X133549561Y-125143166D01*
X133587656Y-125109832D01*
X133663846Y-125076499D01*
X133740037Y-125076499D01*
X133854322Y-125109832D01*
X134311465Y-125509832D01*
X134311465Y-125076499D01*
X134311465Y-124409832D02*
X134311465Y-124809832D01*
X134311465Y-124609832D02*
X133511465Y-124609832D01*
X133625751Y-124676499D01*
X133701941Y-124743166D01*
X133740037Y-124809832D01*
G04 #@! TO.C,D11*
X215240665Y-84856746D02*
X214440665Y-84856746D01*
X214440665Y-84690079D01*
X214478761Y-84590079D01*
X214554951Y-84523412D01*
X214631141Y-84490079D01*
X214783522Y-84456746D01*
X214897808Y-84456746D01*
X215050189Y-84490079D01*
X215126380Y-84523412D01*
X215202570Y-84590079D01*
X215240665Y-84690079D01*
X215240665Y-84856746D01*
X215240665Y-83790079D02*
X215240665Y-84190079D01*
X215240665Y-83990079D02*
X214440665Y-83990079D01*
X214554951Y-84056746D01*
X214631141Y-84123412D01*
X214669237Y-84190079D01*
X215240665Y-83123412D02*
X215240665Y-83523412D01*
X215240665Y-83323412D02*
X214440665Y-83323412D01*
X214554951Y-83390079D01*
X214631141Y-83456746D01*
X214669237Y-83523412D01*
G04 #@! TO.C,D1*
X158106065Y-68689632D02*
X157306065Y-68689632D01*
X157306065Y-68522966D01*
X157344161Y-68422966D01*
X157420351Y-68356299D01*
X157496541Y-68322966D01*
X157648922Y-68289632D01*
X157763208Y-68289632D01*
X157915589Y-68322966D01*
X157991780Y-68356299D01*
X158067970Y-68422966D01*
X158106065Y-68522966D01*
X158106065Y-68689632D01*
X158106065Y-67622966D02*
X158106065Y-68022966D01*
X158106065Y-67822966D02*
X157306065Y-67822966D01*
X157420351Y-67889632D01*
X157496541Y-67956299D01*
X157534637Y-68022966D01*
G04 #@! TO.C,K1*
D11*
X147475142Y-73343068D02*
X147475142Y-71819068D01*
X148346000Y-73343068D02*
X147692857Y-72472211D01*
X148346000Y-71819068D02*
X147475142Y-72689925D01*
X149797428Y-73343068D02*
X148926571Y-73343068D01*
X149362000Y-73343068D02*
X149362000Y-71819068D01*
X149216857Y-72036782D01*
X149071714Y-72181925D01*
X148926571Y-72254497D01*
G04 #@! TO.C,K2*
X166525142Y-70136468D02*
X166525142Y-68612468D01*
X167396000Y-70136468D02*
X166742857Y-69265611D01*
X167396000Y-68612468D02*
X166525142Y-69483325D01*
X167976571Y-68757611D02*
X168049142Y-68685040D01*
X168194285Y-68612468D01*
X168557142Y-68612468D01*
X168702285Y-68685040D01*
X168774857Y-68757611D01*
X168847428Y-68902754D01*
X168847428Y-69047897D01*
X168774857Y-69265611D01*
X167904000Y-70136468D01*
X168847428Y-70136468D01*
G04 #@! TO.C,K3*
X185565142Y-68539068D02*
X185565142Y-67015068D01*
X186436000Y-68539068D02*
X185782857Y-67668211D01*
X186436000Y-67015068D02*
X185565142Y-67885925D01*
X186944000Y-67015068D02*
X187887428Y-67015068D01*
X187379428Y-67595640D01*
X187597142Y-67595640D01*
X187742285Y-67668211D01*
X187814857Y-67740782D01*
X187887428Y-67885925D01*
X187887428Y-68248782D01*
X187814857Y-68393925D01*
X187742285Y-68466497D01*
X187597142Y-68539068D01*
X187161714Y-68539068D01*
X187016571Y-68466497D01*
X186944000Y-68393925D01*
G04 #@! TO.C,K4*
X204605142Y-70123068D02*
X204605142Y-68599068D01*
X205476000Y-70123068D02*
X204822857Y-69252211D01*
X205476000Y-68599068D02*
X204605142Y-69469925D01*
X206782285Y-69107068D02*
X206782285Y-70123068D01*
X206419428Y-68526497D02*
X206056571Y-69615068D01*
X207000000Y-69615068D01*
G04 #@! TO.C,K5*
X223642893Y-71423068D02*
X223642893Y-69899068D01*
X224513751Y-71423068D02*
X223860608Y-70552211D01*
X224513751Y-69899068D02*
X223642893Y-70769925D01*
X225892608Y-69899068D02*
X225166893Y-69899068D01*
X225094322Y-70624782D01*
X225166893Y-70552211D01*
X225312036Y-70479640D01*
X225674893Y-70479640D01*
X225820036Y-70552211D01*
X225892608Y-70624782D01*
X225965179Y-70769925D01*
X225965179Y-71132782D01*
X225892608Y-71277925D01*
X225820036Y-71350497D01*
X225674893Y-71423068D01*
X225312036Y-71423068D01*
X225166893Y-71350497D01*
X225094322Y-71277925D01*
G04 #@! TO.C,K6*
X242735142Y-71425068D02*
X242735142Y-69901068D01*
X243606000Y-71425068D02*
X242952857Y-70554211D01*
X243606000Y-69901068D02*
X242735142Y-70771925D01*
X244912285Y-69901068D02*
X244622000Y-69901068D01*
X244476857Y-69973640D01*
X244404285Y-70046211D01*
X244259142Y-70263925D01*
X244186571Y-70554211D01*
X244186571Y-71134782D01*
X244259142Y-71279925D01*
X244331714Y-71352497D01*
X244476857Y-71425068D01*
X244767142Y-71425068D01*
X244912285Y-71352497D01*
X244984857Y-71279925D01*
X245057428Y-71134782D01*
X245057428Y-70771925D01*
X244984857Y-70626782D01*
X244912285Y-70554211D01*
X244767142Y-70481640D01*
X244476857Y-70481640D01*
X244331714Y-70554211D01*
X244259142Y-70626782D01*
X244186571Y-70771925D01*
G04 #@! TO.C,K7*
X123666822Y-92380068D02*
X123666822Y-90856068D01*
X124537680Y-92380068D02*
X123884537Y-91509211D01*
X124537680Y-90856068D02*
X123666822Y-91726925D01*
X125045680Y-90856068D02*
X126061680Y-90856068D01*
X125408537Y-92380068D01*
G04 #@! TO.C,K8*
X147472242Y-92380068D02*
X147472242Y-90856068D01*
X148343100Y-92380068D02*
X147689957Y-91509211D01*
X148343100Y-90856068D02*
X147472242Y-91726925D01*
X149213957Y-91509211D02*
X149068814Y-91436640D01*
X148996242Y-91364068D01*
X148923671Y-91218925D01*
X148923671Y-91146354D01*
X148996242Y-91001211D01*
X149068814Y-90928640D01*
X149213957Y-90856068D01*
X149504242Y-90856068D01*
X149649385Y-90928640D01*
X149721957Y-91001211D01*
X149794528Y-91146354D01*
X149794528Y-91218925D01*
X149721957Y-91364068D01*
X149649385Y-91436640D01*
X149504242Y-91509211D01*
X149213957Y-91509211D01*
X149068814Y-91581782D01*
X148996242Y-91654354D01*
X148923671Y-91799497D01*
X148923671Y-92089782D01*
X148996242Y-92234925D01*
X149068814Y-92307497D01*
X149213957Y-92380068D01*
X149504242Y-92380068D01*
X149649385Y-92307497D01*
X149721957Y-92234925D01*
X149794528Y-92089782D01*
X149794528Y-91799497D01*
X149721957Y-91654354D01*
X149649385Y-91581782D01*
X149504242Y-91509211D01*
G04 #@! TO.C,K9*
X166522242Y-89190068D02*
X166522242Y-87666068D01*
X167393100Y-89190068D02*
X166739957Y-88319211D01*
X167393100Y-87666068D02*
X166522242Y-88536925D01*
X168118814Y-89190068D02*
X168409100Y-89190068D01*
X168554242Y-89117497D01*
X168626814Y-89044925D01*
X168771957Y-88827211D01*
X168844528Y-88536925D01*
X168844528Y-87956354D01*
X168771957Y-87811211D01*
X168699385Y-87738640D01*
X168554242Y-87666068D01*
X168263957Y-87666068D01*
X168118814Y-87738640D01*
X168046242Y-87811211D01*
X167973671Y-87956354D01*
X167973671Y-88319211D01*
X168046242Y-88464354D01*
X168118814Y-88536925D01*
X168263957Y-88609497D01*
X168554242Y-88609497D01*
X168699385Y-88536925D01*
X168771957Y-88464354D01*
X168844528Y-88319211D01*
G04 #@! TO.C,K10*
X184842128Y-87584508D02*
X184842128Y-86060508D01*
X185712985Y-87584508D02*
X185059842Y-86713651D01*
X185712985Y-86060508D02*
X184842128Y-86931365D01*
X187164414Y-87584508D02*
X186293557Y-87584508D01*
X186728985Y-87584508D02*
X186728985Y-86060508D01*
X186583842Y-86278222D01*
X186438700Y-86423365D01*
X186293557Y-86495937D01*
X188107842Y-86060508D02*
X188252985Y-86060508D01*
X188398128Y-86133080D01*
X188470700Y-86205651D01*
X188543271Y-86350794D01*
X188615842Y-86641080D01*
X188615842Y-87003937D01*
X188543271Y-87294222D01*
X188470700Y-87439365D01*
X188398128Y-87511937D01*
X188252985Y-87584508D01*
X188107842Y-87584508D01*
X187962700Y-87511937D01*
X187890128Y-87439365D01*
X187817557Y-87294222D01*
X187744985Y-87003937D01*
X187744985Y-86641080D01*
X187817557Y-86350794D01*
X187890128Y-86205651D01*
X187962700Y-86133080D01*
X188107842Y-86060508D01*
G04 #@! TO.C,K11*
X203884028Y-89176848D02*
X203884028Y-87652848D01*
X204754885Y-89176848D02*
X204101742Y-88305991D01*
X204754885Y-87652848D02*
X203884028Y-88523705D01*
X206206314Y-89176848D02*
X205335457Y-89176848D01*
X205770885Y-89176848D02*
X205770885Y-87652848D01*
X205625742Y-87870562D01*
X205480600Y-88015705D01*
X205335457Y-88088277D01*
X207657742Y-89176848D02*
X206786885Y-89176848D01*
X207222314Y-89176848D02*
X207222314Y-87652848D01*
X207077171Y-87870562D01*
X206932028Y-88015705D01*
X206786885Y-88088277D01*
G04 #@! TO.C,K12*
X222959428Y-90472948D02*
X222959428Y-88948948D01*
X223830285Y-90472948D02*
X223177142Y-89602091D01*
X223830285Y-88948948D02*
X222959428Y-89819805D01*
X225281714Y-90472948D02*
X224410857Y-90472948D01*
X224846285Y-90472948D02*
X224846285Y-88948948D01*
X224701142Y-89166662D01*
X224556000Y-89311805D01*
X224410857Y-89384377D01*
X225862285Y-89094091D02*
X225934857Y-89021520D01*
X226080000Y-88948948D01*
X226442857Y-88948948D01*
X226588000Y-89021520D01*
X226660571Y-89094091D01*
X226733142Y-89239234D01*
X226733142Y-89384377D01*
X226660571Y-89602091D01*
X225789714Y-90472948D01*
X226733142Y-90472948D01*
G04 #@! TO.C,K13*
X242009428Y-90465368D02*
X242009428Y-88941368D01*
X242880285Y-90465368D02*
X242227142Y-89594511D01*
X242880285Y-88941368D02*
X242009428Y-89812225D01*
X244331714Y-90465368D02*
X243460857Y-90465368D01*
X243896285Y-90465368D02*
X243896285Y-88941368D01*
X243751142Y-89159082D01*
X243606000Y-89304225D01*
X243460857Y-89376797D01*
X244839714Y-88941368D02*
X245783142Y-88941368D01*
X245275142Y-89521940D01*
X245492857Y-89521940D01*
X245638000Y-89594511D01*
X245710571Y-89667082D01*
X245783142Y-89812225D01*
X245783142Y-90175082D01*
X245710571Y-90320225D01*
X245638000Y-90392797D01*
X245492857Y-90465368D01*
X245057428Y-90465368D01*
X244912285Y-90392797D01*
X244839714Y-90320225D01*
G04 #@! TO.C,K14*
X122944508Y-111423168D02*
X122944508Y-109899168D01*
X123815365Y-111423168D02*
X123162222Y-110552311D01*
X123815365Y-109899168D02*
X122944508Y-110770025D01*
X125266794Y-111423168D02*
X124395937Y-111423168D01*
X124831365Y-111423168D02*
X124831365Y-109899168D01*
X124686222Y-110116882D01*
X124541080Y-110262025D01*
X124395937Y-110334597D01*
X126573080Y-110407168D02*
X126573080Y-111423168D01*
X126210222Y-109826597D02*
X125847365Y-110915168D01*
X126790794Y-110915168D01*
G04 #@! TO.C,K15*
X146745288Y-111432768D02*
X146745288Y-109908768D01*
X147616145Y-111432768D02*
X146963002Y-110561911D01*
X147616145Y-109908768D02*
X146745288Y-110779625D01*
X149067574Y-111432768D02*
X148196717Y-111432768D01*
X148632145Y-111432768D02*
X148632145Y-109908768D01*
X148487002Y-110126482D01*
X148341860Y-110271625D01*
X148196717Y-110344197D01*
X150446431Y-109908768D02*
X149720717Y-109908768D01*
X149648145Y-110634482D01*
X149720717Y-110561911D01*
X149865860Y-110489340D01*
X150228717Y-110489340D01*
X150373860Y-110561911D01*
X150446431Y-110634482D01*
X150519002Y-110779625D01*
X150519002Y-111142482D01*
X150446431Y-111287625D01*
X150373860Y-111360197D01*
X150228717Y-111432768D01*
X149865860Y-111432768D01*
X149720717Y-111360197D01*
X149648145Y-111287625D01*
G04 #@! TO.C,K16*
X165794028Y-108232048D02*
X165794028Y-106708048D01*
X166664885Y-108232048D02*
X166011742Y-107361191D01*
X166664885Y-106708048D02*
X165794028Y-107578905D01*
X168116314Y-108232048D02*
X167245457Y-108232048D01*
X167680885Y-108232048D02*
X167680885Y-106708048D01*
X167535742Y-106925762D01*
X167390600Y-107070905D01*
X167245457Y-107143477D01*
X169422600Y-106708048D02*
X169132314Y-106708048D01*
X168987171Y-106780620D01*
X168914600Y-106853191D01*
X168769457Y-107070905D01*
X168696885Y-107361191D01*
X168696885Y-107941762D01*
X168769457Y-108086905D01*
X168842028Y-108159477D01*
X168987171Y-108232048D01*
X169277457Y-108232048D01*
X169422600Y-108159477D01*
X169495171Y-108086905D01*
X169567742Y-107941762D01*
X169567742Y-107578905D01*
X169495171Y-107433762D01*
X169422600Y-107361191D01*
X169277457Y-107288620D01*
X168987171Y-107288620D01*
X168842028Y-107361191D01*
X168769457Y-107433762D01*
X168696885Y-107578905D01*
G04 #@! TO.C,K17*
X184838468Y-106628968D02*
X184838468Y-105104968D01*
X185709325Y-106628968D02*
X185056182Y-105758111D01*
X185709325Y-105104968D02*
X184838468Y-105975825D01*
X187160754Y-106628968D02*
X186289897Y-106628968D01*
X186725325Y-106628968D02*
X186725325Y-105104968D01*
X186580182Y-105322682D01*
X186435040Y-105467825D01*
X186289897Y-105540397D01*
X187668754Y-105104968D02*
X188684754Y-105104968D01*
X188031611Y-106628968D01*
G04 #@! TO.C,K18*
X203883868Y-108214688D02*
X203883868Y-106690688D01*
X204754725Y-108214688D02*
X204101582Y-107343831D01*
X204754725Y-106690688D02*
X203883868Y-107561545D01*
X206206154Y-108214688D02*
X205335297Y-108214688D01*
X205770725Y-108214688D02*
X205770725Y-106690688D01*
X205625582Y-106908402D01*
X205480440Y-107053545D01*
X205335297Y-107126117D01*
X207077011Y-107343831D02*
X206931868Y-107271260D01*
X206859297Y-107198688D01*
X206786725Y-107053545D01*
X206786725Y-106980974D01*
X206859297Y-106835831D01*
X206931868Y-106763260D01*
X207077011Y-106690688D01*
X207367297Y-106690688D01*
X207512440Y-106763260D01*
X207585011Y-106835831D01*
X207657582Y-106980974D01*
X207657582Y-107053545D01*
X207585011Y-107198688D01*
X207512440Y-107271260D01*
X207367297Y-107343831D01*
X207077011Y-107343831D01*
X206931868Y-107416402D01*
X206859297Y-107488974D01*
X206786725Y-107634117D01*
X206786725Y-107924402D01*
X206859297Y-108069545D01*
X206931868Y-108142117D01*
X207077011Y-108214688D01*
X207367297Y-108214688D01*
X207512440Y-108142117D01*
X207585011Y-108069545D01*
X207657582Y-107924402D01*
X207657582Y-107634117D01*
X207585011Y-107488974D01*
X207512440Y-107416402D01*
X207367297Y-107343831D01*
G04 #@! TO.C,K19*
X222917028Y-109525468D02*
X222917028Y-108001468D01*
X223787885Y-109525468D02*
X223134742Y-108654611D01*
X223787885Y-108001468D02*
X222917028Y-108872325D01*
X225239314Y-109525468D02*
X224368457Y-109525468D01*
X224803885Y-109525468D02*
X224803885Y-108001468D01*
X224658742Y-108219182D01*
X224513600Y-108364325D01*
X224368457Y-108436897D01*
X225965028Y-109525468D02*
X226255314Y-109525468D01*
X226400457Y-109452897D01*
X226473028Y-109380325D01*
X226618171Y-109162611D01*
X226690742Y-108872325D01*
X226690742Y-108291754D01*
X226618171Y-108146611D01*
X226545600Y-108074040D01*
X226400457Y-108001468D01*
X226110171Y-108001468D01*
X225965028Y-108074040D01*
X225892457Y-108146611D01*
X225819885Y-108291754D01*
X225819885Y-108654611D01*
X225892457Y-108799754D01*
X225965028Y-108872325D01*
X226110171Y-108944897D01*
X226400457Y-108944897D01*
X226545600Y-108872325D01*
X226618171Y-108799754D01*
X226690742Y-108654611D01*
G04 #@! TO.C,K20*
X242009428Y-114285068D02*
X242009428Y-112761068D01*
X242880285Y-114285068D02*
X242227142Y-113414211D01*
X242880285Y-112761068D02*
X242009428Y-113631925D01*
X243460857Y-112906211D02*
X243533428Y-112833640D01*
X243678571Y-112761068D01*
X244041428Y-112761068D01*
X244186571Y-112833640D01*
X244259142Y-112906211D01*
X244331714Y-113051354D01*
X244331714Y-113196497D01*
X244259142Y-113414211D01*
X243388285Y-114285068D01*
X244331714Y-114285068D01*
X245275142Y-112761068D02*
X245420285Y-112761068D01*
X245565428Y-112833640D01*
X245638000Y-112906211D01*
X245710571Y-113051354D01*
X245783142Y-113341640D01*
X245783142Y-113704497D01*
X245710571Y-113994782D01*
X245638000Y-114139925D01*
X245565428Y-114212497D01*
X245420285Y-114285068D01*
X245275142Y-114285068D01*
X245130000Y-114212497D01*
X245057428Y-114139925D01*
X244984857Y-113994782D01*
X244912285Y-113704497D01*
X244912285Y-113341640D01*
X244984857Y-113051354D01*
X245057428Y-112906211D01*
X245130000Y-112833640D01*
X245275142Y-112761068D01*
G04 #@! TO.C,K21*
X122954828Y-130463268D02*
X122954828Y-128939268D01*
X123825685Y-130463268D02*
X123172542Y-129592411D01*
X123825685Y-128939268D02*
X122954828Y-129810125D01*
X124406257Y-129084411D02*
X124478828Y-129011840D01*
X124623971Y-128939268D01*
X124986828Y-128939268D01*
X125131971Y-129011840D01*
X125204542Y-129084411D01*
X125277114Y-129229554D01*
X125277114Y-129374697D01*
X125204542Y-129592411D01*
X124333685Y-130463268D01*
X125277114Y-130463268D01*
X126728542Y-130463268D02*
X125857685Y-130463268D01*
X126293114Y-130463268D02*
X126293114Y-128939268D01*
X126147971Y-129156982D01*
X126002828Y-129302125D01*
X125857685Y-129374697D01*
G04 #@! TO.C,K22*
X146751028Y-130471468D02*
X146751028Y-128947468D01*
X147621885Y-130471468D02*
X146968742Y-129600611D01*
X147621885Y-128947468D02*
X146751028Y-129818325D01*
X148202457Y-129092611D02*
X148275028Y-129020040D01*
X148420171Y-128947468D01*
X148783028Y-128947468D01*
X148928171Y-129020040D01*
X149000742Y-129092611D01*
X149073314Y-129237754D01*
X149073314Y-129382897D01*
X149000742Y-129600611D01*
X148129885Y-130471468D01*
X149073314Y-130471468D01*
X149653885Y-129092611D02*
X149726457Y-129020040D01*
X149871600Y-128947468D01*
X150234457Y-128947468D01*
X150379600Y-129020040D01*
X150452171Y-129092611D01*
X150524742Y-129237754D01*
X150524742Y-129382897D01*
X150452171Y-129600611D01*
X149581314Y-130471468D01*
X150524742Y-130471468D01*
G04 #@! TO.C,K23*
X165809428Y-127279668D02*
X165809428Y-125755668D01*
X166680285Y-127279668D02*
X166027142Y-126408811D01*
X166680285Y-125755668D02*
X165809428Y-126626525D01*
X167260857Y-125900811D02*
X167333428Y-125828240D01*
X167478571Y-125755668D01*
X167841428Y-125755668D01*
X167986571Y-125828240D01*
X168059142Y-125900811D01*
X168131714Y-126045954D01*
X168131714Y-126191097D01*
X168059142Y-126408811D01*
X167188285Y-127279668D01*
X168131714Y-127279668D01*
X168639714Y-125755668D02*
X169583142Y-125755668D01*
X169075142Y-126336240D01*
X169292857Y-126336240D01*
X169438000Y-126408811D01*
X169510571Y-126481382D01*
X169583142Y-126626525D01*
X169583142Y-126989382D01*
X169510571Y-127134525D01*
X169438000Y-127207097D01*
X169292857Y-127279668D01*
X168857428Y-127279668D01*
X168712285Y-127207097D01*
X168639714Y-127134525D01*
G04 #@! TO.C,K24*
X184859428Y-125676668D02*
X184859428Y-124152668D01*
X185730285Y-125676668D02*
X185077142Y-124805811D01*
X185730285Y-124152668D02*
X184859428Y-125023525D01*
X186310857Y-124297811D02*
X186383428Y-124225240D01*
X186528571Y-124152668D01*
X186891428Y-124152668D01*
X187036571Y-124225240D01*
X187109142Y-124297811D01*
X187181714Y-124442954D01*
X187181714Y-124588097D01*
X187109142Y-124805811D01*
X186238285Y-125676668D01*
X187181714Y-125676668D01*
X188488000Y-124660668D02*
X188488000Y-125676668D01*
X188125142Y-124080097D02*
X187762285Y-125168668D01*
X188705714Y-125168668D01*
G04 #@! TO.C,K25*
X203909428Y-127259428D02*
X203909428Y-125735428D01*
X204780285Y-127259428D02*
X204127142Y-126388571D01*
X204780285Y-125735428D02*
X203909428Y-126606285D01*
X205360857Y-125880571D02*
X205433428Y-125808000D01*
X205578571Y-125735428D01*
X205941428Y-125735428D01*
X206086571Y-125808000D01*
X206159142Y-125880571D01*
X206231714Y-126025714D01*
X206231714Y-126170857D01*
X206159142Y-126388571D01*
X205288285Y-127259428D01*
X206231714Y-127259428D01*
X207610571Y-125735428D02*
X206884857Y-125735428D01*
X206812285Y-126461142D01*
X206884857Y-126388571D01*
X207030000Y-126316000D01*
X207392857Y-126316000D01*
X207538000Y-126388571D01*
X207610571Y-126461142D01*
X207683142Y-126606285D01*
X207683142Y-126969142D01*
X207610571Y-127114285D01*
X207538000Y-127186857D01*
X207392857Y-127259428D01*
X207030000Y-127259428D01*
X206884857Y-127186857D01*
X206812285Y-127114285D01*
G04 #@! TO.C,K26*
X222959428Y-128570268D02*
X222959428Y-127046268D01*
X223830285Y-128570268D02*
X223177142Y-127699411D01*
X223830285Y-127046268D02*
X222959428Y-127917125D01*
X224410857Y-127191411D02*
X224483428Y-127118840D01*
X224628571Y-127046268D01*
X224991428Y-127046268D01*
X225136571Y-127118840D01*
X225209142Y-127191411D01*
X225281714Y-127336554D01*
X225281714Y-127481697D01*
X225209142Y-127699411D01*
X224338285Y-128570268D01*
X225281714Y-128570268D01*
X226588000Y-127046268D02*
X226297714Y-127046268D01*
X226152571Y-127118840D01*
X226080000Y-127191411D01*
X225934857Y-127409125D01*
X225862285Y-127699411D01*
X225862285Y-128279982D01*
X225934857Y-128425125D01*
X226007428Y-128497697D01*
X226152571Y-128570268D01*
X226442857Y-128570268D01*
X226588000Y-128497697D01*
X226660571Y-128425125D01*
X226733142Y-128279982D01*
X226733142Y-127917125D01*
X226660571Y-127771982D01*
X226588000Y-127699411D01*
X226442857Y-127626840D01*
X226152571Y-127626840D01*
X226007428Y-127699411D01*
X225934857Y-127771982D01*
X225862285Y-127917125D01*
G04 #@! TO.C,K27*
X268445209Y-155059433D02*
X267063996Y-154415363D01*
X268813249Y-154270168D02*
X267747954Y-154494077D01*
X267432036Y-153626098D02*
X267853260Y-154783403D01*
X267808940Y-153161262D02*
X267773838Y-153064820D01*
X267769406Y-152902606D01*
X267922756Y-152573745D01*
X268049868Y-152472871D01*
X268146310Y-152437769D01*
X268308524Y-152433337D01*
X268440068Y-152494677D01*
X268606714Y-152652459D01*
X269027939Y-153809764D01*
X269426649Y-152954727D01*
X268260126Y-151850253D02*
X268689506Y-150929444D01*
X269794689Y-152165463D01*
G04 #@! TO.C,K28*
X276796729Y-158775452D02*
X275415516Y-158131382D01*
X277164769Y-157986187D02*
X276099474Y-158210096D01*
X275783556Y-157342117D02*
X276204780Y-158499422D01*
X276160460Y-156877281D02*
X276125358Y-156780839D01*
X276120926Y-156618625D01*
X276274276Y-156289764D01*
X276401388Y-156188890D01*
X276497830Y-156153788D01*
X276660044Y-156149356D01*
X276791588Y-156210696D01*
X276958234Y-156368478D01*
X277379459Y-157525783D01*
X277778169Y-156670746D01*
X277356945Y-155513442D02*
X277229833Y-155614316D01*
X277133390Y-155649418D01*
X276971176Y-155653850D01*
X276905404Y-155623180D01*
X276804530Y-155496068D01*
X276769428Y-155399626D01*
X276764996Y-155237411D01*
X276887676Y-154974323D01*
X277014788Y-154873449D01*
X277111230Y-154838347D01*
X277273444Y-154833915D01*
X277339216Y-154864585D01*
X277440091Y-154991697D01*
X277475193Y-155088139D01*
X277479625Y-155250353D01*
X277356945Y-155513442D01*
X277361377Y-155675656D01*
X277396479Y-155772098D01*
X277497353Y-155899210D01*
X277760441Y-156021890D01*
X277922655Y-156017458D01*
X278019097Y-155982356D01*
X278146209Y-155881482D01*
X278268889Y-155618393D01*
X278264457Y-155456179D01*
X278229355Y-155359737D01*
X278128481Y-155232625D01*
X277865393Y-155109945D01*
X277703179Y-155114377D01*
X277606737Y-155149479D01*
X277479625Y-155250353D01*
G04 #@! TO.C,K29*
X122949428Y-149509428D02*
X122949428Y-147985428D01*
X123820285Y-149509428D02*
X123167142Y-148638571D01*
X123820285Y-147985428D02*
X122949428Y-148856285D01*
X124400857Y-148130571D02*
X124473428Y-148058000D01*
X124618571Y-147985428D01*
X124981428Y-147985428D01*
X125126571Y-148058000D01*
X125199142Y-148130571D01*
X125271714Y-148275714D01*
X125271714Y-148420857D01*
X125199142Y-148638571D01*
X124328285Y-149509428D01*
X125271714Y-149509428D01*
X125997428Y-149509428D02*
X126287714Y-149509428D01*
X126432857Y-149436857D01*
X126505428Y-149364285D01*
X126650571Y-149146571D01*
X126723142Y-148856285D01*
X126723142Y-148275714D01*
X126650571Y-148130571D01*
X126578000Y-148058000D01*
X126432857Y-147985428D01*
X126142571Y-147985428D01*
X125997428Y-148058000D01*
X125924857Y-148130571D01*
X125852285Y-148275714D01*
X125852285Y-148638571D01*
X125924857Y-148783714D01*
X125997428Y-148856285D01*
X126142571Y-148928857D01*
X126432857Y-148928857D01*
X126578000Y-148856285D01*
X126650571Y-148783714D01*
X126723142Y-148638571D01*
G04 #@! TO.C,K30*
X146759428Y-149509428D02*
X146759428Y-147985428D01*
X147630285Y-149509428D02*
X146977142Y-148638571D01*
X147630285Y-147985428D02*
X146759428Y-148856285D01*
X148138285Y-147985428D02*
X149081714Y-147985428D01*
X148573714Y-148566000D01*
X148791428Y-148566000D01*
X148936571Y-148638571D01*
X149009142Y-148711142D01*
X149081714Y-148856285D01*
X149081714Y-149219142D01*
X149009142Y-149364285D01*
X148936571Y-149436857D01*
X148791428Y-149509428D01*
X148356000Y-149509428D01*
X148210857Y-149436857D01*
X148138285Y-149364285D01*
X150025142Y-147985428D02*
X150170285Y-147985428D01*
X150315428Y-148058000D01*
X150388000Y-148130571D01*
X150460571Y-148275714D01*
X150533142Y-148566000D01*
X150533142Y-148928857D01*
X150460571Y-149219142D01*
X150388000Y-149364285D01*
X150315428Y-149436857D01*
X150170285Y-149509428D01*
X150025142Y-149509428D01*
X149880000Y-149436857D01*
X149807428Y-149364285D01*
X149734857Y-149219142D01*
X149662285Y-148928857D01*
X149662285Y-148566000D01*
X149734857Y-148275714D01*
X149807428Y-148130571D01*
X149880000Y-148058000D01*
X150025142Y-147985428D01*
G04 #@! TO.C,K31*
X165809428Y-146329428D02*
X165809428Y-144805428D01*
X166680285Y-146329428D02*
X166027142Y-145458571D01*
X166680285Y-144805428D02*
X165809428Y-145676285D01*
X167188285Y-144805428D02*
X168131714Y-144805428D01*
X167623714Y-145386000D01*
X167841428Y-145386000D01*
X167986571Y-145458571D01*
X168059142Y-145531142D01*
X168131714Y-145676285D01*
X168131714Y-146039142D01*
X168059142Y-146184285D01*
X167986571Y-146256857D01*
X167841428Y-146329428D01*
X167406000Y-146329428D01*
X167260857Y-146256857D01*
X167188285Y-146184285D01*
X169583142Y-146329428D02*
X168712285Y-146329428D01*
X169147714Y-146329428D02*
X169147714Y-144805428D01*
X169002571Y-145023142D01*
X168857428Y-145168285D01*
X168712285Y-145240857D01*
G04 #@! TO.C,K32*
X184859428Y-144719428D02*
X184859428Y-143195428D01*
X185730285Y-144719428D02*
X185077142Y-143848571D01*
X185730285Y-143195428D02*
X184859428Y-144066285D01*
X186238285Y-143195428D02*
X187181714Y-143195428D01*
X186673714Y-143776000D01*
X186891428Y-143776000D01*
X187036571Y-143848571D01*
X187109142Y-143921142D01*
X187181714Y-144066285D01*
X187181714Y-144429142D01*
X187109142Y-144574285D01*
X187036571Y-144646857D01*
X186891428Y-144719428D01*
X186456000Y-144719428D01*
X186310857Y-144646857D01*
X186238285Y-144574285D01*
X187762285Y-143340571D02*
X187834857Y-143268000D01*
X187980000Y-143195428D01*
X188342857Y-143195428D01*
X188488000Y-143268000D01*
X188560571Y-143340571D01*
X188633142Y-143485714D01*
X188633142Y-143630857D01*
X188560571Y-143848571D01*
X187689714Y-144719428D01*
X188633142Y-144719428D01*
G04 #@! TO.C,K33*
X203909428Y-146299428D02*
X203909428Y-144775428D01*
X204780285Y-146299428D02*
X204127142Y-145428571D01*
X204780285Y-144775428D02*
X203909428Y-145646285D01*
X205288285Y-144775428D02*
X206231714Y-144775428D01*
X205723714Y-145356000D01*
X205941428Y-145356000D01*
X206086571Y-145428571D01*
X206159142Y-145501142D01*
X206231714Y-145646285D01*
X206231714Y-146009142D01*
X206159142Y-146154285D01*
X206086571Y-146226857D01*
X205941428Y-146299428D01*
X205506000Y-146299428D01*
X205360857Y-146226857D01*
X205288285Y-146154285D01*
X206739714Y-144775428D02*
X207683142Y-144775428D01*
X207175142Y-145356000D01*
X207392857Y-145356000D01*
X207538000Y-145428571D01*
X207610571Y-145501142D01*
X207683142Y-145646285D01*
X207683142Y-146009142D01*
X207610571Y-146154285D01*
X207538000Y-146226857D01*
X207392857Y-146299428D01*
X206957428Y-146299428D01*
X206812285Y-146226857D01*
X206739714Y-146154285D01*
G04 #@! TO.C,K34*
X222959428Y-147599428D02*
X222959428Y-146075428D01*
X223830285Y-147599428D02*
X223177142Y-146728571D01*
X223830285Y-146075428D02*
X222959428Y-146946285D01*
X224338285Y-146075428D02*
X225281714Y-146075428D01*
X224773714Y-146656000D01*
X224991428Y-146656000D01*
X225136571Y-146728571D01*
X225209142Y-146801142D01*
X225281714Y-146946285D01*
X225281714Y-147309142D01*
X225209142Y-147454285D01*
X225136571Y-147526857D01*
X224991428Y-147599428D01*
X224556000Y-147599428D01*
X224410857Y-147526857D01*
X224338285Y-147454285D01*
X226588000Y-146583428D02*
X226588000Y-147599428D01*
X226225142Y-146002857D02*
X225862285Y-147091428D01*
X226805714Y-147091428D01*
G04 #@! TO.C,K35*
X242009428Y-142839428D02*
X242009428Y-141315428D01*
X242880285Y-142839428D02*
X242227142Y-141968571D01*
X242880285Y-141315428D02*
X242009428Y-142186285D01*
X243388285Y-141315428D02*
X244331714Y-141315428D01*
X243823714Y-141896000D01*
X244041428Y-141896000D01*
X244186571Y-141968571D01*
X244259142Y-142041142D01*
X244331714Y-142186285D01*
X244331714Y-142549142D01*
X244259142Y-142694285D01*
X244186571Y-142766857D01*
X244041428Y-142839428D01*
X243606000Y-142839428D01*
X243460857Y-142766857D01*
X243388285Y-142694285D01*
X245710571Y-141315428D02*
X244984857Y-141315428D01*
X244912285Y-142041142D01*
X244984857Y-141968571D01*
X245130000Y-141896000D01*
X245492857Y-141896000D01*
X245638000Y-141968571D01*
X245710571Y-142041142D01*
X245783142Y-142186285D01*
X245783142Y-142549142D01*
X245710571Y-142694285D01*
X245638000Y-142766857D01*
X245492857Y-142839428D01*
X245130000Y-142839428D01*
X244984857Y-142766857D01*
X244912285Y-142694285D01*
G04 #@! TO.C,K36*
X281483324Y-181983672D02*
X280102111Y-181339602D01*
X281851364Y-181194407D02*
X280786069Y-181418316D01*
X280470151Y-180550337D02*
X280891375Y-181707642D01*
X280684841Y-180089933D02*
X281083551Y-179234896D01*
X281395037Y-179940660D01*
X281487047Y-179743344D01*
X281614159Y-179642470D01*
X281710601Y-179607368D01*
X281872816Y-179602936D01*
X282201676Y-179756286D01*
X282302550Y-179883398D01*
X282337652Y-179979840D01*
X282342084Y-180142054D01*
X282158064Y-180536687D01*
X282030952Y-180637561D01*
X281934510Y-180672663D01*
X281635611Y-178050999D02*
X281512931Y-178314087D01*
X281517363Y-178476301D01*
X281552465Y-178572744D01*
X281688441Y-178796298D01*
X281920860Y-178984750D01*
X282447036Y-179230110D01*
X282609250Y-179225678D01*
X282705692Y-179190576D01*
X282832804Y-179089702D01*
X282955484Y-178826613D01*
X282951052Y-178664399D01*
X282915950Y-178567957D01*
X282815076Y-178440845D01*
X282486216Y-178287495D01*
X282324002Y-178291927D01*
X282227560Y-178327029D01*
X282100448Y-178427903D01*
X281977768Y-178690992D01*
X281982200Y-178853206D01*
X282017302Y-178949648D01*
X282118176Y-179076760D01*
G04 #@! TO.C,K37*
X127709428Y-168559428D02*
X127709428Y-167035428D01*
X128580285Y-168559428D02*
X127927142Y-167688571D01*
X128580285Y-167035428D02*
X127709428Y-167906285D01*
X129088285Y-167035428D02*
X130031714Y-167035428D01*
X129523714Y-167616000D01*
X129741428Y-167616000D01*
X129886571Y-167688571D01*
X129959142Y-167761142D01*
X130031714Y-167906285D01*
X130031714Y-168269142D01*
X129959142Y-168414285D01*
X129886571Y-168486857D01*
X129741428Y-168559428D01*
X129306000Y-168559428D01*
X129160857Y-168486857D01*
X129088285Y-168414285D01*
X130539714Y-167035428D02*
X131555714Y-167035428D01*
X130902571Y-168559428D01*
G04 #@! TO.C,K38*
X146759428Y-168559428D02*
X146759428Y-167035428D01*
X147630285Y-168559428D02*
X146977142Y-167688571D01*
X147630285Y-167035428D02*
X146759428Y-167906285D01*
X148138285Y-167035428D02*
X149081714Y-167035428D01*
X148573714Y-167616000D01*
X148791428Y-167616000D01*
X148936571Y-167688571D01*
X149009142Y-167761142D01*
X149081714Y-167906285D01*
X149081714Y-168269142D01*
X149009142Y-168414285D01*
X148936571Y-168486857D01*
X148791428Y-168559428D01*
X148356000Y-168559428D01*
X148210857Y-168486857D01*
X148138285Y-168414285D01*
X149952571Y-167688571D02*
X149807428Y-167616000D01*
X149734857Y-167543428D01*
X149662285Y-167398285D01*
X149662285Y-167325714D01*
X149734857Y-167180571D01*
X149807428Y-167108000D01*
X149952571Y-167035428D01*
X150242857Y-167035428D01*
X150388000Y-167108000D01*
X150460571Y-167180571D01*
X150533142Y-167325714D01*
X150533142Y-167398285D01*
X150460571Y-167543428D01*
X150388000Y-167616000D01*
X150242857Y-167688571D01*
X149952571Y-167688571D01*
X149807428Y-167761142D01*
X149734857Y-167833714D01*
X149662285Y-167978857D01*
X149662285Y-168269142D01*
X149734857Y-168414285D01*
X149807428Y-168486857D01*
X149952571Y-168559428D01*
X150242857Y-168559428D01*
X150388000Y-168486857D01*
X150460571Y-168414285D01*
X150533142Y-168269142D01*
X150533142Y-167978857D01*
X150460571Y-167833714D01*
X150388000Y-167761142D01*
X150242857Y-167688571D01*
G04 #@! TO.C,K39*
X165809428Y-165359428D02*
X165809428Y-163835428D01*
X166680285Y-165359428D02*
X166027142Y-164488571D01*
X166680285Y-163835428D02*
X165809428Y-164706285D01*
X167188285Y-163835428D02*
X168131714Y-163835428D01*
X167623714Y-164416000D01*
X167841428Y-164416000D01*
X167986571Y-164488571D01*
X168059142Y-164561142D01*
X168131714Y-164706285D01*
X168131714Y-165069142D01*
X168059142Y-165214285D01*
X167986571Y-165286857D01*
X167841428Y-165359428D01*
X167406000Y-165359428D01*
X167260857Y-165286857D01*
X167188285Y-165214285D01*
X168857428Y-165359428D02*
X169147714Y-165359428D01*
X169292857Y-165286857D01*
X169365428Y-165214285D01*
X169510571Y-164996571D01*
X169583142Y-164706285D01*
X169583142Y-164125714D01*
X169510571Y-163980571D01*
X169438000Y-163908000D01*
X169292857Y-163835428D01*
X169002571Y-163835428D01*
X168857428Y-163908000D01*
X168784857Y-163980571D01*
X168712285Y-164125714D01*
X168712285Y-164488571D01*
X168784857Y-164633714D01*
X168857428Y-164706285D01*
X169002571Y-164778857D01*
X169292857Y-164778857D01*
X169438000Y-164706285D01*
X169510571Y-164633714D01*
X169583142Y-164488571D01*
G04 #@! TO.C,K40*
X184859428Y-163759428D02*
X184859428Y-162235428D01*
X185730285Y-163759428D02*
X185077142Y-162888571D01*
X185730285Y-162235428D02*
X184859428Y-163106285D01*
X187036571Y-162743428D02*
X187036571Y-163759428D01*
X186673714Y-162162857D02*
X186310857Y-163251428D01*
X187254285Y-163251428D01*
X188125142Y-162235428D02*
X188270285Y-162235428D01*
X188415428Y-162308000D01*
X188488000Y-162380571D01*
X188560571Y-162525714D01*
X188633142Y-162816000D01*
X188633142Y-163178857D01*
X188560571Y-163469142D01*
X188488000Y-163614285D01*
X188415428Y-163686857D01*
X188270285Y-163759428D01*
X188125142Y-163759428D01*
X187980000Y-163686857D01*
X187907428Y-163614285D01*
X187834857Y-163469142D01*
X187762285Y-163178857D01*
X187762285Y-162816000D01*
X187834857Y-162525714D01*
X187907428Y-162380571D01*
X187980000Y-162308000D01*
X188125142Y-162235428D01*
G04 #@! TO.C,K41*
X203909428Y-165339428D02*
X203909428Y-163815428D01*
X204780285Y-165339428D02*
X204127142Y-164468571D01*
X204780285Y-163815428D02*
X203909428Y-164686285D01*
X206086571Y-164323428D02*
X206086571Y-165339428D01*
X205723714Y-163742857D02*
X205360857Y-164831428D01*
X206304285Y-164831428D01*
X207683142Y-165339428D02*
X206812285Y-165339428D01*
X207247714Y-165339428D02*
X207247714Y-163815428D01*
X207102571Y-164033142D01*
X206957428Y-164178285D01*
X206812285Y-164250857D01*
G04 #@! TO.C,K42*
X241848471Y-171685413D02*
X240467258Y-171041343D01*
X242216511Y-170896148D02*
X241151216Y-171120057D01*
X240835298Y-170252078D02*
X241256522Y-171409383D01*
X241847762Y-169282871D02*
X242768571Y-169712251D01*
X241168236Y-169366371D02*
X242001467Y-170155282D01*
X242400177Y-169300245D01*
X241825602Y-168471801D02*
X241790500Y-168375359D01*
X241786068Y-168213144D01*
X241939418Y-167884284D01*
X242066530Y-167783410D01*
X242162972Y-167748308D01*
X242325186Y-167743876D01*
X242456731Y-167805216D01*
X242623377Y-167962998D01*
X243044601Y-169120303D01*
X243443311Y-168265266D01*
G04 #@! TO.C,K43*
X259293592Y-179641016D02*
X257912379Y-178996946D01*
X259661632Y-178851751D02*
X258596337Y-179075660D01*
X258280419Y-178207681D02*
X258701643Y-179364986D01*
X259292883Y-177238474D02*
X260213692Y-177667854D01*
X258613357Y-177321974D02*
X259446588Y-178110885D01*
X259845298Y-177255848D01*
X259108509Y-176431836D02*
X259507219Y-175576799D01*
X259818706Y-176282563D01*
X259910716Y-176085247D01*
X260037828Y-175984373D01*
X260134270Y-175949271D01*
X260296484Y-175944839D01*
X260625344Y-176098189D01*
X260726218Y-176225301D01*
X260761320Y-176321743D01*
X260765752Y-176483957D01*
X260581732Y-176878590D01*
X260454620Y-176979464D01*
X260358178Y-177014566D01*
G04 #@! TO.C,K44*
X273450470Y-199223304D02*
X272069257Y-198579234D01*
X273818510Y-198434039D02*
X272753215Y-198657948D01*
X272437297Y-197789969D02*
X272858521Y-198947274D01*
X273449761Y-196820762D02*
X274370570Y-197250142D01*
X272770235Y-196904262D02*
X273603466Y-197693173D01*
X274002176Y-196838136D01*
X274063162Y-195505321D02*
X274983970Y-195934701D01*
X273383635Y-195588821D02*
X274216866Y-196377732D01*
X274615576Y-195522695D01*
G04 #@! TO.C,R1*
D10*
X204751000Y-38800688D02*
X204551000Y-38514974D01*
X204408142Y-38800688D02*
X204408142Y-38200688D01*
X204636714Y-38200688D01*
X204693857Y-38229260D01*
X204722428Y-38257831D01*
X204751000Y-38314974D01*
X204751000Y-38400688D01*
X204722428Y-38457831D01*
X204693857Y-38486402D01*
X204636714Y-38514974D01*
X204408142Y-38514974D01*
X205322428Y-38800688D02*
X204979571Y-38800688D01*
X205151000Y-38800688D02*
X205151000Y-38200688D01*
X205093857Y-38286402D01*
X205036714Y-38343545D01*
X204979571Y-38372117D01*
D12*
X203345920Y-39423079D02*
X203393539Y-39375460D01*
X203488777Y-39327840D01*
X203726872Y-39327840D01*
X203822110Y-39375460D01*
X203869729Y-39423079D01*
X203917348Y-39518317D01*
X203917348Y-39613555D01*
X203869729Y-39756412D01*
X203298300Y-40327840D01*
X203917348Y-40327840D01*
X204345920Y-40232602D02*
X204393539Y-40280221D01*
X204345920Y-40327840D01*
X204298300Y-40280221D01*
X204345920Y-40232602D01*
X204345920Y-40327840D01*
X204774491Y-39423079D02*
X204822110Y-39375460D01*
X204917348Y-39327840D01*
X205155443Y-39327840D01*
X205250681Y-39375460D01*
X205298300Y-39423079D01*
X205345920Y-39518317D01*
X205345920Y-39613555D01*
X205298300Y-39756412D01*
X204726872Y-40327840D01*
X205345920Y-40327840D01*
X205774491Y-40327840D02*
X205774491Y-39327840D01*
X206345920Y-40327840D02*
X205917348Y-39756412D01*
X206345920Y-39327840D02*
X205774491Y-39899269D01*
G04 #@! TO.C,R2*
D10*
X185807680Y-38833708D02*
X185607680Y-38547994D01*
X185464822Y-38833708D02*
X185464822Y-38233708D01*
X185693394Y-38233708D01*
X185750537Y-38262280D01*
X185779108Y-38290851D01*
X185807680Y-38347994D01*
X185807680Y-38433708D01*
X185779108Y-38490851D01*
X185750537Y-38519422D01*
X185693394Y-38547994D01*
X185464822Y-38547994D01*
X186036251Y-38290851D02*
X186064822Y-38262280D01*
X186121965Y-38233708D01*
X186264822Y-38233708D01*
X186321965Y-38262280D01*
X186350537Y-38290851D01*
X186379108Y-38347994D01*
X186379108Y-38405137D01*
X186350537Y-38490851D01*
X186007680Y-38833708D01*
X186379108Y-38833708D01*
D12*
X184407680Y-39423079D02*
X184455299Y-39375460D01*
X184550537Y-39327840D01*
X184788632Y-39327840D01*
X184883870Y-39375460D01*
X184931489Y-39423079D01*
X184979108Y-39518317D01*
X184979108Y-39613555D01*
X184931489Y-39756412D01*
X184360060Y-40327840D01*
X184979108Y-40327840D01*
X185407680Y-40232602D02*
X185455299Y-40280221D01*
X185407680Y-40327840D01*
X185360060Y-40280221D01*
X185407680Y-40232602D01*
X185407680Y-40327840D01*
X185836251Y-39423079D02*
X185883870Y-39375460D01*
X185979108Y-39327840D01*
X186217203Y-39327840D01*
X186312441Y-39375460D01*
X186360060Y-39423079D01*
X186407680Y-39518317D01*
X186407680Y-39613555D01*
X186360060Y-39756412D01*
X185788632Y-40327840D01*
X186407680Y-40327840D01*
X186836251Y-40327840D02*
X186836251Y-39327840D01*
X187407680Y-40327840D02*
X186979108Y-39756412D01*
X187407680Y-39327840D02*
X186836251Y-39899269D01*
G04 #@! TD*
M02*
