G04 #@! TF.GenerationSoftware,KiCad,Pcbnew,(5.0.1)-3*
G04 #@! TF.CreationDate,2019-02-15T18:45:51-08:00*
G04 #@! TF.ProjectId,ErgoMaxLeft,4572676F4D61784C6566742E6B696361,rev?*
G04 #@! TF.SameCoordinates,Original*
G04 #@! TF.FileFunction,Legend,Bot*
G04 #@! TF.FilePolarity,Positive*
%FSLAX46Y46*%
G04 Gerber Fmt 4.6, Leading zero omitted, Abs format (unit mm)*
G04 Created by KiCad (PCBNEW (5.0.1)-3) date 15/02/2019 18:45:51*
%MOMM*%
%LPD*%
G01*
G04 APERTURE LIST*
%ADD10C,0.150000*%
%ADD11C,0.304800*%
G04 APERTURE END LIST*
D10*
G04 #@! TO.C,D25*
X197285961Y-124047005D02*
X195761961Y-124047005D01*
X195761961Y-119983005D02*
X195761961Y-124047005D01*
X195761961Y-124047005D02*
X195761961Y-119983005D01*
X195761961Y-119983005D02*
X197285961Y-119983005D01*
X197285961Y-119983005D02*
X197285961Y-124047005D01*
X197285961Y-123539005D02*
X195761961Y-123539005D01*
G04 #@! TO.C,D26*
X216335961Y-125357845D02*
X214811961Y-125357845D01*
X214811961Y-121293845D02*
X214811961Y-125357845D01*
X214811961Y-125357845D02*
X214811961Y-121293845D01*
X214811961Y-121293845D02*
X216335961Y-121293845D01*
X216335961Y-121293845D02*
X216335961Y-125357845D01*
X216335961Y-124849845D02*
X214811961Y-124849845D01*
G04 #@! TO.C,D27*
X255277106Y-149389673D02*
X253895893Y-148745602D01*
X255613414Y-145062367D02*
X253895893Y-148745602D01*
X253895893Y-148745602D02*
X255613414Y-145062367D01*
X255613414Y-145062367D02*
X256994627Y-145706438D01*
X256994627Y-145706438D02*
X255277106Y-149389673D01*
X255491796Y-148929268D02*
X254110583Y-148285198D01*
G04 #@! TO.C,D28*
X272018246Y-158912133D02*
X270637033Y-158268062D01*
X272354554Y-154584827D02*
X270637033Y-158268062D01*
X270637033Y-158268062D02*
X272354554Y-154584827D01*
X272354554Y-154584827D02*
X273735767Y-155228898D01*
X273735767Y-155228898D02*
X272018246Y-158912133D01*
X272232936Y-158451728D02*
X270851723Y-157807658D01*
G04 #@! TO.C,D29*
X116325961Y-146297005D02*
X114801961Y-146297005D01*
X114801961Y-142233005D02*
X114801961Y-146297005D01*
X114801961Y-146297005D02*
X114801961Y-142233005D01*
X114801961Y-142233005D02*
X116325961Y-142233005D01*
X116325961Y-142233005D02*
X116325961Y-146297005D01*
X116325961Y-145789005D02*
X114801961Y-145789005D01*
G04 #@! TO.C,D30*
X140135961Y-146297005D02*
X138611961Y-146297005D01*
X138611961Y-142233005D02*
X138611961Y-146297005D01*
X138611961Y-146297005D02*
X138611961Y-142233005D01*
X138611961Y-142233005D02*
X140135961Y-142233005D01*
X140135961Y-142233005D02*
X140135961Y-146297005D01*
X140135961Y-145789005D02*
X138611961Y-145789005D01*
G04 #@! TO.C,D31*
X159185961Y-143117005D02*
X157661961Y-143117005D01*
X157661961Y-139053005D02*
X157661961Y-143117005D01*
X157661961Y-143117005D02*
X157661961Y-139053005D01*
X157661961Y-139053005D02*
X159185961Y-139053005D01*
X159185961Y-139053005D02*
X159185961Y-143117005D01*
X159185961Y-142609005D02*
X157661961Y-142609005D01*
G04 #@! TO.C,D32*
X178235961Y-141507005D02*
X176711961Y-141507005D01*
X176711961Y-137443005D02*
X176711961Y-141507005D01*
X176711961Y-141507005D02*
X176711961Y-137443005D01*
X176711961Y-137443005D02*
X178235961Y-137443005D01*
X178235961Y-137443005D02*
X178235961Y-141507005D01*
X178235961Y-140999005D02*
X176711961Y-140999005D01*
G04 #@! TO.C,D33*
X197285961Y-143087005D02*
X195761961Y-143087005D01*
X195761961Y-139023005D02*
X195761961Y-143087005D01*
X195761961Y-143087005D02*
X195761961Y-139023005D01*
X195761961Y-139023005D02*
X197285961Y-139023005D01*
X197285961Y-139023005D02*
X197285961Y-143087005D01*
X197285961Y-142579005D02*
X195761961Y-142579005D01*
G04 #@! TO.C,D34*
X216335961Y-144387005D02*
X214811961Y-144387005D01*
X214811961Y-140323005D02*
X214811961Y-144387005D01*
X214811961Y-144387005D02*
X214811961Y-140323005D01*
X214811961Y-140323005D02*
X216335961Y-140323005D01*
X216335961Y-140323005D02*
X216335961Y-144387005D01*
X216335961Y-143879005D02*
X214811961Y-143879005D01*
G04 #@! TO.C,D12*
X216335961Y-87260525D02*
X214811961Y-87260525D01*
X214811961Y-83196525D02*
X214811961Y-87260525D01*
X214811961Y-87260525D02*
X214811961Y-83196525D01*
X214811961Y-83196525D02*
X216335961Y-83196525D01*
X216335961Y-83196525D02*
X216335961Y-87260525D01*
X216335961Y-86752525D02*
X214811961Y-86752525D01*
G04 #@! TO.C,D36*
X265303427Y-162932866D02*
X265947498Y-161551653D01*
X269630733Y-163269174D02*
X265947498Y-161551653D01*
X265947498Y-161551653D02*
X269630733Y-163269174D01*
X269630733Y-163269174D02*
X268986662Y-164650387D01*
X268986662Y-164650387D02*
X265303427Y-162932866D01*
X265763832Y-163147556D02*
X266407902Y-161766343D01*
G04 #@! TO.C,D37*
X121234200Y-151053800D02*
X121234200Y-149529800D01*
X125298200Y-149529800D02*
X121234200Y-149529800D01*
X121234200Y-149529800D02*
X125298200Y-149529800D01*
X125298200Y-149529800D02*
X125298200Y-151053800D01*
X125298200Y-151053800D02*
X121234200Y-151053800D01*
X121742200Y-151053800D02*
X121742200Y-149529800D01*
G04 #@! TO.C,D38*
X138963400Y-164287200D02*
X137439400Y-164287200D01*
X137439400Y-160223200D02*
X137439400Y-164287200D01*
X137439400Y-164287200D02*
X137439400Y-160223200D01*
X137439400Y-160223200D02*
X138963400Y-160223200D01*
X138963400Y-160223200D02*
X138963400Y-164287200D01*
X138963400Y-163779200D02*
X137439400Y-163779200D01*
G04 #@! TO.C,D39*
X159185961Y-162147005D02*
X157661961Y-162147005D01*
X157661961Y-158083005D02*
X157661961Y-162147005D01*
X157661961Y-162147005D02*
X157661961Y-158083005D01*
X157661961Y-158083005D02*
X159185961Y-158083005D01*
X159185961Y-158083005D02*
X159185961Y-162147005D01*
X159185961Y-161639005D02*
X157661961Y-161639005D01*
G04 #@! TO.C,D40*
X178235961Y-160547005D02*
X176711961Y-160547005D01*
X176711961Y-156483005D02*
X176711961Y-160547005D01*
X176711961Y-160547005D02*
X176711961Y-156483005D01*
X176711961Y-156483005D02*
X178235961Y-156483005D01*
X178235961Y-156483005D02*
X178235961Y-160547005D01*
X178235961Y-160039005D02*
X176711961Y-160039005D01*
G04 #@! TO.C,D41*
X197285961Y-162127005D02*
X195761961Y-162127005D01*
X195761961Y-158063005D02*
X195761961Y-162127005D01*
X195761961Y-162127005D02*
X195761961Y-158063005D01*
X195761961Y-158063005D02*
X197285961Y-158063005D01*
X197285961Y-158063005D02*
X197285961Y-162127005D01*
X197285961Y-161619005D02*
X195761961Y-161619005D01*
G04 #@! TO.C,D42*
X222974414Y-164622907D02*
X224355627Y-165266978D01*
X222638106Y-168950213D02*
X224355627Y-165266978D01*
X224355627Y-165266978D02*
X222638106Y-168950213D01*
X222638106Y-168950213D02*
X221256893Y-168306142D01*
X221256893Y-168306142D02*
X222974414Y-164622907D01*
X222759724Y-165083312D02*
X224140937Y-165727382D01*
G04 #@! TO.C,D43*
X246756347Y-154238446D02*
X247400418Y-152857233D01*
X251083653Y-154574754D02*
X247400418Y-152857233D01*
X247400418Y-152857233D02*
X251083653Y-154574754D01*
X251083653Y-154574754D02*
X250439582Y-155955967D01*
X250439582Y-155955967D02*
X246756347Y-154238446D01*
X247216752Y-154453136D02*
X247860822Y-153071923D01*
G04 #@! TO.C,D44*
X269113427Y-186562486D02*
X269757498Y-185181273D01*
X273440733Y-186898794D02*
X269757498Y-185181273D01*
X269757498Y-185181273D02*
X273440733Y-186898794D01*
X273440733Y-186898794D02*
X272796662Y-188280007D01*
X272796662Y-188280007D02*
X269113427Y-186562486D01*
X269573832Y-186777176D02*
X270217902Y-185395963D01*
G04 #@! TO.C,D22*
X140127561Y-127259045D02*
X138603561Y-127259045D01*
X138603561Y-123195045D02*
X138603561Y-127259045D01*
X138603561Y-127259045D02*
X138603561Y-123195045D01*
X138603561Y-123195045D02*
X140127561Y-123195045D01*
X140127561Y-123195045D02*
X140127561Y-127259045D01*
X140127561Y-126751045D02*
X138603561Y-126751045D01*
G04 #@! TO.C,D35*
X236280960Y-140225780D02*
X234756960Y-140225780D01*
X234756960Y-136161780D02*
X234756960Y-140225780D01*
X234756960Y-140225780D02*
X234756960Y-136161780D01*
X234756960Y-136161780D02*
X236280960Y-136161780D01*
X236280960Y-136161780D02*
X236280960Y-140225780D01*
X236280960Y-139717780D02*
X234756960Y-139717780D01*
G04 #@! TO.C,D2*
X159175961Y-66924045D02*
X157651961Y-66924045D01*
X157651961Y-62860045D02*
X157651961Y-66924045D01*
X157651961Y-66924045D02*
X157651961Y-62860045D01*
X157651961Y-62860045D02*
X159175961Y-62860045D01*
X159175961Y-62860045D02*
X159175961Y-66924045D01*
X159175961Y-66416045D02*
X157651961Y-66416045D01*
G04 #@! TO.C,D3*
X178215961Y-65326645D02*
X176691961Y-65326645D01*
X176691961Y-61262645D02*
X176691961Y-65326645D01*
X176691961Y-65326645D02*
X176691961Y-61262645D01*
X176691961Y-61262645D02*
X178215961Y-61262645D01*
X178215961Y-61262645D02*
X178215961Y-65326645D01*
X178215961Y-64818645D02*
X176691961Y-64818645D01*
G04 #@! TO.C,D4*
X197255961Y-66910645D02*
X195731961Y-66910645D01*
X195731961Y-62846645D02*
X195731961Y-66910645D01*
X195731961Y-66910645D02*
X195731961Y-62846645D01*
X195731961Y-62846645D02*
X197255961Y-62846645D01*
X197255961Y-62846645D02*
X197255961Y-66910645D01*
X197255961Y-66402645D02*
X195731961Y-66402645D01*
G04 #@! TO.C,D5*
X216293712Y-68210645D02*
X214769712Y-68210645D01*
X214769712Y-64146645D02*
X214769712Y-68210645D01*
X214769712Y-68210645D02*
X214769712Y-64146645D01*
X214769712Y-64146645D02*
X216293712Y-64146645D01*
X216293712Y-64146645D02*
X216293712Y-68210645D01*
X216293712Y-67702645D02*
X214769712Y-67702645D01*
G04 #@! TO.C,D6*
X235385961Y-68212645D02*
X233861961Y-68212645D01*
X233861961Y-64148645D02*
X233861961Y-68212645D01*
X233861961Y-68212645D02*
X233861961Y-64148645D01*
X233861961Y-64148645D02*
X235385961Y-64148645D01*
X235385961Y-64148645D02*
X235385961Y-68212645D01*
X235385961Y-67704645D02*
X233861961Y-67704645D01*
G04 #@! TO.C,D7*
X116317641Y-89167645D02*
X114793641Y-89167645D01*
X114793641Y-85103645D02*
X114793641Y-89167645D01*
X114793641Y-89167645D02*
X114793641Y-85103645D01*
X114793641Y-85103645D02*
X116317641Y-85103645D01*
X116317641Y-85103645D02*
X116317641Y-89167645D01*
X116317641Y-88659645D02*
X114793641Y-88659645D01*
G04 #@! TO.C,D8*
X140123061Y-89167645D02*
X138599061Y-89167645D01*
X138599061Y-85103645D02*
X138599061Y-89167645D01*
X138599061Y-89167645D02*
X138599061Y-85103645D01*
X138599061Y-85103645D02*
X140123061Y-85103645D01*
X140123061Y-85103645D02*
X140123061Y-89167645D01*
X140123061Y-88659645D02*
X138599061Y-88659645D01*
G04 #@! TO.C,D9*
X159173061Y-85977645D02*
X157649061Y-85977645D01*
X157649061Y-81913645D02*
X157649061Y-85977645D01*
X157649061Y-85977645D02*
X157649061Y-81913645D01*
X157649061Y-81913645D02*
X159173061Y-81913645D01*
X159173061Y-81913645D02*
X159173061Y-85977645D01*
X159173061Y-85469645D02*
X157649061Y-85469645D01*
G04 #@! TO.C,D10*
X178218661Y-84372085D02*
X176694661Y-84372085D01*
X176694661Y-80308085D02*
X176694661Y-84372085D01*
X176694661Y-84372085D02*
X176694661Y-80308085D01*
X176694661Y-80308085D02*
X178218661Y-80308085D01*
X178218661Y-80308085D02*
X178218661Y-84372085D01*
X178218661Y-83864085D02*
X176694661Y-83864085D01*
G04 #@! TO.C,D23*
X159185961Y-124067245D02*
X157661961Y-124067245D01*
X157661961Y-120003245D02*
X157661961Y-124067245D01*
X157661961Y-124067245D02*
X157661961Y-120003245D01*
X157661961Y-120003245D02*
X159185961Y-120003245D01*
X159185961Y-120003245D02*
X159185961Y-124067245D01*
X159185961Y-123559245D02*
X157661961Y-123559245D01*
G04 #@! TO.C,D24*
X178235961Y-122464245D02*
X176711961Y-122464245D01*
X176711961Y-118400245D02*
X176711961Y-122464245D01*
X176711961Y-122464245D02*
X176711961Y-118400245D01*
X176711961Y-118400245D02*
X178235961Y-118400245D01*
X178235961Y-118400245D02*
X178235961Y-122464245D01*
X178235961Y-121956245D02*
X176711961Y-121956245D01*
G04 #@! TO.C,D13*
X235385961Y-87252945D02*
X233861961Y-87252945D01*
X233861961Y-83188945D02*
X233861961Y-87252945D01*
X233861961Y-87252945D02*
X233861961Y-83188945D01*
X233861961Y-83188945D02*
X235385961Y-83188945D01*
X235385961Y-83188945D02*
X235385961Y-87252945D01*
X235385961Y-86744945D02*
X233861961Y-86744945D01*
G04 #@! TO.C,D14*
X116321041Y-108210745D02*
X114797041Y-108210745D01*
X114797041Y-104146745D02*
X114797041Y-108210745D01*
X114797041Y-108210745D02*
X114797041Y-104146745D01*
X114797041Y-104146745D02*
X116321041Y-104146745D01*
X116321041Y-104146745D02*
X116321041Y-108210745D01*
X116321041Y-107702745D02*
X114797041Y-107702745D01*
G04 #@! TO.C,D15*
X140121821Y-108220345D02*
X138597821Y-108220345D01*
X138597821Y-104156345D02*
X138597821Y-108220345D01*
X138597821Y-108220345D02*
X138597821Y-104156345D01*
X138597821Y-104156345D02*
X140121821Y-104156345D01*
X140121821Y-104156345D02*
X140121821Y-108220345D01*
X140121821Y-107712345D02*
X138597821Y-107712345D01*
G04 #@! TO.C,D16*
X159170561Y-105019625D02*
X157646561Y-105019625D01*
X157646561Y-100955625D02*
X157646561Y-105019625D01*
X157646561Y-105019625D02*
X157646561Y-100955625D01*
X157646561Y-100955625D02*
X159170561Y-100955625D01*
X159170561Y-100955625D02*
X159170561Y-105019625D01*
X159170561Y-104511625D02*
X157646561Y-104511625D01*
G04 #@! TO.C,D17*
X178215001Y-103416545D02*
X176691001Y-103416545D01*
X176691001Y-99352545D02*
X176691001Y-103416545D01*
X176691001Y-103416545D02*
X176691001Y-99352545D01*
X176691001Y-99352545D02*
X178215001Y-99352545D01*
X178215001Y-99352545D02*
X178215001Y-103416545D01*
X178215001Y-102908545D02*
X176691001Y-102908545D01*
G04 #@! TO.C,D18*
X197260401Y-105002265D02*
X195736401Y-105002265D01*
X195736401Y-100938265D02*
X195736401Y-105002265D01*
X195736401Y-105002265D02*
X195736401Y-100938265D01*
X195736401Y-100938265D02*
X197260401Y-100938265D01*
X197260401Y-100938265D02*
X197260401Y-105002265D01*
X197260401Y-104494265D02*
X195736401Y-104494265D01*
G04 #@! TO.C,D19*
X216293561Y-106313045D02*
X214769561Y-106313045D01*
X214769561Y-102249045D02*
X214769561Y-106313045D01*
X214769561Y-106313045D02*
X214769561Y-102249045D01*
X214769561Y-102249045D02*
X216293561Y-102249045D01*
X216293561Y-102249045D02*
X216293561Y-106313045D01*
X216293561Y-105805045D02*
X214769561Y-105805045D01*
G04 #@! TO.C,D20*
X235385961Y-111072645D02*
X233861961Y-111072645D01*
X233861961Y-107008645D02*
X233861961Y-111072645D01*
X233861961Y-111072645D02*
X233861961Y-107008645D01*
X233861961Y-107008645D02*
X235385961Y-107008645D01*
X235385961Y-107008645D02*
X235385961Y-111072645D01*
X235385961Y-110564645D02*
X233861961Y-110564645D01*
G04 #@! TO.C,D21*
X116331361Y-127250845D02*
X114807361Y-127250845D01*
X114807361Y-123186845D02*
X114807361Y-127250845D01*
X114807361Y-127250845D02*
X114807361Y-123186845D01*
X114807361Y-123186845D02*
X116331361Y-123186845D01*
X116331361Y-123186845D02*
X116331361Y-127250845D01*
X116331361Y-126742845D02*
X114807361Y-126742845D01*
G04 #@! TO.C,D11*
X197260561Y-85964425D02*
X195736561Y-85964425D01*
X195736561Y-81900425D02*
X195736561Y-85964425D01*
X195736561Y-85964425D02*
X195736561Y-81900425D01*
X195736561Y-81900425D02*
X197260561Y-81900425D01*
X197260561Y-81900425D02*
X197260561Y-85964425D01*
X197260561Y-85456425D02*
X195736561Y-85456425D01*
G04 #@! TO.C,D1*
X140944600Y-71018400D02*
X139420600Y-71018400D01*
X139420600Y-66954400D02*
X139420600Y-71018400D01*
X139420600Y-71018400D02*
X139420600Y-66954400D01*
X139420600Y-66954400D02*
X140944600Y-66954400D01*
X140944600Y-66954400D02*
X140944600Y-71018400D01*
X140944600Y-70510400D02*
X139420600Y-70510400D01*
G04 #@! TO.C,K23*
X166795000Y-115050240D02*
X172525000Y-115050240D01*
X165120000Y-116725240D02*
G75*
G02X166795000Y-115050240I1675000J0D01*
G01*
X161525000Y-112510240D02*
G75*
G02X163200000Y-110835240I1675000J0D01*
G01*
X163200000Y-110835240D02*
X172525000Y-110835240D01*
X172525000Y-110840240D02*
X172525000Y-115050240D01*
X161525000Y-112510240D02*
X161525000Y-116725240D01*
X161525000Y-116725240D02*
X165120000Y-116725240D01*
G04 #@! TO.C,K22*
X147736600Y-118242040D02*
X153466600Y-118242040D01*
X146061600Y-119917040D02*
G75*
G02X147736600Y-118242040I1675000J0D01*
G01*
X142466600Y-115702040D02*
G75*
G02X144141600Y-114027040I1675000J0D01*
G01*
X144141600Y-114027040D02*
X153466600Y-114027040D01*
X153466600Y-114032040D02*
X153466600Y-118242040D01*
X142466600Y-115702040D02*
X142466600Y-119917040D01*
X142466600Y-119917040D02*
X146061600Y-119917040D01*
G04 #@! TO.C,K21*
X123940400Y-118233840D02*
X129670400Y-118233840D01*
X122265400Y-119908840D02*
G75*
G02X123940400Y-118233840I1675000J0D01*
G01*
X118670400Y-115693840D02*
G75*
G02X120345400Y-114018840I1675000J0D01*
G01*
X120345400Y-114018840D02*
X129670400Y-114018840D01*
X129670400Y-114023840D02*
X129670400Y-118233840D01*
X118670400Y-115693840D02*
X118670400Y-119908840D01*
X118670400Y-119908840D02*
X122265400Y-119908840D01*
G04 #@! TO.C,K20*
X242995000Y-102055640D02*
X248725000Y-102055640D01*
X241320000Y-103730640D02*
G75*
G02X242995000Y-102055640I1675000J0D01*
G01*
X237725000Y-99515640D02*
G75*
G02X239400000Y-97840640I1675000J0D01*
G01*
X239400000Y-97840640D02*
X248725000Y-97840640D01*
X248725000Y-97845640D02*
X248725000Y-102055640D01*
X237725000Y-99515640D02*
X237725000Y-103730640D01*
X237725000Y-103730640D02*
X241320000Y-103730640D01*
G04 #@! TO.C,K19*
X223902600Y-97296040D02*
X229632600Y-97296040D01*
X222227600Y-98971040D02*
G75*
G02X223902600Y-97296040I1675000J0D01*
G01*
X218632600Y-94756040D02*
G75*
G02X220307600Y-93081040I1675000J0D01*
G01*
X220307600Y-93081040D02*
X229632600Y-93081040D01*
X229632600Y-93086040D02*
X229632600Y-97296040D01*
X218632600Y-94756040D02*
X218632600Y-98971040D01*
X218632600Y-98971040D02*
X222227600Y-98971040D01*
G04 #@! TO.C,K18*
X204869440Y-95985260D02*
X210599440Y-95985260D01*
X203194440Y-97660260D02*
G75*
G02X204869440Y-95985260I1675000J0D01*
G01*
X199599440Y-93445260D02*
G75*
G02X201274440Y-91770260I1675000J0D01*
G01*
X201274440Y-91770260D02*
X210599440Y-91770260D01*
X210599440Y-91775260D02*
X210599440Y-95985260D01*
X199599440Y-93445260D02*
X199599440Y-97660260D01*
X199599440Y-97660260D02*
X203194440Y-97660260D01*
G04 #@! TO.C,K17*
X185824040Y-94399540D02*
X191554040Y-94399540D01*
X184149040Y-96074540D02*
G75*
G02X185824040Y-94399540I1675000J0D01*
G01*
X180554040Y-91859540D02*
G75*
G02X182229040Y-90184540I1675000J0D01*
G01*
X182229040Y-90184540D02*
X191554040Y-90184540D01*
X191554040Y-90189540D02*
X191554040Y-94399540D01*
X180554040Y-91859540D02*
X180554040Y-96074540D01*
X180554040Y-96074540D02*
X184149040Y-96074540D01*
G04 #@! TO.C,K16*
X166779600Y-96002620D02*
X172509600Y-96002620D01*
X165104600Y-97677620D02*
G75*
G02X166779600Y-96002620I1675000J0D01*
G01*
X161509600Y-93462620D02*
G75*
G02X163184600Y-91787620I1675000J0D01*
G01*
X163184600Y-91787620D02*
X172509600Y-91787620D01*
X172509600Y-91792620D02*
X172509600Y-96002620D01*
X161509600Y-93462620D02*
X161509600Y-97677620D01*
X161509600Y-97677620D02*
X165104600Y-97677620D01*
G04 #@! TO.C,K15*
X147730860Y-99203340D02*
X153460860Y-99203340D01*
X146055860Y-100878340D02*
G75*
G02X147730860Y-99203340I1675000J0D01*
G01*
X142460860Y-96663340D02*
G75*
G02X144135860Y-94988340I1675000J0D01*
G01*
X144135860Y-94988340D02*
X153460860Y-94988340D01*
X153460860Y-94993340D02*
X153460860Y-99203340D01*
X142460860Y-96663340D02*
X142460860Y-100878340D01*
X142460860Y-100878340D02*
X146055860Y-100878340D01*
G04 #@! TO.C,K14*
X123930080Y-99193740D02*
X129660080Y-99193740D01*
X122255080Y-100868740D02*
G75*
G02X123930080Y-99193740I1675000J0D01*
G01*
X118660080Y-96653740D02*
G75*
G02X120335080Y-94978740I1675000J0D01*
G01*
X120335080Y-94978740D02*
X129660080Y-94978740D01*
X129660080Y-94983740D02*
X129660080Y-99193740D01*
X118660080Y-96653740D02*
X118660080Y-100868740D01*
X118660080Y-100868740D02*
X122255080Y-100868740D01*
G04 #@! TO.C,K24*
X185845000Y-113447240D02*
X191575000Y-113447240D01*
X184170000Y-115122240D02*
G75*
G02X185845000Y-113447240I1675000J0D01*
G01*
X180575000Y-110907240D02*
G75*
G02X182250000Y-109232240I1675000J0D01*
G01*
X182250000Y-109232240D02*
X191575000Y-109232240D01*
X191575000Y-109237240D02*
X191575000Y-113447240D01*
X180575000Y-110907240D02*
X180575000Y-115122240D01*
X180575000Y-115122240D02*
X184170000Y-115122240D01*
G04 #@! TO.C,K12*
X223945000Y-78243520D02*
X229675000Y-78243520D01*
X222270000Y-79918520D02*
G75*
G02X223945000Y-78243520I1675000J0D01*
G01*
X218675000Y-75703520D02*
G75*
G02X220350000Y-74028520I1675000J0D01*
G01*
X220350000Y-74028520D02*
X229675000Y-74028520D01*
X229675000Y-74033520D02*
X229675000Y-78243520D01*
X218675000Y-75703520D02*
X218675000Y-79918520D01*
X218675000Y-79918520D02*
X222270000Y-79918520D01*
G04 #@! TO.C,K11*
X204869600Y-76947420D02*
X210599600Y-76947420D01*
X203194600Y-78622420D02*
G75*
G02X204869600Y-76947420I1675000J0D01*
G01*
X199599600Y-74407420D02*
G75*
G02X201274600Y-72732420I1675000J0D01*
G01*
X201274600Y-72732420D02*
X210599600Y-72732420D01*
X210599600Y-72737420D02*
X210599600Y-76947420D01*
X199599600Y-74407420D02*
X199599600Y-78622420D01*
X199599600Y-78622420D02*
X203194600Y-78622420D01*
G04 #@! TO.C,K10*
X185827700Y-75355080D02*
X191557700Y-75355080D01*
X184152700Y-77030080D02*
G75*
G02X185827700Y-75355080I1675000J0D01*
G01*
X180557700Y-72815080D02*
G75*
G02X182232700Y-71140080I1675000J0D01*
G01*
X182232700Y-71140080D02*
X191557700Y-71140080D01*
X191557700Y-71145080D02*
X191557700Y-75355080D01*
X180557700Y-72815080D02*
X180557700Y-77030080D01*
X180557700Y-77030080D02*
X184152700Y-77030080D01*
G04 #@! TO.C,K9*
X166782100Y-76960640D02*
X172512100Y-76960640D01*
X165107100Y-78635640D02*
G75*
G02X166782100Y-76960640I1675000J0D01*
G01*
X161512100Y-74420640D02*
G75*
G02X163187100Y-72745640I1675000J0D01*
G01*
X163187100Y-72745640D02*
X172512100Y-72745640D01*
X172512100Y-72750640D02*
X172512100Y-76960640D01*
X161512100Y-74420640D02*
X161512100Y-78635640D01*
X161512100Y-78635640D02*
X165107100Y-78635640D01*
G04 #@! TO.C,K8*
X147732100Y-80150640D02*
X153462100Y-80150640D01*
X146057100Y-81825640D02*
G75*
G02X147732100Y-80150640I1675000J0D01*
G01*
X142462100Y-77610640D02*
G75*
G02X144137100Y-75935640I1675000J0D01*
G01*
X144137100Y-75935640D02*
X153462100Y-75935640D01*
X153462100Y-75940640D02*
X153462100Y-80150640D01*
X142462100Y-77610640D02*
X142462100Y-81825640D01*
X142462100Y-81825640D02*
X146057100Y-81825640D01*
G04 #@! TO.C,K7*
X123926680Y-80150640D02*
X129656680Y-80150640D01*
X122251680Y-81825640D02*
G75*
G02X123926680Y-80150640I1675000J0D01*
G01*
X118656680Y-77610640D02*
G75*
G02X120331680Y-75935640I1675000J0D01*
G01*
X120331680Y-75935640D02*
X129656680Y-75935640D01*
X129656680Y-75940640D02*
X129656680Y-80150640D01*
X118656680Y-77610640D02*
X118656680Y-81825640D01*
X118656680Y-81825640D02*
X122251680Y-81825640D01*
G04 #@! TO.C,K6*
X242995000Y-59195640D02*
X248725000Y-59195640D01*
X241320000Y-60870640D02*
G75*
G02X242995000Y-59195640I1675000J0D01*
G01*
X237725000Y-56655640D02*
G75*
G02X239400000Y-54980640I1675000J0D01*
G01*
X239400000Y-54980640D02*
X248725000Y-54980640D01*
X248725000Y-54985640D02*
X248725000Y-59195640D01*
X237725000Y-56655640D02*
X237725000Y-60870640D01*
X237725000Y-60870640D02*
X241320000Y-60870640D01*
G04 #@! TO.C,K5*
X223902751Y-59193640D02*
X229632751Y-59193640D01*
X222227751Y-60868640D02*
G75*
G02X223902751Y-59193640I1675000J0D01*
G01*
X218632751Y-56653640D02*
G75*
G02X220307751Y-54978640I1675000J0D01*
G01*
X220307751Y-54978640D02*
X229632751Y-54978640D01*
X229632751Y-54983640D02*
X229632751Y-59193640D01*
X218632751Y-56653640D02*
X218632751Y-60868640D01*
X218632751Y-60868640D02*
X222227751Y-60868640D01*
G04 #@! TO.C,K4*
X204865000Y-57893640D02*
X210595000Y-57893640D01*
X203190000Y-59568640D02*
G75*
G02X204865000Y-57893640I1675000J0D01*
G01*
X199595000Y-55353640D02*
G75*
G02X201270000Y-53678640I1675000J0D01*
G01*
X201270000Y-53678640D02*
X210595000Y-53678640D01*
X210595000Y-53683640D02*
X210595000Y-57893640D01*
X199595000Y-55353640D02*
X199595000Y-59568640D01*
X199595000Y-59568640D02*
X203190000Y-59568640D01*
G04 #@! TO.C,K3*
X185825000Y-56309640D02*
X191555000Y-56309640D01*
X184150000Y-57984640D02*
G75*
G02X185825000Y-56309640I1675000J0D01*
G01*
X180555000Y-53769640D02*
G75*
G02X182230000Y-52094640I1675000J0D01*
G01*
X182230000Y-52094640D02*
X191555000Y-52094640D01*
X191555000Y-52099640D02*
X191555000Y-56309640D01*
X180555000Y-53769640D02*
X180555000Y-57984640D01*
X180555000Y-57984640D02*
X184150000Y-57984640D01*
G04 #@! TO.C,K1*
X147735000Y-61113640D02*
X153465000Y-61113640D01*
X146060000Y-62788640D02*
G75*
G02X147735000Y-61113640I1675000J0D01*
G01*
X142465000Y-58573640D02*
G75*
G02X144140000Y-56898640I1675000J0D01*
G01*
X144140000Y-56898640D02*
X153465000Y-56898640D01*
X153465000Y-56903640D02*
X153465000Y-61113640D01*
X142465000Y-58573640D02*
X142465000Y-62788640D01*
X142465000Y-62788640D02*
X146060000Y-62788640D01*
G04 #@! TO.C,K13*
X242995000Y-78235940D02*
X248725000Y-78235940D01*
X241320000Y-79910940D02*
G75*
G02X242995000Y-78235940I1675000J0D01*
G01*
X237725000Y-75695940D02*
G75*
G02X239400000Y-74020940I1675000J0D01*
G01*
X239400000Y-74020940D02*
X248725000Y-74020940D01*
X248725000Y-74025940D02*
X248725000Y-78235940D01*
X237725000Y-75695940D02*
X237725000Y-79910940D01*
X237725000Y-79910940D02*
X241320000Y-79910940D01*
G04 #@! TO.C,K44*
X262783364Y-193161694D02*
X265204967Y-187968550D01*
X263593545Y-195387645D02*
G75*
G02X262783364Y-193161694I707885J1518066D01*
G01*
X258254144Y-196864486D02*
G75*
G02X257443964Y-194638534I707886J1518066D01*
G01*
X257443964Y-194638534D02*
X261384880Y-186187214D01*
X261389411Y-186189327D02*
X265204967Y-187968550D01*
X258254144Y-196864486D02*
X262074232Y-198645821D01*
X262074232Y-198645821D02*
X263593544Y-195387645D01*
G04 #@! TO.C,K43*
X249555493Y-176437094D02*
X251977096Y-171243950D01*
X250365674Y-178663045D02*
G75*
G02X249555493Y-176437094I707885J1518066D01*
G01*
X245026273Y-180139886D02*
G75*
G02X244216093Y-177913934I707886J1518066D01*
G01*
X244216093Y-177913934D02*
X248157009Y-169462614D01*
X248161540Y-169464727D02*
X251977096Y-171243950D01*
X245026273Y-180139886D02*
X248846361Y-181921221D01*
X248846361Y-181921221D02*
X250365673Y-178663045D01*
G04 #@! TO.C,K42*
X232284849Y-168418914D02*
X234706452Y-163225770D01*
X233095030Y-170644865D02*
G75*
G02X232284849Y-168418914I707885J1518066D01*
G01*
X227755629Y-172121706D02*
G75*
G02X226945449Y-169895754I707886J1518066D01*
G01*
X226945449Y-169895754D02*
X230886365Y-161444434D01*
X230890896Y-161446547D02*
X234706452Y-163225770D01*
X227755629Y-172121706D02*
X231575717Y-173903041D01*
X231575717Y-173903041D02*
X233095029Y-170644865D01*
G04 #@! TO.C,K41*
X204895000Y-153110000D02*
X210625000Y-153110000D01*
X203220000Y-154785000D02*
G75*
G02X204895000Y-153110000I1675000J0D01*
G01*
X199625000Y-150570000D02*
G75*
G02X201300000Y-148895000I1675000J0D01*
G01*
X201300000Y-148895000D02*
X210625000Y-148895000D01*
X210625000Y-148900000D02*
X210625000Y-153110000D01*
X199625000Y-150570000D02*
X199625000Y-154785000D01*
X199625000Y-154785000D02*
X203220000Y-154785000D01*
G04 #@! TO.C,K40*
X185845000Y-151530000D02*
X191575000Y-151530000D01*
X184170000Y-153205000D02*
G75*
G02X185845000Y-151530000I1675000J0D01*
G01*
X180575000Y-148990000D02*
G75*
G02X182250000Y-147315000I1675000J0D01*
G01*
X182250000Y-147315000D02*
X191575000Y-147315000D01*
X191575000Y-147320000D02*
X191575000Y-151530000D01*
X180575000Y-148990000D02*
X180575000Y-153205000D01*
X180575000Y-153205000D02*
X184170000Y-153205000D01*
G04 #@! TO.C,K39*
X166795000Y-153130000D02*
X172525000Y-153130000D01*
X165120000Y-154805000D02*
G75*
G02X166795000Y-153130000I1675000J0D01*
G01*
X161525000Y-150590000D02*
G75*
G02X163200000Y-148915000I1675000J0D01*
G01*
X163200000Y-148915000D02*
X172525000Y-148915000D01*
X172525000Y-148920000D02*
X172525000Y-153130000D01*
X161525000Y-150590000D02*
X161525000Y-154805000D01*
X161525000Y-154805000D02*
X165120000Y-154805000D01*
G04 #@! TO.C,K38*
X147745000Y-156330000D02*
X153475000Y-156330000D01*
X146070000Y-158005000D02*
G75*
G02X147745000Y-156330000I1675000J0D01*
G01*
X142475000Y-153790000D02*
G75*
G02X144150000Y-152115000I1675000J0D01*
G01*
X144150000Y-152115000D02*
X153475000Y-152115000D01*
X153475000Y-152120000D02*
X153475000Y-156330000D01*
X142475000Y-153790000D02*
X142475000Y-158005000D01*
X142475000Y-158005000D02*
X146070000Y-158005000D01*
G04 #@! TO.C,K37*
X128695000Y-156330000D02*
X134425000Y-156330000D01*
X127020000Y-158005000D02*
G75*
G02X128695000Y-156330000I1675000J0D01*
G01*
X123425000Y-153790000D02*
G75*
G02X125100000Y-152115000I1675000J0D01*
G01*
X125100000Y-152115000D02*
X134425000Y-152115000D01*
X134425000Y-152120000D02*
X134425000Y-156330000D01*
X123425000Y-153790000D02*
X123425000Y-158005000D01*
X123425000Y-158005000D02*
X127020000Y-158005000D01*
G04 #@! TO.C,K36*
X270816218Y-175922062D02*
X273237821Y-170728918D01*
X271626399Y-178148013D02*
G75*
G02X270816218Y-175922062I707885J1518066D01*
G01*
X266286998Y-179624854D02*
G75*
G02X265476818Y-177398902I707886J1518066D01*
G01*
X265476818Y-177398902D02*
X269417734Y-168947582D01*
X269422265Y-168949695D02*
X273237821Y-170728918D01*
X266286998Y-179624854D02*
X270107086Y-181406189D01*
X270107086Y-181406189D02*
X271626398Y-178148013D01*
G04 #@! TO.C,K2*
X166785000Y-57907040D02*
X172515000Y-57907040D01*
X165110000Y-59582040D02*
G75*
G02X166785000Y-57907040I1675000J0D01*
G01*
X161515000Y-55367040D02*
G75*
G02X163190000Y-53692040I1675000J0D01*
G01*
X163190000Y-53692040D02*
X172515000Y-53692040D01*
X172515000Y-53697040D02*
X172515000Y-57907040D01*
X161515000Y-55367040D02*
X161515000Y-59582040D01*
X161515000Y-59582040D02*
X165110000Y-59582040D01*
G04 #@! TO.C,K34*
X223945000Y-135370000D02*
X229675000Y-135370000D01*
X222270000Y-137045000D02*
G75*
G02X223945000Y-135370000I1675000J0D01*
G01*
X218675000Y-132830000D02*
G75*
G02X220350000Y-131155000I1675000J0D01*
G01*
X220350000Y-131155000D02*
X229675000Y-131155000D01*
X229675000Y-131160000D02*
X229675000Y-135370000D01*
X218675000Y-132830000D02*
X218675000Y-137045000D01*
X218675000Y-137045000D02*
X222270000Y-137045000D01*
G04 #@! TO.C,K33*
X204895000Y-134070000D02*
X210625000Y-134070000D01*
X203220000Y-135745000D02*
G75*
G02X204895000Y-134070000I1675000J0D01*
G01*
X199625000Y-131530000D02*
G75*
G02X201300000Y-129855000I1675000J0D01*
G01*
X201300000Y-129855000D02*
X210625000Y-129855000D01*
X210625000Y-129860000D02*
X210625000Y-134070000D01*
X199625000Y-131530000D02*
X199625000Y-135745000D01*
X199625000Y-135745000D02*
X203220000Y-135745000D01*
G04 #@! TO.C,K32*
X185845000Y-132490000D02*
X191575000Y-132490000D01*
X184170000Y-134165000D02*
G75*
G02X185845000Y-132490000I1675000J0D01*
G01*
X180575000Y-129950000D02*
G75*
G02X182250000Y-128275000I1675000J0D01*
G01*
X182250000Y-128275000D02*
X191575000Y-128275000D01*
X191575000Y-128280000D02*
X191575000Y-132490000D01*
X180575000Y-129950000D02*
X180575000Y-134165000D01*
X180575000Y-134165000D02*
X184170000Y-134165000D01*
G04 #@! TO.C,K31*
X166795000Y-134100000D02*
X172525000Y-134100000D01*
X165120000Y-135775000D02*
G75*
G02X166795000Y-134100000I1675000J0D01*
G01*
X161525000Y-131560000D02*
G75*
G02X163200000Y-129885000I1675000J0D01*
G01*
X163200000Y-129885000D02*
X172525000Y-129885000D01*
X172525000Y-129890000D02*
X172525000Y-134100000D01*
X161525000Y-131560000D02*
X161525000Y-135775000D01*
X161525000Y-135775000D02*
X165120000Y-135775000D01*
G04 #@! TO.C,K30*
X147745000Y-137280000D02*
X153475000Y-137280000D01*
X146070000Y-138955000D02*
G75*
G02X147745000Y-137280000I1675000J0D01*
G01*
X142475000Y-134740000D02*
G75*
G02X144150000Y-133065000I1675000J0D01*
G01*
X144150000Y-133065000D02*
X153475000Y-133065000D01*
X153475000Y-133070000D02*
X153475000Y-137280000D01*
X142475000Y-134740000D02*
X142475000Y-138955000D01*
X142475000Y-138955000D02*
X146070000Y-138955000D01*
G04 #@! TO.C,K29*
X123935000Y-137280000D02*
X129665000Y-137280000D01*
X122260000Y-138955000D02*
G75*
G02X123935000Y-137280000I1675000J0D01*
G01*
X118665000Y-134740000D02*
G75*
G02X120340000Y-133065000I1675000J0D01*
G01*
X120340000Y-133065000D02*
X129665000Y-133065000D01*
X129665000Y-133070000D02*
X129665000Y-137280000D01*
X118665000Y-134740000D02*
X118665000Y-138955000D01*
X118665000Y-138955000D02*
X122260000Y-138955000D01*
G04 #@! TO.C,K28*
X278867095Y-158656899D02*
X281288698Y-153463755D01*
X279677276Y-160882850D02*
G75*
G02X278867095Y-158656899I707885J1518066D01*
G01*
X274337875Y-162359691D02*
G75*
G02X273527695Y-160133739I707886J1518066D01*
G01*
X273527695Y-160133739D02*
X277468611Y-151682419D01*
X277473142Y-151684532D02*
X281288698Y-153463755D01*
X274337875Y-162359691D02*
X278157963Y-164141026D01*
X278157963Y-164141026D02*
X279677275Y-160882850D01*
G04 #@! TO.C,K27*
X261607307Y-150606902D02*
X264028910Y-145413758D01*
X262417488Y-152832853D02*
G75*
G02X261607307Y-150606902I707885J1518066D01*
G01*
X257078087Y-154309694D02*
G75*
G02X256267907Y-152083742I707886J1518066D01*
G01*
X256267907Y-152083742D02*
X260208823Y-143632422D01*
X260213354Y-143634535D02*
X264028910Y-145413758D01*
X257078087Y-154309694D02*
X260898175Y-156091029D01*
X260898175Y-156091029D02*
X262417487Y-152832853D01*
G04 #@! TO.C,K25*
X204895000Y-115030000D02*
X210625000Y-115030000D01*
X203220000Y-116705000D02*
G75*
G02X204895000Y-115030000I1675000J0D01*
G01*
X199625000Y-112490000D02*
G75*
G02X201300000Y-110815000I1675000J0D01*
G01*
X201300000Y-110815000D02*
X210625000Y-110815000D01*
X210625000Y-110820000D02*
X210625000Y-115030000D01*
X199625000Y-112490000D02*
X199625000Y-116705000D01*
X199625000Y-116705000D02*
X203220000Y-116705000D01*
G04 #@! TO.C,K26*
X223945000Y-116340840D02*
X229675000Y-116340840D01*
X222270000Y-118015840D02*
G75*
G02X223945000Y-116340840I1675000J0D01*
G01*
X218675000Y-113800840D02*
G75*
G02X220350000Y-112125840I1675000J0D01*
G01*
X220350000Y-112125840D02*
X229675000Y-112125840D01*
X229675000Y-112130840D02*
X229675000Y-116340840D01*
X218675000Y-113800840D02*
X218675000Y-118015840D01*
X218675000Y-118015840D02*
X222270000Y-118015840D01*
G04 #@! TO.C,K35*
X242995000Y-130610000D02*
X248725000Y-130610000D01*
X241320000Y-132285000D02*
G75*
G02X242995000Y-130610000I1675000J0D01*
G01*
X237725000Y-128070000D02*
G75*
G02X239400000Y-126395000I1675000J0D01*
G01*
X239400000Y-126395000D02*
X248725000Y-126395000D01*
X248725000Y-126400000D02*
X248725000Y-130610000D01*
X237725000Y-128070000D02*
X237725000Y-132285000D01*
X237725000Y-132285000D02*
X241320000Y-132285000D01*
G04 #@! TO.C,U1*
X137239660Y-36108640D02*
X137239660Y-66588640D01*
X132159660Y-36108640D02*
X137239660Y-36108640D01*
X132159660Y-33568640D02*
X132159660Y-36108640D01*
X124539660Y-33568640D02*
X132159660Y-33568640D01*
X124539660Y-36108640D02*
X124539660Y-33568640D01*
X119459660Y-36108640D02*
X124539660Y-36108640D01*
X119459660Y-66588640D02*
X119459660Y-36108640D01*
X137239660Y-66588640D02*
X119459660Y-66588640D01*
G04 #@! TO.C,R1*
X210845920Y-40675460D02*
X214845920Y-40675460D01*
X214845920Y-40675460D02*
X215045920Y-40875460D01*
X215045920Y-40875460D02*
X215445920Y-40875460D01*
X215445920Y-40875460D02*
X215645920Y-40675460D01*
X215645920Y-40675460D02*
X215845920Y-39875460D01*
X215845920Y-39875460D02*
X215645920Y-39075460D01*
X215645920Y-39075460D02*
X215445920Y-38875460D01*
X215445920Y-38875460D02*
X215045920Y-38875460D01*
X215045920Y-38875460D02*
X214845920Y-39075460D01*
X214845920Y-39075460D02*
X210845920Y-39075460D01*
X210845920Y-39075460D02*
X210645920Y-38875460D01*
X210645920Y-38875460D02*
X210245920Y-38875460D01*
X210245920Y-38875460D02*
X210045920Y-39075460D01*
X210045920Y-39075460D02*
X209845920Y-39875460D01*
X209845920Y-39875460D02*
X210045920Y-40675460D01*
X210045920Y-40675460D02*
X210245920Y-40875460D01*
X210245920Y-40875460D02*
X210645920Y-40875460D01*
X210645920Y-40875460D02*
X210845920Y-40675460D01*
X208645920Y-39875460D02*
X209845920Y-39875460D01*
X215845920Y-39875460D02*
X217045920Y-39875460D01*
G04 #@! TO.C,R2*
X195907680Y-39075460D02*
X191907680Y-39075460D01*
X191907680Y-39075460D02*
X191707680Y-38875460D01*
X191707680Y-38875460D02*
X191307680Y-38875460D01*
X191307680Y-38875460D02*
X191107680Y-39075460D01*
X191107680Y-39075460D02*
X190907680Y-39875460D01*
X190907680Y-39875460D02*
X191107680Y-40675460D01*
X191107680Y-40675460D02*
X191307680Y-40875460D01*
X191307680Y-40875460D02*
X191707680Y-40875460D01*
X191707680Y-40875460D02*
X191907680Y-40675460D01*
X191907680Y-40675460D02*
X195907680Y-40675460D01*
X195907680Y-40675460D02*
X196107680Y-40875460D01*
X196107680Y-40875460D02*
X196507680Y-40875460D01*
X196507680Y-40875460D02*
X196707680Y-40675460D01*
X196707680Y-40675460D02*
X196907680Y-39875460D01*
X196907680Y-39875460D02*
X196707680Y-39075460D01*
X196707680Y-39075460D02*
X196507680Y-38875460D01*
X196507680Y-38875460D02*
X196107680Y-38875460D01*
X196107680Y-38875460D02*
X195907680Y-39075460D01*
X198107680Y-39875460D02*
X196907680Y-39875460D01*
X190907680Y-39875460D02*
X189707680Y-39875460D01*
G04 #@! TO.C,D25*
X196885865Y-121165005D02*
X196085865Y-121165005D01*
X196085865Y-121331671D01*
X196123961Y-121431671D01*
X196200151Y-121498338D01*
X196276341Y-121531671D01*
X196428722Y-121565005D01*
X196543008Y-121565005D01*
X196695389Y-121531671D01*
X196771580Y-121498338D01*
X196847770Y-121431671D01*
X196885865Y-121331671D01*
X196885865Y-121165005D01*
X196162056Y-121831671D02*
X196123961Y-121865005D01*
X196085865Y-121931671D01*
X196085865Y-122098338D01*
X196123961Y-122165005D01*
X196162056Y-122198338D01*
X196238246Y-122231671D01*
X196314437Y-122231671D01*
X196428722Y-122198338D01*
X196885865Y-121798338D01*
X196885865Y-122231671D01*
X196085865Y-122865005D02*
X196085865Y-122531671D01*
X196466818Y-122498338D01*
X196428722Y-122531671D01*
X196390627Y-122598338D01*
X196390627Y-122765005D01*
X196428722Y-122831671D01*
X196466818Y-122865005D01*
X196543008Y-122898338D01*
X196733484Y-122898338D01*
X196809675Y-122865005D01*
X196847770Y-122831671D01*
X196885865Y-122765005D01*
X196885865Y-122598338D01*
X196847770Y-122531671D01*
X196809675Y-122498338D01*
G04 #@! TO.C,D26*
X215935865Y-122475845D02*
X215135865Y-122475845D01*
X215135865Y-122642511D01*
X215173961Y-122742511D01*
X215250151Y-122809178D01*
X215326341Y-122842511D01*
X215478722Y-122875845D01*
X215593008Y-122875845D01*
X215745389Y-122842511D01*
X215821580Y-122809178D01*
X215897770Y-122742511D01*
X215935865Y-122642511D01*
X215935865Y-122475845D01*
X215212056Y-123142511D02*
X215173961Y-123175845D01*
X215135865Y-123242511D01*
X215135865Y-123409178D01*
X215173961Y-123475845D01*
X215212056Y-123509178D01*
X215288246Y-123542511D01*
X215364437Y-123542511D01*
X215478722Y-123509178D01*
X215935865Y-123109178D01*
X215935865Y-123542511D01*
X215135865Y-124142511D02*
X215135865Y-124009178D01*
X215173961Y-123942511D01*
X215212056Y-123909178D01*
X215326341Y-123842511D01*
X215478722Y-123809178D01*
X215783484Y-123809178D01*
X215859675Y-123842511D01*
X215897770Y-123875845D01*
X215935865Y-123942511D01*
X215935865Y-124075845D01*
X215897770Y-124142511D01*
X215859675Y-124175845D01*
X215783484Y-124209178D01*
X215593008Y-124209178D01*
X215516818Y-124175845D01*
X215478722Y-124142511D01*
X215440627Y-124075845D01*
X215440627Y-123942511D01*
X215478722Y-123875845D01*
X215516818Y-123842511D01*
X215593008Y-123809178D01*
G04 #@! TO.C,D27*
X256132482Y-146608605D02*
X255407436Y-146270511D01*
X255337000Y-146421562D01*
X255329264Y-146528293D01*
X255370141Y-146620913D01*
X255425106Y-146683322D01*
X255549123Y-146777932D01*
X255652701Y-146826231D01*
X255804892Y-146860420D01*
X255888031Y-146862409D01*
X255985258Y-146834188D01*
X256062046Y-146759657D01*
X256132482Y-146608605D01*
X255194742Y-146906916D02*
X255146129Y-146921026D01*
X255083429Y-146965347D01*
X255012992Y-147116398D01*
X255019344Y-147192918D01*
X255039782Y-147239228D01*
X255094747Y-147301638D01*
X255163799Y-147333838D01*
X255281464Y-147351927D01*
X255864824Y-147182600D01*
X255681689Y-147575334D01*
X254858032Y-147448711D02*
X254660810Y-147871655D01*
X255512642Y-147937857D01*
G04 #@! TO.C,D28*
X272873622Y-156131065D02*
X272148576Y-155792971D01*
X272078140Y-155944022D01*
X272070404Y-156050753D01*
X272111281Y-156143373D01*
X272166246Y-156205782D01*
X272290263Y-156300392D01*
X272393841Y-156348691D01*
X272546032Y-156382880D01*
X272629171Y-156384869D01*
X272726398Y-156356648D01*
X272803186Y-156282117D01*
X272873622Y-156131065D01*
X271935882Y-156429376D02*
X271887269Y-156443486D01*
X271824569Y-156487807D01*
X271754132Y-156638858D01*
X271760484Y-156715378D01*
X271780922Y-156761688D01*
X271835887Y-156824098D01*
X271904939Y-156856298D01*
X272022604Y-156874387D01*
X272605964Y-156705060D01*
X272422829Y-157097794D01*
X271839470Y-157267120D02*
X271833118Y-157190600D01*
X271812680Y-157144290D01*
X271757715Y-157081880D01*
X271723189Y-157065780D01*
X271640050Y-157063791D01*
X271591436Y-157077901D01*
X271528736Y-157122222D01*
X271472387Y-157243063D01*
X271478738Y-157319584D01*
X271499177Y-157365894D01*
X271554142Y-157428303D01*
X271588668Y-157444403D01*
X271671807Y-157446392D01*
X271720420Y-157432282D01*
X271783121Y-157387961D01*
X271839470Y-157267120D01*
X271902170Y-157222799D01*
X271950784Y-157208689D01*
X272033923Y-157210678D01*
X272172027Y-157275077D01*
X272226992Y-157337487D01*
X272247431Y-157383797D01*
X272253782Y-157460317D01*
X272197433Y-157581158D01*
X272134732Y-157625479D01*
X272086119Y-157639589D01*
X272002980Y-157637600D01*
X271864876Y-157573201D01*
X271809911Y-157510791D01*
X271789472Y-157464481D01*
X271783121Y-157387961D01*
G04 #@! TO.C,D29*
X115925865Y-143415005D02*
X115125865Y-143415005D01*
X115125865Y-143581671D01*
X115163961Y-143681671D01*
X115240151Y-143748338D01*
X115316341Y-143781671D01*
X115468722Y-143815005D01*
X115583008Y-143815005D01*
X115735389Y-143781671D01*
X115811580Y-143748338D01*
X115887770Y-143681671D01*
X115925865Y-143581671D01*
X115925865Y-143415005D01*
X115202056Y-144081671D02*
X115163961Y-144115005D01*
X115125865Y-144181671D01*
X115125865Y-144348338D01*
X115163961Y-144415005D01*
X115202056Y-144448338D01*
X115278246Y-144481671D01*
X115354437Y-144481671D01*
X115468722Y-144448338D01*
X115925865Y-144048338D01*
X115925865Y-144481671D01*
X115925865Y-144815005D02*
X115925865Y-144948338D01*
X115887770Y-145015005D01*
X115849675Y-145048338D01*
X115735389Y-145115005D01*
X115583008Y-145148338D01*
X115278246Y-145148338D01*
X115202056Y-145115005D01*
X115163961Y-145081671D01*
X115125865Y-145015005D01*
X115125865Y-144881671D01*
X115163961Y-144815005D01*
X115202056Y-144781671D01*
X115278246Y-144748338D01*
X115468722Y-144748338D01*
X115544913Y-144781671D01*
X115583008Y-144815005D01*
X115621103Y-144881671D01*
X115621103Y-145015005D01*
X115583008Y-145081671D01*
X115544913Y-145115005D01*
X115468722Y-145148338D01*
G04 #@! TO.C,D30*
X139735865Y-143415005D02*
X138935865Y-143415005D01*
X138935865Y-143581671D01*
X138973961Y-143681671D01*
X139050151Y-143748338D01*
X139126341Y-143781671D01*
X139278722Y-143815005D01*
X139393008Y-143815005D01*
X139545389Y-143781671D01*
X139621580Y-143748338D01*
X139697770Y-143681671D01*
X139735865Y-143581671D01*
X139735865Y-143415005D01*
X138935865Y-144048338D02*
X138935865Y-144481671D01*
X139240627Y-144248338D01*
X139240627Y-144348338D01*
X139278722Y-144415005D01*
X139316818Y-144448338D01*
X139393008Y-144481671D01*
X139583484Y-144481671D01*
X139659675Y-144448338D01*
X139697770Y-144415005D01*
X139735865Y-144348338D01*
X139735865Y-144148338D01*
X139697770Y-144081671D01*
X139659675Y-144048338D01*
X138935865Y-144915005D02*
X138935865Y-144981671D01*
X138973961Y-145048338D01*
X139012056Y-145081671D01*
X139088246Y-145115005D01*
X139240627Y-145148338D01*
X139431103Y-145148338D01*
X139583484Y-145115005D01*
X139659675Y-145081671D01*
X139697770Y-145048338D01*
X139735865Y-144981671D01*
X139735865Y-144915005D01*
X139697770Y-144848338D01*
X139659675Y-144815005D01*
X139583484Y-144781671D01*
X139431103Y-144748338D01*
X139240627Y-144748338D01*
X139088246Y-144781671D01*
X139012056Y-144815005D01*
X138973961Y-144848338D01*
X138935865Y-144915005D01*
G04 #@! TO.C,D31*
X158785865Y-140235005D02*
X157985865Y-140235005D01*
X157985865Y-140401671D01*
X158023961Y-140501671D01*
X158100151Y-140568338D01*
X158176341Y-140601671D01*
X158328722Y-140635005D01*
X158443008Y-140635005D01*
X158595389Y-140601671D01*
X158671580Y-140568338D01*
X158747770Y-140501671D01*
X158785865Y-140401671D01*
X158785865Y-140235005D01*
X157985865Y-140868338D02*
X157985865Y-141301671D01*
X158290627Y-141068338D01*
X158290627Y-141168338D01*
X158328722Y-141235005D01*
X158366818Y-141268338D01*
X158443008Y-141301671D01*
X158633484Y-141301671D01*
X158709675Y-141268338D01*
X158747770Y-141235005D01*
X158785865Y-141168338D01*
X158785865Y-140968338D01*
X158747770Y-140901671D01*
X158709675Y-140868338D01*
X158785865Y-141968338D02*
X158785865Y-141568338D01*
X158785865Y-141768338D02*
X157985865Y-141768338D01*
X158100151Y-141701671D01*
X158176341Y-141635005D01*
X158214437Y-141568338D01*
G04 #@! TO.C,D32*
X177835865Y-138625005D02*
X177035865Y-138625005D01*
X177035865Y-138791671D01*
X177073961Y-138891671D01*
X177150151Y-138958338D01*
X177226341Y-138991671D01*
X177378722Y-139025005D01*
X177493008Y-139025005D01*
X177645389Y-138991671D01*
X177721580Y-138958338D01*
X177797770Y-138891671D01*
X177835865Y-138791671D01*
X177835865Y-138625005D01*
X177035865Y-139258338D02*
X177035865Y-139691671D01*
X177340627Y-139458338D01*
X177340627Y-139558338D01*
X177378722Y-139625005D01*
X177416818Y-139658338D01*
X177493008Y-139691671D01*
X177683484Y-139691671D01*
X177759675Y-139658338D01*
X177797770Y-139625005D01*
X177835865Y-139558338D01*
X177835865Y-139358338D01*
X177797770Y-139291671D01*
X177759675Y-139258338D01*
X177112056Y-139958338D02*
X177073961Y-139991671D01*
X177035865Y-140058338D01*
X177035865Y-140225005D01*
X177073961Y-140291671D01*
X177112056Y-140325005D01*
X177188246Y-140358338D01*
X177264437Y-140358338D01*
X177378722Y-140325005D01*
X177835865Y-139925005D01*
X177835865Y-140358338D01*
G04 #@! TO.C,D33*
X196885865Y-140205005D02*
X196085865Y-140205005D01*
X196085865Y-140371671D01*
X196123961Y-140471671D01*
X196200151Y-140538338D01*
X196276341Y-140571671D01*
X196428722Y-140605005D01*
X196543008Y-140605005D01*
X196695389Y-140571671D01*
X196771580Y-140538338D01*
X196847770Y-140471671D01*
X196885865Y-140371671D01*
X196885865Y-140205005D01*
X196085865Y-140838338D02*
X196085865Y-141271671D01*
X196390627Y-141038338D01*
X196390627Y-141138338D01*
X196428722Y-141205005D01*
X196466818Y-141238338D01*
X196543008Y-141271671D01*
X196733484Y-141271671D01*
X196809675Y-141238338D01*
X196847770Y-141205005D01*
X196885865Y-141138338D01*
X196885865Y-140938338D01*
X196847770Y-140871671D01*
X196809675Y-140838338D01*
X196085865Y-141505005D02*
X196085865Y-141938338D01*
X196390627Y-141705005D01*
X196390627Y-141805005D01*
X196428722Y-141871671D01*
X196466818Y-141905005D01*
X196543008Y-141938338D01*
X196733484Y-141938338D01*
X196809675Y-141905005D01*
X196847770Y-141871671D01*
X196885865Y-141805005D01*
X196885865Y-141605005D01*
X196847770Y-141538338D01*
X196809675Y-141505005D01*
G04 #@! TO.C,D34*
X215935865Y-141505005D02*
X215135865Y-141505005D01*
X215135865Y-141671671D01*
X215173961Y-141771671D01*
X215250151Y-141838338D01*
X215326341Y-141871671D01*
X215478722Y-141905005D01*
X215593008Y-141905005D01*
X215745389Y-141871671D01*
X215821580Y-141838338D01*
X215897770Y-141771671D01*
X215935865Y-141671671D01*
X215935865Y-141505005D01*
X215135865Y-142138338D02*
X215135865Y-142571671D01*
X215440627Y-142338338D01*
X215440627Y-142438338D01*
X215478722Y-142505005D01*
X215516818Y-142538338D01*
X215593008Y-142571671D01*
X215783484Y-142571671D01*
X215859675Y-142538338D01*
X215897770Y-142505005D01*
X215935865Y-142438338D01*
X215935865Y-142238338D01*
X215897770Y-142171671D01*
X215859675Y-142138338D01*
X215402532Y-143171671D02*
X215935865Y-143171671D01*
X215097770Y-143005005D02*
X215669199Y-142838338D01*
X215669199Y-143271671D01*
G04 #@! TO.C,D12*
X215935865Y-84378525D02*
X215135865Y-84378525D01*
X215135865Y-84545191D01*
X215173961Y-84645191D01*
X215250151Y-84711858D01*
X215326341Y-84745191D01*
X215478722Y-84778525D01*
X215593008Y-84778525D01*
X215745389Y-84745191D01*
X215821580Y-84711858D01*
X215897770Y-84645191D01*
X215935865Y-84545191D01*
X215935865Y-84378525D01*
X215935865Y-85445191D02*
X215935865Y-85045191D01*
X215935865Y-85245191D02*
X215135865Y-85245191D01*
X215250151Y-85178525D01*
X215326341Y-85111858D01*
X215364437Y-85045191D01*
X215212056Y-85711858D02*
X215173961Y-85745191D01*
X215135865Y-85811858D01*
X215135865Y-85978525D01*
X215173961Y-86045191D01*
X215212056Y-86078525D01*
X215288246Y-86111858D01*
X215364437Y-86111858D01*
X215478722Y-86078525D01*
X215935865Y-85678525D01*
X215935865Y-86111858D01*
G04 #@! TO.C,D36*
X268084494Y-163788242D02*
X268422588Y-163063196D01*
X268271537Y-162992760D01*
X268164806Y-162985024D01*
X268072186Y-163025901D01*
X268009777Y-163080866D01*
X267915167Y-163204883D01*
X267866868Y-163308461D01*
X267832679Y-163460652D01*
X267830690Y-163543791D01*
X267858911Y-163641018D01*
X267933442Y-163717806D01*
X268084494Y-163788242D01*
X267848593Y-162795538D02*
X267455860Y-162612403D01*
X267538534Y-162987222D01*
X267447903Y-162944960D01*
X267371383Y-162951312D01*
X267325073Y-162971750D01*
X267262663Y-163026715D01*
X267182164Y-163199345D01*
X267180175Y-163282485D01*
X267194286Y-163331098D01*
X267238606Y-163393798D01*
X267419868Y-163478322D01*
X267496388Y-163471971D01*
X267542698Y-163451532D01*
X266912075Y-162358832D02*
X267032916Y-162415181D01*
X267077237Y-162477882D01*
X267091348Y-162526495D01*
X267103469Y-162658248D01*
X267069280Y-162810439D01*
X266940482Y-163086647D01*
X266878072Y-163141612D01*
X266831762Y-163162051D01*
X266755242Y-163168402D01*
X266634401Y-163112053D01*
X266590080Y-163049352D01*
X266575970Y-163000739D01*
X266577959Y-162917600D01*
X266658458Y-162744970D01*
X266720867Y-162690005D01*
X266767177Y-162669566D01*
X266843698Y-162663215D01*
X266964539Y-162719564D01*
X267008860Y-162782264D01*
X267022970Y-162830878D01*
X267020981Y-162914017D01*
G04 #@! TO.C,D37*
X124116200Y-150653704D02*
X124116200Y-149853704D01*
X123949533Y-149853704D01*
X123849533Y-149891800D01*
X123782866Y-149967990D01*
X123749533Y-150044180D01*
X123716200Y-150196561D01*
X123716200Y-150310847D01*
X123749533Y-150463228D01*
X123782866Y-150539419D01*
X123849533Y-150615609D01*
X123949533Y-150653704D01*
X124116200Y-150653704D01*
X123482866Y-149853704D02*
X123049533Y-149853704D01*
X123282866Y-150158466D01*
X123182866Y-150158466D01*
X123116200Y-150196561D01*
X123082866Y-150234657D01*
X123049533Y-150310847D01*
X123049533Y-150501323D01*
X123082866Y-150577514D01*
X123116200Y-150615609D01*
X123182866Y-150653704D01*
X123382866Y-150653704D01*
X123449533Y-150615609D01*
X123482866Y-150577514D01*
X122816200Y-149853704D02*
X122349533Y-149853704D01*
X122649533Y-150653704D01*
G04 #@! TO.C,D38*
X138563304Y-161405200D02*
X137763304Y-161405200D01*
X137763304Y-161571866D01*
X137801400Y-161671866D01*
X137877590Y-161738533D01*
X137953780Y-161771866D01*
X138106161Y-161805200D01*
X138220447Y-161805200D01*
X138372828Y-161771866D01*
X138449019Y-161738533D01*
X138525209Y-161671866D01*
X138563304Y-161571866D01*
X138563304Y-161405200D01*
X137763304Y-162038533D02*
X137763304Y-162471866D01*
X138068066Y-162238533D01*
X138068066Y-162338533D01*
X138106161Y-162405200D01*
X138144257Y-162438533D01*
X138220447Y-162471866D01*
X138410923Y-162471866D01*
X138487114Y-162438533D01*
X138525209Y-162405200D01*
X138563304Y-162338533D01*
X138563304Y-162138533D01*
X138525209Y-162071866D01*
X138487114Y-162038533D01*
X138106161Y-162871866D02*
X138068066Y-162805200D01*
X138029971Y-162771866D01*
X137953780Y-162738533D01*
X137915685Y-162738533D01*
X137839495Y-162771866D01*
X137801400Y-162805200D01*
X137763304Y-162871866D01*
X137763304Y-163005200D01*
X137801400Y-163071866D01*
X137839495Y-163105200D01*
X137915685Y-163138533D01*
X137953780Y-163138533D01*
X138029971Y-163105200D01*
X138068066Y-163071866D01*
X138106161Y-163005200D01*
X138106161Y-162871866D01*
X138144257Y-162805200D01*
X138182352Y-162771866D01*
X138258542Y-162738533D01*
X138410923Y-162738533D01*
X138487114Y-162771866D01*
X138525209Y-162805200D01*
X138563304Y-162871866D01*
X138563304Y-163005200D01*
X138525209Y-163071866D01*
X138487114Y-163105200D01*
X138410923Y-163138533D01*
X138258542Y-163138533D01*
X138182352Y-163105200D01*
X138144257Y-163071866D01*
X138106161Y-163005200D01*
G04 #@! TO.C,D39*
X158785865Y-159265005D02*
X157985865Y-159265005D01*
X157985865Y-159431671D01*
X158023961Y-159531671D01*
X158100151Y-159598338D01*
X158176341Y-159631671D01*
X158328722Y-159665005D01*
X158443008Y-159665005D01*
X158595389Y-159631671D01*
X158671580Y-159598338D01*
X158747770Y-159531671D01*
X158785865Y-159431671D01*
X158785865Y-159265005D01*
X157985865Y-159898338D02*
X157985865Y-160331671D01*
X158290627Y-160098338D01*
X158290627Y-160198338D01*
X158328722Y-160265005D01*
X158366818Y-160298338D01*
X158443008Y-160331671D01*
X158633484Y-160331671D01*
X158709675Y-160298338D01*
X158747770Y-160265005D01*
X158785865Y-160198338D01*
X158785865Y-159998338D01*
X158747770Y-159931671D01*
X158709675Y-159898338D01*
X158785865Y-160665005D02*
X158785865Y-160798338D01*
X158747770Y-160865005D01*
X158709675Y-160898338D01*
X158595389Y-160965005D01*
X158443008Y-160998338D01*
X158138246Y-160998338D01*
X158062056Y-160965005D01*
X158023961Y-160931671D01*
X157985865Y-160865005D01*
X157985865Y-160731671D01*
X158023961Y-160665005D01*
X158062056Y-160631671D01*
X158138246Y-160598338D01*
X158328722Y-160598338D01*
X158404913Y-160631671D01*
X158443008Y-160665005D01*
X158481103Y-160731671D01*
X158481103Y-160865005D01*
X158443008Y-160931671D01*
X158404913Y-160965005D01*
X158328722Y-160998338D01*
G04 #@! TO.C,D40*
X177835865Y-157665005D02*
X177035865Y-157665005D01*
X177035865Y-157831671D01*
X177073961Y-157931671D01*
X177150151Y-157998338D01*
X177226341Y-158031671D01*
X177378722Y-158065005D01*
X177493008Y-158065005D01*
X177645389Y-158031671D01*
X177721580Y-157998338D01*
X177797770Y-157931671D01*
X177835865Y-157831671D01*
X177835865Y-157665005D01*
X177302532Y-158665005D02*
X177835865Y-158665005D01*
X176997770Y-158498338D02*
X177569199Y-158331671D01*
X177569199Y-158765005D01*
X177035865Y-159165005D02*
X177035865Y-159231671D01*
X177073961Y-159298338D01*
X177112056Y-159331671D01*
X177188246Y-159365005D01*
X177340627Y-159398338D01*
X177531103Y-159398338D01*
X177683484Y-159365005D01*
X177759675Y-159331671D01*
X177797770Y-159298338D01*
X177835865Y-159231671D01*
X177835865Y-159165005D01*
X177797770Y-159098338D01*
X177759675Y-159065005D01*
X177683484Y-159031671D01*
X177531103Y-158998338D01*
X177340627Y-158998338D01*
X177188246Y-159031671D01*
X177112056Y-159065005D01*
X177073961Y-159098338D01*
X177035865Y-159165005D01*
G04 #@! TO.C,D41*
X196885865Y-159245005D02*
X196085865Y-159245005D01*
X196085865Y-159411671D01*
X196123961Y-159511671D01*
X196200151Y-159578338D01*
X196276341Y-159611671D01*
X196428722Y-159645005D01*
X196543008Y-159645005D01*
X196695389Y-159611671D01*
X196771580Y-159578338D01*
X196847770Y-159511671D01*
X196885865Y-159411671D01*
X196885865Y-159245005D01*
X196352532Y-160245005D02*
X196885865Y-160245005D01*
X196047770Y-160078338D02*
X196619199Y-159911671D01*
X196619199Y-160345005D01*
X196885865Y-160978338D02*
X196885865Y-160578338D01*
X196885865Y-160778338D02*
X196085865Y-160778338D01*
X196200151Y-160711671D01*
X196276341Y-160645005D01*
X196314437Y-160578338D01*
G04 #@! TO.C,D42*
X223493482Y-166169145D02*
X222768436Y-165831051D01*
X222698000Y-165982102D01*
X222690264Y-166088833D01*
X222731141Y-166181453D01*
X222786106Y-166243862D01*
X222910123Y-166338472D01*
X223013701Y-166386771D01*
X223165892Y-166420960D01*
X223249031Y-166422949D01*
X223346258Y-166394728D01*
X223423046Y-166320197D01*
X223493482Y-166169145D01*
X222587500Y-166850057D02*
X223070864Y-167075453D01*
X222381728Y-166570208D02*
X222970055Y-166660652D01*
X222786920Y-167053386D01*
X222273997Y-167071661D02*
X222225384Y-167085771D01*
X222162683Y-167130092D01*
X222092247Y-167281143D01*
X222098598Y-167357664D01*
X222119037Y-167403974D01*
X222174002Y-167466383D01*
X222243054Y-167498583D01*
X222360719Y-167516672D01*
X222944078Y-167347346D01*
X222760944Y-167740079D01*
G04 #@! TO.C,D43*
X249537414Y-155093822D02*
X249875508Y-154368776D01*
X249724457Y-154298340D01*
X249617726Y-154290604D01*
X249525106Y-154331481D01*
X249462697Y-154386446D01*
X249368087Y-154510463D01*
X249319788Y-154614041D01*
X249285599Y-154766232D01*
X249283610Y-154849371D01*
X249311831Y-154946598D01*
X249386362Y-155023386D01*
X249537414Y-155093822D01*
X248856502Y-154187840D02*
X248631106Y-154671204D01*
X249136351Y-153982068D02*
X249045907Y-154570395D01*
X248653173Y-154387260D01*
X248697308Y-153819372D02*
X248304575Y-153636238D01*
X248387249Y-154011057D01*
X248296618Y-153968795D01*
X248220097Y-153975146D01*
X248173787Y-153995585D01*
X248111378Y-154050550D01*
X248030879Y-154223180D01*
X248028890Y-154306319D01*
X248043000Y-154354932D01*
X248087321Y-154417633D01*
X248268583Y-154502157D01*
X248345103Y-154495805D01*
X248391413Y-154475366D01*
G04 #@! TO.C,D44*
X271894494Y-187417862D02*
X272232588Y-186692816D01*
X272081537Y-186622380D01*
X271974806Y-186614644D01*
X271882186Y-186655521D01*
X271819777Y-186710486D01*
X271725167Y-186834503D01*
X271676868Y-186938081D01*
X271642679Y-187090272D01*
X271640690Y-187173411D01*
X271668911Y-187270638D01*
X271743442Y-187347426D01*
X271894494Y-187417862D01*
X271213582Y-186511880D02*
X270988186Y-186995244D01*
X271493431Y-186306108D02*
X271402987Y-186894435D01*
X271010253Y-186711300D01*
X270609377Y-186230134D02*
X270383981Y-186713498D01*
X270889226Y-186024362D02*
X270798781Y-186612689D01*
X270406048Y-186429554D01*
G04 #@! TO.C,D22*
X139727465Y-124377045D02*
X138927465Y-124377045D01*
X138927465Y-124543711D01*
X138965561Y-124643711D01*
X139041751Y-124710378D01*
X139117941Y-124743711D01*
X139270322Y-124777045D01*
X139384608Y-124777045D01*
X139536989Y-124743711D01*
X139613180Y-124710378D01*
X139689370Y-124643711D01*
X139727465Y-124543711D01*
X139727465Y-124377045D01*
X139003656Y-125043711D02*
X138965561Y-125077045D01*
X138927465Y-125143711D01*
X138927465Y-125310378D01*
X138965561Y-125377045D01*
X139003656Y-125410378D01*
X139079846Y-125443711D01*
X139156037Y-125443711D01*
X139270322Y-125410378D01*
X139727465Y-125010378D01*
X139727465Y-125443711D01*
X139003656Y-125710378D02*
X138965561Y-125743711D01*
X138927465Y-125810378D01*
X138927465Y-125977045D01*
X138965561Y-126043711D01*
X139003656Y-126077045D01*
X139079846Y-126110378D01*
X139156037Y-126110378D01*
X139270322Y-126077045D01*
X139727465Y-125677045D01*
X139727465Y-126110378D01*
G04 #@! TO.C,D35*
X235880864Y-137343780D02*
X235080864Y-137343780D01*
X235080864Y-137510446D01*
X235118960Y-137610446D01*
X235195150Y-137677113D01*
X235271340Y-137710446D01*
X235423721Y-137743780D01*
X235538007Y-137743780D01*
X235690388Y-137710446D01*
X235766579Y-137677113D01*
X235842769Y-137610446D01*
X235880864Y-137510446D01*
X235880864Y-137343780D01*
X235080864Y-137977113D02*
X235080864Y-138410446D01*
X235385626Y-138177113D01*
X235385626Y-138277113D01*
X235423721Y-138343780D01*
X235461817Y-138377113D01*
X235538007Y-138410446D01*
X235728483Y-138410446D01*
X235804674Y-138377113D01*
X235842769Y-138343780D01*
X235880864Y-138277113D01*
X235880864Y-138077113D01*
X235842769Y-138010446D01*
X235804674Y-137977113D01*
X235080864Y-139043780D02*
X235080864Y-138710446D01*
X235461817Y-138677113D01*
X235423721Y-138710446D01*
X235385626Y-138777113D01*
X235385626Y-138943780D01*
X235423721Y-139010446D01*
X235461817Y-139043780D01*
X235538007Y-139077113D01*
X235728483Y-139077113D01*
X235804674Y-139043780D01*
X235842769Y-139010446D01*
X235880864Y-138943780D01*
X235880864Y-138777113D01*
X235842769Y-138710446D01*
X235804674Y-138677113D01*
G04 #@! TO.C,D2*
X158775865Y-64375378D02*
X157975865Y-64375378D01*
X157975865Y-64542045D01*
X158013961Y-64642045D01*
X158090151Y-64708711D01*
X158166341Y-64742045D01*
X158318722Y-64775378D01*
X158433008Y-64775378D01*
X158585389Y-64742045D01*
X158661580Y-64708711D01*
X158737770Y-64642045D01*
X158775865Y-64542045D01*
X158775865Y-64375378D01*
X158052056Y-65042045D02*
X158013961Y-65075378D01*
X157975865Y-65142045D01*
X157975865Y-65308711D01*
X158013961Y-65375378D01*
X158052056Y-65408711D01*
X158128246Y-65442045D01*
X158204437Y-65442045D01*
X158318722Y-65408711D01*
X158775865Y-65008711D01*
X158775865Y-65442045D01*
G04 #@! TO.C,D3*
X177815865Y-62777978D02*
X177015865Y-62777978D01*
X177015865Y-62944645D01*
X177053961Y-63044645D01*
X177130151Y-63111311D01*
X177206341Y-63144645D01*
X177358722Y-63177978D01*
X177473008Y-63177978D01*
X177625389Y-63144645D01*
X177701580Y-63111311D01*
X177777770Y-63044645D01*
X177815865Y-62944645D01*
X177815865Y-62777978D01*
X177015865Y-63411311D02*
X177015865Y-63844645D01*
X177320627Y-63611311D01*
X177320627Y-63711311D01*
X177358722Y-63777978D01*
X177396818Y-63811311D01*
X177473008Y-63844645D01*
X177663484Y-63844645D01*
X177739675Y-63811311D01*
X177777770Y-63777978D01*
X177815865Y-63711311D01*
X177815865Y-63511311D01*
X177777770Y-63444645D01*
X177739675Y-63411311D01*
G04 #@! TO.C,D4*
X196855865Y-64361978D02*
X196055865Y-64361978D01*
X196055865Y-64528645D01*
X196093961Y-64628645D01*
X196170151Y-64695311D01*
X196246341Y-64728645D01*
X196398722Y-64761978D01*
X196513008Y-64761978D01*
X196665389Y-64728645D01*
X196741580Y-64695311D01*
X196817770Y-64628645D01*
X196855865Y-64528645D01*
X196855865Y-64361978D01*
X196322532Y-65361978D02*
X196855865Y-65361978D01*
X196017770Y-65195311D02*
X196589199Y-65028645D01*
X196589199Y-65461978D01*
G04 #@! TO.C,D5*
X215893616Y-65661978D02*
X215093616Y-65661978D01*
X215093616Y-65828645D01*
X215131712Y-65928645D01*
X215207902Y-65995311D01*
X215284092Y-66028645D01*
X215436473Y-66061978D01*
X215550759Y-66061978D01*
X215703140Y-66028645D01*
X215779331Y-65995311D01*
X215855521Y-65928645D01*
X215893616Y-65828645D01*
X215893616Y-65661978D01*
X215093616Y-66695311D02*
X215093616Y-66361978D01*
X215474569Y-66328645D01*
X215436473Y-66361978D01*
X215398378Y-66428645D01*
X215398378Y-66595311D01*
X215436473Y-66661978D01*
X215474569Y-66695311D01*
X215550759Y-66728645D01*
X215741235Y-66728645D01*
X215817426Y-66695311D01*
X215855521Y-66661978D01*
X215893616Y-66595311D01*
X215893616Y-66428645D01*
X215855521Y-66361978D01*
X215817426Y-66328645D01*
G04 #@! TO.C,D6*
X234985865Y-65663978D02*
X234185865Y-65663978D01*
X234185865Y-65830645D01*
X234223961Y-65930645D01*
X234300151Y-65997311D01*
X234376341Y-66030645D01*
X234528722Y-66063978D01*
X234643008Y-66063978D01*
X234795389Y-66030645D01*
X234871580Y-65997311D01*
X234947770Y-65930645D01*
X234985865Y-65830645D01*
X234985865Y-65663978D01*
X234185865Y-66663978D02*
X234185865Y-66530645D01*
X234223961Y-66463978D01*
X234262056Y-66430645D01*
X234376341Y-66363978D01*
X234528722Y-66330645D01*
X234833484Y-66330645D01*
X234909675Y-66363978D01*
X234947770Y-66397311D01*
X234985865Y-66463978D01*
X234985865Y-66597311D01*
X234947770Y-66663978D01*
X234909675Y-66697311D01*
X234833484Y-66730645D01*
X234643008Y-66730645D01*
X234566818Y-66697311D01*
X234528722Y-66663978D01*
X234490627Y-66597311D01*
X234490627Y-66463978D01*
X234528722Y-66397311D01*
X234566818Y-66363978D01*
X234643008Y-66330645D01*
G04 #@! TO.C,D7*
X115917545Y-86618978D02*
X115117545Y-86618978D01*
X115117545Y-86785645D01*
X115155641Y-86885645D01*
X115231831Y-86952311D01*
X115308021Y-86985645D01*
X115460402Y-87018978D01*
X115574688Y-87018978D01*
X115727069Y-86985645D01*
X115803260Y-86952311D01*
X115879450Y-86885645D01*
X115917545Y-86785645D01*
X115917545Y-86618978D01*
X115117545Y-87252311D02*
X115117545Y-87718978D01*
X115917545Y-87418978D01*
G04 #@! TO.C,D8*
X139722965Y-86618978D02*
X138922965Y-86618978D01*
X138922965Y-86785645D01*
X138961061Y-86885645D01*
X139037251Y-86952311D01*
X139113441Y-86985645D01*
X139265822Y-87018978D01*
X139380108Y-87018978D01*
X139532489Y-86985645D01*
X139608680Y-86952311D01*
X139684870Y-86885645D01*
X139722965Y-86785645D01*
X139722965Y-86618978D01*
X139265822Y-87418978D02*
X139227727Y-87352311D01*
X139189632Y-87318978D01*
X139113441Y-87285645D01*
X139075346Y-87285645D01*
X138999156Y-87318978D01*
X138961061Y-87352311D01*
X138922965Y-87418978D01*
X138922965Y-87552311D01*
X138961061Y-87618978D01*
X138999156Y-87652311D01*
X139075346Y-87685645D01*
X139113441Y-87685645D01*
X139189632Y-87652311D01*
X139227727Y-87618978D01*
X139265822Y-87552311D01*
X139265822Y-87418978D01*
X139303918Y-87352311D01*
X139342013Y-87318978D01*
X139418203Y-87285645D01*
X139570584Y-87285645D01*
X139646775Y-87318978D01*
X139684870Y-87352311D01*
X139722965Y-87418978D01*
X139722965Y-87552311D01*
X139684870Y-87618978D01*
X139646775Y-87652311D01*
X139570584Y-87685645D01*
X139418203Y-87685645D01*
X139342013Y-87652311D01*
X139303918Y-87618978D01*
X139265822Y-87552311D01*
G04 #@! TO.C,D9*
X158772965Y-83428978D02*
X157972965Y-83428978D01*
X157972965Y-83595645D01*
X158011061Y-83695645D01*
X158087251Y-83762311D01*
X158163441Y-83795645D01*
X158315822Y-83828978D01*
X158430108Y-83828978D01*
X158582489Y-83795645D01*
X158658680Y-83762311D01*
X158734870Y-83695645D01*
X158772965Y-83595645D01*
X158772965Y-83428978D01*
X158772965Y-84162311D02*
X158772965Y-84295645D01*
X158734870Y-84362311D01*
X158696775Y-84395645D01*
X158582489Y-84462311D01*
X158430108Y-84495645D01*
X158125346Y-84495645D01*
X158049156Y-84462311D01*
X158011061Y-84428978D01*
X157972965Y-84362311D01*
X157972965Y-84228978D01*
X158011061Y-84162311D01*
X158049156Y-84128978D01*
X158125346Y-84095645D01*
X158315822Y-84095645D01*
X158392013Y-84128978D01*
X158430108Y-84162311D01*
X158468203Y-84228978D01*
X158468203Y-84362311D01*
X158430108Y-84428978D01*
X158392013Y-84462311D01*
X158315822Y-84495645D01*
G04 #@! TO.C,D10*
X177818565Y-81490085D02*
X177018565Y-81490085D01*
X177018565Y-81656751D01*
X177056661Y-81756751D01*
X177132851Y-81823418D01*
X177209041Y-81856751D01*
X177361422Y-81890085D01*
X177475708Y-81890085D01*
X177628089Y-81856751D01*
X177704280Y-81823418D01*
X177780470Y-81756751D01*
X177818565Y-81656751D01*
X177818565Y-81490085D01*
X177818565Y-82556751D02*
X177818565Y-82156751D01*
X177818565Y-82356751D02*
X177018565Y-82356751D01*
X177132851Y-82290085D01*
X177209041Y-82223418D01*
X177247137Y-82156751D01*
X177018565Y-82990085D02*
X177018565Y-83056751D01*
X177056661Y-83123418D01*
X177094756Y-83156751D01*
X177170946Y-83190085D01*
X177323327Y-83223418D01*
X177513803Y-83223418D01*
X177666184Y-83190085D01*
X177742375Y-83156751D01*
X177780470Y-83123418D01*
X177818565Y-83056751D01*
X177818565Y-82990085D01*
X177780470Y-82923418D01*
X177742375Y-82890085D01*
X177666184Y-82856751D01*
X177513803Y-82823418D01*
X177323327Y-82823418D01*
X177170946Y-82856751D01*
X177094756Y-82890085D01*
X177056661Y-82923418D01*
X177018565Y-82990085D01*
G04 #@! TO.C,D23*
X158785865Y-121185245D02*
X157985865Y-121185245D01*
X157985865Y-121351911D01*
X158023961Y-121451911D01*
X158100151Y-121518578D01*
X158176341Y-121551911D01*
X158328722Y-121585245D01*
X158443008Y-121585245D01*
X158595389Y-121551911D01*
X158671580Y-121518578D01*
X158747770Y-121451911D01*
X158785865Y-121351911D01*
X158785865Y-121185245D01*
X158062056Y-121851911D02*
X158023961Y-121885245D01*
X157985865Y-121951911D01*
X157985865Y-122118578D01*
X158023961Y-122185245D01*
X158062056Y-122218578D01*
X158138246Y-122251911D01*
X158214437Y-122251911D01*
X158328722Y-122218578D01*
X158785865Y-121818578D01*
X158785865Y-122251911D01*
X157985865Y-122485245D02*
X157985865Y-122918578D01*
X158290627Y-122685245D01*
X158290627Y-122785245D01*
X158328722Y-122851911D01*
X158366818Y-122885245D01*
X158443008Y-122918578D01*
X158633484Y-122918578D01*
X158709675Y-122885245D01*
X158747770Y-122851911D01*
X158785865Y-122785245D01*
X158785865Y-122585245D01*
X158747770Y-122518578D01*
X158709675Y-122485245D01*
G04 #@! TO.C,D24*
X177835865Y-119582245D02*
X177035865Y-119582245D01*
X177035865Y-119748911D01*
X177073961Y-119848911D01*
X177150151Y-119915578D01*
X177226341Y-119948911D01*
X177378722Y-119982245D01*
X177493008Y-119982245D01*
X177645389Y-119948911D01*
X177721580Y-119915578D01*
X177797770Y-119848911D01*
X177835865Y-119748911D01*
X177835865Y-119582245D01*
X177112056Y-120248911D02*
X177073961Y-120282245D01*
X177035865Y-120348911D01*
X177035865Y-120515578D01*
X177073961Y-120582245D01*
X177112056Y-120615578D01*
X177188246Y-120648911D01*
X177264437Y-120648911D01*
X177378722Y-120615578D01*
X177835865Y-120215578D01*
X177835865Y-120648911D01*
X177302532Y-121248911D02*
X177835865Y-121248911D01*
X176997770Y-121082245D02*
X177569199Y-120915578D01*
X177569199Y-121348911D01*
G04 #@! TO.C,D13*
X234985865Y-84370945D02*
X234185865Y-84370945D01*
X234185865Y-84537611D01*
X234223961Y-84637611D01*
X234300151Y-84704278D01*
X234376341Y-84737611D01*
X234528722Y-84770945D01*
X234643008Y-84770945D01*
X234795389Y-84737611D01*
X234871580Y-84704278D01*
X234947770Y-84637611D01*
X234985865Y-84537611D01*
X234985865Y-84370945D01*
X234985865Y-85437611D02*
X234985865Y-85037611D01*
X234985865Y-85237611D02*
X234185865Y-85237611D01*
X234300151Y-85170945D01*
X234376341Y-85104278D01*
X234414437Y-85037611D01*
X234185865Y-85670945D02*
X234185865Y-86104278D01*
X234490627Y-85870945D01*
X234490627Y-85970945D01*
X234528722Y-86037611D01*
X234566818Y-86070945D01*
X234643008Y-86104278D01*
X234833484Y-86104278D01*
X234909675Y-86070945D01*
X234947770Y-86037611D01*
X234985865Y-85970945D01*
X234985865Y-85770945D01*
X234947770Y-85704278D01*
X234909675Y-85670945D01*
G04 #@! TO.C,D14*
X115920945Y-105328745D02*
X115120945Y-105328745D01*
X115120945Y-105495411D01*
X115159041Y-105595411D01*
X115235231Y-105662078D01*
X115311421Y-105695411D01*
X115463802Y-105728745D01*
X115578088Y-105728745D01*
X115730469Y-105695411D01*
X115806660Y-105662078D01*
X115882850Y-105595411D01*
X115920945Y-105495411D01*
X115920945Y-105328745D01*
X115920945Y-106395411D02*
X115920945Y-105995411D01*
X115920945Y-106195411D02*
X115120945Y-106195411D01*
X115235231Y-106128745D01*
X115311421Y-106062078D01*
X115349517Y-105995411D01*
X115387612Y-106995411D02*
X115920945Y-106995411D01*
X115082850Y-106828745D02*
X115654279Y-106662078D01*
X115654279Y-107095411D01*
G04 #@! TO.C,D15*
X139721725Y-105338345D02*
X138921725Y-105338345D01*
X138921725Y-105505011D01*
X138959821Y-105605011D01*
X139036011Y-105671678D01*
X139112201Y-105705011D01*
X139264582Y-105738345D01*
X139378868Y-105738345D01*
X139531249Y-105705011D01*
X139607440Y-105671678D01*
X139683630Y-105605011D01*
X139721725Y-105505011D01*
X139721725Y-105338345D01*
X139721725Y-106405011D02*
X139721725Y-106005011D01*
X139721725Y-106205011D02*
X138921725Y-106205011D01*
X139036011Y-106138345D01*
X139112201Y-106071678D01*
X139150297Y-106005011D01*
X138921725Y-107038345D02*
X138921725Y-106705011D01*
X139302678Y-106671678D01*
X139264582Y-106705011D01*
X139226487Y-106771678D01*
X139226487Y-106938345D01*
X139264582Y-107005011D01*
X139302678Y-107038345D01*
X139378868Y-107071678D01*
X139569344Y-107071678D01*
X139645535Y-107038345D01*
X139683630Y-107005011D01*
X139721725Y-106938345D01*
X139721725Y-106771678D01*
X139683630Y-106705011D01*
X139645535Y-106671678D01*
G04 #@! TO.C,D16*
X158770465Y-102137625D02*
X157970465Y-102137625D01*
X157970465Y-102304291D01*
X158008561Y-102404291D01*
X158084751Y-102470958D01*
X158160941Y-102504291D01*
X158313322Y-102537625D01*
X158427608Y-102537625D01*
X158579989Y-102504291D01*
X158656180Y-102470958D01*
X158732370Y-102404291D01*
X158770465Y-102304291D01*
X158770465Y-102137625D01*
X158770465Y-103204291D02*
X158770465Y-102804291D01*
X158770465Y-103004291D02*
X157970465Y-103004291D01*
X158084751Y-102937625D01*
X158160941Y-102870958D01*
X158199037Y-102804291D01*
X157970465Y-103804291D02*
X157970465Y-103670958D01*
X158008561Y-103604291D01*
X158046656Y-103570958D01*
X158160941Y-103504291D01*
X158313322Y-103470958D01*
X158618084Y-103470958D01*
X158694275Y-103504291D01*
X158732370Y-103537625D01*
X158770465Y-103604291D01*
X158770465Y-103737625D01*
X158732370Y-103804291D01*
X158694275Y-103837625D01*
X158618084Y-103870958D01*
X158427608Y-103870958D01*
X158351418Y-103837625D01*
X158313322Y-103804291D01*
X158275227Y-103737625D01*
X158275227Y-103604291D01*
X158313322Y-103537625D01*
X158351418Y-103504291D01*
X158427608Y-103470958D01*
G04 #@! TO.C,D17*
X177814905Y-100534545D02*
X177014905Y-100534545D01*
X177014905Y-100701211D01*
X177053001Y-100801211D01*
X177129191Y-100867878D01*
X177205381Y-100901211D01*
X177357762Y-100934545D01*
X177472048Y-100934545D01*
X177624429Y-100901211D01*
X177700620Y-100867878D01*
X177776810Y-100801211D01*
X177814905Y-100701211D01*
X177814905Y-100534545D01*
X177814905Y-101601211D02*
X177814905Y-101201211D01*
X177814905Y-101401211D02*
X177014905Y-101401211D01*
X177129191Y-101334545D01*
X177205381Y-101267878D01*
X177243477Y-101201211D01*
X177014905Y-101834545D02*
X177014905Y-102301211D01*
X177814905Y-102001211D01*
G04 #@! TO.C,D18*
X196860305Y-102120265D02*
X196060305Y-102120265D01*
X196060305Y-102286931D01*
X196098401Y-102386931D01*
X196174591Y-102453598D01*
X196250781Y-102486931D01*
X196403162Y-102520265D01*
X196517448Y-102520265D01*
X196669829Y-102486931D01*
X196746020Y-102453598D01*
X196822210Y-102386931D01*
X196860305Y-102286931D01*
X196860305Y-102120265D01*
X196860305Y-103186931D02*
X196860305Y-102786931D01*
X196860305Y-102986931D02*
X196060305Y-102986931D01*
X196174591Y-102920265D01*
X196250781Y-102853598D01*
X196288877Y-102786931D01*
X196403162Y-103586931D02*
X196365067Y-103520265D01*
X196326972Y-103486931D01*
X196250781Y-103453598D01*
X196212686Y-103453598D01*
X196136496Y-103486931D01*
X196098401Y-103520265D01*
X196060305Y-103586931D01*
X196060305Y-103720265D01*
X196098401Y-103786931D01*
X196136496Y-103820265D01*
X196212686Y-103853598D01*
X196250781Y-103853598D01*
X196326972Y-103820265D01*
X196365067Y-103786931D01*
X196403162Y-103720265D01*
X196403162Y-103586931D01*
X196441258Y-103520265D01*
X196479353Y-103486931D01*
X196555543Y-103453598D01*
X196707924Y-103453598D01*
X196784115Y-103486931D01*
X196822210Y-103520265D01*
X196860305Y-103586931D01*
X196860305Y-103720265D01*
X196822210Y-103786931D01*
X196784115Y-103820265D01*
X196707924Y-103853598D01*
X196555543Y-103853598D01*
X196479353Y-103820265D01*
X196441258Y-103786931D01*
X196403162Y-103720265D01*
G04 #@! TO.C,D19*
X215893465Y-103431045D02*
X215093465Y-103431045D01*
X215093465Y-103597711D01*
X215131561Y-103697711D01*
X215207751Y-103764378D01*
X215283941Y-103797711D01*
X215436322Y-103831045D01*
X215550608Y-103831045D01*
X215702989Y-103797711D01*
X215779180Y-103764378D01*
X215855370Y-103697711D01*
X215893465Y-103597711D01*
X215893465Y-103431045D01*
X215893465Y-104497711D02*
X215893465Y-104097711D01*
X215893465Y-104297711D02*
X215093465Y-104297711D01*
X215207751Y-104231045D01*
X215283941Y-104164378D01*
X215322037Y-104097711D01*
X215893465Y-104831045D02*
X215893465Y-104964378D01*
X215855370Y-105031045D01*
X215817275Y-105064378D01*
X215702989Y-105131045D01*
X215550608Y-105164378D01*
X215245846Y-105164378D01*
X215169656Y-105131045D01*
X215131561Y-105097711D01*
X215093465Y-105031045D01*
X215093465Y-104897711D01*
X215131561Y-104831045D01*
X215169656Y-104797711D01*
X215245846Y-104764378D01*
X215436322Y-104764378D01*
X215512513Y-104797711D01*
X215550608Y-104831045D01*
X215588703Y-104897711D01*
X215588703Y-105031045D01*
X215550608Y-105097711D01*
X215512513Y-105131045D01*
X215436322Y-105164378D01*
G04 #@! TO.C,D20*
X234985865Y-108190645D02*
X234185865Y-108190645D01*
X234185865Y-108357311D01*
X234223961Y-108457311D01*
X234300151Y-108523978D01*
X234376341Y-108557311D01*
X234528722Y-108590645D01*
X234643008Y-108590645D01*
X234795389Y-108557311D01*
X234871580Y-108523978D01*
X234947770Y-108457311D01*
X234985865Y-108357311D01*
X234985865Y-108190645D01*
X234262056Y-108857311D02*
X234223961Y-108890645D01*
X234185865Y-108957311D01*
X234185865Y-109123978D01*
X234223961Y-109190645D01*
X234262056Y-109223978D01*
X234338246Y-109257311D01*
X234414437Y-109257311D01*
X234528722Y-109223978D01*
X234985865Y-108823978D01*
X234985865Y-109257311D01*
X234185865Y-109690645D02*
X234185865Y-109757311D01*
X234223961Y-109823978D01*
X234262056Y-109857311D01*
X234338246Y-109890645D01*
X234490627Y-109923978D01*
X234681103Y-109923978D01*
X234833484Y-109890645D01*
X234909675Y-109857311D01*
X234947770Y-109823978D01*
X234985865Y-109757311D01*
X234985865Y-109690645D01*
X234947770Y-109623978D01*
X234909675Y-109590645D01*
X234833484Y-109557311D01*
X234681103Y-109523978D01*
X234490627Y-109523978D01*
X234338246Y-109557311D01*
X234262056Y-109590645D01*
X234223961Y-109623978D01*
X234185865Y-109690645D01*
G04 #@! TO.C,D21*
X115931265Y-124368845D02*
X115131265Y-124368845D01*
X115131265Y-124535511D01*
X115169361Y-124635511D01*
X115245551Y-124702178D01*
X115321741Y-124735511D01*
X115474122Y-124768845D01*
X115588408Y-124768845D01*
X115740789Y-124735511D01*
X115816980Y-124702178D01*
X115893170Y-124635511D01*
X115931265Y-124535511D01*
X115931265Y-124368845D01*
X115207456Y-125035511D02*
X115169361Y-125068845D01*
X115131265Y-125135511D01*
X115131265Y-125302178D01*
X115169361Y-125368845D01*
X115207456Y-125402178D01*
X115283646Y-125435511D01*
X115359837Y-125435511D01*
X115474122Y-125402178D01*
X115931265Y-125002178D01*
X115931265Y-125435511D01*
X115931265Y-126102178D02*
X115931265Y-125702178D01*
X115931265Y-125902178D02*
X115131265Y-125902178D01*
X115245551Y-125835511D01*
X115321741Y-125768845D01*
X115359837Y-125702178D01*
G04 #@! TO.C,D11*
X196860465Y-83082425D02*
X196060465Y-83082425D01*
X196060465Y-83249091D01*
X196098561Y-83349091D01*
X196174751Y-83415758D01*
X196250941Y-83449091D01*
X196403322Y-83482425D01*
X196517608Y-83482425D01*
X196669989Y-83449091D01*
X196746180Y-83415758D01*
X196822370Y-83349091D01*
X196860465Y-83249091D01*
X196860465Y-83082425D01*
X196860465Y-84149091D02*
X196860465Y-83749091D01*
X196860465Y-83949091D02*
X196060465Y-83949091D01*
X196174751Y-83882425D01*
X196250941Y-83815758D01*
X196289037Y-83749091D01*
X196860465Y-84815758D02*
X196860465Y-84415758D01*
X196860465Y-84615758D02*
X196060465Y-84615758D01*
X196174751Y-84549091D01*
X196250941Y-84482425D01*
X196289037Y-84415758D01*
G04 #@! TO.C,D1*
X140544504Y-68469733D02*
X139744504Y-68469733D01*
X139744504Y-68636400D01*
X139782600Y-68736400D01*
X139858790Y-68803066D01*
X139934980Y-68836400D01*
X140087361Y-68869733D01*
X140201647Y-68869733D01*
X140354028Y-68836400D01*
X140430219Y-68803066D01*
X140506409Y-68736400D01*
X140544504Y-68636400D01*
X140544504Y-68469733D01*
X140544504Y-69536400D02*
X140544504Y-69136400D01*
X140544504Y-69336400D02*
X139744504Y-69336400D01*
X139858790Y-69269733D01*
X139934980Y-69203066D01*
X139973076Y-69136400D01*
G04 #@! TO.C,K23*
D11*
X169510571Y-127279668D02*
X169510571Y-125755668D01*
X168639714Y-127279668D02*
X169292857Y-126408811D01*
X168639714Y-125755668D02*
X169510571Y-126626525D01*
X168059142Y-125900811D02*
X167986571Y-125828240D01*
X167841428Y-125755668D01*
X167478571Y-125755668D01*
X167333428Y-125828240D01*
X167260857Y-125900811D01*
X167188285Y-126045954D01*
X167188285Y-126191097D01*
X167260857Y-126408811D01*
X168131714Y-127279668D01*
X167188285Y-127279668D01*
X166680285Y-125755668D02*
X165736857Y-125755668D01*
X166244857Y-126336240D01*
X166027142Y-126336240D01*
X165882000Y-126408811D01*
X165809428Y-126481382D01*
X165736857Y-126626525D01*
X165736857Y-126989382D01*
X165809428Y-127134525D01*
X165882000Y-127207097D01*
X166027142Y-127279668D01*
X166462571Y-127279668D01*
X166607714Y-127207097D01*
X166680285Y-127134525D01*
G04 #@! TO.C,K22*
X150452171Y-130471468D02*
X150452171Y-128947468D01*
X149581314Y-130471468D02*
X150234457Y-129600611D01*
X149581314Y-128947468D02*
X150452171Y-129818325D01*
X149000742Y-129092611D02*
X148928171Y-129020040D01*
X148783028Y-128947468D01*
X148420171Y-128947468D01*
X148275028Y-129020040D01*
X148202457Y-129092611D01*
X148129885Y-129237754D01*
X148129885Y-129382897D01*
X148202457Y-129600611D01*
X149073314Y-130471468D01*
X148129885Y-130471468D01*
X147549314Y-129092611D02*
X147476742Y-129020040D01*
X147331600Y-128947468D01*
X146968742Y-128947468D01*
X146823600Y-129020040D01*
X146751028Y-129092611D01*
X146678457Y-129237754D01*
X146678457Y-129382897D01*
X146751028Y-129600611D01*
X147621885Y-130471468D01*
X146678457Y-130471468D01*
G04 #@! TO.C,K21*
X126655971Y-130463268D02*
X126655971Y-128939268D01*
X125785114Y-130463268D02*
X126438257Y-129592411D01*
X125785114Y-128939268D02*
X126655971Y-129810125D01*
X125204542Y-129084411D02*
X125131971Y-129011840D01*
X124986828Y-128939268D01*
X124623971Y-128939268D01*
X124478828Y-129011840D01*
X124406257Y-129084411D01*
X124333685Y-129229554D01*
X124333685Y-129374697D01*
X124406257Y-129592411D01*
X125277114Y-130463268D01*
X124333685Y-130463268D01*
X122882257Y-130463268D02*
X123753114Y-130463268D01*
X123317685Y-130463268D02*
X123317685Y-128939268D01*
X123462828Y-129156982D01*
X123607971Y-129302125D01*
X123753114Y-129374697D01*
G04 #@! TO.C,K20*
X245710571Y-114285068D02*
X245710571Y-112761068D01*
X244839714Y-114285068D02*
X245492857Y-113414211D01*
X244839714Y-112761068D02*
X245710571Y-113631925D01*
X244259142Y-112906211D02*
X244186571Y-112833640D01*
X244041428Y-112761068D01*
X243678571Y-112761068D01*
X243533428Y-112833640D01*
X243460857Y-112906211D01*
X243388285Y-113051354D01*
X243388285Y-113196497D01*
X243460857Y-113414211D01*
X244331714Y-114285068D01*
X243388285Y-114285068D01*
X242444857Y-112761068D02*
X242299714Y-112761068D01*
X242154571Y-112833640D01*
X242082000Y-112906211D01*
X242009428Y-113051354D01*
X241936857Y-113341640D01*
X241936857Y-113704497D01*
X242009428Y-113994782D01*
X242082000Y-114139925D01*
X242154571Y-114212497D01*
X242299714Y-114285068D01*
X242444857Y-114285068D01*
X242590000Y-114212497D01*
X242662571Y-114139925D01*
X242735142Y-113994782D01*
X242807714Y-113704497D01*
X242807714Y-113341640D01*
X242735142Y-113051354D01*
X242662571Y-112906211D01*
X242590000Y-112833640D01*
X242444857Y-112761068D01*
G04 #@! TO.C,K19*
X226618171Y-109525468D02*
X226618171Y-108001468D01*
X225747314Y-109525468D02*
X226400457Y-108654611D01*
X225747314Y-108001468D02*
X226618171Y-108872325D01*
X224295885Y-109525468D02*
X225166742Y-109525468D01*
X224731314Y-109525468D02*
X224731314Y-108001468D01*
X224876457Y-108219182D01*
X225021600Y-108364325D01*
X225166742Y-108436897D01*
X223570171Y-109525468D02*
X223279885Y-109525468D01*
X223134742Y-109452897D01*
X223062171Y-109380325D01*
X222917028Y-109162611D01*
X222844457Y-108872325D01*
X222844457Y-108291754D01*
X222917028Y-108146611D01*
X222989600Y-108074040D01*
X223134742Y-108001468D01*
X223425028Y-108001468D01*
X223570171Y-108074040D01*
X223642742Y-108146611D01*
X223715314Y-108291754D01*
X223715314Y-108654611D01*
X223642742Y-108799754D01*
X223570171Y-108872325D01*
X223425028Y-108944897D01*
X223134742Y-108944897D01*
X222989600Y-108872325D01*
X222917028Y-108799754D01*
X222844457Y-108654611D01*
G04 #@! TO.C,K18*
X207585011Y-108214688D02*
X207585011Y-106690688D01*
X206714154Y-108214688D02*
X207367297Y-107343831D01*
X206714154Y-106690688D02*
X207585011Y-107561545D01*
X205262725Y-108214688D02*
X206133582Y-108214688D01*
X205698154Y-108214688D02*
X205698154Y-106690688D01*
X205843297Y-106908402D01*
X205988440Y-107053545D01*
X206133582Y-107126117D01*
X204391868Y-107343831D02*
X204537011Y-107271260D01*
X204609582Y-107198688D01*
X204682154Y-107053545D01*
X204682154Y-106980974D01*
X204609582Y-106835831D01*
X204537011Y-106763260D01*
X204391868Y-106690688D01*
X204101582Y-106690688D01*
X203956440Y-106763260D01*
X203883868Y-106835831D01*
X203811297Y-106980974D01*
X203811297Y-107053545D01*
X203883868Y-107198688D01*
X203956440Y-107271260D01*
X204101582Y-107343831D01*
X204391868Y-107343831D01*
X204537011Y-107416402D01*
X204609582Y-107488974D01*
X204682154Y-107634117D01*
X204682154Y-107924402D01*
X204609582Y-108069545D01*
X204537011Y-108142117D01*
X204391868Y-108214688D01*
X204101582Y-108214688D01*
X203956440Y-108142117D01*
X203883868Y-108069545D01*
X203811297Y-107924402D01*
X203811297Y-107634117D01*
X203883868Y-107488974D01*
X203956440Y-107416402D01*
X204101582Y-107343831D01*
G04 #@! TO.C,K17*
X188539611Y-106628968D02*
X188539611Y-105104968D01*
X187668754Y-106628968D02*
X188321897Y-105758111D01*
X187668754Y-105104968D02*
X188539611Y-105975825D01*
X186217325Y-106628968D02*
X187088182Y-106628968D01*
X186652754Y-106628968D02*
X186652754Y-105104968D01*
X186797897Y-105322682D01*
X186943040Y-105467825D01*
X187088182Y-105540397D01*
X185709325Y-105104968D02*
X184693325Y-105104968D01*
X185346468Y-106628968D01*
G04 #@! TO.C,K16*
X169495171Y-108232048D02*
X169495171Y-106708048D01*
X168624314Y-108232048D02*
X169277457Y-107361191D01*
X168624314Y-106708048D02*
X169495171Y-107578905D01*
X167172885Y-108232048D02*
X168043742Y-108232048D01*
X167608314Y-108232048D02*
X167608314Y-106708048D01*
X167753457Y-106925762D01*
X167898600Y-107070905D01*
X168043742Y-107143477D01*
X165866600Y-106708048D02*
X166156885Y-106708048D01*
X166302028Y-106780620D01*
X166374600Y-106853191D01*
X166519742Y-107070905D01*
X166592314Y-107361191D01*
X166592314Y-107941762D01*
X166519742Y-108086905D01*
X166447171Y-108159477D01*
X166302028Y-108232048D01*
X166011742Y-108232048D01*
X165866600Y-108159477D01*
X165794028Y-108086905D01*
X165721457Y-107941762D01*
X165721457Y-107578905D01*
X165794028Y-107433762D01*
X165866600Y-107361191D01*
X166011742Y-107288620D01*
X166302028Y-107288620D01*
X166447171Y-107361191D01*
X166519742Y-107433762D01*
X166592314Y-107578905D01*
G04 #@! TO.C,K15*
X150446431Y-111432768D02*
X150446431Y-109908768D01*
X149575574Y-111432768D02*
X150228717Y-110561911D01*
X149575574Y-109908768D02*
X150446431Y-110779625D01*
X148124145Y-111432768D02*
X148995002Y-111432768D01*
X148559574Y-111432768D02*
X148559574Y-109908768D01*
X148704717Y-110126482D01*
X148849860Y-110271625D01*
X148995002Y-110344197D01*
X146745288Y-109908768D02*
X147471002Y-109908768D01*
X147543574Y-110634482D01*
X147471002Y-110561911D01*
X147325860Y-110489340D01*
X146963002Y-110489340D01*
X146817860Y-110561911D01*
X146745288Y-110634482D01*
X146672717Y-110779625D01*
X146672717Y-111142482D01*
X146745288Y-111287625D01*
X146817860Y-111360197D01*
X146963002Y-111432768D01*
X147325860Y-111432768D01*
X147471002Y-111360197D01*
X147543574Y-111287625D01*
G04 #@! TO.C,K14*
X126645651Y-111423168D02*
X126645651Y-109899168D01*
X125774794Y-111423168D02*
X126427937Y-110552311D01*
X125774794Y-109899168D02*
X126645651Y-110770025D01*
X124323365Y-111423168D02*
X125194222Y-111423168D01*
X124758794Y-111423168D02*
X124758794Y-109899168D01*
X124903937Y-110116882D01*
X125049080Y-110262025D01*
X125194222Y-110334597D01*
X123017080Y-110407168D02*
X123017080Y-111423168D01*
X123379937Y-109826597D02*
X123742794Y-110915168D01*
X122799365Y-110915168D01*
G04 #@! TO.C,K24*
X188560571Y-125676668D02*
X188560571Y-124152668D01*
X187689714Y-125676668D02*
X188342857Y-124805811D01*
X187689714Y-124152668D02*
X188560571Y-125023525D01*
X187109142Y-124297811D02*
X187036571Y-124225240D01*
X186891428Y-124152668D01*
X186528571Y-124152668D01*
X186383428Y-124225240D01*
X186310857Y-124297811D01*
X186238285Y-124442954D01*
X186238285Y-124588097D01*
X186310857Y-124805811D01*
X187181714Y-125676668D01*
X186238285Y-125676668D01*
X184932000Y-124660668D02*
X184932000Y-125676668D01*
X185294857Y-124080097D02*
X185657714Y-125168668D01*
X184714285Y-125168668D01*
G04 #@! TO.C,K12*
X226660571Y-90472948D02*
X226660571Y-88948948D01*
X225789714Y-90472948D02*
X226442857Y-89602091D01*
X225789714Y-88948948D02*
X226660571Y-89819805D01*
X224338285Y-90472948D02*
X225209142Y-90472948D01*
X224773714Y-90472948D02*
X224773714Y-88948948D01*
X224918857Y-89166662D01*
X225064000Y-89311805D01*
X225209142Y-89384377D01*
X223757714Y-89094091D02*
X223685142Y-89021520D01*
X223540000Y-88948948D01*
X223177142Y-88948948D01*
X223032000Y-89021520D01*
X222959428Y-89094091D01*
X222886857Y-89239234D01*
X222886857Y-89384377D01*
X222959428Y-89602091D01*
X223830285Y-90472948D01*
X222886857Y-90472948D01*
G04 #@! TO.C,K11*
X207585171Y-89176848D02*
X207585171Y-87652848D01*
X206714314Y-89176848D02*
X207367457Y-88305991D01*
X206714314Y-87652848D02*
X207585171Y-88523705D01*
X205262885Y-89176848D02*
X206133742Y-89176848D01*
X205698314Y-89176848D02*
X205698314Y-87652848D01*
X205843457Y-87870562D01*
X205988600Y-88015705D01*
X206133742Y-88088277D01*
X203811457Y-89176848D02*
X204682314Y-89176848D01*
X204246885Y-89176848D02*
X204246885Y-87652848D01*
X204392028Y-87870562D01*
X204537171Y-88015705D01*
X204682314Y-88088277D01*
G04 #@! TO.C,K10*
X188543271Y-87584508D02*
X188543271Y-86060508D01*
X187672414Y-87584508D02*
X188325557Y-86713651D01*
X187672414Y-86060508D02*
X188543271Y-86931365D01*
X186220985Y-87584508D02*
X187091842Y-87584508D01*
X186656414Y-87584508D02*
X186656414Y-86060508D01*
X186801557Y-86278222D01*
X186946700Y-86423365D01*
X187091842Y-86495937D01*
X185277557Y-86060508D02*
X185132414Y-86060508D01*
X184987271Y-86133080D01*
X184914700Y-86205651D01*
X184842128Y-86350794D01*
X184769557Y-86641080D01*
X184769557Y-87003937D01*
X184842128Y-87294222D01*
X184914700Y-87439365D01*
X184987271Y-87511937D01*
X185132414Y-87584508D01*
X185277557Y-87584508D01*
X185422700Y-87511937D01*
X185495271Y-87439365D01*
X185567842Y-87294222D01*
X185640414Y-87003937D01*
X185640414Y-86641080D01*
X185567842Y-86350794D01*
X185495271Y-86205651D01*
X185422700Y-86133080D01*
X185277557Y-86060508D01*
G04 #@! TO.C,K9*
X168771957Y-89190068D02*
X168771957Y-87666068D01*
X167901100Y-89190068D02*
X168554242Y-88319211D01*
X167901100Y-87666068D02*
X168771957Y-88536925D01*
X167175385Y-89190068D02*
X166885100Y-89190068D01*
X166739957Y-89117497D01*
X166667385Y-89044925D01*
X166522242Y-88827211D01*
X166449671Y-88536925D01*
X166449671Y-87956354D01*
X166522242Y-87811211D01*
X166594814Y-87738640D01*
X166739957Y-87666068D01*
X167030242Y-87666068D01*
X167175385Y-87738640D01*
X167247957Y-87811211D01*
X167320528Y-87956354D01*
X167320528Y-88319211D01*
X167247957Y-88464354D01*
X167175385Y-88536925D01*
X167030242Y-88609497D01*
X166739957Y-88609497D01*
X166594814Y-88536925D01*
X166522242Y-88464354D01*
X166449671Y-88319211D01*
G04 #@! TO.C,K8*
X149721957Y-92380068D02*
X149721957Y-90856068D01*
X148851100Y-92380068D02*
X149504242Y-91509211D01*
X148851100Y-90856068D02*
X149721957Y-91726925D01*
X147980242Y-91509211D02*
X148125385Y-91436640D01*
X148197957Y-91364068D01*
X148270528Y-91218925D01*
X148270528Y-91146354D01*
X148197957Y-91001211D01*
X148125385Y-90928640D01*
X147980242Y-90856068D01*
X147689957Y-90856068D01*
X147544814Y-90928640D01*
X147472242Y-91001211D01*
X147399671Y-91146354D01*
X147399671Y-91218925D01*
X147472242Y-91364068D01*
X147544814Y-91436640D01*
X147689957Y-91509211D01*
X147980242Y-91509211D01*
X148125385Y-91581782D01*
X148197957Y-91654354D01*
X148270528Y-91799497D01*
X148270528Y-92089782D01*
X148197957Y-92234925D01*
X148125385Y-92307497D01*
X147980242Y-92380068D01*
X147689957Y-92380068D01*
X147544814Y-92307497D01*
X147472242Y-92234925D01*
X147399671Y-92089782D01*
X147399671Y-91799497D01*
X147472242Y-91654354D01*
X147544814Y-91581782D01*
X147689957Y-91509211D01*
G04 #@! TO.C,K7*
X125916537Y-92380068D02*
X125916537Y-90856068D01*
X125045680Y-92380068D02*
X125698822Y-91509211D01*
X125045680Y-90856068D02*
X125916537Y-91726925D01*
X124537680Y-90856068D02*
X123521680Y-90856068D01*
X124174822Y-92380068D01*
G04 #@! TO.C,K6*
X244984857Y-71425068D02*
X244984857Y-69901068D01*
X244114000Y-71425068D02*
X244767142Y-70554211D01*
X244114000Y-69901068D02*
X244984857Y-70771925D01*
X242807714Y-69901068D02*
X243098000Y-69901068D01*
X243243142Y-69973640D01*
X243315714Y-70046211D01*
X243460857Y-70263925D01*
X243533428Y-70554211D01*
X243533428Y-71134782D01*
X243460857Y-71279925D01*
X243388285Y-71352497D01*
X243243142Y-71425068D01*
X242952857Y-71425068D01*
X242807714Y-71352497D01*
X242735142Y-71279925D01*
X242662571Y-71134782D01*
X242662571Y-70771925D01*
X242735142Y-70626782D01*
X242807714Y-70554211D01*
X242952857Y-70481640D01*
X243243142Y-70481640D01*
X243388285Y-70554211D01*
X243460857Y-70626782D01*
X243533428Y-70771925D01*
G04 #@! TO.C,K5*
X225892608Y-71423068D02*
X225892608Y-69899068D01*
X225021751Y-71423068D02*
X225674893Y-70552211D01*
X225021751Y-69899068D02*
X225892608Y-70769925D01*
X223642893Y-69899068D02*
X224368608Y-69899068D01*
X224441179Y-70624782D01*
X224368608Y-70552211D01*
X224223465Y-70479640D01*
X223860608Y-70479640D01*
X223715465Y-70552211D01*
X223642893Y-70624782D01*
X223570322Y-70769925D01*
X223570322Y-71132782D01*
X223642893Y-71277925D01*
X223715465Y-71350497D01*
X223860608Y-71423068D01*
X224223465Y-71423068D01*
X224368608Y-71350497D01*
X224441179Y-71277925D01*
G04 #@! TO.C,K4*
X206854857Y-70123068D02*
X206854857Y-68599068D01*
X205984000Y-70123068D02*
X206637142Y-69252211D01*
X205984000Y-68599068D02*
X206854857Y-69469925D01*
X204677714Y-69107068D02*
X204677714Y-70123068D01*
X205040571Y-68526497D02*
X205403428Y-69615068D01*
X204460000Y-69615068D01*
G04 #@! TO.C,K3*
X187814857Y-68539068D02*
X187814857Y-67015068D01*
X186944000Y-68539068D02*
X187597142Y-67668211D01*
X186944000Y-67015068D02*
X187814857Y-67885925D01*
X186436000Y-67015068D02*
X185492571Y-67015068D01*
X186000571Y-67595640D01*
X185782857Y-67595640D01*
X185637714Y-67668211D01*
X185565142Y-67740782D01*
X185492571Y-67885925D01*
X185492571Y-68248782D01*
X185565142Y-68393925D01*
X185637714Y-68466497D01*
X185782857Y-68539068D01*
X186218285Y-68539068D01*
X186363428Y-68466497D01*
X186436000Y-68393925D01*
G04 #@! TO.C,K1*
X149724857Y-73343068D02*
X149724857Y-71819068D01*
X148854000Y-73343068D02*
X149507142Y-72472211D01*
X148854000Y-71819068D02*
X149724857Y-72689925D01*
X147402571Y-73343068D02*
X148273428Y-73343068D01*
X147838000Y-73343068D02*
X147838000Y-71819068D01*
X147983142Y-72036782D01*
X148128285Y-72181925D01*
X148273428Y-72254497D01*
G04 #@! TO.C,K13*
X245710571Y-90465368D02*
X245710571Y-88941368D01*
X244839714Y-90465368D02*
X245492857Y-89594511D01*
X244839714Y-88941368D02*
X245710571Y-89812225D01*
X243388285Y-90465368D02*
X244259142Y-90465368D01*
X243823714Y-90465368D02*
X243823714Y-88941368D01*
X243968857Y-89159082D01*
X244114000Y-89304225D01*
X244259142Y-89376797D01*
X242880285Y-88941368D02*
X241936857Y-88941368D01*
X242444857Y-89521940D01*
X242227142Y-89521940D01*
X242082000Y-89594511D01*
X242009428Y-89667082D01*
X241936857Y-89812225D01*
X241936857Y-90175082D01*
X242009428Y-90320225D01*
X242082000Y-90392797D01*
X242227142Y-90465368D01*
X242662571Y-90465368D01*
X242807714Y-90392797D01*
X242880285Y-90320225D01*
G04 #@! TO.C,K44*
X272185219Y-194549549D02*
X270804006Y-193905479D01*
X271817179Y-195338814D02*
X271303945Y-194378825D01*
X270435966Y-194694744D02*
X271593271Y-194273519D01*
X270344310Y-196093331D02*
X271265119Y-196522711D01*
X269971484Y-195519110D02*
X271111415Y-195650300D01*
X270712705Y-196505337D01*
X269730910Y-197408772D02*
X270651719Y-197838152D01*
X269358084Y-196834551D02*
X270498014Y-196965741D01*
X270099304Y-197820778D01*
G04 #@! TO.C,K43*
X258957348Y-177824949D02*
X257576135Y-177180879D01*
X258589308Y-178614214D02*
X258076074Y-177654225D01*
X257208095Y-177970144D02*
X258365400Y-177548919D01*
X257116439Y-179368731D02*
X258037248Y-179798111D01*
X256743613Y-178794510D02*
X257883544Y-178925700D01*
X257484834Y-179780737D01*
X256380005Y-179745989D02*
X255981295Y-180601026D01*
X256722161Y-180385981D01*
X256630151Y-180583298D01*
X256634583Y-180745512D01*
X256669685Y-180841954D01*
X256770559Y-180969066D01*
X257099419Y-181122416D01*
X257261634Y-181117984D01*
X257358076Y-181082882D01*
X257485188Y-180982008D01*
X257669208Y-180587375D01*
X257664776Y-180425161D01*
X257629674Y-180328719D01*
G04 #@! TO.C,K42*
X241686704Y-169806769D02*
X240305491Y-169162699D01*
X241318664Y-170596034D02*
X240805430Y-169636045D01*
X239937451Y-169951964D02*
X241094756Y-169530739D01*
X239845795Y-171350551D02*
X240766604Y-171779931D01*
X239472969Y-170776330D02*
X240612900Y-170907520D01*
X240214190Y-171762557D01*
X239210235Y-171854921D02*
X239113793Y-171890023D01*
X238986681Y-171990897D01*
X238833331Y-172319758D01*
X238837763Y-172481972D01*
X238872865Y-172578414D01*
X238973739Y-172705526D01*
X239105283Y-172766866D01*
X239333269Y-172793104D01*
X240490574Y-172371879D01*
X240091864Y-173226916D01*
G04 #@! TO.C,K41*
X207610571Y-165339428D02*
X207610571Y-163815428D01*
X206739714Y-165339428D02*
X207392857Y-164468571D01*
X206739714Y-163815428D02*
X207610571Y-164686285D01*
X205433428Y-164323428D02*
X205433428Y-165339428D01*
X205796285Y-163742857D02*
X206159142Y-164831428D01*
X205215714Y-164831428D01*
X203836857Y-165339428D02*
X204707714Y-165339428D01*
X204272285Y-165339428D02*
X204272285Y-163815428D01*
X204417428Y-164033142D01*
X204562571Y-164178285D01*
X204707714Y-164250857D01*
G04 #@! TO.C,K40*
X188560571Y-163759428D02*
X188560571Y-162235428D01*
X187689714Y-163759428D02*
X188342857Y-162888571D01*
X187689714Y-162235428D02*
X188560571Y-163106285D01*
X186383428Y-162743428D02*
X186383428Y-163759428D01*
X186746285Y-162162857D02*
X187109142Y-163251428D01*
X186165714Y-163251428D01*
X185294857Y-162235428D02*
X185149714Y-162235428D01*
X185004571Y-162308000D01*
X184932000Y-162380571D01*
X184859428Y-162525714D01*
X184786857Y-162816000D01*
X184786857Y-163178857D01*
X184859428Y-163469142D01*
X184932000Y-163614285D01*
X185004571Y-163686857D01*
X185149714Y-163759428D01*
X185294857Y-163759428D01*
X185440000Y-163686857D01*
X185512571Y-163614285D01*
X185585142Y-163469142D01*
X185657714Y-163178857D01*
X185657714Y-162816000D01*
X185585142Y-162525714D01*
X185512571Y-162380571D01*
X185440000Y-162308000D01*
X185294857Y-162235428D01*
G04 #@! TO.C,K39*
X169510571Y-165359428D02*
X169510571Y-163835428D01*
X168639714Y-165359428D02*
X169292857Y-164488571D01*
X168639714Y-163835428D02*
X169510571Y-164706285D01*
X168131714Y-163835428D02*
X167188285Y-163835428D01*
X167696285Y-164416000D01*
X167478571Y-164416000D01*
X167333428Y-164488571D01*
X167260857Y-164561142D01*
X167188285Y-164706285D01*
X167188285Y-165069142D01*
X167260857Y-165214285D01*
X167333428Y-165286857D01*
X167478571Y-165359428D01*
X167914000Y-165359428D01*
X168059142Y-165286857D01*
X168131714Y-165214285D01*
X166462571Y-165359428D02*
X166172285Y-165359428D01*
X166027142Y-165286857D01*
X165954571Y-165214285D01*
X165809428Y-164996571D01*
X165736857Y-164706285D01*
X165736857Y-164125714D01*
X165809428Y-163980571D01*
X165882000Y-163908000D01*
X166027142Y-163835428D01*
X166317428Y-163835428D01*
X166462571Y-163908000D01*
X166535142Y-163980571D01*
X166607714Y-164125714D01*
X166607714Y-164488571D01*
X166535142Y-164633714D01*
X166462571Y-164706285D01*
X166317428Y-164778857D01*
X166027142Y-164778857D01*
X165882000Y-164706285D01*
X165809428Y-164633714D01*
X165736857Y-164488571D01*
G04 #@! TO.C,K38*
X150460571Y-165437508D02*
X150460571Y-163913508D01*
X149589714Y-165437508D02*
X150242857Y-164566651D01*
X149589714Y-163913508D02*
X150460571Y-164784365D01*
X149081714Y-163913508D02*
X148138285Y-163913508D01*
X148646285Y-164494080D01*
X148428571Y-164494080D01*
X148283428Y-164566651D01*
X148210857Y-164639222D01*
X148138285Y-164784365D01*
X148138285Y-165147222D01*
X148210857Y-165292365D01*
X148283428Y-165364937D01*
X148428571Y-165437508D01*
X148864000Y-165437508D01*
X149009142Y-165364937D01*
X149081714Y-165292365D01*
X147267428Y-164566651D02*
X147412571Y-164494080D01*
X147485142Y-164421508D01*
X147557714Y-164276365D01*
X147557714Y-164203794D01*
X147485142Y-164058651D01*
X147412571Y-163986080D01*
X147267428Y-163913508D01*
X146977142Y-163913508D01*
X146832000Y-163986080D01*
X146759428Y-164058651D01*
X146686857Y-164203794D01*
X146686857Y-164276365D01*
X146759428Y-164421508D01*
X146832000Y-164494080D01*
X146977142Y-164566651D01*
X147267428Y-164566651D01*
X147412571Y-164639222D01*
X147485142Y-164711794D01*
X147557714Y-164856937D01*
X147557714Y-165147222D01*
X147485142Y-165292365D01*
X147412571Y-165364937D01*
X147267428Y-165437508D01*
X146977142Y-165437508D01*
X146832000Y-165364937D01*
X146759428Y-165292365D01*
X146686857Y-165147222D01*
X146686857Y-164856937D01*
X146759428Y-164711794D01*
X146832000Y-164639222D01*
X146977142Y-164566651D01*
G04 #@! TO.C,K37*
X131410571Y-165437508D02*
X131410571Y-163913508D01*
X130539714Y-165437508D02*
X131192857Y-164566651D01*
X130539714Y-163913508D02*
X131410571Y-164784365D01*
X130031714Y-163913508D02*
X129088285Y-163913508D01*
X129596285Y-164494080D01*
X129378571Y-164494080D01*
X129233428Y-164566651D01*
X129160857Y-164639222D01*
X129088285Y-164784365D01*
X129088285Y-165147222D01*
X129160857Y-165292365D01*
X129233428Y-165364937D01*
X129378571Y-165437508D01*
X129814000Y-165437508D01*
X129959142Y-165364937D01*
X130031714Y-165292365D01*
X128580285Y-163913508D02*
X127564285Y-163913508D01*
X128217428Y-165437508D01*
G04 #@! TO.C,K36*
X280218073Y-177309917D02*
X278836860Y-176665847D01*
X279850033Y-178099182D02*
X279336799Y-177139193D01*
X278468820Y-177455112D02*
X279626125Y-177033887D01*
X278254130Y-177915516D02*
X277855420Y-178770553D01*
X278596286Y-178555508D01*
X278504276Y-178752825D01*
X278508708Y-178915039D01*
X278543810Y-179011481D01*
X278644684Y-179138593D01*
X278973545Y-179291943D01*
X279135759Y-179287511D01*
X279232201Y-179252409D01*
X279359313Y-179151535D01*
X279543333Y-178756902D01*
X279538901Y-178594688D01*
X279503799Y-178498246D01*
X277303360Y-179954450D02*
X277426040Y-179691361D01*
X277553152Y-179590487D01*
X277649594Y-179555385D01*
X277908250Y-179515851D01*
X278202008Y-179572759D01*
X278728185Y-179818119D01*
X278829059Y-179945231D01*
X278864161Y-180041673D01*
X278868593Y-180203888D01*
X278745913Y-180466976D01*
X278618801Y-180567850D01*
X278522359Y-180602952D01*
X278360144Y-180607384D01*
X278031284Y-180454034D01*
X277930410Y-180326922D01*
X277895308Y-180230480D01*
X277890876Y-180068266D01*
X278013556Y-179805177D01*
X278140668Y-179704303D01*
X278237110Y-179669201D01*
X278399324Y-179664769D01*
G04 #@! TO.C,K2*
X168774857Y-70136468D02*
X168774857Y-68612468D01*
X167904000Y-70136468D02*
X168557142Y-69265611D01*
X167904000Y-68612468D02*
X168774857Y-69483325D01*
X167323428Y-68757611D02*
X167250857Y-68685040D01*
X167105714Y-68612468D01*
X166742857Y-68612468D01*
X166597714Y-68685040D01*
X166525142Y-68757611D01*
X166452571Y-68902754D01*
X166452571Y-69047897D01*
X166525142Y-69265611D01*
X167396000Y-70136468D01*
X166452571Y-70136468D01*
G04 #@! TO.C,K34*
X226660571Y-147599428D02*
X226660571Y-146075428D01*
X225789714Y-147599428D02*
X226442857Y-146728571D01*
X225789714Y-146075428D02*
X226660571Y-146946285D01*
X225281714Y-146075428D02*
X224338285Y-146075428D01*
X224846285Y-146656000D01*
X224628571Y-146656000D01*
X224483428Y-146728571D01*
X224410857Y-146801142D01*
X224338285Y-146946285D01*
X224338285Y-147309142D01*
X224410857Y-147454285D01*
X224483428Y-147526857D01*
X224628571Y-147599428D01*
X225064000Y-147599428D01*
X225209142Y-147526857D01*
X225281714Y-147454285D01*
X223032000Y-146583428D02*
X223032000Y-147599428D01*
X223394857Y-146002857D02*
X223757714Y-147091428D01*
X222814285Y-147091428D01*
G04 #@! TO.C,K33*
X207610571Y-146299428D02*
X207610571Y-144775428D01*
X206739714Y-146299428D02*
X207392857Y-145428571D01*
X206739714Y-144775428D02*
X207610571Y-145646285D01*
X206231714Y-144775428D02*
X205288285Y-144775428D01*
X205796285Y-145356000D01*
X205578571Y-145356000D01*
X205433428Y-145428571D01*
X205360857Y-145501142D01*
X205288285Y-145646285D01*
X205288285Y-146009142D01*
X205360857Y-146154285D01*
X205433428Y-146226857D01*
X205578571Y-146299428D01*
X206014000Y-146299428D01*
X206159142Y-146226857D01*
X206231714Y-146154285D01*
X204780285Y-144775428D02*
X203836857Y-144775428D01*
X204344857Y-145356000D01*
X204127142Y-145356000D01*
X203982000Y-145428571D01*
X203909428Y-145501142D01*
X203836857Y-145646285D01*
X203836857Y-146009142D01*
X203909428Y-146154285D01*
X203982000Y-146226857D01*
X204127142Y-146299428D01*
X204562571Y-146299428D01*
X204707714Y-146226857D01*
X204780285Y-146154285D01*
G04 #@! TO.C,K32*
X188560571Y-144719428D02*
X188560571Y-143195428D01*
X187689714Y-144719428D02*
X188342857Y-143848571D01*
X187689714Y-143195428D02*
X188560571Y-144066285D01*
X187181714Y-143195428D02*
X186238285Y-143195428D01*
X186746285Y-143776000D01*
X186528571Y-143776000D01*
X186383428Y-143848571D01*
X186310857Y-143921142D01*
X186238285Y-144066285D01*
X186238285Y-144429142D01*
X186310857Y-144574285D01*
X186383428Y-144646857D01*
X186528571Y-144719428D01*
X186964000Y-144719428D01*
X187109142Y-144646857D01*
X187181714Y-144574285D01*
X185657714Y-143340571D02*
X185585142Y-143268000D01*
X185440000Y-143195428D01*
X185077142Y-143195428D01*
X184932000Y-143268000D01*
X184859428Y-143340571D01*
X184786857Y-143485714D01*
X184786857Y-143630857D01*
X184859428Y-143848571D01*
X185730285Y-144719428D01*
X184786857Y-144719428D01*
G04 #@! TO.C,K31*
X169510571Y-146329428D02*
X169510571Y-144805428D01*
X168639714Y-146329428D02*
X169292857Y-145458571D01*
X168639714Y-144805428D02*
X169510571Y-145676285D01*
X168131714Y-144805428D02*
X167188285Y-144805428D01*
X167696285Y-145386000D01*
X167478571Y-145386000D01*
X167333428Y-145458571D01*
X167260857Y-145531142D01*
X167188285Y-145676285D01*
X167188285Y-146039142D01*
X167260857Y-146184285D01*
X167333428Y-146256857D01*
X167478571Y-146329428D01*
X167914000Y-146329428D01*
X168059142Y-146256857D01*
X168131714Y-146184285D01*
X165736857Y-146329428D02*
X166607714Y-146329428D01*
X166172285Y-146329428D02*
X166172285Y-144805428D01*
X166317428Y-145023142D01*
X166462571Y-145168285D01*
X166607714Y-145240857D01*
G04 #@! TO.C,K30*
X150460571Y-149509428D02*
X150460571Y-147985428D01*
X149589714Y-149509428D02*
X150242857Y-148638571D01*
X149589714Y-147985428D02*
X150460571Y-148856285D01*
X149081714Y-147985428D02*
X148138285Y-147985428D01*
X148646285Y-148566000D01*
X148428571Y-148566000D01*
X148283428Y-148638571D01*
X148210857Y-148711142D01*
X148138285Y-148856285D01*
X148138285Y-149219142D01*
X148210857Y-149364285D01*
X148283428Y-149436857D01*
X148428571Y-149509428D01*
X148864000Y-149509428D01*
X149009142Y-149436857D01*
X149081714Y-149364285D01*
X147194857Y-147985428D02*
X147049714Y-147985428D01*
X146904571Y-148058000D01*
X146832000Y-148130571D01*
X146759428Y-148275714D01*
X146686857Y-148566000D01*
X146686857Y-148928857D01*
X146759428Y-149219142D01*
X146832000Y-149364285D01*
X146904571Y-149436857D01*
X147049714Y-149509428D01*
X147194857Y-149509428D01*
X147340000Y-149436857D01*
X147412571Y-149364285D01*
X147485142Y-149219142D01*
X147557714Y-148928857D01*
X147557714Y-148566000D01*
X147485142Y-148275714D01*
X147412571Y-148130571D01*
X147340000Y-148058000D01*
X147194857Y-147985428D01*
G04 #@! TO.C,K29*
X126650571Y-149509428D02*
X126650571Y-147985428D01*
X125779714Y-149509428D02*
X126432857Y-148638571D01*
X125779714Y-147985428D02*
X126650571Y-148856285D01*
X125199142Y-148130571D02*
X125126571Y-148058000D01*
X124981428Y-147985428D01*
X124618571Y-147985428D01*
X124473428Y-148058000D01*
X124400857Y-148130571D01*
X124328285Y-148275714D01*
X124328285Y-148420857D01*
X124400857Y-148638571D01*
X125271714Y-149509428D01*
X124328285Y-149509428D01*
X123602571Y-149509428D02*
X123312285Y-149509428D01*
X123167142Y-149436857D01*
X123094571Y-149364285D01*
X122949428Y-149146571D01*
X122876857Y-148856285D01*
X122876857Y-148275714D01*
X122949428Y-148130571D01*
X123022000Y-148058000D01*
X123167142Y-147985428D01*
X123457428Y-147985428D01*
X123602571Y-148058000D01*
X123675142Y-148130571D01*
X123747714Y-148275714D01*
X123747714Y-148638571D01*
X123675142Y-148783714D01*
X123602571Y-148856285D01*
X123457428Y-148928857D01*
X123167142Y-148928857D01*
X123022000Y-148856285D01*
X122949428Y-148783714D01*
X122876857Y-148638571D01*
G04 #@! TO.C,K28*
X288489943Y-160147806D02*
X287108730Y-159503736D01*
X288121903Y-160937071D02*
X287608669Y-159977082D01*
X286740690Y-160293001D02*
X287897995Y-159871776D01*
X286626874Y-160880517D02*
X286530432Y-160915619D01*
X286403320Y-161016493D01*
X286249970Y-161345354D01*
X286254402Y-161507568D01*
X286289504Y-161604010D01*
X286390378Y-161731122D01*
X286521922Y-161792462D01*
X286749908Y-161818700D01*
X287907213Y-161397475D01*
X287508503Y-162252512D01*
X286351198Y-162673736D02*
X286346766Y-162511522D01*
X286311664Y-162415080D01*
X286210790Y-162287968D01*
X286145018Y-162257298D01*
X285982804Y-162261730D01*
X285886362Y-162296832D01*
X285759250Y-162397706D01*
X285636570Y-162660795D01*
X285641002Y-162823009D01*
X285676104Y-162919451D01*
X285776978Y-163046563D01*
X285842750Y-163077233D01*
X286004964Y-163072801D01*
X286101406Y-163037699D01*
X286228518Y-162936825D01*
X286351198Y-162673736D01*
X286478310Y-162572862D01*
X286574752Y-162537760D01*
X286736966Y-162533328D01*
X287000055Y-162656008D01*
X287100929Y-162783120D01*
X287136031Y-162879562D01*
X287140463Y-163041777D01*
X287017783Y-163304865D01*
X286890671Y-163405739D01*
X286794229Y-163440841D01*
X286632014Y-163445273D01*
X286368926Y-163322593D01*
X286268052Y-163195481D01*
X286232950Y-163099039D01*
X286228518Y-162936825D01*
G04 #@! TO.C,K27*
X271009162Y-151994757D02*
X269627949Y-151350687D01*
X270641122Y-152784022D02*
X270127888Y-151824033D01*
X269259909Y-152139952D02*
X270417214Y-151718727D01*
X269146093Y-152727468D02*
X269049651Y-152762570D01*
X268922539Y-152863444D01*
X268769189Y-153192305D01*
X268773621Y-153354519D01*
X268808723Y-153450961D01*
X268909597Y-153578073D01*
X269041141Y-153639413D01*
X269269127Y-153665651D01*
X270426432Y-153244426D01*
X270027722Y-154099463D01*
X268431819Y-153915797D02*
X268002439Y-154836606D01*
X269659682Y-154888728D01*
G04 #@! TO.C,K25*
X207610571Y-127259428D02*
X207610571Y-125735428D01*
X206739714Y-127259428D02*
X207392857Y-126388571D01*
X206739714Y-125735428D02*
X207610571Y-126606285D01*
X206159142Y-125880571D02*
X206086571Y-125808000D01*
X205941428Y-125735428D01*
X205578571Y-125735428D01*
X205433428Y-125808000D01*
X205360857Y-125880571D01*
X205288285Y-126025714D01*
X205288285Y-126170857D01*
X205360857Y-126388571D01*
X206231714Y-127259428D01*
X205288285Y-127259428D01*
X203909428Y-125735428D02*
X204635142Y-125735428D01*
X204707714Y-126461142D01*
X204635142Y-126388571D01*
X204490000Y-126316000D01*
X204127142Y-126316000D01*
X203982000Y-126388571D01*
X203909428Y-126461142D01*
X203836857Y-126606285D01*
X203836857Y-126969142D01*
X203909428Y-127114285D01*
X203982000Y-127186857D01*
X204127142Y-127259428D01*
X204490000Y-127259428D01*
X204635142Y-127186857D01*
X204707714Y-127114285D01*
G04 #@! TO.C,K26*
X226660571Y-128570268D02*
X226660571Y-127046268D01*
X225789714Y-128570268D02*
X226442857Y-127699411D01*
X225789714Y-127046268D02*
X226660571Y-127917125D01*
X225209142Y-127191411D02*
X225136571Y-127118840D01*
X224991428Y-127046268D01*
X224628571Y-127046268D01*
X224483428Y-127118840D01*
X224410857Y-127191411D01*
X224338285Y-127336554D01*
X224338285Y-127481697D01*
X224410857Y-127699411D01*
X225281714Y-128570268D01*
X224338285Y-128570268D01*
X223032000Y-127046268D02*
X223322285Y-127046268D01*
X223467428Y-127118840D01*
X223540000Y-127191411D01*
X223685142Y-127409125D01*
X223757714Y-127699411D01*
X223757714Y-128279982D01*
X223685142Y-128425125D01*
X223612571Y-128497697D01*
X223467428Y-128570268D01*
X223177142Y-128570268D01*
X223032000Y-128497697D01*
X222959428Y-128425125D01*
X222886857Y-128279982D01*
X222886857Y-127917125D01*
X222959428Y-127771982D01*
X223032000Y-127699411D01*
X223177142Y-127626840D01*
X223467428Y-127626840D01*
X223612571Y-127699411D01*
X223685142Y-127771982D01*
X223757714Y-127917125D01*
G04 #@! TO.C,K35*
X245710571Y-142839428D02*
X245710571Y-141315428D01*
X244839714Y-142839428D02*
X245492857Y-141968571D01*
X244839714Y-141315428D02*
X245710571Y-142186285D01*
X244331714Y-141315428D02*
X243388285Y-141315428D01*
X243896285Y-141896000D01*
X243678571Y-141896000D01*
X243533428Y-141968571D01*
X243460857Y-142041142D01*
X243388285Y-142186285D01*
X243388285Y-142549142D01*
X243460857Y-142694285D01*
X243533428Y-142766857D01*
X243678571Y-142839428D01*
X244114000Y-142839428D01*
X244259142Y-142766857D01*
X244331714Y-142694285D01*
X242009428Y-141315428D02*
X242735142Y-141315428D01*
X242807714Y-142041142D01*
X242735142Y-141968571D01*
X242590000Y-141896000D01*
X242227142Y-141896000D01*
X242082000Y-141968571D01*
X242009428Y-142041142D01*
X241936857Y-142186285D01*
X241936857Y-142549142D01*
X242009428Y-142694285D01*
X242082000Y-142766857D01*
X242227142Y-142839428D01*
X242590000Y-142839428D01*
X242735142Y-142766857D01*
X242807714Y-142694285D01*
G04 #@! TD*
M02*
