M48
;DRILL file {KiCad (5.0.1)-3} date 15/02/2019 18:46:03
;FORMAT={-:-/ absolute / metric / decimal}
FMAT,2
METRIC,TZ
T1C0.508
T2C0.900
T3C0.991
T4C1.100
T5C0.800
T6C1.700
T7C2.950
T8C3.048
T9C3.980
T10C3.988
T11C6.375
%
G90
G05
M71
T1
X116.662Y-73.762
X129.746Y-74.625
X132.765Y-134.74
X134.137Y-70.536
X134.782Y-90.907
X134.95Y-68.669
X135.339Y-132.166
X136.309Y-72.326
X136.484Y-108.255
X196.621Y-54.877
X197.815Y-45.377
X197.815Y-51.079
X215.417Y-51.498
X215.43Y-55.842
X249.682Y-184.048
T2
X119.266Y-150.292
X127.266Y-150.292
X158.411Y-79.946
X158.411Y-87.946
X139.36Y-102.188
X139.36Y-110.188
X115.569Y-121.219
X115.569Y-129.219
X140.183Y-64.986
X140.183Y-72.986
X215.574Y-81.229
X215.574Y-89.229
X235.519Y-134.194
X235.519Y-142.194
X139.361Y-83.136
X139.361Y-91.136
X177.457Y-78.34
X177.457Y-86.34
X177.453Y-97.385
X177.453Y-105.385
X234.624Y-105.041
X234.624Y-113.041
X139.374Y-140.265
X139.374Y-148.265
X115.564Y-140.265
X115.564Y-148.265
X158.424Y-156.115
X158.424Y-164.115
X115.556Y-83.136
X115.556Y-91.136
X177.474Y-116.432
X177.474Y-124.432
X196.498Y-98.97
X196.498Y-106.97
X215.574Y-138.355
X215.574Y-146.355
X215.574Y-119.326
X215.574Y-127.326
X221.116Y-170.412
X224.497Y-163.161
X158.414Y-60.892
X158.414Y-68.892
X234.624Y-62.181
X234.624Y-70.181
X196.499Y-79.932
X196.499Y-87.932
X177.474Y-135.475
X177.474Y-143.475
X177.474Y-154.515
X177.474Y-162.515
X215.532Y-62.179
X215.532Y-70.179
X245.295Y-152.716
X252.545Y-156.097
X158.409Y-98.988
X158.409Y-106.988
X196.524Y-118.015
X196.524Y-126.015
X270.496Y-160.374
X273.877Y-153.123
X196.494Y-60.879
X196.494Y-68.879
X267.652Y-185.04
X274.902Y-188.421
X196.524Y-156.095
X196.524Y-164.095
X215.532Y-100.281
X215.532Y-108.281
X115.559Y-102.179
X115.559Y-110.179
X196.524Y-137.055
X196.524Y-145.055
X253.755Y-150.851
X257.136Y-143.601
X138.201Y-158.255
X138.201Y-166.255
X139.366Y-121.227
X139.366Y-129.227
X177.454Y-59.295
X177.454Y-67.295
X158.424Y-118.035
X158.424Y-126.035
X234.624Y-81.221
X234.624Y-89.221
X263.842Y-161.411
X271.092Y-164.791
X158.424Y-137.085
X158.424Y-145.085
T3
X188.828Y-39.875
X198.988Y-39.875
X207.766Y-39.875
X217.926Y-39.875
T4
X120.73Y-37.379
X120.73Y-39.919
X120.73Y-42.459
X120.73Y-44.999
X120.73Y-47.539
X120.73Y-50.079
X120.73Y-52.619
X120.73Y-55.159
X120.73Y-57.699
X120.73Y-60.239
X120.73Y-62.779
X120.73Y-65.319
X135.97Y-37.379
X135.97Y-39.919
X135.97Y-42.459
X135.97Y-44.999
X135.97Y-47.539
X135.97Y-50.079
X135.97Y-52.619
X135.97Y-55.159
X135.97Y-57.699
X135.97Y-60.239
X135.97Y-62.779
X135.97Y-65.319
T5
X234.033Y-37.747
X234.033Y-44.747
T6
X219.73Y-80.784
X229.89Y-80.784
X238.78Y-61.736
X248.94Y-61.736
X143.52Y-63.654
X153.68Y-63.654
X143.53Y-158.87
X153.69Y-158.87
X162.57Y-60.447
X172.73Y-60.447
X143.516Y-101.743
X153.676Y-101.743
X119.712Y-82.691
X129.872Y-82.691
X181.61Y-58.85
X191.77Y-58.85
X238.78Y-80.776
X248.94Y-80.776
X119.72Y-139.82
X129.88Y-139.82
X238.78Y-104.596
X248.94Y-104.596
X219.688Y-99.836
X229.848Y-99.836
X181.613Y-77.895
X191.773Y-77.895
X143.517Y-82.691
X153.677Y-82.691
X181.63Y-135.03
X191.79Y-135.03
X200.68Y-155.65
X210.84Y-155.65
X271.337Y-180.816
X275.631Y-171.608
X119.725Y-120.774
X129.885Y-120.774
X219.688Y-61.734
X229.848Y-61.734
X119.715Y-101.734
X129.875Y-101.734
X238.78Y-133.15
X248.94Y-133.15
X124.48Y-158.87
X134.64Y-158.87
X219.73Y-118.881
X229.89Y-118.881
X250.076Y-181.331
X254.37Y-172.123
X143.53Y-139.82
X153.69Y-139.82
X143.522Y-120.782
X153.682Y-120.782
X200.654Y-98.525
X210.814Y-98.525
X181.63Y-115.987
X191.79Y-115.987
X262.128Y-155.5
X266.422Y-146.292
X200.68Y-136.61
X210.84Y-136.61
X181.63Y-154.07
X191.79Y-154.07
X162.58Y-136.64
X172.74Y-136.64
X162.58Y-117.59
X172.74Y-117.59
X200.655Y-79.487
X210.815Y-79.487
X162.565Y-98.543
X172.725Y-98.543
X263.304Y-198.055
X267.598Y-188.847
X232.806Y-173.312
X237.099Y-164.104
X162.58Y-155.67
X172.74Y-155.67
X181.609Y-96.94
X191.769Y-96.94
X200.65Y-60.434
X210.81Y-60.434
X162.567Y-79.501
X172.727Y-79.501
X200.68Y-117.57
X210.84Y-117.57
X219.73Y-137.91
X229.89Y-137.91
X279.388Y-163.55
X283.682Y-154.342
T7
X163.85Y-115.05
X170.2Y-112.51
X201.925Y-76.947
X208.275Y-74.407
X163.835Y-96.003
X170.185Y-93.463
X261.539Y-195.831
X261.92Y-189.002
X231.04Y-171.088
X231.422Y-164.259
X163.85Y-153.13
X170.2Y-150.59
X182.879Y-94.4
X189.229Y-91.86
X201.92Y-57.894
X208.27Y-55.354
X163.837Y-76.961
X170.187Y-74.421
X201.95Y-115.03
X208.3Y-112.49
X221.Y-135.37
X227.35Y-132.83
X277.622Y-161.326
X278.004Y-154.497
X221.Y-78.244
X227.35Y-75.704
X240.05Y-59.196
X246.4Y-56.656
X144.79Y-61.114
X151.14Y-58.574
X144.8Y-156.33
X151.15Y-153.79
X163.84Y-57.907
X170.19Y-55.367
X144.786Y-99.203
X151.136Y-96.663
X120.982Y-80.151
X127.332Y-77.611
X182.88Y-56.31
X189.23Y-53.77
X240.05Y-78.236
X246.4Y-75.696
X120.99Y-137.28
X127.34Y-134.74
X240.05Y-102.056
X246.4Y-99.516
X220.958Y-97.296
X227.308Y-94.756
X182.883Y-75.355
X189.233Y-72.815
X144.787Y-80.151
X151.137Y-77.611
X182.9Y-132.49
X189.25Y-129.95
X201.95Y-153.11
X208.3Y-150.57
X269.572Y-178.591
X269.953Y-171.763
X120.995Y-118.234
X127.345Y-115.694
X220.958Y-59.194
X227.308Y-56.654
X120.985Y-99.194
X127.335Y-96.654
X240.05Y-130.61
X246.4Y-128.07
X125.75Y-156.33
X132.1Y-153.79
X221.Y-116.341
X227.35Y-113.801
X248.311Y-179.106
X248.692Y-172.278
X144.8Y-137.28
X151.15Y-134.74
X144.792Y-118.242
X151.142Y-115.702
X201.924Y-95.985
X208.274Y-93.445
X182.9Y-113.447
X189.25Y-110.907
X260.363Y-153.276
X260.744Y-146.447
X201.95Y-134.07
X208.3Y-131.53
X182.9Y-151.53
X189.25Y-148.99
X163.85Y-134.1
X170.2Y-131.56
T8
X236.238Y-182.48
X246.328Y-160.841
X240.847Y-184.594
X250.938Y-162.955
T9
X148.596Y-101.743
X124.792Y-82.691
X186.69Y-58.85
X243.86Y-80.776
X124.8Y-139.82
X243.86Y-104.596
X224.768Y-99.836
X186.693Y-77.895
X148.597Y-82.691
X186.71Y-135.03
X205.76Y-155.65
X273.484Y-176.212
X124.805Y-120.774
X224.768Y-61.734
X124.795Y-101.734
X243.86Y-133.15
X129.56Y-158.87
X224.81Y-118.881
X252.223Y-176.727
X148.61Y-139.82
X148.602Y-120.782
X205.734Y-98.525
X186.71Y-115.987
X264.275Y-150.896
X205.76Y-136.61
X186.71Y-154.07
X167.66Y-136.64
X167.66Y-117.59
X205.735Y-79.487
X167.645Y-98.543
X265.451Y-193.451
X234.952Y-168.708
X167.66Y-155.67
X186.689Y-96.94
X205.73Y-60.434
X167.647Y-79.501
X205.76Y-117.57
X224.81Y-137.91
X281.535Y-158.946
X224.81Y-80.784
X243.86Y-61.736
X148.6Y-63.654
X148.61Y-158.87
X167.65Y-60.447
T10
X222.426Y-176.039
X232.516Y-154.4
X254.659Y-191.035
X264.75Y-169.396
T11
X114.48Y-155.747
X115.283Y-41.036
X182.002Y-40.977
X247.846Y-41.651
X256.58Y-137.332
X210.843Y-173.376
T2
X231.733Y-47.247G85X231.733Y-47.647
G05
X236.333Y-39.147G85X236.333Y-39.547
G05
X236.333Y-42.147G85X236.333Y-42.547
G05
X236.333Y-46.147G85X236.333Y-46.547
G05
T0
M30
