M48
;DRILL file {KiCad (5.0.1)-3} date 26/11/2018 18:30:20
;FORMAT={-:-/ absolute / inch / decimal}
FMAT,2
INCH,TZ
T1C0.0200
T2C0.0354
T3C0.0390
T4C0.0433
T5C0.0315
T6C0.0669
T7C0.1161
T8C0.1200
T9C0.1567
T10C0.1570
T11C0.2510
%
G90
G05
M72
T1
X4.593Y-2.904
X5.1081Y-2.938
X5.227Y-5.3047
X5.281Y-2.777
X5.3064Y-3.579
X5.313Y-2.7035
X5.3283Y-5.2034
X5.3665Y-2.8475
X5.3734Y-4.262
X7.741Y-2.1605
X7.788Y-1.7865
X7.788Y-2.011
X8.481Y-2.0275
X8.4815Y-2.1985
X9.83Y-7.246
T2
X6.2368Y-2.3973
X6.2368Y-2.7123
X6.9864Y-2.3344
X6.9864Y-2.6494
X6.2366Y-3.8972
X6.2366Y-4.2121
X8.4872Y-4.6979
X8.4872Y-5.0128
X6.9863Y-3.834
X6.9863Y-4.149
X7.736Y-2.3968
X7.736Y-2.7118
X5.4868Y-4.7727
X5.4868Y-5.0877
X5.4866Y-4.0232
X5.4866Y-4.3381
X4.5496Y-4.0228
X4.5496Y-4.3377
X6.9872Y-5.3337
X6.9872Y-5.6486
X7.7372Y-6.1455
X7.7372Y-6.4604
X8.4872Y-5.447
X8.4872Y-5.762
X9.9903Y-5.939
X10.1235Y-5.6536
X10.5375Y-7.285
X10.8229Y-7.4182
X6.9872Y-4.5839
X6.9872Y-4.8989
X6.2367Y-3.1475
X6.2367Y-3.4624
X6.2372Y-6.1463
X6.2372Y-6.4612
X9.6573Y-6.0124
X9.9427Y-6.1456
X7.7362Y-3.1469
X7.7362Y-3.4619
X8.4872Y-3.198
X8.4872Y-3.5129
X6.2372Y-4.6471
X6.2372Y-4.962
X5.4867Y-3.2731
X5.4867Y-3.588
X6.2372Y-5.397
X6.2372Y-5.712
X4.6955Y-5.917
X5.0105Y-5.917
X6.9872Y-6.0833
X6.9872Y-6.3982
X4.55Y-4.7724
X4.55Y-5.0874
X5.4872Y-5.5222
X5.4872Y-5.8372
X10.3875Y-6.3547
X10.6729Y-6.4879
X6.9865Y-3.0843
X6.9865Y-3.3992
X7.7372Y-4.6463
X7.7372Y-4.9612
X9.2372Y-3.1977
X9.2372Y-3.5126
X5.441Y-6.2305
X5.441Y-6.5455
X9.2724Y-5.2832
X9.2724Y-5.5982
X8.4855Y-3.9481
X8.4855Y-4.263
X4.5498Y-5.5222
X4.5498Y-5.8372
X8.7053Y-6.7091
X8.8385Y-6.4237
X9.2372Y-4.1355
X9.2372Y-4.4504
X9.2372Y-2.4481
X9.2372Y-2.763
X8.4855Y-2.448
X8.4855Y-2.7629
X7.7372Y-5.3959
X7.7372Y-5.7108
X4.5494Y-3.2731
X4.5494Y-3.588
X10.6494Y-6.3139
X10.7826Y-6.0285
X7.7362Y-3.8965
X7.7362Y-4.2114
X5.519Y-2.5585
X5.519Y-2.8735
T3
X7.4342Y-1.5699
X7.8342Y-1.5699
X8.1798Y-1.5699
X8.5798Y-1.5699
T4
X4.7531Y-1.4716
X4.7531Y-1.5716
X4.7531Y-1.6716
X4.7531Y-1.7716
X4.7531Y-1.8716
X4.7531Y-1.9716
X4.7531Y-2.0716
X4.7531Y-2.1716
X4.7531Y-2.2716
X4.7531Y-2.3716
X4.7531Y-2.4716
X4.7531Y-2.5716
X5.3531Y-1.4716
X5.3531Y-1.5716
X5.3531Y-1.6716
X5.3531Y-1.7716
X5.3531Y-1.8716
X5.3531Y-1.9716
X5.3531Y-2.0716
X5.3531Y-2.1716
X5.3531Y-2.2716
X5.3531Y-2.3716
X5.3531Y-2.4716
X5.3531Y-2.5716
T5
X9.2139Y-1.4861
X9.2139Y-1.7617
T6
X5.6503Y-3.2555
X6.0503Y-3.2555
X8.6508Y-3.1805
X9.0508Y-3.1805
X5.6508Y-5.5047
X6.0508Y-5.5047
X8.6508Y-5.4295
X9.0508Y-5.4295
X7.9008Y-5.3783
X8.3008Y-5.3783
X7.1501Y-3.0667
X7.5501Y-3.0667
X9.4008Y-5.2421
X9.8008Y-5.2421
X7.1508Y-4.5664
X7.5508Y-4.5664
X8.6508Y-4.6803
X9.0508Y-4.6803
X7.15Y-2.3169
X7.55Y-2.3169
X10.6826Y-7.1187
X10.8516Y-6.7562
X7.8998Y-3.1294
X8.2998Y-3.1294
X7.9008Y-4.6287
X8.3008Y-4.6287
X5.6505Y-4.7552
X6.0505Y-4.7552
X6.4008Y-6.1287
X6.8008Y-6.1287
X5.6504Y-2.506
X6.0504Y-2.506
X5.6508Y-6.2547
X6.0508Y-6.2547
X9.4008Y-2.4305
X9.8008Y-2.4305
X6.4003Y-3.1299
X6.8003Y-3.1299
X6.4008Y-5.3795
X6.8008Y-5.3795
X4.7132Y-4.0053
X5.1132Y-4.0053
X9.1656Y-6.8233
X9.3346Y-6.4608
X6.4004Y-2.3798
X6.8004Y-2.3798
X10.3663Y-7.7975
X10.5353Y-7.4349
X6.4002Y-3.8796
X6.8002Y-3.8796
X7.15Y-3.8165
X7.55Y-3.8165
X8.6491Y-3.9306
X9.0491Y-3.9306
X7.1508Y-6.0657
X7.5508Y-6.0657
X4.9008Y-6.2547
X5.3008Y-6.2547
X8.6491Y-2.4305
X9.0491Y-2.4305
X6.4008Y-4.6295
X6.8008Y-4.6295
X9.4008Y-4.1179
X9.8008Y-4.1179
X4.7136Y-4.7549
X5.1136Y-4.7549
X10.9995Y-6.439
X11.1686Y-6.0765
X7.8996Y-2.3793
X8.2996Y-2.3793
X9.4008Y-3.1802
X9.8008Y-3.1802
X7.9008Y-6.128
X8.3008Y-6.128
X7.8998Y-3.8789
X8.2998Y-3.8789
X5.6502Y-4.0056
X6.0502Y-4.0056
X4.7134Y-5.5047
X5.1134Y-5.5047
X4.7131Y-3.2555
X5.1131Y-3.2555
X10.32Y-6.1221
X10.489Y-5.7595
X9.8455Y-7.139
X10.0146Y-6.7765
X7.1508Y-5.3161
X7.5508Y-5.3161
T7
X6.4508Y-4.5295
X6.7008Y-4.4295
X9.4508Y-4.0179
X9.7008Y-3.9179
X4.7636Y-4.6549
X5.0136Y-4.5549
X10.93Y-6.3514
X10.945Y-6.0826
X7.9496Y-2.2793
X8.1996Y-2.1793
X9.4508Y-3.0802
X9.7008Y-2.9802
X7.9508Y-6.028
X8.2008Y-5.928
X7.9498Y-3.7789
X8.1998Y-3.6789
X5.7002Y-3.9056
X5.9502Y-3.8056
X4.7634Y-5.4047
X5.0134Y-5.3047
X4.7631Y-3.1555
X5.0131Y-3.0555
X10.2505Y-6.0345
X10.2655Y-5.7656
X9.776Y-7.0514
X9.791Y-6.7826
X7.2008Y-5.2161
X7.4508Y-5.1161
X5.7003Y-3.1555
X5.9503Y-3.0555
X8.7008Y-3.0805
X8.9508Y-2.9805
X5.7008Y-5.4047
X5.9508Y-5.3047
X8.7008Y-5.3295
X8.9508Y-5.2295
X7.9508Y-5.2783
X8.2008Y-5.1783
X7.2001Y-2.9667
X7.4501Y-2.8667
X9.4508Y-5.1421
X9.7008Y-5.0421
X7.2008Y-4.4664
X7.4508Y-4.3664
X8.7008Y-4.5803
X8.9508Y-4.4803
X7.2Y-2.2169
X7.45Y-2.1169
X10.6131Y-7.0311
X10.6281Y-6.7623
X7.9498Y-3.0294
X8.1998Y-2.9294
X7.9508Y-4.5287
X8.2008Y-4.4287
X5.7005Y-4.6552
X5.9505Y-4.5552
X6.4508Y-6.0287
X6.7008Y-5.9287
X5.7004Y-2.406
X5.9504Y-2.306
X5.7008Y-6.1547
X5.9508Y-6.0547
X9.4508Y-2.3305
X9.7008Y-2.2305
X6.4503Y-3.0299
X6.7003Y-2.9299
X6.4508Y-5.2795
X6.7008Y-5.1795
X4.7632Y-3.9053
X5.0132Y-3.8053
X9.0961Y-6.7357
X9.1111Y-6.4669
X6.4504Y-2.2798
X6.7004Y-2.1798
X10.2968Y-7.7099
X10.3118Y-7.441
X6.4502Y-3.7796
X6.7002Y-3.6796
X7.2Y-3.7165
X7.45Y-3.6165
X8.6991Y-3.8306
X8.9491Y-3.7306
X7.2008Y-5.9657
X7.4508Y-5.8657
X4.9508Y-6.1547
X5.2008Y-6.0547
X8.6991Y-2.3305
X8.9491Y-2.2305
T8
X9.4822Y-7.2675
X9.8794Y-6.4156
X9.3007Y-7.1842
X9.698Y-6.3323
T9
X8.0998Y-3.8789
X5.8502Y-4.0056
X4.9134Y-5.5047
X4.9131Y-3.2555
X10.4045Y-5.9408
X9.93Y-6.9577
X7.3508Y-5.3161
X5.8503Y-3.2555
X8.8508Y-3.1805
X5.8508Y-5.5047
X8.8508Y-5.4295
X8.1008Y-5.3783
X7.3501Y-3.0667
X9.6008Y-5.2421
X7.3508Y-4.5664
X8.8508Y-4.6803
X7.35Y-2.3169
X10.7671Y-6.9375
X8.0998Y-3.1294
X8.1008Y-4.6287
X5.8505Y-4.7552
X6.6008Y-6.1287
X5.8504Y-2.506
X5.8508Y-6.2547
X9.6008Y-2.4305
X6.6003Y-3.1299
X6.6008Y-5.3795
X4.9132Y-4.0053
X9.2501Y-6.6421
X6.6004Y-2.3798
X10.4508Y-7.6162
X6.6002Y-3.8796
X7.35Y-3.8165
X8.8491Y-3.9306
X7.3508Y-6.0657
X5.1008Y-6.2547
X8.8491Y-2.4305
X6.6008Y-4.6295
X9.6008Y-4.1179
X4.9136Y-4.7549
X11.084Y-6.2577
X8.0996Y-2.3793
X9.6008Y-3.1802
X8.1008Y-6.128
T10
X10.026Y-7.5211
X10.4232Y-6.6691
X8.7569Y-6.9307
X9.1542Y-6.0787
T11
X4.5387Y-1.6156
X10.1016Y-5.4068
X7.1654Y-1.6133
X4.5071Y-6.1318
X8.3009Y-6.8258
X9.7577Y-1.6398
T2
X9.1233Y-1.8601G85X9.1233Y-1.8759
G05
X9.3045Y-1.5412G85X9.3045Y-1.557
G05
X9.3045Y-1.6593G85X9.3045Y-1.6751
G05
X9.3045Y-1.8168G85X9.3045Y-1.8325
G05
T0
M30
