G04 #@! TF.GenerationSoftware,KiCad,Pcbnew,(5.0.1)-3*
G04 #@! TF.CreationDate,2018-11-16T23:33:18-08:00*
G04 #@! TF.ProjectId,ErgoMaxLeft,4572676F4D61784C6566742E6B696361,rev?*
G04 #@! TF.SameCoordinates,Original*
G04 #@! TF.FileFunction,Legend,Bot*
G04 #@! TF.FilePolarity,Positive*
%FSLAX46Y46*%
G04 Gerber Fmt 4.6, Leading zero omitted, Abs format (unit mm)*
G04 Created by KiCad (PCBNEW (5.0.1)-3) date 16/11/2018 23:33:18*
%MOMM*%
%LPD*%
G01*
G04 APERTURE LIST*
%ADD10C,0.150000*%
%ADD11C,0.304800*%
G04 APERTURE END LIST*
D10*
G04 #@! TO.C,U1*
X134439660Y-36108640D02*
X134439660Y-66588640D01*
X129359660Y-36108640D02*
X134439660Y-36108640D01*
X129359660Y-33568640D02*
X129359660Y-36108640D01*
X121739660Y-33568640D02*
X129359660Y-33568640D01*
X121739660Y-36108640D02*
X121739660Y-33568640D01*
X116659660Y-36108640D02*
X121739660Y-36108640D01*
X116659660Y-66588640D02*
X116659660Y-36108640D01*
X134439660Y-66588640D02*
X116659660Y-66588640D01*
G04 #@! TO.C,R1*
X209045920Y-39875460D02*
X207845920Y-39875460D01*
X207845920Y-39875460D02*
X207645920Y-40675460D01*
X207645920Y-40675460D02*
X207445920Y-40875460D01*
X207445920Y-40875460D02*
X207045920Y-40875460D01*
X207045920Y-40875460D02*
X206845920Y-40675460D01*
X206845920Y-40675460D02*
X202845920Y-40675460D01*
X202845920Y-40675460D02*
X202645920Y-40875460D01*
X202645920Y-40875460D02*
X202245920Y-40875460D01*
X202245920Y-40875460D02*
X202045920Y-40675460D01*
X202045920Y-40675460D02*
X201845920Y-39875460D01*
X201845920Y-39875460D02*
X202045920Y-39075460D01*
X202045920Y-39075460D02*
X202245920Y-38875460D01*
X202245920Y-38875460D02*
X202645920Y-38875460D01*
X202645920Y-38875460D02*
X202845920Y-39075460D01*
X202845920Y-39075460D02*
X206845920Y-39075460D01*
X206845920Y-39075460D02*
X207045920Y-38875460D01*
X207045920Y-38875460D02*
X207445920Y-38875460D01*
X207445920Y-38875460D02*
X207645920Y-39075460D01*
X207645920Y-39075460D02*
X207845920Y-39875460D01*
X201845920Y-39875460D02*
X200645920Y-39875460D01*
G04 #@! TO.C,R2*
X190107680Y-39875460D02*
X188907680Y-39875460D01*
X188907680Y-39875460D02*
X188707680Y-40675460D01*
X188707680Y-40675460D02*
X188507680Y-40875460D01*
X188507680Y-40875460D02*
X188107680Y-40875460D01*
X188107680Y-40875460D02*
X187907680Y-40675460D01*
X187907680Y-40675460D02*
X183907680Y-40675460D01*
X183907680Y-40675460D02*
X183707680Y-40875460D01*
X183707680Y-40875460D02*
X183307680Y-40875460D01*
X183307680Y-40875460D02*
X183107680Y-40675460D01*
X183107680Y-40675460D02*
X182907680Y-39875460D01*
X182907680Y-39875460D02*
X183107680Y-39075460D01*
X183107680Y-39075460D02*
X183307680Y-38875460D01*
X183307680Y-38875460D02*
X183707680Y-38875460D01*
X183707680Y-38875460D02*
X183907680Y-39075460D01*
X183907680Y-39075460D02*
X187907680Y-39075460D01*
X187907680Y-39075460D02*
X188107680Y-38875460D01*
X188107680Y-38875460D02*
X188507680Y-38875460D01*
X188507680Y-38875460D02*
X188707680Y-39075460D01*
X188707680Y-39075460D02*
X188907680Y-39875460D01*
X182907680Y-39875460D02*
X181707680Y-39875460D01*
G04 #@! TO.C,K1*
D11*
X151938285Y-71343068D02*
X151938285Y-69819068D01*
X151067428Y-71343068D02*
X151720571Y-70472211D01*
X151067428Y-69819068D02*
X151938285Y-70689925D01*
X150414285Y-70544782D02*
X149906285Y-70544782D01*
X149688571Y-71343068D02*
X150414285Y-71343068D01*
X150414285Y-69819068D01*
X149688571Y-69819068D01*
X148745142Y-70617354D02*
X148745142Y-71343068D01*
X149253142Y-69819068D02*
X148745142Y-70617354D01*
X148237142Y-69819068D01*
X147801714Y-71270497D02*
X147584000Y-71343068D01*
X147221142Y-71343068D01*
X147076000Y-71270497D01*
X147003428Y-71197925D01*
X146930857Y-71052782D01*
X146930857Y-70907640D01*
X147003428Y-70762497D01*
X147076000Y-70689925D01*
X147221142Y-70617354D01*
X147511428Y-70544782D01*
X147656571Y-70472211D01*
X147729142Y-70399640D01*
X147801714Y-70254497D01*
X147801714Y-70109354D01*
X147729142Y-69964211D01*
X147656571Y-69891640D01*
X147511428Y-69819068D01*
X147148571Y-69819068D01*
X146930857Y-69891640D01*
X146422857Y-69819068D02*
X146060000Y-71343068D01*
X145769714Y-70254497D01*
X145479428Y-71343068D01*
X145116571Y-69819068D01*
G04 #@! TO.C,K2*
X170988285Y-68136468D02*
X170988285Y-66612468D01*
X170117428Y-68136468D02*
X170770571Y-67265611D01*
X170117428Y-66612468D02*
X170988285Y-67483325D01*
X169464285Y-67338182D02*
X168956285Y-67338182D01*
X168738571Y-68136468D02*
X169464285Y-68136468D01*
X169464285Y-66612468D01*
X168738571Y-66612468D01*
X167795142Y-67410754D02*
X167795142Y-68136468D01*
X168303142Y-66612468D02*
X167795142Y-67410754D01*
X167287142Y-66612468D01*
X166851714Y-68063897D02*
X166634000Y-68136468D01*
X166271142Y-68136468D01*
X166126000Y-68063897D01*
X166053428Y-67991325D01*
X165980857Y-67846182D01*
X165980857Y-67701040D01*
X166053428Y-67555897D01*
X166126000Y-67483325D01*
X166271142Y-67410754D01*
X166561428Y-67338182D01*
X166706571Y-67265611D01*
X166779142Y-67193040D01*
X166851714Y-67047897D01*
X166851714Y-66902754D01*
X166779142Y-66757611D01*
X166706571Y-66685040D01*
X166561428Y-66612468D01*
X166198571Y-66612468D01*
X165980857Y-66685040D01*
X165472857Y-66612468D02*
X165110000Y-68136468D01*
X164819714Y-67047897D01*
X164529428Y-68136468D01*
X164166571Y-66612468D01*
G04 #@! TO.C,K3*
X190028285Y-66539068D02*
X190028285Y-65015068D01*
X189157428Y-66539068D02*
X189810571Y-65668211D01*
X189157428Y-65015068D02*
X190028285Y-65885925D01*
X188504285Y-65740782D02*
X187996285Y-65740782D01*
X187778571Y-66539068D02*
X188504285Y-66539068D01*
X188504285Y-65015068D01*
X187778571Y-65015068D01*
X186835142Y-65813354D02*
X186835142Y-66539068D01*
X187343142Y-65015068D02*
X186835142Y-65813354D01*
X186327142Y-65015068D01*
X185891714Y-66466497D02*
X185674000Y-66539068D01*
X185311142Y-66539068D01*
X185166000Y-66466497D01*
X185093428Y-66393925D01*
X185020857Y-66248782D01*
X185020857Y-66103640D01*
X185093428Y-65958497D01*
X185166000Y-65885925D01*
X185311142Y-65813354D01*
X185601428Y-65740782D01*
X185746571Y-65668211D01*
X185819142Y-65595640D01*
X185891714Y-65450497D01*
X185891714Y-65305354D01*
X185819142Y-65160211D01*
X185746571Y-65087640D01*
X185601428Y-65015068D01*
X185238571Y-65015068D01*
X185020857Y-65087640D01*
X184512857Y-65015068D02*
X184150000Y-66539068D01*
X183859714Y-65450497D01*
X183569428Y-66539068D01*
X183206571Y-65015068D01*
G04 #@! TO.C,K4*
X209068285Y-68123068D02*
X209068285Y-66599068D01*
X208197428Y-68123068D02*
X208850571Y-67252211D01*
X208197428Y-66599068D02*
X209068285Y-67469925D01*
X207544285Y-67324782D02*
X207036285Y-67324782D01*
X206818571Y-68123068D02*
X207544285Y-68123068D01*
X207544285Y-66599068D01*
X206818571Y-66599068D01*
X205875142Y-67397354D02*
X205875142Y-68123068D01*
X206383142Y-66599068D02*
X205875142Y-67397354D01*
X205367142Y-66599068D01*
X204931714Y-68050497D02*
X204714000Y-68123068D01*
X204351142Y-68123068D01*
X204206000Y-68050497D01*
X204133428Y-67977925D01*
X204060857Y-67832782D01*
X204060857Y-67687640D01*
X204133428Y-67542497D01*
X204206000Y-67469925D01*
X204351142Y-67397354D01*
X204641428Y-67324782D01*
X204786571Y-67252211D01*
X204859142Y-67179640D01*
X204931714Y-67034497D01*
X204931714Y-66889354D01*
X204859142Y-66744211D01*
X204786571Y-66671640D01*
X204641428Y-66599068D01*
X204278571Y-66599068D01*
X204060857Y-66671640D01*
X203552857Y-66599068D02*
X203190000Y-68123068D01*
X202899714Y-67034497D01*
X202609428Y-68123068D01*
X202246571Y-66599068D01*
G04 #@! TO.C,K5*
X228106036Y-69423068D02*
X228106036Y-67899068D01*
X227235179Y-69423068D02*
X227888322Y-68552211D01*
X227235179Y-67899068D02*
X228106036Y-68769925D01*
X226582036Y-68624782D02*
X226074036Y-68624782D01*
X225856322Y-69423068D02*
X226582036Y-69423068D01*
X226582036Y-67899068D01*
X225856322Y-67899068D01*
X224912893Y-68697354D02*
X224912893Y-69423068D01*
X225420893Y-67899068D02*
X224912893Y-68697354D01*
X224404893Y-67899068D01*
X223969465Y-69350497D02*
X223751751Y-69423068D01*
X223388893Y-69423068D01*
X223243751Y-69350497D01*
X223171179Y-69277925D01*
X223098608Y-69132782D01*
X223098608Y-68987640D01*
X223171179Y-68842497D01*
X223243751Y-68769925D01*
X223388893Y-68697354D01*
X223679179Y-68624782D01*
X223824322Y-68552211D01*
X223896893Y-68479640D01*
X223969465Y-68334497D01*
X223969465Y-68189354D01*
X223896893Y-68044211D01*
X223824322Y-67971640D01*
X223679179Y-67899068D01*
X223316322Y-67899068D01*
X223098608Y-67971640D01*
X222590608Y-67899068D02*
X222227751Y-69423068D01*
X221937465Y-68334497D01*
X221647179Y-69423068D01*
X221284322Y-67899068D01*
G04 #@! TO.C,K6*
X247198285Y-69425068D02*
X247198285Y-67901068D01*
X246327428Y-69425068D02*
X246980571Y-68554211D01*
X246327428Y-67901068D02*
X247198285Y-68771925D01*
X245674285Y-68626782D02*
X245166285Y-68626782D01*
X244948571Y-69425068D02*
X245674285Y-69425068D01*
X245674285Y-67901068D01*
X244948571Y-67901068D01*
X244005142Y-68699354D02*
X244005142Y-69425068D01*
X244513142Y-67901068D02*
X244005142Y-68699354D01*
X243497142Y-67901068D01*
X243061714Y-69352497D02*
X242844000Y-69425068D01*
X242481142Y-69425068D01*
X242336000Y-69352497D01*
X242263428Y-69279925D01*
X242190857Y-69134782D01*
X242190857Y-68989640D01*
X242263428Y-68844497D01*
X242336000Y-68771925D01*
X242481142Y-68699354D01*
X242771428Y-68626782D01*
X242916571Y-68554211D01*
X242989142Y-68481640D01*
X243061714Y-68336497D01*
X243061714Y-68191354D01*
X242989142Y-68046211D01*
X242916571Y-67973640D01*
X242771428Y-67901068D01*
X242408571Y-67901068D01*
X242190857Y-67973640D01*
X241682857Y-67901068D02*
X241320000Y-69425068D01*
X241029714Y-68336497D01*
X240739428Y-69425068D01*
X240376571Y-67901068D01*
G04 #@! TO.C,K7*
X128129965Y-90380068D02*
X128129965Y-88856068D01*
X127259108Y-90380068D02*
X127912251Y-89509211D01*
X127259108Y-88856068D02*
X128129965Y-89726925D01*
X126605965Y-89581782D02*
X126097965Y-89581782D01*
X125880251Y-90380068D02*
X126605965Y-90380068D01*
X126605965Y-88856068D01*
X125880251Y-88856068D01*
X124936822Y-89654354D02*
X124936822Y-90380068D01*
X125444822Y-88856068D02*
X124936822Y-89654354D01*
X124428822Y-88856068D01*
X123993394Y-90307497D02*
X123775680Y-90380068D01*
X123412822Y-90380068D01*
X123267680Y-90307497D01*
X123195108Y-90234925D01*
X123122537Y-90089782D01*
X123122537Y-89944640D01*
X123195108Y-89799497D01*
X123267680Y-89726925D01*
X123412822Y-89654354D01*
X123703108Y-89581782D01*
X123848251Y-89509211D01*
X123920822Y-89436640D01*
X123993394Y-89291497D01*
X123993394Y-89146354D01*
X123920822Y-89001211D01*
X123848251Y-88928640D01*
X123703108Y-88856068D01*
X123340251Y-88856068D01*
X123122537Y-88928640D01*
X122614537Y-88856068D02*
X122251680Y-90380068D01*
X121961394Y-89291497D01*
X121671108Y-90380068D01*
X121308251Y-88856068D01*
G04 #@! TO.C,K8*
X151935385Y-90380068D02*
X151935385Y-88856068D01*
X151064528Y-90380068D02*
X151717671Y-89509211D01*
X151064528Y-88856068D02*
X151935385Y-89726925D01*
X150411385Y-89581782D02*
X149903385Y-89581782D01*
X149685671Y-90380068D02*
X150411385Y-90380068D01*
X150411385Y-88856068D01*
X149685671Y-88856068D01*
X148742242Y-89654354D02*
X148742242Y-90380068D01*
X149250242Y-88856068D02*
X148742242Y-89654354D01*
X148234242Y-88856068D01*
X147798814Y-90307497D02*
X147581100Y-90380068D01*
X147218242Y-90380068D01*
X147073100Y-90307497D01*
X147000528Y-90234925D01*
X146927957Y-90089782D01*
X146927957Y-89944640D01*
X147000528Y-89799497D01*
X147073100Y-89726925D01*
X147218242Y-89654354D01*
X147508528Y-89581782D01*
X147653671Y-89509211D01*
X147726242Y-89436640D01*
X147798814Y-89291497D01*
X147798814Y-89146354D01*
X147726242Y-89001211D01*
X147653671Y-88928640D01*
X147508528Y-88856068D01*
X147145671Y-88856068D01*
X146927957Y-88928640D01*
X146419957Y-88856068D02*
X146057100Y-90380068D01*
X145766814Y-89291497D01*
X145476528Y-90380068D01*
X145113671Y-88856068D01*
G04 #@! TO.C,K9*
X170985385Y-87190068D02*
X170985385Y-85666068D01*
X170114528Y-87190068D02*
X170767671Y-86319211D01*
X170114528Y-85666068D02*
X170985385Y-86536925D01*
X169461385Y-86391782D02*
X168953385Y-86391782D01*
X168735671Y-87190068D02*
X169461385Y-87190068D01*
X169461385Y-85666068D01*
X168735671Y-85666068D01*
X167792242Y-86464354D02*
X167792242Y-87190068D01*
X168300242Y-85666068D02*
X167792242Y-86464354D01*
X167284242Y-85666068D01*
X166848814Y-87117497D02*
X166631100Y-87190068D01*
X166268242Y-87190068D01*
X166123100Y-87117497D01*
X166050528Y-87044925D01*
X165977957Y-86899782D01*
X165977957Y-86754640D01*
X166050528Y-86609497D01*
X166123100Y-86536925D01*
X166268242Y-86464354D01*
X166558528Y-86391782D01*
X166703671Y-86319211D01*
X166776242Y-86246640D01*
X166848814Y-86101497D01*
X166848814Y-85956354D01*
X166776242Y-85811211D01*
X166703671Y-85738640D01*
X166558528Y-85666068D01*
X166195671Y-85666068D01*
X165977957Y-85738640D01*
X165469957Y-85666068D02*
X165107100Y-87190068D01*
X164816814Y-86101497D01*
X164526528Y-87190068D01*
X164163671Y-85666068D01*
G04 #@! TO.C,K10*
X190030985Y-85584508D02*
X190030985Y-84060508D01*
X189160128Y-85584508D02*
X189813271Y-84713651D01*
X189160128Y-84060508D02*
X190030985Y-84931365D01*
X188506985Y-84786222D02*
X187998985Y-84786222D01*
X187781271Y-85584508D02*
X188506985Y-85584508D01*
X188506985Y-84060508D01*
X187781271Y-84060508D01*
X186837842Y-84858794D02*
X186837842Y-85584508D01*
X187345842Y-84060508D02*
X186837842Y-84858794D01*
X186329842Y-84060508D01*
X185894414Y-85511937D02*
X185676700Y-85584508D01*
X185313842Y-85584508D01*
X185168700Y-85511937D01*
X185096128Y-85439365D01*
X185023557Y-85294222D01*
X185023557Y-85149080D01*
X185096128Y-85003937D01*
X185168700Y-84931365D01*
X185313842Y-84858794D01*
X185604128Y-84786222D01*
X185749271Y-84713651D01*
X185821842Y-84641080D01*
X185894414Y-84495937D01*
X185894414Y-84350794D01*
X185821842Y-84205651D01*
X185749271Y-84133080D01*
X185604128Y-84060508D01*
X185241271Y-84060508D01*
X185023557Y-84133080D01*
X184515557Y-84060508D02*
X184152700Y-85584508D01*
X183862414Y-84495937D01*
X183572128Y-85584508D01*
X183209271Y-84060508D01*
G04 #@! TO.C,K11*
X209072885Y-87176848D02*
X209072885Y-85652848D01*
X208202028Y-87176848D02*
X208855171Y-86305991D01*
X208202028Y-85652848D02*
X209072885Y-86523705D01*
X207548885Y-86378562D02*
X207040885Y-86378562D01*
X206823171Y-87176848D02*
X207548885Y-87176848D01*
X207548885Y-85652848D01*
X206823171Y-85652848D01*
X205879742Y-86451134D02*
X205879742Y-87176848D01*
X206387742Y-85652848D02*
X205879742Y-86451134D01*
X205371742Y-85652848D01*
X204936314Y-87104277D02*
X204718600Y-87176848D01*
X204355742Y-87176848D01*
X204210600Y-87104277D01*
X204138028Y-87031705D01*
X204065457Y-86886562D01*
X204065457Y-86741420D01*
X204138028Y-86596277D01*
X204210600Y-86523705D01*
X204355742Y-86451134D01*
X204646028Y-86378562D01*
X204791171Y-86305991D01*
X204863742Y-86233420D01*
X204936314Y-86088277D01*
X204936314Y-85943134D01*
X204863742Y-85797991D01*
X204791171Y-85725420D01*
X204646028Y-85652848D01*
X204283171Y-85652848D01*
X204065457Y-85725420D01*
X203557457Y-85652848D02*
X203194600Y-87176848D01*
X202904314Y-86088277D01*
X202614028Y-87176848D01*
X202251171Y-85652848D01*
G04 #@! TO.C,K12*
X228148285Y-88472948D02*
X228148285Y-86948948D01*
X227277428Y-88472948D02*
X227930571Y-87602091D01*
X227277428Y-86948948D02*
X228148285Y-87819805D01*
X226624285Y-87674662D02*
X226116285Y-87674662D01*
X225898571Y-88472948D02*
X226624285Y-88472948D01*
X226624285Y-86948948D01*
X225898571Y-86948948D01*
X224955142Y-87747234D02*
X224955142Y-88472948D01*
X225463142Y-86948948D02*
X224955142Y-87747234D01*
X224447142Y-86948948D01*
X224011714Y-88400377D02*
X223794000Y-88472948D01*
X223431142Y-88472948D01*
X223286000Y-88400377D01*
X223213428Y-88327805D01*
X223140857Y-88182662D01*
X223140857Y-88037520D01*
X223213428Y-87892377D01*
X223286000Y-87819805D01*
X223431142Y-87747234D01*
X223721428Y-87674662D01*
X223866571Y-87602091D01*
X223939142Y-87529520D01*
X224011714Y-87384377D01*
X224011714Y-87239234D01*
X223939142Y-87094091D01*
X223866571Y-87021520D01*
X223721428Y-86948948D01*
X223358571Y-86948948D01*
X223140857Y-87021520D01*
X222632857Y-86948948D02*
X222270000Y-88472948D01*
X221979714Y-87384377D01*
X221689428Y-88472948D01*
X221326571Y-86948948D01*
G04 #@! TO.C,K13*
X247198285Y-88465368D02*
X247198285Y-86941368D01*
X246327428Y-88465368D02*
X246980571Y-87594511D01*
X246327428Y-86941368D02*
X247198285Y-87812225D01*
X245674285Y-87667082D02*
X245166285Y-87667082D01*
X244948571Y-88465368D02*
X245674285Y-88465368D01*
X245674285Y-86941368D01*
X244948571Y-86941368D01*
X244005142Y-87739654D02*
X244005142Y-88465368D01*
X244513142Y-86941368D02*
X244005142Y-87739654D01*
X243497142Y-86941368D01*
X243061714Y-88392797D02*
X242844000Y-88465368D01*
X242481142Y-88465368D01*
X242336000Y-88392797D01*
X242263428Y-88320225D01*
X242190857Y-88175082D01*
X242190857Y-88029940D01*
X242263428Y-87884797D01*
X242336000Y-87812225D01*
X242481142Y-87739654D01*
X242771428Y-87667082D01*
X242916571Y-87594511D01*
X242989142Y-87521940D01*
X243061714Y-87376797D01*
X243061714Y-87231654D01*
X242989142Y-87086511D01*
X242916571Y-87013940D01*
X242771428Y-86941368D01*
X242408571Y-86941368D01*
X242190857Y-87013940D01*
X241682857Y-86941368D02*
X241320000Y-88465368D01*
X241029714Y-87376797D01*
X240739428Y-88465368D01*
X240376571Y-86941368D01*
G04 #@! TO.C,K14*
X128133365Y-109423168D02*
X128133365Y-107899168D01*
X127262508Y-109423168D02*
X127915651Y-108552311D01*
X127262508Y-107899168D02*
X128133365Y-108770025D01*
X126609365Y-108624882D02*
X126101365Y-108624882D01*
X125883651Y-109423168D02*
X126609365Y-109423168D01*
X126609365Y-107899168D01*
X125883651Y-107899168D01*
X124940222Y-108697454D02*
X124940222Y-109423168D01*
X125448222Y-107899168D02*
X124940222Y-108697454D01*
X124432222Y-107899168D01*
X123996794Y-109350597D02*
X123779080Y-109423168D01*
X123416222Y-109423168D01*
X123271080Y-109350597D01*
X123198508Y-109278025D01*
X123125937Y-109132882D01*
X123125937Y-108987740D01*
X123198508Y-108842597D01*
X123271080Y-108770025D01*
X123416222Y-108697454D01*
X123706508Y-108624882D01*
X123851651Y-108552311D01*
X123924222Y-108479740D01*
X123996794Y-108334597D01*
X123996794Y-108189454D01*
X123924222Y-108044311D01*
X123851651Y-107971740D01*
X123706508Y-107899168D01*
X123343651Y-107899168D01*
X123125937Y-107971740D01*
X122617937Y-107899168D02*
X122255080Y-109423168D01*
X121964794Y-108334597D01*
X121674508Y-109423168D01*
X121311651Y-107899168D01*
G04 #@! TO.C,K15*
X151934145Y-109432768D02*
X151934145Y-107908768D01*
X151063288Y-109432768D02*
X151716431Y-108561911D01*
X151063288Y-107908768D02*
X151934145Y-108779625D01*
X150410145Y-108634482D02*
X149902145Y-108634482D01*
X149684431Y-109432768D02*
X150410145Y-109432768D01*
X150410145Y-107908768D01*
X149684431Y-107908768D01*
X148741002Y-108707054D02*
X148741002Y-109432768D01*
X149249002Y-107908768D02*
X148741002Y-108707054D01*
X148233002Y-107908768D01*
X147797574Y-109360197D02*
X147579860Y-109432768D01*
X147217002Y-109432768D01*
X147071860Y-109360197D01*
X146999288Y-109287625D01*
X146926717Y-109142482D01*
X146926717Y-108997340D01*
X146999288Y-108852197D01*
X147071860Y-108779625D01*
X147217002Y-108707054D01*
X147507288Y-108634482D01*
X147652431Y-108561911D01*
X147725002Y-108489340D01*
X147797574Y-108344197D01*
X147797574Y-108199054D01*
X147725002Y-108053911D01*
X147652431Y-107981340D01*
X147507288Y-107908768D01*
X147144431Y-107908768D01*
X146926717Y-107981340D01*
X146418717Y-107908768D02*
X146055860Y-109432768D01*
X145765574Y-108344197D01*
X145475288Y-109432768D01*
X145112431Y-107908768D01*
G04 #@! TO.C,K16*
X170982885Y-106232048D02*
X170982885Y-104708048D01*
X170112028Y-106232048D02*
X170765171Y-105361191D01*
X170112028Y-104708048D02*
X170982885Y-105578905D01*
X169458885Y-105433762D02*
X168950885Y-105433762D01*
X168733171Y-106232048D02*
X169458885Y-106232048D01*
X169458885Y-104708048D01*
X168733171Y-104708048D01*
X167789742Y-105506334D02*
X167789742Y-106232048D01*
X168297742Y-104708048D02*
X167789742Y-105506334D01*
X167281742Y-104708048D01*
X166846314Y-106159477D02*
X166628600Y-106232048D01*
X166265742Y-106232048D01*
X166120600Y-106159477D01*
X166048028Y-106086905D01*
X165975457Y-105941762D01*
X165975457Y-105796620D01*
X166048028Y-105651477D01*
X166120600Y-105578905D01*
X166265742Y-105506334D01*
X166556028Y-105433762D01*
X166701171Y-105361191D01*
X166773742Y-105288620D01*
X166846314Y-105143477D01*
X166846314Y-104998334D01*
X166773742Y-104853191D01*
X166701171Y-104780620D01*
X166556028Y-104708048D01*
X166193171Y-104708048D01*
X165975457Y-104780620D01*
X165467457Y-104708048D02*
X165104600Y-106232048D01*
X164814314Y-105143477D01*
X164524028Y-106232048D01*
X164161171Y-104708048D01*
G04 #@! TO.C,K17*
X190027325Y-104628968D02*
X190027325Y-103104968D01*
X189156468Y-104628968D02*
X189809611Y-103758111D01*
X189156468Y-103104968D02*
X190027325Y-103975825D01*
X188503325Y-103830682D02*
X187995325Y-103830682D01*
X187777611Y-104628968D02*
X188503325Y-104628968D01*
X188503325Y-103104968D01*
X187777611Y-103104968D01*
X186834182Y-103903254D02*
X186834182Y-104628968D01*
X187342182Y-103104968D02*
X186834182Y-103903254D01*
X186326182Y-103104968D01*
X185890754Y-104556397D02*
X185673040Y-104628968D01*
X185310182Y-104628968D01*
X185165040Y-104556397D01*
X185092468Y-104483825D01*
X185019897Y-104338682D01*
X185019897Y-104193540D01*
X185092468Y-104048397D01*
X185165040Y-103975825D01*
X185310182Y-103903254D01*
X185600468Y-103830682D01*
X185745611Y-103758111D01*
X185818182Y-103685540D01*
X185890754Y-103540397D01*
X185890754Y-103395254D01*
X185818182Y-103250111D01*
X185745611Y-103177540D01*
X185600468Y-103104968D01*
X185237611Y-103104968D01*
X185019897Y-103177540D01*
X184511897Y-103104968D02*
X184149040Y-104628968D01*
X183858754Y-103540397D01*
X183568468Y-104628968D01*
X183205611Y-103104968D01*
G04 #@! TO.C,K18*
X209072725Y-106214688D02*
X209072725Y-104690688D01*
X208201868Y-106214688D02*
X208855011Y-105343831D01*
X208201868Y-104690688D02*
X209072725Y-105561545D01*
X207548725Y-105416402D02*
X207040725Y-105416402D01*
X206823011Y-106214688D02*
X207548725Y-106214688D01*
X207548725Y-104690688D01*
X206823011Y-104690688D01*
X205879582Y-105488974D02*
X205879582Y-106214688D01*
X206387582Y-104690688D02*
X205879582Y-105488974D01*
X205371582Y-104690688D01*
X204936154Y-106142117D02*
X204718440Y-106214688D01*
X204355582Y-106214688D01*
X204210440Y-106142117D01*
X204137868Y-106069545D01*
X204065297Y-105924402D01*
X204065297Y-105779260D01*
X204137868Y-105634117D01*
X204210440Y-105561545D01*
X204355582Y-105488974D01*
X204645868Y-105416402D01*
X204791011Y-105343831D01*
X204863582Y-105271260D01*
X204936154Y-105126117D01*
X204936154Y-104980974D01*
X204863582Y-104835831D01*
X204791011Y-104763260D01*
X204645868Y-104690688D01*
X204283011Y-104690688D01*
X204065297Y-104763260D01*
X203557297Y-104690688D02*
X203194440Y-106214688D01*
X202904154Y-105126117D01*
X202613868Y-106214688D01*
X202251011Y-104690688D01*
G04 #@! TO.C,K19*
X228105885Y-107525468D02*
X228105885Y-106001468D01*
X227235028Y-107525468D02*
X227888171Y-106654611D01*
X227235028Y-106001468D02*
X228105885Y-106872325D01*
X226581885Y-106727182D02*
X226073885Y-106727182D01*
X225856171Y-107525468D02*
X226581885Y-107525468D01*
X226581885Y-106001468D01*
X225856171Y-106001468D01*
X224912742Y-106799754D02*
X224912742Y-107525468D01*
X225420742Y-106001468D02*
X224912742Y-106799754D01*
X224404742Y-106001468D01*
X223969314Y-107452897D02*
X223751600Y-107525468D01*
X223388742Y-107525468D01*
X223243600Y-107452897D01*
X223171028Y-107380325D01*
X223098457Y-107235182D01*
X223098457Y-107090040D01*
X223171028Y-106944897D01*
X223243600Y-106872325D01*
X223388742Y-106799754D01*
X223679028Y-106727182D01*
X223824171Y-106654611D01*
X223896742Y-106582040D01*
X223969314Y-106436897D01*
X223969314Y-106291754D01*
X223896742Y-106146611D01*
X223824171Y-106074040D01*
X223679028Y-106001468D01*
X223316171Y-106001468D01*
X223098457Y-106074040D01*
X222590457Y-106001468D02*
X222227600Y-107525468D01*
X221937314Y-106436897D01*
X221647028Y-107525468D01*
X221284171Y-106001468D01*
G04 #@! TO.C,K20*
X247198285Y-112285068D02*
X247198285Y-110761068D01*
X246327428Y-112285068D02*
X246980571Y-111414211D01*
X246327428Y-110761068D02*
X247198285Y-111631925D01*
X245674285Y-111486782D02*
X245166285Y-111486782D01*
X244948571Y-112285068D02*
X245674285Y-112285068D01*
X245674285Y-110761068D01*
X244948571Y-110761068D01*
X244005142Y-111559354D02*
X244005142Y-112285068D01*
X244513142Y-110761068D02*
X244005142Y-111559354D01*
X243497142Y-110761068D01*
X243061714Y-112212497D02*
X242844000Y-112285068D01*
X242481142Y-112285068D01*
X242336000Y-112212497D01*
X242263428Y-112139925D01*
X242190857Y-111994782D01*
X242190857Y-111849640D01*
X242263428Y-111704497D01*
X242336000Y-111631925D01*
X242481142Y-111559354D01*
X242771428Y-111486782D01*
X242916571Y-111414211D01*
X242989142Y-111341640D01*
X243061714Y-111196497D01*
X243061714Y-111051354D01*
X242989142Y-110906211D01*
X242916571Y-110833640D01*
X242771428Y-110761068D01*
X242408571Y-110761068D01*
X242190857Y-110833640D01*
X241682857Y-110761068D02*
X241320000Y-112285068D01*
X241029714Y-111196497D01*
X240739428Y-112285068D01*
X240376571Y-110761068D01*
G04 #@! TO.C,K21*
X128143685Y-128463268D02*
X128143685Y-126939268D01*
X127272828Y-128463268D02*
X127925971Y-127592411D01*
X127272828Y-126939268D02*
X128143685Y-127810125D01*
X126619685Y-127664982D02*
X126111685Y-127664982D01*
X125893971Y-128463268D02*
X126619685Y-128463268D01*
X126619685Y-126939268D01*
X125893971Y-126939268D01*
X124950542Y-127737554D02*
X124950542Y-128463268D01*
X125458542Y-126939268D02*
X124950542Y-127737554D01*
X124442542Y-126939268D01*
X124007114Y-128390697D02*
X123789400Y-128463268D01*
X123426542Y-128463268D01*
X123281400Y-128390697D01*
X123208828Y-128318125D01*
X123136257Y-128172982D01*
X123136257Y-128027840D01*
X123208828Y-127882697D01*
X123281400Y-127810125D01*
X123426542Y-127737554D01*
X123716828Y-127664982D01*
X123861971Y-127592411D01*
X123934542Y-127519840D01*
X124007114Y-127374697D01*
X124007114Y-127229554D01*
X123934542Y-127084411D01*
X123861971Y-127011840D01*
X123716828Y-126939268D01*
X123353971Y-126939268D01*
X123136257Y-127011840D01*
X122628257Y-126939268D02*
X122265400Y-128463268D01*
X121975114Y-127374697D01*
X121684828Y-128463268D01*
X121321971Y-126939268D01*
G04 #@! TO.C,K22*
X151939885Y-128471468D02*
X151939885Y-126947468D01*
X151069028Y-128471468D02*
X151722171Y-127600611D01*
X151069028Y-126947468D02*
X151939885Y-127818325D01*
X150415885Y-127673182D02*
X149907885Y-127673182D01*
X149690171Y-128471468D02*
X150415885Y-128471468D01*
X150415885Y-126947468D01*
X149690171Y-126947468D01*
X148746742Y-127745754D02*
X148746742Y-128471468D01*
X149254742Y-126947468D02*
X148746742Y-127745754D01*
X148238742Y-126947468D01*
X147803314Y-128398897D02*
X147585600Y-128471468D01*
X147222742Y-128471468D01*
X147077600Y-128398897D01*
X147005028Y-128326325D01*
X146932457Y-128181182D01*
X146932457Y-128036040D01*
X147005028Y-127890897D01*
X147077600Y-127818325D01*
X147222742Y-127745754D01*
X147513028Y-127673182D01*
X147658171Y-127600611D01*
X147730742Y-127528040D01*
X147803314Y-127382897D01*
X147803314Y-127237754D01*
X147730742Y-127092611D01*
X147658171Y-127020040D01*
X147513028Y-126947468D01*
X147150171Y-126947468D01*
X146932457Y-127020040D01*
X146424457Y-126947468D02*
X146061600Y-128471468D01*
X145771314Y-127382897D01*
X145481028Y-128471468D01*
X145118171Y-126947468D01*
G04 #@! TO.C,K23*
X170998285Y-125279668D02*
X170998285Y-123755668D01*
X170127428Y-125279668D02*
X170780571Y-124408811D01*
X170127428Y-123755668D02*
X170998285Y-124626525D01*
X169474285Y-124481382D02*
X168966285Y-124481382D01*
X168748571Y-125279668D02*
X169474285Y-125279668D01*
X169474285Y-123755668D01*
X168748571Y-123755668D01*
X167805142Y-124553954D02*
X167805142Y-125279668D01*
X168313142Y-123755668D02*
X167805142Y-124553954D01*
X167297142Y-123755668D01*
X166861714Y-125207097D02*
X166644000Y-125279668D01*
X166281142Y-125279668D01*
X166136000Y-125207097D01*
X166063428Y-125134525D01*
X165990857Y-124989382D01*
X165990857Y-124844240D01*
X166063428Y-124699097D01*
X166136000Y-124626525D01*
X166281142Y-124553954D01*
X166571428Y-124481382D01*
X166716571Y-124408811D01*
X166789142Y-124336240D01*
X166861714Y-124191097D01*
X166861714Y-124045954D01*
X166789142Y-123900811D01*
X166716571Y-123828240D01*
X166571428Y-123755668D01*
X166208571Y-123755668D01*
X165990857Y-123828240D01*
X165482857Y-123755668D02*
X165120000Y-125279668D01*
X164829714Y-124191097D01*
X164539428Y-125279668D01*
X164176571Y-123755668D01*
G04 #@! TO.C,K24*
X190048285Y-123676668D02*
X190048285Y-122152668D01*
X189177428Y-123676668D02*
X189830571Y-122805811D01*
X189177428Y-122152668D02*
X190048285Y-123023525D01*
X188524285Y-122878382D02*
X188016285Y-122878382D01*
X187798571Y-123676668D02*
X188524285Y-123676668D01*
X188524285Y-122152668D01*
X187798571Y-122152668D01*
X186855142Y-122950954D02*
X186855142Y-123676668D01*
X187363142Y-122152668D02*
X186855142Y-122950954D01*
X186347142Y-122152668D01*
X185911714Y-123604097D02*
X185694000Y-123676668D01*
X185331142Y-123676668D01*
X185186000Y-123604097D01*
X185113428Y-123531525D01*
X185040857Y-123386382D01*
X185040857Y-123241240D01*
X185113428Y-123096097D01*
X185186000Y-123023525D01*
X185331142Y-122950954D01*
X185621428Y-122878382D01*
X185766571Y-122805811D01*
X185839142Y-122733240D01*
X185911714Y-122588097D01*
X185911714Y-122442954D01*
X185839142Y-122297811D01*
X185766571Y-122225240D01*
X185621428Y-122152668D01*
X185258571Y-122152668D01*
X185040857Y-122225240D01*
X184532857Y-122152668D02*
X184170000Y-123676668D01*
X183879714Y-122588097D01*
X183589428Y-123676668D01*
X183226571Y-122152668D01*
G04 #@! TO.C,K25*
X209098285Y-125259428D02*
X209098285Y-123735428D01*
X208227428Y-125259428D02*
X208880571Y-124388571D01*
X208227428Y-123735428D02*
X209098285Y-124606285D01*
X207574285Y-124461142D02*
X207066285Y-124461142D01*
X206848571Y-125259428D02*
X207574285Y-125259428D01*
X207574285Y-123735428D01*
X206848571Y-123735428D01*
X205905142Y-124533714D02*
X205905142Y-125259428D01*
X206413142Y-123735428D02*
X205905142Y-124533714D01*
X205397142Y-123735428D01*
X204961714Y-125186857D02*
X204744000Y-125259428D01*
X204381142Y-125259428D01*
X204236000Y-125186857D01*
X204163428Y-125114285D01*
X204090857Y-124969142D01*
X204090857Y-124824000D01*
X204163428Y-124678857D01*
X204236000Y-124606285D01*
X204381142Y-124533714D01*
X204671428Y-124461142D01*
X204816571Y-124388571D01*
X204889142Y-124316000D01*
X204961714Y-124170857D01*
X204961714Y-124025714D01*
X204889142Y-123880571D01*
X204816571Y-123808000D01*
X204671428Y-123735428D01*
X204308571Y-123735428D01*
X204090857Y-123808000D01*
X203582857Y-123735428D02*
X203220000Y-125259428D01*
X202929714Y-124170857D01*
X202639428Y-125259428D01*
X202276571Y-123735428D01*
G04 #@! TO.C,K26*
X228148285Y-126570268D02*
X228148285Y-125046268D01*
X227277428Y-126570268D02*
X227930571Y-125699411D01*
X227277428Y-125046268D02*
X228148285Y-125917125D01*
X226624285Y-125771982D02*
X226116285Y-125771982D01*
X225898571Y-126570268D02*
X226624285Y-126570268D01*
X226624285Y-125046268D01*
X225898571Y-125046268D01*
X224955142Y-125844554D02*
X224955142Y-126570268D01*
X225463142Y-125046268D02*
X224955142Y-125844554D01*
X224447142Y-125046268D01*
X224011714Y-126497697D02*
X223794000Y-126570268D01*
X223431142Y-126570268D01*
X223286000Y-126497697D01*
X223213428Y-126425125D01*
X223140857Y-126279982D01*
X223140857Y-126134840D01*
X223213428Y-125989697D01*
X223286000Y-125917125D01*
X223431142Y-125844554D01*
X223721428Y-125771982D01*
X223866571Y-125699411D01*
X223939142Y-125626840D01*
X224011714Y-125481697D01*
X224011714Y-125336554D01*
X223939142Y-125191411D01*
X223866571Y-125118840D01*
X223721428Y-125046268D01*
X223358571Y-125046268D01*
X223140857Y-125118840D01*
X222632857Y-125046268D02*
X222270000Y-126570268D01*
X221979714Y-125481697D01*
X221689428Y-126570268D01*
X221326571Y-125046268D01*
G04 #@! TO.C,K27*
X272654703Y-151120574D02*
X271273490Y-150476504D01*
X272286663Y-151909839D02*
X271773429Y-150949850D01*
X270905450Y-151265769D02*
X272062755Y-150844544D01*
X271287141Y-152164417D02*
X271072451Y-152624822D01*
X271703933Y-153159508D02*
X272010633Y-152501787D01*
X270629420Y-151857717D01*
X270322720Y-152515438D01*
X270647502Y-153707844D02*
X271305223Y-154014545D01*
X270138700Y-152910070D02*
X270647502Y-153707844D01*
X269709320Y-153830879D01*
X270840741Y-154838911D02*
X270814503Y-155066897D01*
X270661153Y-155395758D01*
X270534041Y-155496632D01*
X270437599Y-155531734D01*
X270275385Y-155536166D01*
X270143840Y-155474826D01*
X270042966Y-155347714D01*
X270007864Y-155251272D01*
X270003432Y-155089057D01*
X270060340Y-154795299D01*
X270055908Y-154633085D01*
X270020806Y-154536643D01*
X269919932Y-154409531D01*
X269788388Y-154348191D01*
X269626174Y-154352623D01*
X269529732Y-154387725D01*
X269402620Y-154488599D01*
X269249270Y-154817459D01*
X269223032Y-155045446D01*
X268942570Y-155475180D02*
X270170433Y-156448110D01*
X269061172Y-156251148D01*
X269925073Y-156974287D01*
X268390509Y-156659077D01*
G04 #@! TO.C,K28*
X277226181Y-153253915D02*
X275844968Y-152609845D01*
X276858141Y-154043180D02*
X276344907Y-153083191D01*
X275476928Y-153399110D02*
X276634233Y-152977885D01*
X275858619Y-154297758D02*
X275643929Y-154758163D01*
X276275411Y-155292849D02*
X276582111Y-154635128D01*
X275200898Y-153991058D01*
X274894198Y-154648779D01*
X275218980Y-155841185D02*
X275876701Y-156147886D01*
X274710178Y-155043411D02*
X275218980Y-155841185D01*
X274280798Y-155964220D01*
X275412219Y-156972252D02*
X275385981Y-157200238D01*
X275232631Y-157529099D01*
X275105519Y-157629973D01*
X275009077Y-157665075D01*
X274846863Y-157669507D01*
X274715318Y-157608167D01*
X274614444Y-157481055D01*
X274579342Y-157384613D01*
X274574910Y-157222398D01*
X274631818Y-156928640D01*
X274627386Y-156766426D01*
X274592284Y-156669984D01*
X274491410Y-156542872D01*
X274359866Y-156481532D01*
X274197652Y-156485964D01*
X274101210Y-156521066D01*
X273974098Y-156621940D01*
X273820748Y-156950800D01*
X273794510Y-157178787D01*
X273514048Y-157608521D02*
X274741911Y-158581451D01*
X273632650Y-158384489D01*
X274496551Y-159107628D01*
X272961987Y-158792418D01*
G04 #@! TO.C,K29*
X128138285Y-147509428D02*
X128138285Y-145985428D01*
X127267428Y-147509428D02*
X127920571Y-146638571D01*
X127267428Y-145985428D02*
X128138285Y-146856285D01*
X126614285Y-146711142D02*
X126106285Y-146711142D01*
X125888571Y-147509428D02*
X126614285Y-147509428D01*
X126614285Y-145985428D01*
X125888571Y-145985428D01*
X124945142Y-146783714D02*
X124945142Y-147509428D01*
X125453142Y-145985428D02*
X124945142Y-146783714D01*
X124437142Y-145985428D01*
X124001714Y-147436857D02*
X123784000Y-147509428D01*
X123421142Y-147509428D01*
X123276000Y-147436857D01*
X123203428Y-147364285D01*
X123130857Y-147219142D01*
X123130857Y-147074000D01*
X123203428Y-146928857D01*
X123276000Y-146856285D01*
X123421142Y-146783714D01*
X123711428Y-146711142D01*
X123856571Y-146638571D01*
X123929142Y-146566000D01*
X124001714Y-146420857D01*
X124001714Y-146275714D01*
X123929142Y-146130571D01*
X123856571Y-146058000D01*
X123711428Y-145985428D01*
X123348571Y-145985428D01*
X123130857Y-146058000D01*
X122622857Y-145985428D02*
X122260000Y-147509428D01*
X121969714Y-146420857D01*
X121679428Y-147509428D01*
X121316571Y-145985428D01*
G04 #@! TO.C,K30*
X151948285Y-147509428D02*
X151948285Y-145985428D01*
X151077428Y-147509428D02*
X151730571Y-146638571D01*
X151077428Y-145985428D02*
X151948285Y-146856285D01*
X150424285Y-146711142D02*
X149916285Y-146711142D01*
X149698571Y-147509428D02*
X150424285Y-147509428D01*
X150424285Y-145985428D01*
X149698571Y-145985428D01*
X148755142Y-146783714D02*
X148755142Y-147509428D01*
X149263142Y-145985428D02*
X148755142Y-146783714D01*
X148247142Y-145985428D01*
X147811714Y-147436857D02*
X147594000Y-147509428D01*
X147231142Y-147509428D01*
X147086000Y-147436857D01*
X147013428Y-147364285D01*
X146940857Y-147219142D01*
X146940857Y-147074000D01*
X147013428Y-146928857D01*
X147086000Y-146856285D01*
X147231142Y-146783714D01*
X147521428Y-146711142D01*
X147666571Y-146638571D01*
X147739142Y-146566000D01*
X147811714Y-146420857D01*
X147811714Y-146275714D01*
X147739142Y-146130571D01*
X147666571Y-146058000D01*
X147521428Y-145985428D01*
X147158571Y-145985428D01*
X146940857Y-146058000D01*
X146432857Y-145985428D02*
X146070000Y-147509428D01*
X145779714Y-146420857D01*
X145489428Y-147509428D01*
X145126571Y-145985428D01*
G04 #@! TO.C,K31*
X170998285Y-144329428D02*
X170998285Y-142805428D01*
X170127428Y-144329428D02*
X170780571Y-143458571D01*
X170127428Y-142805428D02*
X170998285Y-143676285D01*
X169474285Y-143531142D02*
X168966285Y-143531142D01*
X168748571Y-144329428D02*
X169474285Y-144329428D01*
X169474285Y-142805428D01*
X168748571Y-142805428D01*
X167805142Y-143603714D02*
X167805142Y-144329428D01*
X168313142Y-142805428D02*
X167805142Y-143603714D01*
X167297142Y-142805428D01*
X166861714Y-144256857D02*
X166644000Y-144329428D01*
X166281142Y-144329428D01*
X166136000Y-144256857D01*
X166063428Y-144184285D01*
X165990857Y-144039142D01*
X165990857Y-143894000D01*
X166063428Y-143748857D01*
X166136000Y-143676285D01*
X166281142Y-143603714D01*
X166571428Y-143531142D01*
X166716571Y-143458571D01*
X166789142Y-143386000D01*
X166861714Y-143240857D01*
X166861714Y-143095714D01*
X166789142Y-142950571D01*
X166716571Y-142878000D01*
X166571428Y-142805428D01*
X166208571Y-142805428D01*
X165990857Y-142878000D01*
X165482857Y-142805428D02*
X165120000Y-144329428D01*
X164829714Y-143240857D01*
X164539428Y-144329428D01*
X164176571Y-142805428D01*
G04 #@! TO.C,K32*
X190048285Y-142719428D02*
X190048285Y-141195428D01*
X189177428Y-142719428D02*
X189830571Y-141848571D01*
X189177428Y-141195428D02*
X190048285Y-142066285D01*
X188524285Y-141921142D02*
X188016285Y-141921142D01*
X187798571Y-142719428D02*
X188524285Y-142719428D01*
X188524285Y-141195428D01*
X187798571Y-141195428D01*
X186855142Y-141993714D02*
X186855142Y-142719428D01*
X187363142Y-141195428D02*
X186855142Y-141993714D01*
X186347142Y-141195428D01*
X185911714Y-142646857D02*
X185694000Y-142719428D01*
X185331142Y-142719428D01*
X185186000Y-142646857D01*
X185113428Y-142574285D01*
X185040857Y-142429142D01*
X185040857Y-142284000D01*
X185113428Y-142138857D01*
X185186000Y-142066285D01*
X185331142Y-141993714D01*
X185621428Y-141921142D01*
X185766571Y-141848571D01*
X185839142Y-141776000D01*
X185911714Y-141630857D01*
X185911714Y-141485714D01*
X185839142Y-141340571D01*
X185766571Y-141268000D01*
X185621428Y-141195428D01*
X185258571Y-141195428D01*
X185040857Y-141268000D01*
X184532857Y-141195428D02*
X184170000Y-142719428D01*
X183879714Y-141630857D01*
X183589428Y-142719428D01*
X183226571Y-141195428D01*
G04 #@! TO.C,K33*
X209098285Y-144299428D02*
X209098285Y-142775428D01*
X208227428Y-144299428D02*
X208880571Y-143428571D01*
X208227428Y-142775428D02*
X209098285Y-143646285D01*
X207574285Y-143501142D02*
X207066285Y-143501142D01*
X206848571Y-144299428D02*
X207574285Y-144299428D01*
X207574285Y-142775428D01*
X206848571Y-142775428D01*
X205905142Y-143573714D02*
X205905142Y-144299428D01*
X206413142Y-142775428D02*
X205905142Y-143573714D01*
X205397142Y-142775428D01*
X204961714Y-144226857D02*
X204744000Y-144299428D01*
X204381142Y-144299428D01*
X204236000Y-144226857D01*
X204163428Y-144154285D01*
X204090857Y-144009142D01*
X204090857Y-143864000D01*
X204163428Y-143718857D01*
X204236000Y-143646285D01*
X204381142Y-143573714D01*
X204671428Y-143501142D01*
X204816571Y-143428571D01*
X204889142Y-143356000D01*
X204961714Y-143210857D01*
X204961714Y-143065714D01*
X204889142Y-142920571D01*
X204816571Y-142848000D01*
X204671428Y-142775428D01*
X204308571Y-142775428D01*
X204090857Y-142848000D01*
X203582857Y-142775428D02*
X203220000Y-144299428D01*
X202929714Y-143210857D01*
X202639428Y-144299428D01*
X202276571Y-142775428D01*
G04 #@! TO.C,K34*
X228148285Y-145599428D02*
X228148285Y-144075428D01*
X227277428Y-145599428D02*
X227930571Y-144728571D01*
X227277428Y-144075428D02*
X228148285Y-144946285D01*
X226624285Y-144801142D02*
X226116285Y-144801142D01*
X225898571Y-145599428D02*
X226624285Y-145599428D01*
X226624285Y-144075428D01*
X225898571Y-144075428D01*
X224955142Y-144873714D02*
X224955142Y-145599428D01*
X225463142Y-144075428D02*
X224955142Y-144873714D01*
X224447142Y-144075428D01*
X224011714Y-145526857D02*
X223794000Y-145599428D01*
X223431142Y-145599428D01*
X223286000Y-145526857D01*
X223213428Y-145454285D01*
X223140857Y-145309142D01*
X223140857Y-145164000D01*
X223213428Y-145018857D01*
X223286000Y-144946285D01*
X223431142Y-144873714D01*
X223721428Y-144801142D01*
X223866571Y-144728571D01*
X223939142Y-144656000D01*
X224011714Y-144510857D01*
X224011714Y-144365714D01*
X223939142Y-144220571D01*
X223866571Y-144148000D01*
X223721428Y-144075428D01*
X223358571Y-144075428D01*
X223140857Y-144148000D01*
X222632857Y-144075428D02*
X222270000Y-145599428D01*
X221979714Y-144510857D01*
X221689428Y-145599428D01*
X221326571Y-144075428D01*
G04 #@! TO.C,K35*
X247198285Y-140839428D02*
X247198285Y-139315428D01*
X246327428Y-140839428D02*
X246980571Y-139968571D01*
X246327428Y-139315428D02*
X247198285Y-140186285D01*
X245674285Y-140041142D02*
X245166285Y-140041142D01*
X244948571Y-140839428D02*
X245674285Y-140839428D01*
X245674285Y-139315428D01*
X244948571Y-139315428D01*
X244005142Y-140113714D02*
X244005142Y-140839428D01*
X244513142Y-139315428D02*
X244005142Y-140113714D01*
X243497142Y-139315428D01*
X243061714Y-140766857D02*
X242844000Y-140839428D01*
X242481142Y-140839428D01*
X242336000Y-140766857D01*
X242263428Y-140694285D01*
X242190857Y-140549142D01*
X242190857Y-140404000D01*
X242263428Y-140258857D01*
X242336000Y-140186285D01*
X242481142Y-140113714D01*
X242771428Y-140041142D01*
X242916571Y-139968571D01*
X242989142Y-139896000D01*
X243061714Y-139750857D01*
X243061714Y-139605714D01*
X242989142Y-139460571D01*
X242916571Y-139388000D01*
X242771428Y-139315428D01*
X242408571Y-139315428D01*
X242190857Y-139388000D01*
X241682857Y-139315428D02*
X241320000Y-140839428D01*
X241029714Y-139750857D01*
X240739428Y-140839428D01*
X240376571Y-139315428D01*
G04 #@! TO.C,K36*
X281863614Y-176435734D02*
X280482401Y-175791664D01*
X281495574Y-177224999D02*
X280982340Y-176265010D01*
X280114361Y-176580929D02*
X281271666Y-176159704D01*
X280496052Y-177479577D02*
X280281362Y-177939982D01*
X280912844Y-178474668D02*
X281219544Y-177816947D01*
X279838331Y-177172877D01*
X279531631Y-177830598D01*
X279856413Y-179023004D02*
X280514134Y-179329705D01*
X279347611Y-178225230D02*
X279856413Y-179023004D01*
X278918231Y-179146039D01*
X280049652Y-180154071D02*
X280023414Y-180382057D01*
X279870064Y-180710918D01*
X279742952Y-180811792D01*
X279646510Y-180846894D01*
X279484296Y-180851326D01*
X279352751Y-180789986D01*
X279251877Y-180662874D01*
X279216775Y-180566432D01*
X279212343Y-180404217D01*
X279269251Y-180110459D01*
X279264819Y-179948245D01*
X279229717Y-179851803D01*
X279128843Y-179724691D01*
X278997299Y-179663351D01*
X278835085Y-179667783D01*
X278738643Y-179702885D01*
X278611531Y-179803759D01*
X278458181Y-180132619D01*
X278431943Y-180360606D01*
X278151481Y-180790340D02*
X279379344Y-181763270D01*
X278270083Y-181566308D01*
X279133984Y-182289447D01*
X277599420Y-181974237D01*
G04 #@! TO.C,K37*
X132898285Y-166559428D02*
X132898285Y-165035428D01*
X132027428Y-166559428D02*
X132680571Y-165688571D01*
X132027428Y-165035428D02*
X132898285Y-165906285D01*
X131374285Y-165761142D02*
X130866285Y-165761142D01*
X130648571Y-166559428D02*
X131374285Y-166559428D01*
X131374285Y-165035428D01*
X130648571Y-165035428D01*
X129705142Y-165833714D02*
X129705142Y-166559428D01*
X130213142Y-165035428D02*
X129705142Y-165833714D01*
X129197142Y-165035428D01*
X128761714Y-166486857D02*
X128544000Y-166559428D01*
X128181142Y-166559428D01*
X128036000Y-166486857D01*
X127963428Y-166414285D01*
X127890857Y-166269142D01*
X127890857Y-166124000D01*
X127963428Y-165978857D01*
X128036000Y-165906285D01*
X128181142Y-165833714D01*
X128471428Y-165761142D01*
X128616571Y-165688571D01*
X128689142Y-165616000D01*
X128761714Y-165470857D01*
X128761714Y-165325714D01*
X128689142Y-165180571D01*
X128616571Y-165108000D01*
X128471428Y-165035428D01*
X128108571Y-165035428D01*
X127890857Y-165108000D01*
X127382857Y-165035428D02*
X127020000Y-166559428D01*
X126729714Y-165470857D01*
X126439428Y-166559428D01*
X126076571Y-165035428D01*
G04 #@! TO.C,K38*
X151948285Y-166559428D02*
X151948285Y-165035428D01*
X151077428Y-166559428D02*
X151730571Y-165688571D01*
X151077428Y-165035428D02*
X151948285Y-165906285D01*
X150424285Y-165761142D02*
X149916285Y-165761142D01*
X149698571Y-166559428D02*
X150424285Y-166559428D01*
X150424285Y-165035428D01*
X149698571Y-165035428D01*
X148755142Y-165833714D02*
X148755142Y-166559428D01*
X149263142Y-165035428D02*
X148755142Y-165833714D01*
X148247142Y-165035428D01*
X147811714Y-166486857D02*
X147594000Y-166559428D01*
X147231142Y-166559428D01*
X147086000Y-166486857D01*
X147013428Y-166414285D01*
X146940857Y-166269142D01*
X146940857Y-166124000D01*
X147013428Y-165978857D01*
X147086000Y-165906285D01*
X147231142Y-165833714D01*
X147521428Y-165761142D01*
X147666571Y-165688571D01*
X147739142Y-165616000D01*
X147811714Y-165470857D01*
X147811714Y-165325714D01*
X147739142Y-165180571D01*
X147666571Y-165108000D01*
X147521428Y-165035428D01*
X147158571Y-165035428D01*
X146940857Y-165108000D01*
X146432857Y-165035428D02*
X146070000Y-166559428D01*
X145779714Y-165470857D01*
X145489428Y-166559428D01*
X145126571Y-165035428D01*
G04 #@! TO.C,K39*
X170998285Y-163359428D02*
X170998285Y-161835428D01*
X170127428Y-163359428D02*
X170780571Y-162488571D01*
X170127428Y-161835428D02*
X170998285Y-162706285D01*
X169474285Y-162561142D02*
X168966285Y-162561142D01*
X168748571Y-163359428D02*
X169474285Y-163359428D01*
X169474285Y-161835428D01*
X168748571Y-161835428D01*
X167805142Y-162633714D02*
X167805142Y-163359428D01*
X168313142Y-161835428D02*
X167805142Y-162633714D01*
X167297142Y-161835428D01*
X166861714Y-163286857D02*
X166644000Y-163359428D01*
X166281142Y-163359428D01*
X166136000Y-163286857D01*
X166063428Y-163214285D01*
X165990857Y-163069142D01*
X165990857Y-162924000D01*
X166063428Y-162778857D01*
X166136000Y-162706285D01*
X166281142Y-162633714D01*
X166571428Y-162561142D01*
X166716571Y-162488571D01*
X166789142Y-162416000D01*
X166861714Y-162270857D01*
X166861714Y-162125714D01*
X166789142Y-161980571D01*
X166716571Y-161908000D01*
X166571428Y-161835428D01*
X166208571Y-161835428D01*
X165990857Y-161908000D01*
X165482857Y-161835428D02*
X165120000Y-163359428D01*
X164829714Y-162270857D01*
X164539428Y-163359428D01*
X164176571Y-161835428D01*
G04 #@! TO.C,K40*
X190048285Y-161759428D02*
X190048285Y-160235428D01*
X189177428Y-161759428D02*
X189830571Y-160888571D01*
X189177428Y-160235428D02*
X190048285Y-161106285D01*
X188524285Y-160961142D02*
X188016285Y-160961142D01*
X187798571Y-161759428D02*
X188524285Y-161759428D01*
X188524285Y-160235428D01*
X187798571Y-160235428D01*
X186855142Y-161033714D02*
X186855142Y-161759428D01*
X187363142Y-160235428D02*
X186855142Y-161033714D01*
X186347142Y-160235428D01*
X185911714Y-161686857D02*
X185694000Y-161759428D01*
X185331142Y-161759428D01*
X185186000Y-161686857D01*
X185113428Y-161614285D01*
X185040857Y-161469142D01*
X185040857Y-161324000D01*
X185113428Y-161178857D01*
X185186000Y-161106285D01*
X185331142Y-161033714D01*
X185621428Y-160961142D01*
X185766571Y-160888571D01*
X185839142Y-160816000D01*
X185911714Y-160670857D01*
X185911714Y-160525714D01*
X185839142Y-160380571D01*
X185766571Y-160308000D01*
X185621428Y-160235428D01*
X185258571Y-160235428D01*
X185040857Y-160308000D01*
X184532857Y-160235428D02*
X184170000Y-161759428D01*
X183879714Y-160670857D01*
X183589428Y-161759428D01*
X183226571Y-160235428D01*
G04 #@! TO.C,K41*
X209098285Y-163339428D02*
X209098285Y-161815428D01*
X208227428Y-163339428D02*
X208880571Y-162468571D01*
X208227428Y-161815428D02*
X209098285Y-162686285D01*
X207574285Y-162541142D02*
X207066285Y-162541142D01*
X206848571Y-163339428D02*
X207574285Y-163339428D01*
X207574285Y-161815428D01*
X206848571Y-161815428D01*
X205905142Y-162613714D02*
X205905142Y-163339428D01*
X206413142Y-161815428D02*
X205905142Y-162613714D01*
X205397142Y-161815428D01*
X204961714Y-163266857D02*
X204744000Y-163339428D01*
X204381142Y-163339428D01*
X204236000Y-163266857D01*
X204163428Y-163194285D01*
X204090857Y-163049142D01*
X204090857Y-162904000D01*
X204163428Y-162758857D01*
X204236000Y-162686285D01*
X204381142Y-162613714D01*
X204671428Y-162541142D01*
X204816571Y-162468571D01*
X204889142Y-162396000D01*
X204961714Y-162250857D01*
X204961714Y-162105714D01*
X204889142Y-161960571D01*
X204816571Y-161888000D01*
X204671428Y-161815428D01*
X204308571Y-161815428D01*
X204090857Y-161888000D01*
X203582857Y-161815428D02*
X203220000Y-163339428D01*
X202929714Y-162250857D01*
X202639428Y-163339428D01*
X202276571Y-161815428D01*
G04 #@! TO.C,K42*
X243332245Y-168932586D02*
X241951032Y-168288516D01*
X242964205Y-169721851D02*
X242450971Y-168761862D01*
X241582992Y-169077781D02*
X242740297Y-168656556D01*
X241964683Y-169976429D02*
X241749993Y-170436834D01*
X242381475Y-170971520D02*
X242688175Y-170313799D01*
X241306962Y-169669729D01*
X241000262Y-170327450D01*
X241325044Y-171519856D02*
X241982765Y-171826557D01*
X240816242Y-170722082D02*
X241325044Y-171519856D01*
X240386862Y-171642891D01*
X241518283Y-172650923D02*
X241492045Y-172878909D01*
X241338695Y-173207770D01*
X241211583Y-173308644D01*
X241115141Y-173343746D01*
X240952927Y-173348178D01*
X240821382Y-173286838D01*
X240720508Y-173159726D01*
X240685406Y-173063284D01*
X240680974Y-172901069D01*
X240737882Y-172607311D01*
X240733450Y-172445097D01*
X240698348Y-172348655D01*
X240597474Y-172221543D01*
X240465930Y-172160203D01*
X240303716Y-172164635D01*
X240207274Y-172199737D01*
X240080162Y-172300611D01*
X239926812Y-172629471D01*
X239900574Y-172857458D01*
X239620112Y-173287192D02*
X240847975Y-174260122D01*
X239738714Y-174063160D01*
X240602615Y-174786299D01*
X239068051Y-174471089D01*
G04 #@! TO.C,K43*
X260602889Y-176950766D02*
X259221676Y-176306696D01*
X260234849Y-177740031D02*
X259721615Y-176780042D01*
X258853636Y-177095961D02*
X260010941Y-176674736D01*
X259235327Y-177994609D02*
X259020637Y-178455014D01*
X259652119Y-178989700D02*
X259958819Y-178331979D01*
X258577606Y-177687909D01*
X258270906Y-178345630D01*
X258595688Y-179538036D02*
X259253409Y-179844737D01*
X258086886Y-178740262D02*
X258595688Y-179538036D01*
X257657506Y-179661071D01*
X258788927Y-180669103D02*
X258762689Y-180897089D01*
X258609339Y-181225950D01*
X258482227Y-181326824D01*
X258385785Y-181361926D01*
X258223571Y-181366358D01*
X258092026Y-181305018D01*
X257991152Y-181177906D01*
X257956050Y-181081464D01*
X257951618Y-180919249D01*
X258008526Y-180625491D01*
X258004094Y-180463277D01*
X257968992Y-180366835D01*
X257868118Y-180239723D01*
X257736574Y-180178383D01*
X257574360Y-180182815D01*
X257477918Y-180217917D01*
X257350806Y-180318791D01*
X257197456Y-180647651D01*
X257171218Y-180875638D01*
X256890756Y-181305372D02*
X258118619Y-182278302D01*
X257009358Y-182081340D01*
X257873259Y-182804479D01*
X256338695Y-182489269D01*
G04 #@! TO.C,K44*
X273830760Y-193675366D02*
X272449547Y-193031296D01*
X273462720Y-194464631D02*
X272949486Y-193504642D01*
X272081507Y-193820561D02*
X273238812Y-193399336D01*
X272463198Y-194719209D02*
X272248508Y-195179614D01*
X272879990Y-195714300D02*
X273186690Y-195056579D01*
X271805477Y-194412509D01*
X271498777Y-195070230D01*
X271823559Y-196262636D02*
X272481280Y-196569337D01*
X271314757Y-195464862D02*
X271823559Y-196262636D01*
X270885377Y-196385671D01*
X272016798Y-197393703D02*
X271990560Y-197621689D01*
X271837210Y-197950550D01*
X271710098Y-198051424D01*
X271613656Y-198086526D01*
X271451442Y-198090958D01*
X271319897Y-198029618D01*
X271219023Y-197902506D01*
X271183921Y-197806064D01*
X271179489Y-197643849D01*
X271236397Y-197350091D01*
X271231965Y-197187877D01*
X271196863Y-197091435D01*
X271095989Y-196964323D01*
X270964445Y-196902983D01*
X270802231Y-196907415D01*
X270705789Y-196942517D01*
X270578677Y-197043391D01*
X270425327Y-197372251D01*
X270399089Y-197600238D01*
X270118627Y-198029972D02*
X271346490Y-199002902D01*
X270237229Y-198805940D01*
X271101130Y-199529079D01*
X269566566Y-199213869D01*
G04 #@! TD*
M02*
