G04 #@! TF.GenerationSoftware,KiCad,Pcbnew,(5.0.1)-3*
G04 #@! TF.CreationDate,2018-11-26T18:30:17-08:00*
G04 #@! TF.ProjectId,ErgoMaxLeft,4572676F4D61784C6566742E6B696361,rev?*
G04 #@! TF.SameCoordinates,Original*
G04 #@! TF.FileFunction,Legend,Top*
G04 #@! TF.FilePolarity,Positive*
%FSLAX46Y46*%
G04 Gerber Fmt 4.6, Leading zero omitted, Abs format (unit mm)*
G04 Created by KiCad (PCBNEW (5.0.1)-3) date 26/11/2018 18:30:17*
%MOMM*%
%LPD*%
G01*
G04 APERTURE LIST*
%ADD10C,0.381000*%
%ADD11C,0.150000*%
%ADD12C,0.304800*%
%ADD13C,0.500000*%
G04 APERTURE END LIST*
D10*
G04 #@! TO.C,K23*
X173660000Y-124590240D02*
X174660000Y-124590240D01*
X174660000Y-124590240D02*
X174660000Y-123590240D01*
X160660000Y-124590240D02*
X161660000Y-124590240D01*
X160660000Y-123590240D02*
X160660000Y-124590240D01*
X160660000Y-110590240D02*
X160660000Y-111590240D01*
X161660000Y-110590240D02*
X160660000Y-110590240D01*
X174660000Y-110590240D02*
X173660000Y-110590240D01*
X174660000Y-111590240D02*
X174660000Y-110590240D01*
G04 #@! TO.C,K22*
X154601600Y-127782040D02*
X155601600Y-127782040D01*
X155601600Y-127782040D02*
X155601600Y-126782040D01*
X141601600Y-127782040D02*
X142601600Y-127782040D01*
X141601600Y-126782040D02*
X141601600Y-127782040D01*
X141601600Y-113782040D02*
X141601600Y-114782040D01*
X142601600Y-113782040D02*
X141601600Y-113782040D01*
X155601600Y-113782040D02*
X154601600Y-113782040D01*
X155601600Y-114782040D02*
X155601600Y-113782040D01*
G04 #@! TO.C,K21*
X130805400Y-127773840D02*
X131805400Y-127773840D01*
X131805400Y-127773840D02*
X131805400Y-126773840D01*
X117805400Y-127773840D02*
X118805400Y-127773840D01*
X117805400Y-126773840D02*
X117805400Y-127773840D01*
X117805400Y-113773840D02*
X117805400Y-114773840D01*
X118805400Y-113773840D02*
X117805400Y-113773840D01*
X131805400Y-113773840D02*
X130805400Y-113773840D01*
X131805400Y-114773840D02*
X131805400Y-113773840D01*
G04 #@! TO.C,K20*
X249860000Y-111595640D02*
X250860000Y-111595640D01*
X250860000Y-111595640D02*
X250860000Y-110595640D01*
X236860000Y-111595640D02*
X237860000Y-111595640D01*
X236860000Y-110595640D02*
X236860000Y-111595640D01*
X236860000Y-97595640D02*
X236860000Y-98595640D01*
X237860000Y-97595640D02*
X236860000Y-97595640D01*
X250860000Y-97595640D02*
X249860000Y-97595640D01*
X250860000Y-98595640D02*
X250860000Y-97595640D01*
G04 #@! TO.C,K19*
X230767600Y-106836040D02*
X231767600Y-106836040D01*
X231767600Y-106836040D02*
X231767600Y-105836040D01*
X217767600Y-106836040D02*
X218767600Y-106836040D01*
X217767600Y-105836040D02*
X217767600Y-106836040D01*
X217767600Y-92836040D02*
X217767600Y-93836040D01*
X218767600Y-92836040D02*
X217767600Y-92836040D01*
X231767600Y-92836040D02*
X230767600Y-92836040D01*
X231767600Y-93836040D02*
X231767600Y-92836040D01*
G04 #@! TO.C,K18*
X211734440Y-105525260D02*
X212734440Y-105525260D01*
X212734440Y-105525260D02*
X212734440Y-104525260D01*
X198734440Y-105525260D02*
X199734440Y-105525260D01*
X198734440Y-104525260D02*
X198734440Y-105525260D01*
X198734440Y-91525260D02*
X198734440Y-92525260D01*
X199734440Y-91525260D02*
X198734440Y-91525260D01*
X212734440Y-91525260D02*
X211734440Y-91525260D01*
X212734440Y-92525260D02*
X212734440Y-91525260D01*
G04 #@! TO.C,K17*
X192689040Y-103939540D02*
X193689040Y-103939540D01*
X193689040Y-103939540D02*
X193689040Y-102939540D01*
X179689040Y-103939540D02*
X180689040Y-103939540D01*
X179689040Y-102939540D02*
X179689040Y-103939540D01*
X179689040Y-89939540D02*
X179689040Y-90939540D01*
X180689040Y-89939540D02*
X179689040Y-89939540D01*
X193689040Y-89939540D02*
X192689040Y-89939540D01*
X193689040Y-90939540D02*
X193689040Y-89939540D01*
G04 #@! TO.C,K16*
X173644600Y-105542620D02*
X174644600Y-105542620D01*
X174644600Y-105542620D02*
X174644600Y-104542620D01*
X160644600Y-105542620D02*
X161644600Y-105542620D01*
X160644600Y-104542620D02*
X160644600Y-105542620D01*
X160644600Y-91542620D02*
X160644600Y-92542620D01*
X161644600Y-91542620D02*
X160644600Y-91542620D01*
X174644600Y-91542620D02*
X173644600Y-91542620D01*
X174644600Y-92542620D02*
X174644600Y-91542620D01*
G04 #@! TO.C,K15*
X154595860Y-108743340D02*
X155595860Y-108743340D01*
X155595860Y-108743340D02*
X155595860Y-107743340D01*
X141595860Y-108743340D02*
X142595860Y-108743340D01*
X141595860Y-107743340D02*
X141595860Y-108743340D01*
X141595860Y-94743340D02*
X141595860Y-95743340D01*
X142595860Y-94743340D02*
X141595860Y-94743340D01*
X155595860Y-94743340D02*
X154595860Y-94743340D01*
X155595860Y-95743340D02*
X155595860Y-94743340D01*
G04 #@! TO.C,K14*
X130795080Y-108733740D02*
X131795080Y-108733740D01*
X131795080Y-108733740D02*
X131795080Y-107733740D01*
X117795080Y-108733740D02*
X118795080Y-108733740D01*
X117795080Y-107733740D02*
X117795080Y-108733740D01*
X117795080Y-94733740D02*
X117795080Y-95733740D01*
X118795080Y-94733740D02*
X117795080Y-94733740D01*
X131795080Y-94733740D02*
X130795080Y-94733740D01*
X131795080Y-95733740D02*
X131795080Y-94733740D01*
G04 #@! TO.C,K24*
X192710000Y-122987240D02*
X193710000Y-122987240D01*
X193710000Y-122987240D02*
X193710000Y-121987240D01*
X179710000Y-122987240D02*
X180710000Y-122987240D01*
X179710000Y-121987240D02*
X179710000Y-122987240D01*
X179710000Y-108987240D02*
X179710000Y-109987240D01*
X180710000Y-108987240D02*
X179710000Y-108987240D01*
X193710000Y-108987240D02*
X192710000Y-108987240D01*
X193710000Y-109987240D02*
X193710000Y-108987240D01*
G04 #@! TO.C,K12*
X230810000Y-87783520D02*
X231810000Y-87783520D01*
X231810000Y-87783520D02*
X231810000Y-86783520D01*
X217810000Y-87783520D02*
X218810000Y-87783520D01*
X217810000Y-86783520D02*
X217810000Y-87783520D01*
X217810000Y-73783520D02*
X217810000Y-74783520D01*
X218810000Y-73783520D02*
X217810000Y-73783520D01*
X231810000Y-73783520D02*
X230810000Y-73783520D01*
X231810000Y-74783520D02*
X231810000Y-73783520D01*
G04 #@! TO.C,K11*
X211734600Y-86487420D02*
X212734600Y-86487420D01*
X212734600Y-86487420D02*
X212734600Y-85487420D01*
X198734600Y-86487420D02*
X199734600Y-86487420D01*
X198734600Y-85487420D02*
X198734600Y-86487420D01*
X198734600Y-72487420D02*
X198734600Y-73487420D01*
X199734600Y-72487420D02*
X198734600Y-72487420D01*
X212734600Y-72487420D02*
X211734600Y-72487420D01*
X212734600Y-73487420D02*
X212734600Y-72487420D01*
G04 #@! TO.C,K10*
X192692700Y-84895080D02*
X193692700Y-84895080D01*
X193692700Y-84895080D02*
X193692700Y-83895080D01*
X179692700Y-84895080D02*
X180692700Y-84895080D01*
X179692700Y-83895080D02*
X179692700Y-84895080D01*
X179692700Y-70895080D02*
X179692700Y-71895080D01*
X180692700Y-70895080D02*
X179692700Y-70895080D01*
X193692700Y-70895080D02*
X192692700Y-70895080D01*
X193692700Y-71895080D02*
X193692700Y-70895080D01*
G04 #@! TO.C,K9*
X173647100Y-86500640D02*
X174647100Y-86500640D01*
X174647100Y-86500640D02*
X174647100Y-85500640D01*
X160647100Y-86500640D02*
X161647100Y-86500640D01*
X160647100Y-85500640D02*
X160647100Y-86500640D01*
X160647100Y-72500640D02*
X160647100Y-73500640D01*
X161647100Y-72500640D02*
X160647100Y-72500640D01*
X174647100Y-72500640D02*
X173647100Y-72500640D01*
X174647100Y-73500640D02*
X174647100Y-72500640D01*
G04 #@! TO.C,K8*
X154597100Y-89690640D02*
X155597100Y-89690640D01*
X155597100Y-89690640D02*
X155597100Y-88690640D01*
X141597100Y-89690640D02*
X142597100Y-89690640D01*
X141597100Y-88690640D02*
X141597100Y-89690640D01*
X141597100Y-75690640D02*
X141597100Y-76690640D01*
X142597100Y-75690640D02*
X141597100Y-75690640D01*
X155597100Y-75690640D02*
X154597100Y-75690640D01*
X155597100Y-76690640D02*
X155597100Y-75690640D01*
G04 #@! TO.C,K7*
X130791680Y-89690640D02*
X131791680Y-89690640D01*
X131791680Y-89690640D02*
X131791680Y-88690640D01*
X117791680Y-89690640D02*
X118791680Y-89690640D01*
X117791680Y-88690640D02*
X117791680Y-89690640D01*
X117791680Y-75690640D02*
X117791680Y-76690640D01*
X118791680Y-75690640D02*
X117791680Y-75690640D01*
X131791680Y-75690640D02*
X130791680Y-75690640D01*
X131791680Y-76690640D02*
X131791680Y-75690640D01*
G04 #@! TO.C,K6*
X249860000Y-68735640D02*
X250860000Y-68735640D01*
X250860000Y-68735640D02*
X250860000Y-67735640D01*
X236860000Y-68735640D02*
X237860000Y-68735640D01*
X236860000Y-67735640D02*
X236860000Y-68735640D01*
X236860000Y-54735640D02*
X236860000Y-55735640D01*
X237860000Y-54735640D02*
X236860000Y-54735640D01*
X250860000Y-54735640D02*
X249860000Y-54735640D01*
X250860000Y-55735640D02*
X250860000Y-54735640D01*
G04 #@! TO.C,K5*
X230767751Y-68733640D02*
X231767751Y-68733640D01*
X231767751Y-68733640D02*
X231767751Y-67733640D01*
X217767751Y-68733640D02*
X218767751Y-68733640D01*
X217767751Y-67733640D02*
X217767751Y-68733640D01*
X217767751Y-54733640D02*
X217767751Y-55733640D01*
X218767751Y-54733640D02*
X217767751Y-54733640D01*
X231767751Y-54733640D02*
X230767751Y-54733640D01*
X231767751Y-55733640D02*
X231767751Y-54733640D01*
G04 #@! TO.C,K4*
X211730000Y-67433640D02*
X212730000Y-67433640D01*
X212730000Y-67433640D02*
X212730000Y-66433640D01*
X198730000Y-67433640D02*
X199730000Y-67433640D01*
X198730000Y-66433640D02*
X198730000Y-67433640D01*
X198730000Y-53433640D02*
X198730000Y-54433640D01*
X199730000Y-53433640D02*
X198730000Y-53433640D01*
X212730000Y-53433640D02*
X211730000Y-53433640D01*
X212730000Y-54433640D02*
X212730000Y-53433640D01*
G04 #@! TO.C,K3*
X192690000Y-65849640D02*
X193690000Y-65849640D01*
X193690000Y-65849640D02*
X193690000Y-64849640D01*
X179690000Y-65849640D02*
X180690000Y-65849640D01*
X179690000Y-64849640D02*
X179690000Y-65849640D01*
X179690000Y-51849640D02*
X179690000Y-52849640D01*
X180690000Y-51849640D02*
X179690000Y-51849640D01*
X193690000Y-51849640D02*
X192690000Y-51849640D01*
X193690000Y-52849640D02*
X193690000Y-51849640D01*
G04 #@! TO.C,K1*
X154600000Y-70653640D02*
X155600000Y-70653640D01*
X155600000Y-70653640D02*
X155600000Y-69653640D01*
X141600000Y-70653640D02*
X142600000Y-70653640D01*
X141600000Y-69653640D02*
X141600000Y-70653640D01*
X141600000Y-56653640D02*
X141600000Y-57653640D01*
X142600000Y-56653640D02*
X141600000Y-56653640D01*
X155600000Y-56653640D02*
X154600000Y-56653640D01*
X155600000Y-57653640D02*
X155600000Y-56653640D01*
G04 #@! TO.C,K13*
X249860000Y-87775940D02*
X250860000Y-87775940D01*
X250860000Y-87775940D02*
X250860000Y-86775940D01*
X236860000Y-87775940D02*
X237860000Y-87775940D01*
X236860000Y-86775940D02*
X236860000Y-87775940D01*
X236860000Y-73775940D02*
X236860000Y-74775940D01*
X237860000Y-73775940D02*
X236860000Y-73775940D01*
X250860000Y-73775940D02*
X249860000Y-73775940D01*
X250860000Y-74775940D02*
X250860000Y-73775940D01*
G04 #@! TO.C,K44*
X274330815Y-190971669D02*
X274753433Y-190065361D01*
X274753433Y-190065361D02*
X273847126Y-189642743D01*
X268836778Y-202753670D02*
X269259396Y-201847363D01*
X267930470Y-202331052D02*
X268836778Y-202753670D01*
X256148469Y-196837015D02*
X257054776Y-197259633D01*
X256571087Y-195930707D02*
X256148469Y-196837015D01*
X262065124Y-184148706D02*
X261642506Y-185055013D01*
X262971432Y-184571324D02*
X262065124Y-184148706D01*
G04 #@! TO.C,K43*
X261102944Y-174247069D02*
X261525562Y-173340761D01*
X261525562Y-173340761D02*
X260619255Y-172918143D01*
X255608907Y-186029070D02*
X256031525Y-185122763D01*
X254702599Y-185606452D02*
X255608907Y-186029070D01*
X242920598Y-180112415D02*
X243826905Y-180535033D01*
X243343216Y-179206107D02*
X242920598Y-180112415D01*
X248837253Y-167424106D02*
X248414635Y-168330413D01*
X249743561Y-167846724D02*
X248837253Y-167424106D01*
G04 #@! TO.C,K42*
X243832300Y-166228889D02*
X244254918Y-165322581D01*
X244254918Y-165322581D02*
X243348611Y-164899963D01*
X238338263Y-178010890D02*
X238760881Y-177104583D01*
X237431955Y-177588272D02*
X238338263Y-178010890D01*
X225649954Y-172094235D02*
X226556261Y-172516853D01*
X226072572Y-171187927D02*
X225649954Y-172094235D01*
X231566609Y-159405926D02*
X231143991Y-160312233D01*
X232472917Y-159828544D02*
X231566609Y-159405926D01*
G04 #@! TO.C,K41*
X211760000Y-162650000D02*
X212760000Y-162650000D01*
X212760000Y-162650000D02*
X212760000Y-161650000D01*
X198760000Y-162650000D02*
X199760000Y-162650000D01*
X198760000Y-161650000D02*
X198760000Y-162650000D01*
X198760000Y-148650000D02*
X198760000Y-149650000D01*
X199760000Y-148650000D02*
X198760000Y-148650000D01*
X212760000Y-148650000D02*
X211760000Y-148650000D01*
X212760000Y-149650000D02*
X212760000Y-148650000D01*
G04 #@! TO.C,K40*
X192710000Y-161070000D02*
X193710000Y-161070000D01*
X193710000Y-161070000D02*
X193710000Y-160070000D01*
X179710000Y-161070000D02*
X180710000Y-161070000D01*
X179710000Y-160070000D02*
X179710000Y-161070000D01*
X179710000Y-147070000D02*
X179710000Y-148070000D01*
X180710000Y-147070000D02*
X179710000Y-147070000D01*
X193710000Y-147070000D02*
X192710000Y-147070000D01*
X193710000Y-148070000D02*
X193710000Y-147070000D01*
G04 #@! TO.C,K39*
X173660000Y-162670000D02*
X174660000Y-162670000D01*
X174660000Y-162670000D02*
X174660000Y-161670000D01*
X160660000Y-162670000D02*
X161660000Y-162670000D01*
X160660000Y-161670000D02*
X160660000Y-162670000D01*
X160660000Y-148670000D02*
X160660000Y-149670000D01*
X161660000Y-148670000D02*
X160660000Y-148670000D01*
X174660000Y-148670000D02*
X173660000Y-148670000D01*
X174660000Y-149670000D02*
X174660000Y-148670000D01*
G04 #@! TO.C,K38*
X154610000Y-165870000D02*
X155610000Y-165870000D01*
X155610000Y-165870000D02*
X155610000Y-164870000D01*
X141610000Y-165870000D02*
X142610000Y-165870000D01*
X141610000Y-164870000D02*
X141610000Y-165870000D01*
X141610000Y-151870000D02*
X141610000Y-152870000D01*
X142610000Y-151870000D02*
X141610000Y-151870000D01*
X155610000Y-151870000D02*
X154610000Y-151870000D01*
X155610000Y-152870000D02*
X155610000Y-151870000D01*
G04 #@! TO.C,K37*
X135560000Y-165870000D02*
X136560000Y-165870000D01*
X136560000Y-165870000D02*
X136560000Y-164870000D01*
X122560000Y-165870000D02*
X123560000Y-165870000D01*
X122560000Y-164870000D02*
X122560000Y-165870000D01*
X122560000Y-151870000D02*
X122560000Y-152870000D01*
X123560000Y-151870000D02*
X122560000Y-151870000D01*
X136560000Y-151870000D02*
X135560000Y-151870000D01*
X136560000Y-152870000D02*
X136560000Y-151870000D01*
G04 #@! TO.C,K36*
X282363669Y-173732037D02*
X282786287Y-172825729D01*
X282786287Y-172825729D02*
X281879980Y-172403111D01*
X276869632Y-185514038D02*
X277292250Y-184607731D01*
X275963324Y-185091420D02*
X276869632Y-185514038D01*
X264181323Y-179597383D02*
X265087630Y-180020001D01*
X264603941Y-178691075D02*
X264181323Y-179597383D01*
X270097978Y-166909074D02*
X269675360Y-167815381D01*
X271004286Y-167331692D02*
X270097978Y-166909074D01*
G04 #@! TO.C,K2*
X173650000Y-67447040D02*
X174650000Y-67447040D01*
X174650000Y-67447040D02*
X174650000Y-66447040D01*
X160650000Y-67447040D02*
X161650000Y-67447040D01*
X160650000Y-66447040D02*
X160650000Y-67447040D01*
X160650000Y-53447040D02*
X160650000Y-54447040D01*
X161650000Y-53447040D02*
X160650000Y-53447040D01*
X174650000Y-53447040D02*
X173650000Y-53447040D01*
X174650000Y-54447040D02*
X174650000Y-53447040D01*
G04 #@! TO.C,K34*
X230810000Y-144910000D02*
X231810000Y-144910000D01*
X231810000Y-144910000D02*
X231810000Y-143910000D01*
X217810000Y-144910000D02*
X218810000Y-144910000D01*
X217810000Y-143910000D02*
X217810000Y-144910000D01*
X217810000Y-130910000D02*
X217810000Y-131910000D01*
X218810000Y-130910000D02*
X217810000Y-130910000D01*
X231810000Y-130910000D02*
X230810000Y-130910000D01*
X231810000Y-131910000D02*
X231810000Y-130910000D01*
G04 #@! TO.C,K33*
X211760000Y-143610000D02*
X212760000Y-143610000D01*
X212760000Y-143610000D02*
X212760000Y-142610000D01*
X198760000Y-143610000D02*
X199760000Y-143610000D01*
X198760000Y-142610000D02*
X198760000Y-143610000D01*
X198760000Y-129610000D02*
X198760000Y-130610000D01*
X199760000Y-129610000D02*
X198760000Y-129610000D01*
X212760000Y-129610000D02*
X211760000Y-129610000D01*
X212760000Y-130610000D02*
X212760000Y-129610000D01*
G04 #@! TO.C,K32*
X192710000Y-142030000D02*
X193710000Y-142030000D01*
X193710000Y-142030000D02*
X193710000Y-141030000D01*
X179710000Y-142030000D02*
X180710000Y-142030000D01*
X179710000Y-141030000D02*
X179710000Y-142030000D01*
X179710000Y-128030000D02*
X179710000Y-129030000D01*
X180710000Y-128030000D02*
X179710000Y-128030000D01*
X193710000Y-128030000D02*
X192710000Y-128030000D01*
X193710000Y-129030000D02*
X193710000Y-128030000D01*
G04 #@! TO.C,K31*
X173660000Y-143640000D02*
X174660000Y-143640000D01*
X174660000Y-143640000D02*
X174660000Y-142640000D01*
X160660000Y-143640000D02*
X161660000Y-143640000D01*
X160660000Y-142640000D02*
X160660000Y-143640000D01*
X160660000Y-129640000D02*
X160660000Y-130640000D01*
X161660000Y-129640000D02*
X160660000Y-129640000D01*
X174660000Y-129640000D02*
X173660000Y-129640000D01*
X174660000Y-130640000D02*
X174660000Y-129640000D01*
G04 #@! TO.C,K30*
X154610000Y-146820000D02*
X155610000Y-146820000D01*
X155610000Y-146820000D02*
X155610000Y-145820000D01*
X141610000Y-146820000D02*
X142610000Y-146820000D01*
X141610000Y-145820000D02*
X141610000Y-146820000D01*
X141610000Y-132820000D02*
X141610000Y-133820000D01*
X142610000Y-132820000D02*
X141610000Y-132820000D01*
X155610000Y-132820000D02*
X154610000Y-132820000D01*
X155610000Y-133820000D02*
X155610000Y-132820000D01*
G04 #@! TO.C,K29*
X130800000Y-146820000D02*
X131800000Y-146820000D01*
X131800000Y-146820000D02*
X131800000Y-145820000D01*
X117800000Y-146820000D02*
X118800000Y-146820000D01*
X117800000Y-145820000D02*
X117800000Y-146820000D01*
X117800000Y-132820000D02*
X117800000Y-133820000D01*
X118800000Y-132820000D02*
X117800000Y-132820000D01*
X131800000Y-132820000D02*
X130800000Y-132820000D01*
X131800000Y-133820000D02*
X131800000Y-132820000D01*
G04 #@! TO.C,K28*
X290414546Y-156466874D02*
X290837164Y-155560566D01*
X290837164Y-155560566D02*
X289930857Y-155137948D01*
X284920509Y-168248875D02*
X285343127Y-167342568D01*
X284014201Y-167826257D02*
X284920509Y-168248875D01*
X272232200Y-162332220D02*
X273138507Y-162754838D01*
X272654818Y-161425912D02*
X272232200Y-162332220D01*
X278148855Y-149643911D02*
X277726237Y-150550218D01*
X279055163Y-150066529D02*
X278148855Y-149643911D01*
G04 #@! TO.C,K27*
X273154758Y-148416877D02*
X273577376Y-147510569D01*
X273577376Y-147510569D02*
X272671069Y-147087951D01*
X267660721Y-160198878D02*
X268083339Y-159292571D01*
X266754413Y-159776260D02*
X267660721Y-160198878D01*
X254972412Y-154282223D02*
X255878719Y-154704841D01*
X255395030Y-153375915D02*
X254972412Y-154282223D01*
X260889067Y-141593914D02*
X260466449Y-142500221D01*
X261795375Y-142016532D02*
X260889067Y-141593914D01*
G04 #@! TO.C,K25*
X211760000Y-124570000D02*
X212760000Y-124570000D01*
X212760000Y-124570000D02*
X212760000Y-123570000D01*
X198760000Y-124570000D02*
X199760000Y-124570000D01*
X198760000Y-123570000D02*
X198760000Y-124570000D01*
X198760000Y-110570000D02*
X198760000Y-111570000D01*
X199760000Y-110570000D02*
X198760000Y-110570000D01*
X212760000Y-110570000D02*
X211760000Y-110570000D01*
X212760000Y-111570000D02*
X212760000Y-110570000D01*
G04 #@! TO.C,K26*
X230810000Y-125880840D02*
X231810000Y-125880840D01*
X231810000Y-125880840D02*
X231810000Y-124880840D01*
X217810000Y-125880840D02*
X218810000Y-125880840D01*
X217810000Y-124880840D02*
X217810000Y-125880840D01*
X217810000Y-111880840D02*
X217810000Y-112880840D01*
X218810000Y-111880840D02*
X217810000Y-111880840D01*
X231810000Y-111880840D02*
X230810000Y-111880840D01*
X231810000Y-112880840D02*
X231810000Y-111880840D01*
G04 #@! TO.C,K35*
X249860000Y-140150000D02*
X250860000Y-140150000D01*
X250860000Y-140150000D02*
X250860000Y-139150000D01*
X236860000Y-140150000D02*
X237860000Y-140150000D01*
X236860000Y-139150000D02*
X236860000Y-140150000D01*
X236860000Y-126150000D02*
X236860000Y-127150000D01*
X237860000Y-126150000D02*
X236860000Y-126150000D01*
X250860000Y-126150000D02*
X249860000Y-126150000D01*
X250860000Y-127150000D02*
X250860000Y-126150000D01*
D11*
G04 #@! TO.C,U1*
X137239660Y-66588640D02*
X119459660Y-66588640D01*
X137239660Y-36108640D02*
X137239660Y-66588640D01*
X132159660Y-36108640D02*
X137239660Y-36108640D01*
X132159660Y-33568640D02*
X132159660Y-36108640D01*
X124539660Y-33568640D02*
X132159660Y-33568640D01*
X124539660Y-36108640D02*
X124539660Y-33568640D01*
X119459660Y-36108640D02*
X124539660Y-36108640D01*
X119459660Y-36108640D02*
X119459660Y-66588640D01*
G04 #@! TO.C,J1*
X236833060Y-34146740D02*
X231233060Y-34146740D01*
X231233060Y-36146740D02*
X231233060Y-34146740D01*
X236833060Y-36146740D02*
X236833060Y-34146740D01*
X230983060Y-36146740D02*
X230983060Y-48246740D01*
X237083060Y-36146740D02*
X237083060Y-48246740D01*
X237083060Y-48246740D02*
X230983060Y-48246740D01*
X237083060Y-36146740D02*
X230983060Y-36146740D01*
G04 #@! TO.C,R1*
X208645920Y-39875460D02*
X209845920Y-39875460D01*
X209845920Y-39875460D02*
X210045920Y-40675460D01*
X210045920Y-40675460D02*
X210245920Y-40875460D01*
X210245920Y-40875460D02*
X210645920Y-40875460D01*
X210645920Y-40875460D02*
X210845920Y-40675460D01*
X210845920Y-40675460D02*
X214845920Y-40675460D01*
X214845920Y-40675460D02*
X215045920Y-40875460D01*
X215045920Y-40875460D02*
X215445920Y-40875460D01*
X215445920Y-40875460D02*
X215645920Y-40675460D01*
X215645920Y-40675460D02*
X215845920Y-39875460D01*
X215845920Y-39875460D02*
X215645920Y-39075460D01*
X215645920Y-39075460D02*
X215445920Y-38875460D01*
X215445920Y-38875460D02*
X215045920Y-38875460D01*
X215045920Y-38875460D02*
X214845920Y-39075460D01*
X214845920Y-39075460D02*
X210845920Y-39075460D01*
X210845920Y-39075460D02*
X210645920Y-38875460D01*
X210645920Y-38875460D02*
X210245920Y-38875460D01*
X210245920Y-38875460D02*
X210045920Y-39075460D01*
X210045920Y-39075460D02*
X209845920Y-39875460D01*
X215845920Y-39875460D02*
X217045920Y-39875460D01*
G04 #@! TO.C,R2*
X198107680Y-39875460D02*
X196907680Y-39875460D01*
X196907680Y-39875460D02*
X196707680Y-39075460D01*
X196707680Y-39075460D02*
X196507680Y-38875460D01*
X196507680Y-38875460D02*
X196107680Y-38875460D01*
X196107680Y-38875460D02*
X195907680Y-39075460D01*
X195907680Y-39075460D02*
X191907680Y-39075460D01*
X191907680Y-39075460D02*
X191707680Y-38875460D01*
X191707680Y-38875460D02*
X191307680Y-38875460D01*
X191307680Y-38875460D02*
X191107680Y-39075460D01*
X191107680Y-39075460D02*
X190907680Y-39875460D01*
X190907680Y-39875460D02*
X191107680Y-40675460D01*
X191107680Y-40675460D02*
X191307680Y-40875460D01*
X191307680Y-40875460D02*
X191707680Y-40875460D01*
X191707680Y-40875460D02*
X191907680Y-40675460D01*
X191907680Y-40675460D02*
X195907680Y-40675460D01*
X195907680Y-40675460D02*
X196107680Y-40875460D01*
X196107680Y-40875460D02*
X196507680Y-40875460D01*
X196507680Y-40875460D02*
X196707680Y-40675460D01*
X196707680Y-40675460D02*
X196907680Y-39875460D01*
X190907680Y-39875460D02*
X189707680Y-39875460D01*
G04 #@! TO.C,K23*
D12*
X167224571Y-125207097D02*
X167442285Y-125279668D01*
X167805142Y-125279668D01*
X167950285Y-125207097D01*
X168022857Y-125134525D01*
X168095428Y-124989382D01*
X168095428Y-124844240D01*
X168022857Y-124699097D01*
X167950285Y-124626525D01*
X167805142Y-124553954D01*
X167514857Y-124481382D01*
X167369714Y-124408811D01*
X167297142Y-124336240D01*
X167224571Y-124191097D01*
X167224571Y-124045954D01*
X167297142Y-123900811D01*
X167369714Y-123828240D01*
X167514857Y-123755668D01*
X167877714Y-123755668D01*
X168095428Y-123828240D01*
G04 #@! TO.C,K22*
X148238742Y-128036040D02*
X148964457Y-128036040D01*
X148093600Y-128471468D02*
X148601600Y-126947468D01*
X149109600Y-128471468D01*
G04 #@! TO.C,K21*
X121467114Y-128463268D02*
X121467114Y-126939268D01*
X122337971Y-128463268D02*
X121684828Y-127592411D01*
X122337971Y-126939268D02*
X121467114Y-127810125D01*
X122991114Y-127664982D02*
X123499114Y-127664982D01*
X123716828Y-128463268D02*
X122991114Y-128463268D01*
X122991114Y-126939268D01*
X123716828Y-126939268D01*
X124660257Y-127737554D02*
X124660257Y-128463268D01*
X124152257Y-126939268D02*
X124660257Y-127737554D01*
X125168257Y-126939268D01*
X125603685Y-128390697D02*
X125821400Y-128463268D01*
X126184257Y-128463268D01*
X126329400Y-128390697D01*
X126401971Y-128318125D01*
X126474542Y-128172982D01*
X126474542Y-128027840D01*
X126401971Y-127882697D01*
X126329400Y-127810125D01*
X126184257Y-127737554D01*
X125893971Y-127664982D01*
X125748828Y-127592411D01*
X125676257Y-127519840D01*
X125603685Y-127374697D01*
X125603685Y-127229554D01*
X125676257Y-127084411D01*
X125748828Y-127011840D01*
X125893971Y-126939268D01*
X126256828Y-126939268D01*
X126474542Y-127011840D01*
X126982542Y-126939268D02*
X127345400Y-128463268D01*
X127635685Y-127374697D01*
X127925971Y-128463268D01*
X128288828Y-126939268D01*
G04 #@! TO.C,K20*
X240521714Y-112285068D02*
X240521714Y-110761068D01*
X241392571Y-112285068D02*
X240739428Y-111414211D01*
X241392571Y-110761068D02*
X240521714Y-111631925D01*
X242045714Y-111486782D02*
X242553714Y-111486782D01*
X242771428Y-112285068D02*
X242045714Y-112285068D01*
X242045714Y-110761068D01*
X242771428Y-110761068D01*
X243714857Y-111559354D02*
X243714857Y-112285068D01*
X243206857Y-110761068D02*
X243714857Y-111559354D01*
X244222857Y-110761068D01*
X244658285Y-112212497D02*
X244876000Y-112285068D01*
X245238857Y-112285068D01*
X245384000Y-112212497D01*
X245456571Y-112139925D01*
X245529142Y-111994782D01*
X245529142Y-111849640D01*
X245456571Y-111704497D01*
X245384000Y-111631925D01*
X245238857Y-111559354D01*
X244948571Y-111486782D01*
X244803428Y-111414211D01*
X244730857Y-111341640D01*
X244658285Y-111196497D01*
X244658285Y-111051354D01*
X244730857Y-110906211D01*
X244803428Y-110833640D01*
X244948571Y-110761068D01*
X245311428Y-110761068D01*
X245529142Y-110833640D01*
X246037142Y-110761068D02*
X246400000Y-112285068D01*
X246690285Y-111196497D01*
X246980571Y-112285068D01*
X247343428Y-110761068D01*
G04 #@! TO.C,K19*
X224332171Y-106001468D02*
X225203028Y-106001468D01*
X224767600Y-107525468D02*
X224767600Y-106001468D01*
G04 #@! TO.C,K18*
X206206154Y-106214688D02*
X205698154Y-105488974D01*
X205335297Y-106214688D02*
X205335297Y-104690688D01*
X205915868Y-104690688D01*
X206061011Y-104763260D01*
X206133582Y-104835831D01*
X206206154Y-104980974D01*
X206206154Y-105198688D01*
X206133582Y-105343831D01*
X206061011Y-105416402D01*
X205915868Y-105488974D01*
X205335297Y-105488974D01*
G04 #@! TO.C,K17*
X186362468Y-103830682D02*
X186870468Y-103830682D01*
X187088182Y-104628968D02*
X186362468Y-104628968D01*
X186362468Y-103104968D01*
X187088182Y-103104968D01*
G04 #@! TO.C,K16*
X166991457Y-104708048D02*
X167354314Y-106232048D01*
X167644600Y-105143477D01*
X167934885Y-106232048D01*
X168297742Y-104708048D01*
G04 #@! TO.C,K15*
X149176431Y-109577911D02*
X149031288Y-109505340D01*
X148886145Y-109360197D01*
X148668431Y-109142482D01*
X148523288Y-109069911D01*
X148378145Y-109069911D01*
X148450717Y-109432768D02*
X148305574Y-109360197D01*
X148160431Y-109215054D01*
X148087860Y-108924768D01*
X148087860Y-108416768D01*
X148160431Y-108126482D01*
X148305574Y-107981340D01*
X148450717Y-107908768D01*
X148741002Y-107908768D01*
X148886145Y-107981340D01*
X149031288Y-108126482D01*
X149103860Y-108416768D01*
X149103860Y-108924768D01*
X149031288Y-109215054D01*
X148886145Y-109360197D01*
X148741002Y-109432768D01*
X148450717Y-109432768D01*
G04 #@! TO.C,K14*
X121456794Y-109423168D02*
X121456794Y-107899168D01*
X122327651Y-109423168D02*
X121674508Y-108552311D01*
X122327651Y-107899168D02*
X121456794Y-108770025D01*
X122980794Y-108624882D02*
X123488794Y-108624882D01*
X123706508Y-109423168D02*
X122980794Y-109423168D01*
X122980794Y-107899168D01*
X123706508Y-107899168D01*
X124649937Y-108697454D02*
X124649937Y-109423168D01*
X124141937Y-107899168D02*
X124649937Y-108697454D01*
X125157937Y-107899168D01*
X125593365Y-109350597D02*
X125811080Y-109423168D01*
X126173937Y-109423168D01*
X126319080Y-109350597D01*
X126391651Y-109278025D01*
X126464222Y-109132882D01*
X126464222Y-108987740D01*
X126391651Y-108842597D01*
X126319080Y-108770025D01*
X126173937Y-108697454D01*
X125883651Y-108624882D01*
X125738508Y-108552311D01*
X125665937Y-108479740D01*
X125593365Y-108334597D01*
X125593365Y-108189454D01*
X125665937Y-108044311D01*
X125738508Y-107971740D01*
X125883651Y-107899168D01*
X126246508Y-107899168D01*
X126464222Y-107971740D01*
X126972222Y-107899168D02*
X127335080Y-109423168D01*
X127625365Y-108334597D01*
X127915651Y-109423168D01*
X128278508Y-107899168D01*
G04 #@! TO.C,K24*
X186310857Y-123676668D02*
X186310857Y-122152668D01*
X186673714Y-122152668D01*
X186891428Y-122225240D01*
X187036571Y-122370382D01*
X187109142Y-122515525D01*
X187181714Y-122805811D01*
X187181714Y-123023525D01*
X187109142Y-123313811D01*
X187036571Y-123458954D01*
X186891428Y-123604097D01*
X186673714Y-123676668D01*
X186310857Y-123676668D01*
G04 #@! TO.C,K12*
X223721428Y-86948948D02*
X222995714Y-86948948D01*
X222923142Y-87674662D01*
X222995714Y-87602091D01*
X223140857Y-87529520D01*
X223503714Y-87529520D01*
X223648857Y-87602091D01*
X223721428Y-87674662D01*
X223794000Y-87819805D01*
X223794000Y-88182662D01*
X223721428Y-88327805D01*
X223648857Y-88400377D01*
X223503714Y-88472948D01*
X223140857Y-88472948D01*
X222995714Y-88400377D01*
X222923142Y-88327805D01*
X225535714Y-88472948D02*
X226696857Y-86948948D01*
X225753428Y-86948948D02*
X225898571Y-87021520D01*
X225971142Y-87166662D01*
X225898571Y-87311805D01*
X225753428Y-87384377D01*
X225608285Y-87311805D01*
X225535714Y-87166662D01*
X225608285Y-87021520D01*
X225753428Y-86948948D01*
X226624285Y-88400377D02*
X226696857Y-88255234D01*
X226624285Y-88110091D01*
X226479142Y-88037520D01*
X226334000Y-88110091D01*
X226261428Y-88255234D01*
X226334000Y-88400377D01*
X226479142Y-88472948D01*
X226624285Y-88400377D01*
G04 #@! TO.C,K11*
X204718600Y-86160848D02*
X204718600Y-87176848D01*
X204355742Y-85580277D02*
X203992885Y-86668848D01*
X204936314Y-86668848D01*
X206605457Y-87104277D02*
X206823171Y-87176848D01*
X207186028Y-87176848D01*
X207331171Y-87104277D01*
X207403742Y-87031705D01*
X207476314Y-86886562D01*
X207476314Y-86741420D01*
X207403742Y-86596277D01*
X207331171Y-86523705D01*
X207186028Y-86451134D01*
X206895742Y-86378562D01*
X206750600Y-86305991D01*
X206678028Y-86233420D01*
X206605457Y-86088277D01*
X206605457Y-85943134D01*
X206678028Y-85797991D01*
X206750600Y-85725420D01*
X206895742Y-85652848D01*
X207258600Y-85652848D01*
X207476314Y-85725420D01*
X207040885Y-85435134D02*
X207040885Y-87394562D01*
G04 #@! TO.C,K10*
X184842128Y-84060508D02*
X185785557Y-84060508D01*
X185277557Y-84641080D01*
X185495271Y-84641080D01*
X185640414Y-84713651D01*
X185712985Y-84786222D01*
X185785557Y-84931365D01*
X185785557Y-85294222D01*
X185712985Y-85439365D01*
X185640414Y-85511937D01*
X185495271Y-85584508D01*
X185059842Y-85584508D01*
X184914700Y-85511937D01*
X184842128Y-85439365D01*
X187527271Y-84568508D02*
X188615842Y-84568508D01*
X187962700Y-83915365D02*
X187527271Y-85874794D01*
X188470700Y-85221651D02*
X187382128Y-85221651D01*
X188035271Y-85874794D02*
X188470700Y-83915365D01*
G04 #@! TO.C,K9*
X165651385Y-85811211D02*
X165723957Y-85738640D01*
X165869100Y-85666068D01*
X166231957Y-85666068D01*
X166377100Y-85738640D01*
X166449671Y-85811211D01*
X166522242Y-85956354D01*
X166522242Y-86101497D01*
X166449671Y-86319211D01*
X165578814Y-87190068D01*
X166522242Y-87190068D01*
X169279957Y-86464354D02*
X169207385Y-86391782D01*
X169062242Y-86319211D01*
X168917100Y-86319211D01*
X168771957Y-86391782D01*
X168699385Y-86464354D01*
X168626814Y-86609497D01*
X168626814Y-86754640D01*
X168699385Y-86899782D01*
X168771957Y-86972354D01*
X168917100Y-87044925D01*
X169062242Y-87044925D01*
X169207385Y-86972354D01*
X169279957Y-86899782D01*
X169279957Y-86319211D02*
X169279957Y-86899782D01*
X169352528Y-86972354D01*
X169425100Y-86972354D01*
X169570242Y-86899782D01*
X169642814Y-86754640D01*
X169642814Y-86391782D01*
X169497671Y-86174068D01*
X169279957Y-86028925D01*
X168989671Y-85956354D01*
X168699385Y-86028925D01*
X168481671Y-86174068D01*
X168336528Y-86391782D01*
X168263957Y-86682068D01*
X168336528Y-86972354D01*
X168481671Y-87190068D01*
X168699385Y-87335211D01*
X168989671Y-87407782D01*
X169279957Y-87335211D01*
X169497671Y-87190068D01*
G04 #@! TO.C,K8*
X148089100Y-90380068D02*
X147218242Y-90380068D01*
X147653671Y-90380068D02*
X147653671Y-88856068D01*
X147508528Y-89073782D01*
X147363385Y-89218925D01*
X147218242Y-89291497D01*
X149903385Y-90234925D02*
X149975957Y-90307497D01*
X149903385Y-90380068D01*
X149830814Y-90307497D01*
X149903385Y-90234925D01*
X149903385Y-90380068D01*
X149903385Y-89799497D02*
X149830814Y-88928640D01*
X149903385Y-88856068D01*
X149975957Y-88928640D01*
X149903385Y-89799497D01*
X149903385Y-88856068D01*
G04 #@! TO.C,K7*
X121453394Y-90380068D02*
X121453394Y-88856068D01*
X122324251Y-90380068D02*
X121671108Y-89509211D01*
X122324251Y-88856068D02*
X121453394Y-89726925D01*
X122977394Y-89581782D02*
X123485394Y-89581782D01*
X123703108Y-90380068D02*
X122977394Y-90380068D01*
X122977394Y-88856068D01*
X123703108Y-88856068D01*
X124646537Y-89654354D02*
X124646537Y-90380068D01*
X124138537Y-88856068D02*
X124646537Y-89654354D01*
X125154537Y-88856068D01*
X125589965Y-90307497D02*
X125807680Y-90380068D01*
X126170537Y-90380068D01*
X126315680Y-90307497D01*
X126388251Y-90234925D01*
X126460822Y-90089782D01*
X126460822Y-89944640D01*
X126388251Y-89799497D01*
X126315680Y-89726925D01*
X126170537Y-89654354D01*
X125880251Y-89581782D01*
X125735108Y-89509211D01*
X125662537Y-89436640D01*
X125589965Y-89291497D01*
X125589965Y-89146354D01*
X125662537Y-89001211D01*
X125735108Y-88928640D01*
X125880251Y-88856068D01*
X126243108Y-88856068D01*
X126460822Y-88928640D01*
X126968822Y-88856068D02*
X127331680Y-90380068D01*
X127621965Y-89291497D01*
X127912251Y-90380068D01*
X128275108Y-88856068D01*
G04 #@! TO.C,K6*
X243352000Y-68626782D02*
X242844000Y-68626782D01*
X242844000Y-69425068D02*
X242844000Y-67901068D01*
X243569714Y-67901068D01*
X244948571Y-69425068D02*
X244077714Y-69425068D01*
X244513142Y-69425068D02*
X244513142Y-67901068D01*
X244368000Y-68118782D01*
X244222857Y-68263925D01*
X244077714Y-68336497D01*
G04 #@! TO.C,K5*
X224259751Y-68624782D02*
X223751751Y-68624782D01*
X223751751Y-69423068D02*
X223751751Y-67899068D01*
X224477465Y-67899068D01*
X225783751Y-67899068D02*
X225058036Y-67899068D01*
X224985465Y-68624782D01*
X225058036Y-68552211D01*
X225203179Y-68479640D01*
X225566036Y-68479640D01*
X225711179Y-68552211D01*
X225783751Y-68624782D01*
X225856322Y-68769925D01*
X225856322Y-69132782D01*
X225783751Y-69277925D01*
X225711179Y-69350497D01*
X225566036Y-69423068D01*
X225203179Y-69423068D01*
X225058036Y-69350497D01*
X224985465Y-69277925D01*
G04 #@! TO.C,K4*
X205222000Y-67324782D02*
X204714000Y-67324782D01*
X204714000Y-68123068D02*
X204714000Y-66599068D01*
X205439714Y-66599068D01*
X206673428Y-67107068D02*
X206673428Y-68123068D01*
X206310571Y-66526497D02*
X205947714Y-67615068D01*
X206891142Y-67615068D01*
G04 #@! TO.C,K3*
X186182000Y-65740782D02*
X185674000Y-65740782D01*
X185674000Y-66539068D02*
X185674000Y-65015068D01*
X186399714Y-65015068D01*
X186835142Y-65015068D02*
X187778571Y-65015068D01*
X187270571Y-65595640D01*
X187488285Y-65595640D01*
X187633428Y-65668211D01*
X187706000Y-65740782D01*
X187778571Y-65885925D01*
X187778571Y-66248782D01*
X187706000Y-66393925D01*
X187633428Y-66466497D01*
X187488285Y-66539068D01*
X187052857Y-66539068D01*
X186907714Y-66466497D01*
X186835142Y-66393925D01*
G04 #@! TO.C,K1*
X148092000Y-70544782D02*
X147584000Y-70544782D01*
X147584000Y-71343068D02*
X147584000Y-69819068D01*
X148309714Y-69819068D01*
X149688571Y-71343068D02*
X148817714Y-71343068D01*
X149253142Y-71343068D02*
X149253142Y-69819068D01*
X149108000Y-70036782D01*
X148962857Y-70181925D01*
X148817714Y-70254497D01*
G04 #@! TO.C,K13*
X240521714Y-88465368D02*
X240521714Y-86941368D01*
X241392571Y-88465368D02*
X240739428Y-87594511D01*
X241392571Y-86941368D02*
X240521714Y-87812225D01*
X242045714Y-87667082D02*
X242553714Y-87667082D01*
X242771428Y-88465368D02*
X242045714Y-88465368D01*
X242045714Y-86941368D01*
X242771428Y-86941368D01*
X243714857Y-87739654D02*
X243714857Y-88465368D01*
X243206857Y-86941368D02*
X243714857Y-87739654D01*
X244222857Y-86941368D01*
X244658285Y-88392797D02*
X244876000Y-88465368D01*
X245238857Y-88465368D01*
X245384000Y-88392797D01*
X245456571Y-88320225D01*
X245529142Y-88175082D01*
X245529142Y-88029940D01*
X245456571Y-87884797D01*
X245384000Y-87812225D01*
X245238857Y-87739654D01*
X244948571Y-87667082D01*
X244803428Y-87594511D01*
X244730857Y-87521940D01*
X244658285Y-87376797D01*
X244658285Y-87231654D01*
X244730857Y-87086511D01*
X244803428Y-87013940D01*
X244948571Y-86941368D01*
X245311428Y-86941368D01*
X245529142Y-87013940D01*
X246037142Y-86941368D02*
X246400000Y-88465368D01*
X246690285Y-87376797D01*
X246980571Y-88465368D01*
X247343428Y-86941368D01*
G04 #@! TO.C,K44*
X271009119Y-199726395D02*
X269627906Y-199082325D01*
X271377160Y-198937130D02*
X270311865Y-199161039D01*
X269995947Y-198293060D02*
X270417171Y-199450365D01*
X270929697Y-198007812D02*
X271144387Y-197547407D01*
X271959890Y-197687461D02*
X271653190Y-198345182D01*
X270271977Y-197701112D01*
X270578677Y-197043391D01*
X271700879Y-196525725D02*
X272358600Y-196832425D01*
X270762697Y-196648759D02*
X271700879Y-196525725D01*
X271192077Y-195727950D01*
X272691538Y-195946718D02*
X272849320Y-195780072D01*
X273002670Y-195451212D01*
X272998238Y-195288998D01*
X272963136Y-195192555D01*
X272862262Y-195065443D01*
X272730718Y-195004103D01*
X272568504Y-195008535D01*
X272472062Y-195043637D01*
X272344950Y-195144512D01*
X272156498Y-195376930D01*
X272029386Y-195477804D01*
X271932943Y-195512906D01*
X271770729Y-195517338D01*
X271639185Y-195455998D01*
X271538311Y-195328886D01*
X271503209Y-195232444D01*
X271498777Y-195070230D01*
X271652127Y-194741369D01*
X271809909Y-194574723D01*
X271958827Y-194083649D02*
X273493390Y-194398859D01*
X272629490Y-193675720D01*
X273738750Y-193872682D01*
X272510887Y-192899752D01*
G04 #@! TO.C,K43*
X257781248Y-183001795D02*
X256400035Y-182357725D01*
X258149289Y-182212530D02*
X257083994Y-182436439D01*
X256768076Y-181568460D02*
X257189300Y-182725765D01*
X257701826Y-181283212D02*
X257916516Y-180822807D01*
X258732019Y-180962861D02*
X258425319Y-181620582D01*
X257044106Y-180976512D01*
X257350806Y-180318791D01*
X258473008Y-179801125D02*
X259130729Y-180107825D01*
X257534826Y-179924159D02*
X258473008Y-179801125D01*
X257964206Y-179003350D01*
X259463667Y-179222118D02*
X259621449Y-179055472D01*
X259774799Y-178726612D01*
X259770367Y-178564398D01*
X259735265Y-178467955D01*
X259634391Y-178340843D01*
X259502847Y-178279503D01*
X259340633Y-178283935D01*
X259244191Y-178319037D01*
X259117079Y-178419912D01*
X258928627Y-178652330D01*
X258801515Y-178753204D01*
X258705072Y-178788306D01*
X258542858Y-178792738D01*
X258411314Y-178731398D01*
X258310440Y-178604286D01*
X258275338Y-178507844D01*
X258270906Y-178345630D01*
X258424256Y-178016769D01*
X258582038Y-177850123D01*
X258730956Y-177359049D02*
X260265519Y-177674259D01*
X259401619Y-176951120D01*
X260510879Y-177148082D01*
X259283016Y-176175152D01*
G04 #@! TO.C,K42*
X240510604Y-174983615D02*
X239129391Y-174339545D01*
X240878645Y-174194350D02*
X239813350Y-174418259D01*
X239497432Y-173550280D02*
X239918656Y-174707585D01*
X240431182Y-173265032D02*
X240645872Y-172804627D01*
X241461375Y-172944681D02*
X241154675Y-173602402D01*
X239773462Y-172958332D01*
X240080162Y-172300611D01*
X241202364Y-171782945D02*
X241860085Y-172089645D01*
X240264182Y-171905979D02*
X241202364Y-171782945D01*
X240693562Y-170985170D01*
X242193023Y-171203938D02*
X242350805Y-171037292D01*
X242504155Y-170708432D01*
X242499723Y-170546218D01*
X242464621Y-170449775D01*
X242363747Y-170322663D01*
X242232203Y-170261323D01*
X242069989Y-170265755D01*
X241973547Y-170300857D01*
X241846435Y-170401732D01*
X241657983Y-170634150D01*
X241530871Y-170735024D01*
X241434428Y-170770126D01*
X241272214Y-170774558D01*
X241140670Y-170713218D01*
X241039796Y-170586106D01*
X241004694Y-170489664D01*
X241000262Y-170327450D01*
X241153612Y-169998589D01*
X241311394Y-169831943D01*
X241460312Y-169340869D02*
X242994875Y-169656079D01*
X242130975Y-168932940D01*
X243240235Y-169129902D01*
X242012372Y-168156972D01*
G04 #@! TO.C,K41*
X202421714Y-163339428D02*
X202421714Y-161815428D01*
X203292571Y-163339428D02*
X202639428Y-162468571D01*
X203292571Y-161815428D02*
X202421714Y-162686285D01*
X203945714Y-162541142D02*
X204453714Y-162541142D01*
X204671428Y-163339428D02*
X203945714Y-163339428D01*
X203945714Y-161815428D01*
X204671428Y-161815428D01*
X205614857Y-162613714D02*
X205614857Y-163339428D01*
X205106857Y-161815428D02*
X205614857Y-162613714D01*
X206122857Y-161815428D01*
X206558285Y-163266857D02*
X206776000Y-163339428D01*
X207138857Y-163339428D01*
X207284000Y-163266857D01*
X207356571Y-163194285D01*
X207429142Y-163049142D01*
X207429142Y-162904000D01*
X207356571Y-162758857D01*
X207284000Y-162686285D01*
X207138857Y-162613714D01*
X206848571Y-162541142D01*
X206703428Y-162468571D01*
X206630857Y-162396000D01*
X206558285Y-162250857D01*
X206558285Y-162105714D01*
X206630857Y-161960571D01*
X206703428Y-161888000D01*
X206848571Y-161815428D01*
X207211428Y-161815428D01*
X207429142Y-161888000D01*
X207937142Y-161815428D02*
X208300000Y-163339428D01*
X208590285Y-162250857D01*
X208880571Y-163339428D01*
X209243428Y-161815428D01*
G04 #@! TO.C,K40*
X183371714Y-161759428D02*
X183371714Y-160235428D01*
X184242571Y-161759428D02*
X183589428Y-160888571D01*
X184242571Y-160235428D02*
X183371714Y-161106285D01*
X184895714Y-160961142D02*
X185403714Y-160961142D01*
X185621428Y-161759428D02*
X184895714Y-161759428D01*
X184895714Y-160235428D01*
X185621428Y-160235428D01*
X186564857Y-161033714D02*
X186564857Y-161759428D01*
X186056857Y-160235428D02*
X186564857Y-161033714D01*
X187072857Y-160235428D01*
X187508285Y-161686857D02*
X187726000Y-161759428D01*
X188088857Y-161759428D01*
X188234000Y-161686857D01*
X188306571Y-161614285D01*
X188379142Y-161469142D01*
X188379142Y-161324000D01*
X188306571Y-161178857D01*
X188234000Y-161106285D01*
X188088857Y-161033714D01*
X187798571Y-160961142D01*
X187653428Y-160888571D01*
X187580857Y-160816000D01*
X187508285Y-160670857D01*
X187508285Y-160525714D01*
X187580857Y-160380571D01*
X187653428Y-160308000D01*
X187798571Y-160235428D01*
X188161428Y-160235428D01*
X188379142Y-160308000D01*
X188887142Y-160235428D02*
X189250000Y-161759428D01*
X189540285Y-160670857D01*
X189830571Y-161759428D01*
X190193428Y-160235428D01*
G04 #@! TO.C,K39*
X164321714Y-163359428D02*
X164321714Y-161835428D01*
X165192571Y-163359428D02*
X164539428Y-162488571D01*
X165192571Y-161835428D02*
X164321714Y-162706285D01*
X165845714Y-162561142D02*
X166353714Y-162561142D01*
X166571428Y-163359428D02*
X165845714Y-163359428D01*
X165845714Y-161835428D01*
X166571428Y-161835428D01*
X167514857Y-162633714D02*
X167514857Y-163359428D01*
X167006857Y-161835428D02*
X167514857Y-162633714D01*
X168022857Y-161835428D01*
X168458285Y-163286857D02*
X168676000Y-163359428D01*
X169038857Y-163359428D01*
X169184000Y-163286857D01*
X169256571Y-163214285D01*
X169329142Y-163069142D01*
X169329142Y-162924000D01*
X169256571Y-162778857D01*
X169184000Y-162706285D01*
X169038857Y-162633714D01*
X168748571Y-162561142D01*
X168603428Y-162488571D01*
X168530857Y-162416000D01*
X168458285Y-162270857D01*
X168458285Y-162125714D01*
X168530857Y-161980571D01*
X168603428Y-161908000D01*
X168748571Y-161835428D01*
X169111428Y-161835428D01*
X169329142Y-161908000D01*
X169837142Y-161835428D02*
X170200000Y-163359428D01*
X170490285Y-162270857D01*
X170780571Y-163359428D01*
X171143428Y-161835428D01*
G04 #@! TO.C,K38*
X145271714Y-166559428D02*
X145271714Y-165035428D01*
X146142571Y-166559428D02*
X145489428Y-165688571D01*
X146142571Y-165035428D02*
X145271714Y-165906285D01*
X146795714Y-165761142D02*
X147303714Y-165761142D01*
X147521428Y-166559428D02*
X146795714Y-166559428D01*
X146795714Y-165035428D01*
X147521428Y-165035428D01*
X148464857Y-165833714D02*
X148464857Y-166559428D01*
X147956857Y-165035428D02*
X148464857Y-165833714D01*
X148972857Y-165035428D01*
X149408285Y-166486857D02*
X149626000Y-166559428D01*
X149988857Y-166559428D01*
X150134000Y-166486857D01*
X150206571Y-166414285D01*
X150279142Y-166269142D01*
X150279142Y-166124000D01*
X150206571Y-165978857D01*
X150134000Y-165906285D01*
X149988857Y-165833714D01*
X149698571Y-165761142D01*
X149553428Y-165688571D01*
X149480857Y-165616000D01*
X149408285Y-165470857D01*
X149408285Y-165325714D01*
X149480857Y-165180571D01*
X149553428Y-165108000D01*
X149698571Y-165035428D01*
X150061428Y-165035428D01*
X150279142Y-165108000D01*
X150787142Y-165035428D02*
X151150000Y-166559428D01*
X151440285Y-165470857D01*
X151730571Y-166559428D01*
X152093428Y-165035428D01*
G04 #@! TO.C,K37*
X126221714Y-166559428D02*
X126221714Y-165035428D01*
X127092571Y-166559428D02*
X126439428Y-165688571D01*
X127092571Y-165035428D02*
X126221714Y-165906285D01*
X127745714Y-165761142D02*
X128253714Y-165761142D01*
X128471428Y-166559428D02*
X127745714Y-166559428D01*
X127745714Y-165035428D01*
X128471428Y-165035428D01*
X129414857Y-165833714D02*
X129414857Y-166559428D01*
X128906857Y-165035428D02*
X129414857Y-165833714D01*
X129922857Y-165035428D01*
X130358285Y-166486857D02*
X130576000Y-166559428D01*
X130938857Y-166559428D01*
X131084000Y-166486857D01*
X131156571Y-166414285D01*
X131229142Y-166269142D01*
X131229142Y-166124000D01*
X131156571Y-165978857D01*
X131084000Y-165906285D01*
X130938857Y-165833714D01*
X130648571Y-165761142D01*
X130503428Y-165688571D01*
X130430857Y-165616000D01*
X130358285Y-165470857D01*
X130358285Y-165325714D01*
X130430857Y-165180571D01*
X130503428Y-165108000D01*
X130648571Y-165035428D01*
X131011428Y-165035428D01*
X131229142Y-165108000D01*
X131737142Y-165035428D02*
X132100000Y-166559428D01*
X132390285Y-165470857D01*
X132680571Y-166559428D01*
X133043428Y-165035428D01*
G04 #@! TO.C,K36*
X279041973Y-182486763D02*
X277660760Y-181842693D01*
X279410014Y-181697498D02*
X278344719Y-181921407D01*
X278028801Y-181053428D02*
X278450025Y-182210733D01*
X278962551Y-180768180D02*
X279177241Y-180307775D01*
X279992744Y-180447829D02*
X279686044Y-181105550D01*
X278304831Y-180461480D01*
X278611531Y-179803759D01*
X279733733Y-179286093D02*
X280391454Y-179592793D01*
X278795551Y-179409127D02*
X279733733Y-179286093D01*
X279224931Y-178488318D01*
X280724392Y-178707086D02*
X280882174Y-178540440D01*
X281035524Y-178211580D01*
X281031092Y-178049366D01*
X280995990Y-177952923D01*
X280895116Y-177825811D01*
X280763572Y-177764471D01*
X280601358Y-177768903D01*
X280504916Y-177804005D01*
X280377804Y-177904880D01*
X280189352Y-178137298D01*
X280062240Y-178238172D01*
X279965797Y-178273274D01*
X279803583Y-178277706D01*
X279672039Y-178216366D01*
X279571165Y-178089254D01*
X279536063Y-177992812D01*
X279531631Y-177830598D01*
X279684981Y-177501737D01*
X279842763Y-177335091D01*
X279991681Y-176844017D02*
X281526244Y-177159227D01*
X280662344Y-176436088D01*
X281771604Y-176633050D01*
X280543741Y-175660120D01*
G04 #@! TO.C,K2*
X167142000Y-67338182D02*
X166634000Y-67338182D01*
X166634000Y-68136468D02*
X166634000Y-66612468D01*
X167359714Y-66612468D01*
X167867714Y-66757611D02*
X167940285Y-66685040D01*
X168085428Y-66612468D01*
X168448285Y-66612468D01*
X168593428Y-66685040D01*
X168666000Y-66757611D01*
X168738571Y-66902754D01*
X168738571Y-67047897D01*
X168666000Y-67265611D01*
X167795142Y-68136468D01*
X168738571Y-68136468D01*
G04 #@! TO.C,K34*
X224918857Y-144801142D02*
X225136571Y-144873714D01*
X225209142Y-144946285D01*
X225281714Y-145091428D01*
X225281714Y-145309142D01*
X225209142Y-145454285D01*
X225136571Y-145526857D01*
X224991428Y-145599428D01*
X224410857Y-145599428D01*
X224410857Y-144075428D01*
X224918857Y-144075428D01*
X225064000Y-144148000D01*
X225136571Y-144220571D01*
X225209142Y-144365714D01*
X225209142Y-144510857D01*
X225136571Y-144656000D01*
X225064000Y-144728571D01*
X224918857Y-144801142D01*
X224410857Y-144801142D01*
G04 #@! TO.C,K33*
X205252000Y-142775428D02*
X205760000Y-144299428D01*
X206268000Y-142775428D01*
G04 #@! TO.C,K32*
X187181714Y-142574285D02*
X187109142Y-142646857D01*
X186891428Y-142719428D01*
X186746285Y-142719428D01*
X186528571Y-142646857D01*
X186383428Y-142501714D01*
X186310857Y-142356571D01*
X186238285Y-142066285D01*
X186238285Y-141848571D01*
X186310857Y-141558285D01*
X186383428Y-141413142D01*
X186528571Y-141268000D01*
X186746285Y-141195428D01*
X186891428Y-141195428D01*
X187109142Y-141268000D01*
X187181714Y-141340571D01*
G04 #@! TO.C,K31*
X167152000Y-142805428D02*
X168168000Y-144329428D01*
X168168000Y-142805428D02*
X167152000Y-144329428D01*
G04 #@! TO.C,K30*
X148102000Y-145985428D02*
X149118000Y-145985428D01*
X148102000Y-147509428D01*
X149118000Y-147509428D01*
G04 #@! TO.C,K29*
X121461714Y-147509428D02*
X121461714Y-145985428D01*
X122332571Y-147509428D02*
X121679428Y-146638571D01*
X122332571Y-145985428D02*
X121461714Y-146856285D01*
X122985714Y-146711142D02*
X123493714Y-146711142D01*
X123711428Y-147509428D02*
X122985714Y-147509428D01*
X122985714Y-145985428D01*
X123711428Y-145985428D01*
X124654857Y-146783714D02*
X124654857Y-147509428D01*
X124146857Y-145985428D02*
X124654857Y-146783714D01*
X125162857Y-145985428D01*
X125598285Y-147436857D02*
X125816000Y-147509428D01*
X126178857Y-147509428D01*
X126324000Y-147436857D01*
X126396571Y-147364285D01*
X126469142Y-147219142D01*
X126469142Y-147074000D01*
X126396571Y-146928857D01*
X126324000Y-146856285D01*
X126178857Y-146783714D01*
X125888571Y-146711142D01*
X125743428Y-146638571D01*
X125670857Y-146566000D01*
X125598285Y-146420857D01*
X125598285Y-146275714D01*
X125670857Y-146130571D01*
X125743428Y-146058000D01*
X125888571Y-145985428D01*
X126251428Y-145985428D01*
X126469142Y-146058000D01*
X126977142Y-145985428D02*
X127340000Y-147509428D01*
X127630285Y-146420857D01*
X127920571Y-147509428D01*
X128283428Y-145985428D01*
G04 #@! TO.C,K28*
X287092850Y-165221600D02*
X285711637Y-164577530D01*
X287460891Y-164432335D02*
X286395596Y-164656244D01*
X286079678Y-163788265D02*
X286500902Y-164945570D01*
X287013428Y-163503017D02*
X287228118Y-163042612D01*
X288043621Y-163182666D02*
X287736921Y-163840387D01*
X286355708Y-163196317D01*
X286662408Y-162538596D01*
X287784610Y-162020930D02*
X288442331Y-162327630D01*
X286846428Y-162143964D02*
X287784610Y-162020930D01*
X287275808Y-161223155D01*
X288775269Y-161441923D02*
X288933051Y-161275277D01*
X289086401Y-160946417D01*
X289081969Y-160784203D01*
X289046867Y-160687760D01*
X288945993Y-160560648D01*
X288814449Y-160499308D01*
X288652235Y-160503740D01*
X288555793Y-160538842D01*
X288428681Y-160639717D01*
X288240229Y-160872135D01*
X288113117Y-160973009D01*
X288016674Y-161008111D01*
X287854460Y-161012543D01*
X287722916Y-160951203D01*
X287622042Y-160824091D01*
X287586940Y-160727649D01*
X287582508Y-160565435D01*
X287735858Y-160236574D01*
X287893640Y-160069928D01*
X288042558Y-159578854D02*
X289577121Y-159894064D01*
X288713221Y-159170925D01*
X289822481Y-159367887D01*
X288594618Y-158394957D01*
G04 #@! TO.C,K27*
X269833062Y-157171603D02*
X268451849Y-156527533D01*
X270201103Y-156382338D02*
X269135808Y-156606247D01*
X268819890Y-155738268D02*
X269241114Y-156895573D01*
X269753640Y-155453020D02*
X269968330Y-154992615D01*
X270783833Y-155132669D02*
X270477133Y-155790390D01*
X269095920Y-155146320D01*
X269402620Y-154488599D01*
X270524822Y-153970933D02*
X271182543Y-154277633D01*
X269586640Y-154093967D02*
X270524822Y-153970933D01*
X270016020Y-153173158D01*
X271515481Y-153391926D02*
X271673263Y-153225280D01*
X271826613Y-152896420D01*
X271822181Y-152734206D01*
X271787079Y-152637763D01*
X271686205Y-152510651D01*
X271554661Y-152449311D01*
X271392447Y-152453743D01*
X271296005Y-152488845D01*
X271168893Y-152589720D01*
X270980441Y-152822138D01*
X270853329Y-152923012D01*
X270756886Y-152958114D01*
X270594672Y-152962546D01*
X270463128Y-152901206D01*
X270362254Y-152774094D01*
X270327152Y-152677652D01*
X270322720Y-152515438D01*
X270476070Y-152186577D01*
X270633852Y-152019931D01*
X270782770Y-151528857D02*
X272317333Y-151844067D01*
X271453433Y-151120928D01*
X272562693Y-151317890D01*
X271334830Y-150344960D01*
G04 #@! TO.C,K25*
X205977714Y-124461142D02*
X205469714Y-124461142D01*
X205469714Y-125259428D02*
X205469714Y-123735428D01*
X206195428Y-123735428D01*
G04 #@! TO.C,K26*
X225209142Y-125118840D02*
X225064000Y-125046268D01*
X224846285Y-125046268D01*
X224628571Y-125118840D01*
X224483428Y-125263982D01*
X224410857Y-125409125D01*
X224338285Y-125699411D01*
X224338285Y-125917125D01*
X224410857Y-126207411D01*
X224483428Y-126352554D01*
X224628571Y-126497697D01*
X224846285Y-126570268D01*
X224991428Y-126570268D01*
X225209142Y-126497697D01*
X225281714Y-126425125D01*
X225281714Y-125917125D01*
X224991428Y-125917125D01*
G04 #@! TO.C,K35*
X240521714Y-140839428D02*
X240521714Y-139315428D01*
X241392571Y-140839428D02*
X240739428Y-139968571D01*
X241392571Y-139315428D02*
X240521714Y-140186285D01*
X242045714Y-140041142D02*
X242553714Y-140041142D01*
X242771428Y-140839428D02*
X242045714Y-140839428D01*
X242045714Y-139315428D01*
X242771428Y-139315428D01*
X243714857Y-140113714D02*
X243714857Y-140839428D01*
X243206857Y-139315428D02*
X243714857Y-140113714D01*
X244222857Y-139315428D01*
X244658285Y-140766857D02*
X244876000Y-140839428D01*
X245238857Y-140839428D01*
X245384000Y-140766857D01*
X245456571Y-140694285D01*
X245529142Y-140549142D01*
X245529142Y-140404000D01*
X245456571Y-140258857D01*
X245384000Y-140186285D01*
X245238857Y-140113714D01*
X244948571Y-140041142D01*
X244803428Y-139968571D01*
X244730857Y-139896000D01*
X244658285Y-139750857D01*
X244658285Y-139605714D01*
X244730857Y-139460571D01*
X244803428Y-139388000D01*
X244948571Y-139315428D01*
X245311428Y-139315428D01*
X245529142Y-139388000D01*
X246037142Y-139315428D02*
X246400000Y-140839428D01*
X246690285Y-139750857D01*
X246980571Y-140839428D01*
X247343428Y-139315428D01*
G04 #@! TO.C,U1*
D13*
X129186921Y-57396259D02*
X127186921Y-57396259D01*
X127186921Y-56634354D01*
X127282160Y-56443878D01*
X127377398Y-56348640D01*
X127567874Y-56253401D01*
X127853588Y-56253401D01*
X128044064Y-56348640D01*
X128139302Y-56443878D01*
X128234540Y-56634354D01*
X128234540Y-57396259D01*
X129186921Y-55396259D02*
X127853588Y-55396259D01*
X128234540Y-55396259D02*
X128044064Y-55301020D01*
X127948826Y-55205782D01*
X127853588Y-55015306D01*
X127853588Y-54824830D01*
X129186921Y-53872449D02*
X129091683Y-54062925D01*
X128996445Y-54158163D01*
X128805969Y-54253401D01*
X128234540Y-54253401D01*
X128044064Y-54158163D01*
X127948826Y-54062925D01*
X127853588Y-53872449D01*
X127853588Y-53586735D01*
X127948826Y-53396259D01*
X128044064Y-53301020D01*
X128234540Y-53205782D01*
X128805969Y-53205782D01*
X128996445Y-53301020D01*
X129091683Y-53396259D01*
X129186921Y-53586735D01*
X129186921Y-53872449D01*
X129186921Y-52348640D02*
X127186921Y-52348640D01*
X128615493Y-51681973D01*
X127186921Y-51015306D01*
X129186921Y-51015306D01*
X129186921Y-50062925D02*
X127853588Y-50062925D01*
X127186921Y-50062925D02*
X127282160Y-50158163D01*
X127377398Y-50062925D01*
X127282160Y-49967687D01*
X127186921Y-50062925D01*
X127377398Y-50062925D01*
X129091683Y-48253401D02*
X129186921Y-48443878D01*
X129186921Y-48824830D01*
X129091683Y-49015306D01*
X128996445Y-49110544D01*
X128805969Y-49205782D01*
X128234540Y-49205782D01*
X128044064Y-49110544D01*
X127948826Y-49015306D01*
X127853588Y-48824830D01*
X127853588Y-48443878D01*
X127948826Y-48253401D01*
X129186921Y-47396259D02*
X127853588Y-47396259D01*
X128234540Y-47396259D02*
X128044064Y-47301020D01*
X127948826Y-47205782D01*
X127853588Y-47015306D01*
X127853588Y-46824830D01*
X129186921Y-45872449D02*
X129091683Y-46062925D01*
X128996445Y-46158163D01*
X128805969Y-46253401D01*
X128234540Y-46253401D01*
X128044064Y-46158163D01*
X127948826Y-46062925D01*
X127853588Y-45872449D01*
X127853588Y-45586735D01*
X127948826Y-45396259D01*
X128044064Y-45301020D01*
X128234540Y-45205782D01*
X128805969Y-45205782D01*
X128996445Y-45301020D01*
X129091683Y-45396259D01*
X129186921Y-45586735D01*
X129186921Y-45872449D01*
G04 #@! TO.C,J1*
D11*
X233702266Y-48525180D02*
X233702266Y-49239466D01*
X233654647Y-49382323D01*
X233559409Y-49477561D01*
X233416552Y-49525180D01*
X233321314Y-49525180D01*
X234702266Y-49525180D02*
X234130838Y-49525180D01*
X234416552Y-49525180D02*
X234416552Y-48525180D01*
X234321314Y-48668038D01*
X234226076Y-48763276D01*
X234130838Y-48810895D01*
X233174800Y-44457547D02*
X232174800Y-44457547D01*
X232174800Y-44076595D01*
X232222420Y-43981357D01*
X232270039Y-43933738D01*
X232365277Y-43886119D01*
X232508134Y-43886119D01*
X232603372Y-43933738D01*
X232650991Y-43981357D01*
X232698610Y-44076595D01*
X232698610Y-44457547D01*
X232174800Y-43171833D02*
X232889086Y-43171833D01*
X233031943Y-43219452D01*
X233127181Y-43314690D01*
X233174800Y-43457547D01*
X233174800Y-43552785D01*
X232793848Y-42695642D02*
X232793848Y-41933738D01*
X232174800Y-41552785D02*
X232174800Y-40933738D01*
X232555753Y-41267071D01*
X232555753Y-41124214D01*
X232603372Y-41028976D01*
X232650991Y-40981357D01*
X232746229Y-40933738D01*
X232984324Y-40933738D01*
X233079562Y-40981357D01*
X233127181Y-41028976D01*
X233174800Y-41124214D01*
X233174800Y-41409928D01*
X233127181Y-41505166D01*
X233079562Y-41552785D01*
X232270039Y-40552785D02*
X232222420Y-40505166D01*
X232174800Y-40409928D01*
X232174800Y-40171833D01*
X232222420Y-40076595D01*
X232270039Y-40028976D01*
X232365277Y-39981357D01*
X232460515Y-39981357D01*
X232603372Y-40028976D01*
X233174800Y-40600404D01*
X233174800Y-39981357D01*
X232174800Y-39362309D02*
X232174800Y-39267071D01*
X232222420Y-39171833D01*
X232270039Y-39124214D01*
X232365277Y-39076595D01*
X232555753Y-39028976D01*
X232793848Y-39028976D01*
X232984324Y-39076595D01*
X233079562Y-39124214D01*
X233127181Y-39171833D01*
X233174800Y-39267071D01*
X233174800Y-39362309D01*
X233127181Y-39457547D01*
X233079562Y-39505166D01*
X232984324Y-39552785D01*
X232793848Y-39600404D01*
X232555753Y-39600404D01*
X232365277Y-39552785D01*
X232270039Y-39505166D01*
X232222420Y-39457547D01*
X232174800Y-39362309D01*
X232889086Y-38648023D02*
X232889086Y-38171833D01*
X233174800Y-38743261D02*
X232174800Y-38409928D01*
X233174800Y-38076595D01*
G04 #@! TD*
M02*
