M48
;DRILL file {KiCad (5.0.1)-3} date 14/02/2019 19:45:36
;FORMAT={-:-/ absolute / metric / decimal}
FMAT,2
METRIC,TZ
T1C0.508
T2C0.900
T3C0.991
T4C1.100
T5C0.800
T6C1.700
T7C2.950
T8C3.048
T9C3.980
T10C3.988
T11C6.000
%
G90
G05
M71
T1
X135.549Y-134.681
X135.549Y-138.001
X148.549Y-131.56
X148.56Y-150.59
X148.562Y-112.51
X152.362Y-131.56
X152.364Y-112.51
X152.382Y-150.59
X159.359Y-134.671
X159.359Y-137.988
X232.214Y-50.183
X235.033Y-53.002
X238.564Y-149.423
X240.568Y-151.427
X243.095Y-140.266
X246.742Y-143.914
X249.344Y-152.319
X253.012Y-155.986
T2
X176.804Y-118.11
X176.804Y-126.11
X214.879Y-80.007
X214.879Y-88.007
X251.559Y-62.236
X251.559Y-70.236
X242.962Y-174.049
X246.343Y-166.799
X176.804Y-137.159
X176.804Y-145.159
X270.227Y-160.671
X273.608Y-153.42
X195.854Y-116.507
X195.854Y-124.507
X133.939Y-102.253
X133.939Y-110.253
X176.791Y-80.02
X176.791Y-88.02
X195.834Y-59.369
X195.834Y-67.369
X233.912Y-62.253
X233.912Y-70.253
X233.954Y-138.429
X233.954Y-146.429
X133.944Y-140.339
X133.944Y-148.339
X251.513Y-81.38
X251.513Y-89.38
X176.789Y-99.062
X176.789Y-107.062
X268.973Y-183.849
X276.223Y-187.23
X176.804Y-156.189
X176.804Y-164.189
X157.746Y-121.301
X157.746Y-129.301
X157.754Y-140.339
X157.754Y-148.339
X139.06Y-158.95
X139.06Y-166.95
X157.74Y-102.263
X157.74Y-110.263
X214.879Y-99.045
X214.879Y-107.045
X176.794Y-60.966
X176.794Y-68.966
X214.874Y-60.953
X214.874Y-68.953
X251.18Y-134.99
X251.18Y-142.99
X214.904Y-118.089
X214.904Y-126.089
X233.954Y-81.303
X233.954Y-89.303
X233.912Y-100.355
X233.912Y-108.355
X157.744Y-64.173
X157.744Y-72.173
X133.95Y-121.293
X133.95Y-129.293
X133.936Y-83.21
X133.936Y-91.21
X214.904Y-156.169
X214.904Y-164.169
X195.837Y-78.414
X195.837Y-86.414
X233.954Y-119.4
X233.954Y-127.4
X195.854Y-135.549
X195.854Y-143.549
X251.473Y-105.502
X251.473Y-113.502
X195.833Y-97.459
X195.833Y-105.459
X195.854Y-154.589
X195.854Y-162.589
X223.417Y-164.694
X226.798Y-157.444
X254.161Y-150.041
X257.542Y-142.791
X263.725Y-162.871
X270.975Y-166.252
X158.18Y-159.03
X158.18Y-167.03
X157.741Y-83.21
X157.741Y-91.21
X214.904Y-137.129
X214.904Y-145.129
T3
X207.766Y-39.875
X217.926Y-39.875
X188.828Y-39.875
X198.988Y-39.875
T4
X120.73Y-37.379
X120.73Y-39.919
X120.73Y-42.459
X120.73Y-44.999
X120.73Y-47.539
X120.73Y-50.079
X120.73Y-52.619
X120.73Y-55.159
X120.73Y-57.699
X120.73Y-60.239
X120.73Y-62.779
X120.73Y-65.319
X135.97Y-37.379
X135.97Y-39.919
X135.97Y-42.459
X135.97Y-44.999
X135.97Y-47.539
X135.97Y-50.079
X135.97Y-52.619
X135.97Y-55.159
X135.97Y-57.699
X135.97Y-60.239
X135.97Y-62.779
X135.97Y-65.319
T5
X234.033Y-37.747
X234.033Y-44.747
T6
X143.522Y-120.782
X153.682Y-120.782
X219.73Y-80.784
X229.89Y-80.784
X162.567Y-79.501
X172.727Y-79.501
X263.304Y-198.055
X267.598Y-188.847
X181.63Y-154.07
X191.79Y-154.07
X181.609Y-96.94
X191.769Y-96.94
X181.613Y-77.895
X191.773Y-77.895
X143.517Y-82.691
X153.677Y-82.691
X219.688Y-99.836
X229.848Y-99.836
X219.688Y-61.734
X229.848Y-61.734
X200.68Y-155.65
X210.84Y-155.65
X219.73Y-137.91
X229.89Y-137.91
X238.78Y-133.15
X248.94Y-133.15
X181.63Y-115.987
X191.79Y-115.987
X200.654Y-98.525
X210.814Y-98.525
X119.712Y-82.691
X129.872Y-82.691
X232.806Y-173.312
X237.099Y-164.104
X162.58Y-136.64
X172.74Y-136.64
X162.57Y-60.447
X172.73Y-60.447
X162.58Y-117.59
X172.74Y-117.59
X119.715Y-101.734
X129.875Y-101.734
X181.61Y-58.85
X191.77Y-58.85
X200.65Y-60.434
X210.81Y-60.434
X200.68Y-136.61
X210.84Y-136.61
X162.565Y-98.543
X172.725Y-98.543
X200.655Y-79.487
X210.815Y-79.487
X238.78Y-80.776
X248.94Y-80.776
X162.58Y-155.67
X172.74Y-155.67
X181.63Y-135.03
X191.79Y-135.03
X279.388Y-163.55
X283.682Y-154.342
X143.53Y-139.82
X153.69Y-139.82
X238.78Y-104.596
X248.94Y-104.596
X143.53Y-158.87
X153.69Y-158.87
X250.076Y-181.331
X254.37Y-172.123
X238.78Y-61.736
X248.94Y-61.736
X262.128Y-155.5
X266.422Y-146.292
X119.72Y-139.82
X129.88Y-139.82
X119.725Y-120.774
X129.885Y-120.774
X143.516Y-101.743
X153.676Y-101.743
X271.337Y-180.816
X275.631Y-171.608
X124.48Y-158.87
X134.64Y-158.87
X143.52Y-63.654
X153.68Y-63.654
X219.73Y-118.881
X229.89Y-118.881
X200.68Y-117.57
X210.84Y-117.57
T7
X184.149Y-91.86
X190.499Y-94.4
X184.153Y-72.815
X190.503Y-75.355
X146.057Y-77.611
X152.407Y-80.151
X222.228Y-94.756
X228.578Y-97.296
X222.228Y-56.654
X228.578Y-59.194
X203.22Y-150.57
X209.57Y-153.11
X222.27Y-132.83
X228.62Y-135.37
X241.32Y-128.07
X247.67Y-130.61
X184.17Y-110.907
X190.52Y-113.447
X203.194Y-93.445
X209.544Y-95.985
X122.252Y-77.611
X128.602Y-80.151
X229.275Y-168.864
X234.261Y-164.182
X165.12Y-131.56
X171.47Y-134.1
X165.11Y-55.367
X171.46Y-57.907
X165.12Y-112.51
X171.47Y-115.05
X122.255Y-96.654
X128.605Y-99.194
X184.15Y-53.77
X190.5Y-56.31
X203.19Y-55.354
X209.54Y-57.894
X203.22Y-131.53
X209.57Y-134.07
X165.105Y-93.463
X171.455Y-96.003
X203.195Y-74.407
X209.545Y-76.947
X241.32Y-75.696
X247.67Y-78.236
X165.12Y-150.59
X171.47Y-153.13
X184.17Y-129.95
X190.52Y-132.49
X282.227Y-163.473
X287.212Y-158.791
X146.07Y-134.74
X152.42Y-137.28
X241.32Y-99.516
X247.67Y-102.056
X146.07Y-153.79
X152.42Y-156.33
X246.546Y-176.882
X251.531Y-172.2
X241.32Y-56.656
X247.67Y-59.196
X258.597Y-151.052
X263.583Y-146.37
X122.26Y-134.74
X128.61Y-137.28
X122.265Y-115.694
X128.615Y-118.234
X146.056Y-96.663
X152.406Y-99.203
X267.806Y-176.367
X272.792Y-171.685
X127.02Y-153.79
X133.37Y-156.33
X146.06Y-58.574
X152.41Y-61.114
X222.27Y-113.801
X228.62Y-116.341
X203.22Y-112.49
X209.57Y-115.03
X146.062Y-115.702
X152.412Y-118.242
X222.27Y-75.704
X228.62Y-78.244
X165.107Y-74.421
X171.457Y-76.961
X259.773Y-193.606
X264.759Y-188.925
X184.17Y-148.99
X190.52Y-151.53
T8
X240.847Y-184.594
X250.938Y-162.955
X236.238Y-182.48
X246.328Y-160.841
T9
X243.86Y-104.596
X148.61Y-158.87
X252.223Y-176.727
X243.86Y-61.736
X264.275Y-150.896
X124.8Y-139.82
X124.805Y-120.774
X148.596Y-101.743
X273.484Y-176.212
X129.56Y-158.87
X148.6Y-63.654
X224.81Y-118.881
X205.76Y-117.57
X148.602Y-120.782
X224.81Y-80.784
X167.647Y-79.501
X265.451Y-193.451
X186.71Y-154.07
X186.689Y-96.94
X186.693Y-77.895
X148.597Y-82.691
X224.768Y-99.836
X224.768Y-61.734
X205.76Y-155.65
X224.81Y-137.91
X243.86Y-133.15
X186.71Y-115.987
X205.734Y-98.525
X124.792Y-82.691
X234.952Y-168.708
X167.66Y-136.64
X167.65Y-60.447
X167.66Y-117.59
X124.795Y-101.734
X186.69Y-58.85
X205.73Y-60.434
X205.76Y-136.61
X167.645Y-98.543
X205.735Y-79.487
X243.86Y-80.776
X167.66Y-155.67
X186.71Y-135.03
X281.535Y-158.946
X148.61Y-139.82
T10
X254.659Y-191.035
X264.75Y-169.396
X222.426Y-176.039
X232.516Y-154.4
T11
X115.283Y-41.036
X247.846Y-41.651
X114.48Y-155.747
X256.58Y-137.332
X210.843Y-173.376
X182.002Y-40.977
T2
X231.733Y-39.547G85X231.733Y-39.147
G05
X231.733Y-42.547G85X231.733Y-42.147
G05
X231.733Y-46.547G85X231.733Y-46.147
G05
X236.333Y-47.647G85X236.333Y-47.247
G05
T0
M30
