M48
;DRILL file {KiCad (5.0.1)-3} date 17/11/2018 01:07:27
;FORMAT={-:-/ absolute / inch / decimal}
FMAT,2
INCH,TZ
T1C0.0200
T2C0.0354
T3C0.0390
T4C0.0433
T5C0.0315
T6C0.0669
T7C0.1161
T8C0.1567
T9C0.2510
%
G90
G05
M72
T1
X5.3366Y-5.3024
X5.3366Y-5.4331
X5.8484Y-5.1795
X5.8489Y-4.4295
X5.9985Y-5.1795
X5.9986Y-4.4295
X6.274Y-5.302
X6.274Y-5.4326
X9.0076Y-1.858
X9.2363Y-2.0867
X9.486Y-6.1535
X9.5707Y-5.5223
X9.5809Y-6.2484
X9.7143Y-5.6659
T2
X9.9005Y-4.1536
X9.9005Y-4.4686
X6.2102Y-4.0261
X6.2102Y-4.341
X5.4748Y-6.2579
X5.4748Y-6.5728
X6.9602Y-3.9001
X6.9602Y-4.215
X9.2108Y-3.2009
X9.2108Y-3.5159
X9.2108Y-4.7008
X9.2108Y-5.0158
X7.71Y-3.837
X7.71Y-4.1519
X7.71Y-2.3374
X7.71Y-2.6523
X6.9603Y-3.1504
X6.9603Y-3.4654
X7.7108Y-5.3366
X7.7108Y-5.6515
X9.9021Y-3.2039
X9.9021Y-3.5189
X8.4608Y-5.3988
X8.4608Y-5.7138
X7.7108Y-4.5869
X7.7108Y-4.9018
X6.9604Y-2.4003
X6.9604Y-2.7152
X5.2732Y-4.0257
X5.2732Y-4.3407
X9.2108Y-5.45
X9.2108Y-5.7649
X9.2091Y-2.4509
X9.2091Y-2.7659
X7.7108Y-6.0862
X7.7108Y-6.4012
X6.2108Y-5.5252
X6.2108Y-5.8401
X5.2731Y-3.276
X5.2731Y-3.5909
X9.889Y-5.3146
X9.889Y-5.6295
X9.2091Y-3.951
X9.2091Y-4.266
X6.9608Y-6.1492
X6.9608Y-6.4641
X8.4608Y-6.1484
X8.4608Y-6.4634
X9.9039Y-2.4502
X9.9039Y-2.7652
X6.2105Y-4.7756
X6.2105Y-5.0906
X7.7101Y-3.0872
X7.7101Y-3.4021
X10.408Y-6.8345
X10.5412Y-6.5491
X8.4596Y-2.3997
X8.4596Y-2.7147
X5.2734Y-5.5252
X5.2734Y-5.8401
X6.9608Y-4.65
X6.9608Y-4.9649
X9.8832Y-6.537
X10.0164Y-6.2516
X6.2103Y-3.276
X6.2103Y-3.5909
X9.5882Y-6.8266
X9.7213Y-6.5411
X10.6388Y-6.3256
X10.772Y-6.0402
X8.4598Y-3.1499
X8.4598Y-3.4648
X6.2104Y-2.5265
X6.2104Y-2.8415
X5.2736Y-4.7753
X5.2736Y-5.0903
X10.5895Y-7.2381
X10.8749Y-7.3713
X8.4598Y-3.8994
X8.4598Y-4.2144
X6.2276Y-6.261
X6.2276Y-6.576
X8.4608Y-4.6492
X8.4608Y-4.9641
X6.9608Y-5.4
X6.9608Y-5.7149
X10.0063Y-5.9071
X10.1395Y-5.6217
T3
X8.1798Y-1.5699
X8.5798Y-1.5699
X7.4342Y-1.5699
X7.8342Y-1.5699
T4
X4.7531Y-1.4716
X4.7531Y-1.5716
X4.7531Y-1.6716
X4.7531Y-1.7716
X4.7531Y-1.8716
X4.7531Y-1.9716
X4.7531Y-2.0716
X4.7531Y-2.1716
X4.7531Y-2.2716
X4.7531Y-2.3716
X4.7531Y-2.4716
X4.7531Y-2.5716
X5.3531Y-1.4716
X5.3531Y-1.5716
X5.3531Y-1.6716
X5.3531Y-1.7716
X5.3531Y-1.8716
X5.3531Y-1.9716
X5.3531Y-2.0716
X5.3531Y-2.1716
X5.3531Y-2.2716
X5.3531Y-2.3716
X5.3531Y-2.4716
X5.3531Y-2.5716
T5
X9.2139Y-1.4861
X9.2139Y-1.7617
T6
X7.9008Y-4.6287
X8.3008Y-4.6287
X6.4008Y-5.3795
X6.8008Y-5.3795
X10.6826Y-7.1187
X10.8516Y-6.7562
X4.7131Y-3.2555
X5.1131Y-3.2555
X8.6491Y-2.4305
X9.0491Y-2.4305
X7.1508Y-4.5664
X7.5508Y-4.5664
X7.9008Y-6.128
X8.3008Y-6.128
X5.6508Y-5.5047
X6.0508Y-5.5047
X5.6508Y-6.2547
X6.0508Y-6.2547
X8.6508Y-3.1805
X9.0508Y-3.1805
X7.8998Y-3.1294
X8.2998Y-3.1294
X4.7134Y-5.5047
X5.1134Y-5.5047
X6.4008Y-4.6295
X6.8008Y-4.6295
X9.8455Y-7.139
X10.0146Y-6.7765
X9.4008Y-4.1179
X9.8008Y-4.1179
X10.3663Y-7.7975
X10.5353Y-7.4349
X7.1501Y-3.0667
X7.5501Y-3.0667
X7.15Y-3.8165
X7.55Y-3.8165
X6.4004Y-2.3798
X6.8004Y-2.3798
X10.9995Y-6.439
X11.1686Y-6.0765
X4.7136Y-4.7549
X5.1136Y-4.7549
X7.1508Y-6.0657
X7.5508Y-6.0657
X7.8998Y-3.8789
X8.2998Y-3.8789
X6.4003Y-3.1299
X6.8003Y-3.1299
X6.4002Y-3.8796
X6.8002Y-3.8796
X9.4008Y-3.1802
X9.8008Y-3.1802
X10.32Y-6.1221
X10.489Y-5.7595
X8.6491Y-3.9306
X9.0491Y-3.9306
X6.4008Y-6.1287
X6.8008Y-6.1287
X7.9008Y-5.3783
X8.3008Y-5.3783
X7.15Y-2.3169
X7.55Y-2.3169
X5.6502Y-4.0056
X6.0502Y-4.0056
X7.8996Y-2.3793
X8.2996Y-2.3793
X8.6508Y-4.6803
X9.0508Y-4.6803
X9.4008Y-5.2421
X9.8008Y-5.2421
X7.1508Y-5.3161
X7.5508Y-5.3161
X4.9008Y-6.2547
X5.3008Y-6.2547
X9.4008Y-2.4305
X9.8008Y-2.4305
X5.6503Y-3.2555
X6.0503Y-3.2555
X5.6505Y-4.7552
X6.0505Y-4.7552
X8.6508Y-5.4295
X9.0508Y-5.4295
X9.1656Y-6.8233
X9.3346Y-6.4608
X5.6504Y-2.506
X6.0504Y-2.506
X4.7132Y-4.0053
X5.1132Y-4.0053
T7
X8.0008Y-4.4287
X8.2508Y-4.5287
X6.5008Y-5.1795
X6.7508Y-5.2795
X10.5436Y-6.9436
X10.7398Y-6.7593
X4.8131Y-3.0555
X5.0631Y-3.1555
X8.7491Y-2.2305
X8.9991Y-2.3305
X7.2508Y-4.3664
X7.5008Y-4.4664
X8.0008Y-5.928
X8.2508Y-6.028
X5.7508Y-5.3047
X6.0008Y-5.4047
X5.7508Y-6.0547
X6.0008Y-6.1547
X8.7508Y-2.9805
X9.0008Y-3.0805
X7.9998Y-2.9294
X8.2498Y-3.0294
X4.8134Y-5.3047
X5.0634Y-5.4047
X6.5008Y-4.4295
X6.7508Y-4.5295
X9.7065Y-6.9638
X9.9028Y-6.7795
X9.5008Y-3.9179
X9.7508Y-4.0179
X10.2273Y-7.6223
X10.4236Y-7.438
X7.2501Y-2.8667
X7.5001Y-2.9667
X7.25Y-3.6165
X7.5Y-3.7165
X6.5004Y-2.1798
X6.7504Y-2.2798
X11.1113Y-6.4359
X11.3076Y-6.2516
X4.8136Y-4.5549
X5.0636Y-4.6549
X7.2508Y-5.8657
X7.5008Y-5.9657
X7.9998Y-3.6789
X8.2498Y-3.7789
X6.5003Y-2.9299
X6.7503Y-3.0299
X6.5002Y-3.6796
X6.7502Y-3.7796
X9.5008Y-2.9802
X9.7508Y-3.0802
X10.181Y-5.9469
X10.3773Y-5.7626
X8.7491Y-3.7306
X8.9991Y-3.8306
X6.5008Y-5.9287
X6.7508Y-6.0287
X8.0008Y-5.1783
X8.2508Y-5.2783
X7.25Y-2.1169
X7.5Y-2.2169
X5.7502Y-3.8056
X6.0002Y-3.9056
X7.9996Y-2.1793
X8.2496Y-2.2793
X8.7508Y-4.4803
X9.0008Y-4.5803
X9.5008Y-5.0421
X9.7508Y-5.1421
X7.2508Y-5.1161
X7.5008Y-5.2161
X5.0008Y-6.0547
X5.2508Y-6.1547
X9.5008Y-2.2305
X9.7508Y-2.3305
X5.7503Y-3.0555
X6.0003Y-3.1555
X5.7505Y-4.5552
X6.0005Y-4.6552
X8.7508Y-5.2295
X9.0008Y-5.3295
X9.0266Y-6.6482
X9.2229Y-6.4639
X5.7504Y-2.306
X6.0004Y-2.406
X4.8132Y-3.8053
X5.0632Y-3.9053
T8
X10.4045Y-5.9408
X8.8491Y-3.9306
X6.6008Y-6.1287
X8.1008Y-5.3783
X7.35Y-2.3169
X5.8502Y-4.0056
X8.0996Y-2.3793
X8.8508Y-4.6803
X9.6008Y-5.2421
X7.3508Y-5.3161
X5.1008Y-6.2547
X9.6008Y-2.4305
X5.8503Y-3.2555
X5.8505Y-4.7552
X8.8508Y-5.4295
X9.2501Y-6.6421
X5.8504Y-2.506
X4.9132Y-4.0053
X8.1008Y-4.6287
X6.6008Y-5.3795
X10.7671Y-6.9375
X4.9131Y-3.2555
X8.8491Y-2.4305
X7.3508Y-4.5664
X8.1008Y-6.128
X5.8508Y-5.5047
X5.8508Y-6.2547
X8.8508Y-3.1805
X8.0998Y-3.1294
X4.9134Y-5.5047
X6.6008Y-4.6295
X9.93Y-6.9577
X9.6008Y-4.1179
X10.4508Y-7.6162
X7.3501Y-3.0667
X7.35Y-3.8165
X6.6004Y-2.3798
X11.084Y-6.2577
X4.9136Y-4.7549
X7.3508Y-6.0657
X8.0998Y-3.8789
X6.6003Y-3.1299
X6.6002Y-3.8796
X9.6008Y-3.1802
T9
X4.5071Y-6.1318
X7.1654Y-1.6133
X9.7577Y-1.6398
X10.1016Y-5.4068
X8.3009Y-6.8258
X4.5387Y-1.6156
T2
X9.1233Y-1.8601G85X9.1233Y-1.8759
G05
X9.3045Y-1.5412G85X9.3045Y-1.557
G05
X9.3045Y-1.6593G85X9.3045Y-1.6751
G05
X9.3045Y-1.8168G85X9.3045Y-1.8325
G05
T0
M30
