G04 #@! TF.GenerationSoftware,KiCad,Pcbnew,(6.0.9-0)*
G04 #@! TF.CreationDate,2023-02-17T19:07:12+11:00*
G04 #@! TF.ProjectId,ErgoMaxReversible,4572676f-4d61-4785-9265-766572736962,rev?*
G04 #@! TF.SameCoordinates,Original*
G04 #@! TF.FileFunction,Soldermask,Top*
G04 #@! TF.FilePolarity,Negative*
%FSLAX46Y46*%
G04 Gerber Fmt 4.6, Leading zero omitted, Abs format (unit mm)*
G04 Created by KiCad (PCBNEW (6.0.9-0)) date 2023-02-17 19:07:12*
%MOMM*%
%LPD*%
G01*
G04 APERTURE LIST*
G04 Aperture macros list*
%AMRoundRect*
0 Rectangle with rounded corners*
0 $1 Rounding radius*
0 $2 $3 $4 $5 $6 $7 $8 $9 X,Y pos of 4 corners*
0 Add a 4 corners polygon primitive as box body*
4,1,4,$2,$3,$4,$5,$6,$7,$8,$9,$2,$3,0*
0 Add four circle primitives for the rounded corners*
1,1,$1+$1,$2,$3*
1,1,$1+$1,$4,$5*
1,1,$1+$1,$6,$7*
1,1,$1+$1,$8,$9*
0 Add four rect primitives between the rounded corners*
20,1,$1+$1,$2,$3,$4,$5,0*
20,1,$1+$1,$4,$5,$6,$7,0*
20,1,$1+$1,$6,$7,$8,$9,0*
20,1,$1+$1,$8,$9,$2,$3,0*%
G04 Aperture macros list end*
%ADD10C,5.867400*%
%ADD11C,1.702000*%
%ADD12RoundRect,0.051000X-0.800000X0.800000X-0.800000X-0.800000X0.800000X-0.800000X0.800000X0.800000X0*%
%ADD13RoundRect,0.051000X-1.275000X-1.250000X1.275000X-1.250000X1.275000X1.250000X-1.275000X1.250000X0*%
%ADD14C,3.052000*%
%ADD15C,4.082180*%
%ADD16RoundRect,0.051000X0.594046X-1.683815X1.671723X0.627270X-0.594046X1.683815X-1.671723X-0.627270X0*%
%ADD17RoundRect,0.051000X-0.594046X1.683815X-1.671723X-0.627270X0.594046X-1.683815X1.671723X0.627270X0*%
%ADD18RoundRect,0.051000X-1.000000X1.000000X-1.000000X-1.000000X1.000000X-1.000000X1.000000X1.000000X0*%
%ADD19C,2.102000*%
%ADD20RoundRect,0.051000X-0.483690X1.328926X-1.328926X-0.483690X0.483690X-1.328926X1.328926X0.483690X0*%
%ADD21RoundRect,0.051000X0.483690X-1.328926X1.328926X0.483690X-0.483690X1.328926X-1.328926X-0.483690X0*%
%ADD22RoundRect,0.051000X1.328926X0.483690X-0.483690X1.328926X-1.328926X-0.483690X0.483690X-1.328926X0*%
%ADD23RoundRect,0.051000X-1.328926X-0.483690X0.483690X-1.328926X1.328926X0.483690X-0.483690X1.328926X0*%
%ADD24C,1.602000*%
%ADD25O,1.702000X2.302000*%
%ADD26C,3.150000*%
%ADD27C,4.089800*%
%ADD28C,1.753000*%
G04 APERTURE END LIST*
D10*
X182002380Y-40976880D03*
D11*
X135969660Y-37378640D03*
X135969660Y-39918640D03*
X135969660Y-42458640D03*
X135969660Y-44998640D03*
X135969660Y-47538640D03*
X135969660Y-50078640D03*
X135969660Y-52618640D03*
X135969660Y-55158640D03*
X135969660Y-57698640D03*
X135969660Y-60238640D03*
X135969660Y-62778640D03*
X135969660Y-65318640D03*
X120729660Y-65318640D03*
X120729660Y-62778640D03*
X120729660Y-60238640D03*
X120729660Y-57698640D03*
X120729660Y-55158640D03*
X120729660Y-52618640D03*
X120729660Y-50078640D03*
X120729660Y-47538640D03*
X120729660Y-44998640D03*
X120729660Y-42458640D03*
X120729660Y-39918640D03*
D12*
X120729660Y-37378640D03*
D13*
X213090000Y-57893640D03*
X199640000Y-55353640D03*
D14*
X203190000Y-55353640D03*
X209540000Y-57893640D03*
X201920000Y-57893640D03*
X208270000Y-55353640D03*
D15*
X205730000Y-60433640D03*
D13*
X194050000Y-56309640D03*
X180600000Y-53769640D03*
D14*
X184150000Y-53769640D03*
X190500000Y-56309640D03*
X182880000Y-56309640D03*
X189230000Y-53769640D03*
D15*
X186690000Y-58849640D03*
D13*
X155961600Y-118242040D03*
X142511600Y-115702040D03*
D14*
X146061600Y-115702040D03*
X152411600Y-118242040D03*
X144791600Y-118242040D03*
X151141600Y-115702040D03*
D15*
X148601600Y-120782040D03*
D13*
X175020000Y-115050240D03*
X161570000Y-112510240D03*
D14*
X165120000Y-112510240D03*
X171470000Y-115050240D03*
X163850000Y-115050240D03*
X170200000Y-112510240D03*
D15*
X167660000Y-117590240D03*
D13*
X213120000Y-115030000D03*
X199670000Y-112490000D03*
D14*
X203220000Y-112490000D03*
X209570000Y-115030000D03*
X201950000Y-115030000D03*
X208300000Y-112490000D03*
D15*
X205760000Y-117570000D03*
D13*
X232170000Y-116340840D03*
X218720000Y-113800840D03*
D14*
X222270000Y-113800840D03*
X228620000Y-116340840D03*
X221000000Y-116340840D03*
X227350000Y-113800840D03*
D15*
X224810000Y-118880840D03*
D16*
X265083343Y-143152520D03*
X257097105Y-154268910D03*
D14*
X258597400Y-151051517D03*
X263583048Y-146369913D03*
X260362697Y-153275978D03*
X260744301Y-146447473D03*
D15*
X264274894Y-150896396D03*
D17*
X280726233Y-166690269D03*
X288712471Y-155573879D03*
D14*
X287212176Y-158791272D03*
X282226528Y-163472876D03*
X285446879Y-156566811D03*
X285065275Y-163395316D03*
D15*
X281534682Y-158946393D03*
D13*
X132160000Y-137280000D03*
X118710000Y-134740000D03*
D14*
X122260000Y-134740000D03*
X128610000Y-137280000D03*
X120990000Y-137280000D03*
X127340000Y-134740000D03*
D15*
X124800000Y-139820000D03*
D13*
X155970000Y-137280000D03*
X142520000Y-134740000D03*
D14*
X146070000Y-134740000D03*
X152420000Y-137280000D03*
X144800000Y-137280000D03*
X151150000Y-134740000D03*
D15*
X148610000Y-139820000D03*
D13*
X194070000Y-132490000D03*
X180620000Y-129950000D03*
D14*
X184170000Y-129950000D03*
X190520000Y-132490000D03*
X182900000Y-132490000D03*
X189250000Y-129950000D03*
D15*
X186710000Y-135030000D03*
D13*
X132165400Y-118233840D03*
X118715400Y-115693840D03*
D14*
X122265400Y-115693840D03*
X128615400Y-118233840D03*
X120995400Y-118233840D03*
X127345400Y-115693840D03*
D15*
X124805400Y-120773840D03*
D13*
X232170000Y-135370000D03*
X218720000Y-132830000D03*
D14*
X222270000Y-132830000D03*
X228620000Y-135370000D03*
X221000000Y-135370000D03*
X227350000Y-132830000D03*
D15*
X224810000Y-137910000D03*
D13*
X251220000Y-130610000D03*
X237770000Y-128070000D03*
D14*
X241320000Y-128070000D03*
X247670000Y-130610000D03*
X240050000Y-130610000D03*
X246400000Y-128070000D03*
D15*
X243860000Y-133150000D03*
D13*
X194070000Y-151530000D03*
X180620000Y-148990000D03*
D14*
X184170000Y-148990000D03*
X190520000Y-151530000D03*
X182900000Y-151530000D03*
X189250000Y-148990000D03*
D15*
X186710000Y-154070000D03*
D16*
X274292254Y-168467680D03*
X266306016Y-179584070D03*
D14*
X267806311Y-176366677D03*
X272791959Y-171685073D03*
X269571608Y-178591138D03*
X269953212Y-171762633D03*
D15*
X273483805Y-176211556D03*
D13*
X136920000Y-156330000D03*
X123470000Y-153790000D03*
D14*
X127020000Y-153790000D03*
X133370000Y-156330000D03*
X125750000Y-156330000D03*
X132100000Y-153790000D03*
D15*
X129560000Y-158870000D03*
D13*
X155970000Y-156330000D03*
X142520000Y-153790000D03*
D14*
X146070000Y-153790000D03*
X152420000Y-156330000D03*
X144800000Y-156330000D03*
X151150000Y-153790000D03*
D15*
X148610000Y-158870000D03*
D13*
X175020000Y-153130000D03*
X161570000Y-150590000D03*
D14*
X165120000Y-150590000D03*
X171470000Y-153130000D03*
X163850000Y-153130000D03*
X170200000Y-150590000D03*
D15*
X167660000Y-155670000D03*
D13*
X194070000Y-113447240D03*
X180620000Y-110907240D03*
D14*
X184170000Y-110907240D03*
X190520000Y-113447240D03*
X182900000Y-113447240D03*
X189250000Y-110907240D03*
D15*
X186710000Y-115987240D03*
D13*
X155960000Y-61113640D03*
X142510000Y-58573640D03*
D14*
X146060000Y-58573640D03*
X152410000Y-61113640D03*
X144790000Y-61113640D03*
X151140000Y-58573640D03*
D15*
X148600000Y-63653640D03*
D13*
X175020000Y-134100000D03*
X161570000Y-131560000D03*
D14*
X165120000Y-131560000D03*
X171470000Y-134100000D03*
X163850000Y-134100000D03*
X170200000Y-131560000D03*
D15*
X167660000Y-136640000D03*
D16*
X235760885Y-160964532D03*
X227774647Y-172080922D03*
D14*
X229274942Y-168863529D03*
X234260590Y-164181925D03*
X231040239Y-171087990D03*
X231421843Y-164259485D03*
D15*
X234952436Y-168708408D03*
D16*
X253031529Y-168982712D03*
X245045291Y-180099102D03*
D14*
X246545586Y-176881709D03*
X251531234Y-172200105D03*
X248310883Y-179106170D03*
X248692487Y-172277665D03*
D15*
X252223080Y-176726588D03*
D16*
X266259400Y-185707312D03*
X258273162Y-196823702D03*
D14*
X259773457Y-193606309D03*
X264759105Y-188924705D03*
X261538754Y-195830770D03*
X261920358Y-189002265D03*
D15*
X265450951Y-193451188D03*
D13*
X213120000Y-134070000D03*
X199670000Y-131530000D03*
D14*
X203220000Y-131530000D03*
X209570000Y-134070000D03*
X201950000Y-134070000D03*
X208300000Y-131530000D03*
D15*
X205760000Y-136610000D03*
D13*
X132151680Y-80150640D03*
X118701680Y-77610640D03*
D14*
X122251680Y-77610640D03*
X128601680Y-80150640D03*
X120981680Y-80150640D03*
X127331680Y-77610640D03*
D15*
X124791680Y-82690640D03*
D13*
X175010000Y-57907040D03*
X161560000Y-55367040D03*
D14*
X165110000Y-55367040D03*
X171460000Y-57907040D03*
X163840000Y-57907040D03*
X170190000Y-55367040D03*
D15*
X167650000Y-60447040D03*
D13*
X232127751Y-59193640D03*
X218677751Y-56653640D03*
D14*
X222227751Y-56653640D03*
X228577751Y-59193640D03*
X220957751Y-59193640D03*
X227307751Y-56653640D03*
D15*
X224767751Y-61733640D03*
D13*
X175007100Y-76960640D03*
X161557100Y-74420640D03*
D14*
X165107100Y-74420640D03*
X171457100Y-76960640D03*
X163837100Y-76960640D03*
X170187100Y-74420640D03*
D15*
X167647100Y-79500640D03*
D13*
X251220000Y-59195640D03*
X237770000Y-56655640D03*
D14*
X241320000Y-56655640D03*
X247670000Y-59195640D03*
X240050000Y-59195640D03*
X246400000Y-56655640D03*
D15*
X243860000Y-61735640D03*
D13*
X232170000Y-78243520D03*
X218720000Y-75703520D03*
D14*
X222270000Y-75703520D03*
X228620000Y-78243520D03*
X221000000Y-78243520D03*
X227350000Y-75703520D03*
D15*
X224810000Y-80783520D03*
D13*
X251220000Y-78235940D03*
X237770000Y-75695940D03*
D14*
X241320000Y-75695940D03*
X247670000Y-78235940D03*
X240050000Y-78235940D03*
X246400000Y-75695940D03*
D15*
X243860000Y-80775940D03*
D13*
X132155080Y-99193740D03*
X118705080Y-96653740D03*
D14*
X122255080Y-96653740D03*
X128605080Y-99193740D03*
X120985080Y-99193740D03*
X127335080Y-96653740D03*
D15*
X124795080Y-101733740D03*
D13*
X155955860Y-99203340D03*
X142505860Y-96663340D03*
D14*
X146055860Y-96663340D03*
X152405860Y-99203340D03*
X144785860Y-99203340D03*
X151135860Y-96663340D03*
D15*
X148595860Y-101743340D03*
D13*
X175004600Y-96002620D03*
X161554600Y-93462620D03*
D14*
X165104600Y-93462620D03*
X171454600Y-96002620D03*
X163834600Y-96002620D03*
X170184600Y-93462620D03*
D15*
X167644600Y-98542620D03*
D13*
X194049040Y-94399540D03*
X180599040Y-91859540D03*
D14*
X184149040Y-91859540D03*
X190499040Y-94399540D03*
X182879040Y-94399540D03*
X189229040Y-91859540D03*
D15*
X186689040Y-96939540D03*
D13*
X213094440Y-95985260D03*
X199644440Y-93445260D03*
D14*
X203194440Y-93445260D03*
X209544440Y-95985260D03*
X201924440Y-95985260D03*
X208274440Y-93445260D03*
D15*
X205734440Y-98525260D03*
D13*
X213094600Y-76947420D03*
X199644600Y-74407420D03*
D14*
X203194600Y-74407420D03*
X209544600Y-76947420D03*
X201924600Y-76947420D03*
X208274600Y-74407420D03*
D15*
X205734600Y-79487420D03*
D13*
X232127600Y-97296040D03*
X218677600Y-94756040D03*
D14*
X222227600Y-94756040D03*
X228577600Y-97296040D03*
X220957600Y-97296040D03*
X227307600Y-94756040D03*
D15*
X224767600Y-99836040D03*
D13*
X251220000Y-102055640D03*
X237770000Y-99515640D03*
D14*
X241320000Y-99515640D03*
X247670000Y-102055640D03*
X240050000Y-102055640D03*
X246400000Y-99515640D03*
D15*
X243860000Y-104595640D03*
D13*
X194052700Y-75355080D03*
X180602700Y-72815080D03*
D14*
X184152700Y-72815080D03*
X190502700Y-75355080D03*
X182882700Y-75355080D03*
X189232700Y-72815080D03*
D15*
X186692700Y-77895080D03*
D13*
X213120000Y-153110000D03*
X199670000Y-150570000D03*
D14*
X203220000Y-150570000D03*
X209570000Y-153110000D03*
X201950000Y-153110000D03*
X208300000Y-150570000D03*
D15*
X205760000Y-155650000D03*
D13*
X155957100Y-80150640D03*
X142507100Y-77610640D03*
D14*
X146057100Y-77610640D03*
X152407100Y-80150640D03*
X144787100Y-80150640D03*
X151137100Y-77610640D03*
D15*
X148597100Y-82690640D03*
D18*
X195493640Y-125033540D03*
D19*
X195493640Y-117033540D03*
X214703660Y-118732800D03*
D18*
X214703660Y-126732800D03*
X233954161Y-127400166D03*
D19*
X233954161Y-119400166D03*
X257542133Y-142790529D03*
D20*
X254161187Y-150040991D03*
X270226687Y-160670891D03*
D19*
X273607633Y-153420429D03*
X133944161Y-140339326D03*
D18*
X133944161Y-148339326D03*
X157754161Y-148339326D03*
D19*
X157754161Y-140339326D03*
X176804161Y-137159326D03*
D18*
X176804161Y-145159326D03*
X195513960Y-143920980D03*
D19*
X195513960Y-135920980D03*
X133949561Y-121293166D03*
D18*
X133949561Y-129293166D03*
X176804161Y-126109566D03*
D19*
X176804161Y-118109566D03*
X157745761Y-121301366D03*
D18*
X157745761Y-129301366D03*
D21*
X226797973Y-157443789D03*
D19*
X223417027Y-164694251D03*
X214904161Y-156169326D03*
D18*
X214904161Y-164169326D03*
X195559680Y-163547560D03*
D19*
X195559680Y-155547560D03*
X176804161Y-156189326D03*
D18*
X176804161Y-164189326D03*
X158122620Y-166737800D03*
D19*
X158122620Y-158737800D03*
X138811000Y-158849560D03*
D18*
X138811000Y-166849560D03*
D22*
X262261969Y-161954107D03*
D19*
X269512431Y-165335053D03*
X251475240Y-134854180D03*
D18*
X251475240Y-142854180D03*
X233954161Y-146429326D03*
D19*
X233954161Y-138429326D03*
X253866031Y-158179873D03*
D22*
X246615569Y-154798927D03*
D18*
X214523320Y-145444980D03*
D19*
X214523320Y-137444980D03*
X195252340Y-60048640D03*
D18*
X195252340Y-68048640D03*
X214495380Y-69504060D03*
D19*
X214495380Y-61504060D03*
X233911912Y-62252966D03*
D18*
X233911912Y-70252966D03*
X251559060Y-70235580D03*
D19*
X251559060Y-62235580D03*
X133935841Y-83209966D03*
D18*
X133935841Y-91209966D03*
X157741261Y-91209966D03*
D19*
X157741261Y-83209966D03*
X176791261Y-80019966D03*
D18*
X176791261Y-88019966D03*
X195191380Y-87108800D03*
D19*
X195191380Y-79108800D03*
X269313009Y-184687107D03*
D23*
X276563471Y-188068053D03*
D18*
X233954161Y-89302846D03*
D19*
X233954161Y-81302846D03*
X214767160Y-80808060D03*
D18*
X214767160Y-88808060D03*
X157350460Y-72181220D03*
D19*
X157350460Y-64181220D03*
X233453940Y-100503220D03*
D18*
X233453940Y-108503220D03*
X176225200Y-69222120D03*
D19*
X176225200Y-61222120D03*
X251472700Y-105501940D03*
D18*
X251472700Y-113501940D03*
X214635080Y-107421180D03*
D19*
X214635080Y-99421180D03*
X195564760Y-98097840D03*
D18*
X195564760Y-106097840D03*
X176788761Y-107061946D03*
D19*
X176788761Y-99061946D03*
X157740021Y-102262666D03*
D18*
X157740021Y-110262666D03*
X133939241Y-110253066D03*
D19*
X133939241Y-102253066D03*
X251513340Y-81379560D03*
D18*
X251513340Y-89379560D03*
D24*
X235929200Y-44744200D03*
X235929200Y-37744200D03*
D25*
X238229200Y-47444200D03*
X229029200Y-47444200D03*
X233629200Y-46344200D03*
X233629200Y-39344200D03*
D24*
X231329200Y-44744200D03*
X231329200Y-37744200D03*
D25*
X233629200Y-42344200D03*
D26*
X240847303Y-184594102D03*
X250937737Y-162955097D03*
D27*
X254659434Y-191034804D03*
X264749868Y-169395798D03*
X222425648Y-176039198D03*
X232516082Y-154400192D03*
D26*
X236237779Y-182479899D03*
X246328213Y-160840894D03*
D10*
X256580125Y-137332164D03*
X115282980Y-41036240D03*
X247845580Y-41650920D03*
X114479969Y-155747076D03*
X210842752Y-173375665D03*
D28*
X207765920Y-39875460D03*
X217925920Y-39875460D03*
X188827680Y-39875460D03*
X198987680Y-39875460D03*
G36*
X260025158Y-195971768D02*
G01*
X260025972Y-195973226D01*
X260033524Y-196069174D01*
X260089351Y-196301711D01*
X260133546Y-196408410D01*
X260133285Y-196410393D01*
X260131437Y-196411158D01*
X260130141Y-196410430D01*
X260087174Y-196357110D01*
X260021458Y-196335238D01*
X259954367Y-196352362D01*
X259905271Y-196406585D01*
X259903367Y-196407198D01*
X259901884Y-196405856D01*
X259901975Y-196404398D01*
X259989211Y-196217319D01*
X259993800Y-196198568D01*
X259990892Y-196179687D01*
X259980983Y-196163356D01*
X259965415Y-196151940D01*
X259845918Y-196096218D01*
X259844771Y-196094579D01*
X259845616Y-196092767D01*
X259847063Y-196092428D01*
X259916114Y-196102916D01*
X259979340Y-196074645D01*
X260017305Y-196016590D01*
X260021990Y-195973168D01*
X260023170Y-195971554D01*
X260025158Y-195971768D01*
G37*
G36*
X260226893Y-195060943D02*
G01*
X260227360Y-195062888D01*
X260227147Y-195063365D01*
X260180866Y-195138889D01*
X260119706Y-195286544D01*
X260118119Y-195287762D01*
X260116271Y-195286997D01*
X260115869Y-195285565D01*
X260123189Y-195217477D01*
X260092189Y-195155547D01*
X260032514Y-195120141D01*
X259994600Y-195116884D01*
X259992960Y-195115739D01*
X259993131Y-195113746D01*
X259994614Y-195112897D01*
X260011861Y-195111539D01*
X260224975Y-195060375D01*
X260226893Y-195060943D01*
G37*
G36*
X261195940Y-194150082D02*
G01*
X261196342Y-194151514D01*
X261189022Y-194219602D01*
X261220022Y-194281532D01*
X261279697Y-194316938D01*
X261317611Y-194320195D01*
X261319251Y-194321340D01*
X261319080Y-194323333D01*
X261317597Y-194324182D01*
X261300350Y-194325540D01*
X261087236Y-194376704D01*
X261085318Y-194376136D01*
X261084851Y-194374191D01*
X261085064Y-194373714D01*
X261131345Y-194298190D01*
X261192505Y-194150535D01*
X261194092Y-194149317D01*
X261195940Y-194150082D01*
G37*
G36*
X263357382Y-189510934D02*
G01*
X263357643Y-189511387D01*
X263401217Y-189616586D01*
X263470766Y-189730079D01*
X263470819Y-189732078D01*
X263469113Y-189733123D01*
X263467719Y-189732607D01*
X263416939Y-189686665D01*
X263348614Y-189675343D01*
X263284892Y-189702810D01*
X263259971Y-189731570D01*
X263258081Y-189732224D01*
X263256570Y-189730914D01*
X263256755Y-189729215D01*
X263278246Y-189694146D01*
X263353947Y-189511387D01*
X263355534Y-189510169D01*
X263357382Y-189510934D01*
G37*
G36*
X263211744Y-188194363D02*
G01*
X263262524Y-188240305D01*
X263330849Y-188251627D01*
X263394571Y-188224160D01*
X263419492Y-188195400D01*
X263421382Y-188194746D01*
X263422893Y-188196056D01*
X263422708Y-188197755D01*
X263401217Y-188232824D01*
X263325516Y-188415583D01*
X263323929Y-188416801D01*
X263322081Y-188416036D01*
X263321820Y-188415583D01*
X263278246Y-188310384D01*
X263208697Y-188196891D01*
X263208644Y-188194892D01*
X263210350Y-188193847D01*
X263211744Y-188194363D01*
G37*
G36*
X246797287Y-179247168D02*
G01*
X246798101Y-179248626D01*
X246805653Y-179344574D01*
X246861480Y-179577111D01*
X246905675Y-179683810D01*
X246905414Y-179685793D01*
X246903566Y-179686558D01*
X246902270Y-179685830D01*
X246859303Y-179632510D01*
X246793587Y-179610638D01*
X246726496Y-179627762D01*
X246677400Y-179681985D01*
X246675496Y-179682598D01*
X246674013Y-179681256D01*
X246674104Y-179679798D01*
X246761340Y-179492719D01*
X246765929Y-179473968D01*
X246763021Y-179455087D01*
X246753112Y-179438756D01*
X246737544Y-179427340D01*
X246618047Y-179371618D01*
X246616900Y-179369979D01*
X246617745Y-179368167D01*
X246619192Y-179367828D01*
X246688243Y-179378316D01*
X246751469Y-179350045D01*
X246789434Y-179291990D01*
X246794119Y-179248568D01*
X246795299Y-179246954D01*
X246797287Y-179247168D01*
G37*
G36*
X268058012Y-178732136D02*
G01*
X268058826Y-178733594D01*
X268066378Y-178829542D01*
X268122205Y-179062079D01*
X268166400Y-179168778D01*
X268166139Y-179170761D01*
X268164291Y-179171526D01*
X268162995Y-179170798D01*
X268120028Y-179117478D01*
X268054312Y-179095606D01*
X267987221Y-179112730D01*
X267938125Y-179166953D01*
X267936221Y-179167566D01*
X267934738Y-179166224D01*
X267934829Y-179164766D01*
X268022065Y-178977687D01*
X268026654Y-178958936D01*
X268023746Y-178940055D01*
X268013837Y-178923724D01*
X267998269Y-178912308D01*
X267878772Y-178856586D01*
X267877625Y-178854947D01*
X267878470Y-178853135D01*
X267879917Y-178852796D01*
X267948968Y-178863284D01*
X268012194Y-178835013D01*
X268050159Y-178776958D01*
X268054844Y-178733536D01*
X268056024Y-178731922D01*
X268058012Y-178732136D01*
G37*
G36*
X246999022Y-178336343D02*
G01*
X246999489Y-178338288D01*
X246999276Y-178338765D01*
X246952995Y-178414289D01*
X246891835Y-178561944D01*
X246890248Y-178563162D01*
X246888400Y-178562397D01*
X246887998Y-178560965D01*
X246895318Y-178492877D01*
X246864318Y-178430947D01*
X246804643Y-178395541D01*
X246766729Y-178392284D01*
X246765089Y-178391139D01*
X246765260Y-178389146D01*
X246766743Y-178388297D01*
X246783990Y-178386939D01*
X246997104Y-178335775D01*
X246999022Y-178336343D01*
G37*
G36*
X268259747Y-177821311D02*
G01*
X268260214Y-177823256D01*
X268260001Y-177823733D01*
X268213720Y-177899257D01*
X268152560Y-178046912D01*
X268150973Y-178048130D01*
X268149125Y-178047365D01*
X268148723Y-178045933D01*
X268156043Y-177977845D01*
X268125043Y-177915915D01*
X268065368Y-177880509D01*
X268027454Y-177877252D01*
X268025814Y-177876107D01*
X268025985Y-177874114D01*
X268027468Y-177873265D01*
X268044715Y-177871907D01*
X268257829Y-177820743D01*
X268259747Y-177821311D01*
G37*
G36*
X247968069Y-177425482D02*
G01*
X247968471Y-177426914D01*
X247961151Y-177495002D01*
X247992151Y-177556932D01*
X248051826Y-177592338D01*
X248089740Y-177595595D01*
X248091380Y-177596740D01*
X248091209Y-177598733D01*
X248089726Y-177599582D01*
X248072479Y-177600940D01*
X247859365Y-177652104D01*
X247857447Y-177651536D01*
X247856980Y-177649591D01*
X247857193Y-177649114D01*
X247903474Y-177573590D01*
X247964634Y-177425935D01*
X247966221Y-177424717D01*
X247968069Y-177425482D01*
G37*
G36*
X269228794Y-176910450D02*
G01*
X269229196Y-176911882D01*
X269221876Y-176979970D01*
X269252876Y-177041900D01*
X269312551Y-177077306D01*
X269350465Y-177080563D01*
X269352105Y-177081708D01*
X269351934Y-177083701D01*
X269350451Y-177084550D01*
X269333204Y-177085908D01*
X269120090Y-177137072D01*
X269118172Y-177136504D01*
X269117705Y-177134559D01*
X269117918Y-177134082D01*
X269164199Y-177058558D01*
X269225359Y-176910903D01*
X269226946Y-176909685D01*
X269228794Y-176910450D01*
G37*
G36*
X250129511Y-172786334D02*
G01*
X250129772Y-172786787D01*
X250173346Y-172891986D01*
X250242895Y-173005479D01*
X250242948Y-173007478D01*
X250241242Y-173008523D01*
X250239848Y-173008007D01*
X250189068Y-172962065D01*
X250120743Y-172950743D01*
X250057021Y-172978210D01*
X250032100Y-173006970D01*
X250030210Y-173007624D01*
X250028699Y-173006314D01*
X250028884Y-173004615D01*
X250050375Y-172969546D01*
X250126076Y-172786787D01*
X250127663Y-172785569D01*
X250129511Y-172786334D01*
G37*
G36*
X271390236Y-172271302D02*
G01*
X271390497Y-172271755D01*
X271434071Y-172376954D01*
X271503620Y-172490447D01*
X271503673Y-172492446D01*
X271501967Y-172493491D01*
X271500573Y-172492975D01*
X271449793Y-172447033D01*
X271381468Y-172435711D01*
X271317746Y-172463178D01*
X271292825Y-172491938D01*
X271290935Y-172492592D01*
X271289424Y-172491282D01*
X271289609Y-172489583D01*
X271311100Y-172454514D01*
X271386801Y-172271755D01*
X271388388Y-172270537D01*
X271390236Y-172271302D01*
G37*
G36*
X249983873Y-171469763D02*
G01*
X250034653Y-171515705D01*
X250102978Y-171527027D01*
X250166700Y-171499560D01*
X250191621Y-171470800D01*
X250193511Y-171470146D01*
X250195022Y-171471456D01*
X250194837Y-171473155D01*
X250173346Y-171508224D01*
X250097645Y-171690983D01*
X250096058Y-171692201D01*
X250094210Y-171691436D01*
X250093949Y-171690983D01*
X250050375Y-171585784D01*
X249980826Y-171472291D01*
X249980773Y-171470292D01*
X249982479Y-171469247D01*
X249983873Y-171469763D01*
G37*
G36*
X229526643Y-171228988D02*
G01*
X229527457Y-171230446D01*
X229535009Y-171326394D01*
X229590836Y-171558931D01*
X229635031Y-171665630D01*
X229634770Y-171667613D01*
X229632922Y-171668378D01*
X229631626Y-171667650D01*
X229588659Y-171614330D01*
X229522943Y-171592458D01*
X229455852Y-171609582D01*
X229406756Y-171663805D01*
X229404852Y-171664418D01*
X229403369Y-171663076D01*
X229403460Y-171661618D01*
X229490696Y-171474539D01*
X229495285Y-171455788D01*
X229492377Y-171436907D01*
X229482468Y-171420576D01*
X229466900Y-171409160D01*
X229347403Y-171353438D01*
X229346256Y-171351799D01*
X229347101Y-171349987D01*
X229348548Y-171349648D01*
X229417599Y-171360136D01*
X229480825Y-171331865D01*
X229518790Y-171273810D01*
X229523475Y-171230388D01*
X229524655Y-171228774D01*
X229526643Y-171228988D01*
G37*
G36*
X271244598Y-170954731D02*
G01*
X271295378Y-171000673D01*
X271363703Y-171011995D01*
X271427425Y-170984528D01*
X271452346Y-170955768D01*
X271454236Y-170955114D01*
X271455747Y-170956424D01*
X271455562Y-170958123D01*
X271434071Y-170993192D01*
X271358370Y-171175951D01*
X271356783Y-171177169D01*
X271354935Y-171176404D01*
X271354674Y-171175951D01*
X271311100Y-171070752D01*
X271241551Y-170957259D01*
X271241498Y-170955260D01*
X271243204Y-170954215D01*
X271244598Y-170954731D01*
G37*
G36*
X229728378Y-170318163D02*
G01*
X229728845Y-170320108D01*
X229728632Y-170320585D01*
X229682351Y-170396109D01*
X229621191Y-170543764D01*
X229619604Y-170544982D01*
X229617756Y-170544217D01*
X229617354Y-170542785D01*
X229624674Y-170474697D01*
X229593674Y-170412767D01*
X229533999Y-170377361D01*
X229496085Y-170374104D01*
X229494445Y-170372959D01*
X229494616Y-170370966D01*
X229496099Y-170370117D01*
X229513346Y-170368759D01*
X229726460Y-170317595D01*
X229728378Y-170318163D01*
G37*
G36*
X230697425Y-169407302D02*
G01*
X230697827Y-169408734D01*
X230690507Y-169476822D01*
X230721507Y-169538752D01*
X230781182Y-169574158D01*
X230819096Y-169577415D01*
X230820736Y-169578560D01*
X230820565Y-169580553D01*
X230819082Y-169581402D01*
X230801835Y-169582760D01*
X230588721Y-169633924D01*
X230586803Y-169633356D01*
X230586336Y-169631411D01*
X230586549Y-169630934D01*
X230632830Y-169555410D01*
X230693990Y-169407755D01*
X230695577Y-169406537D01*
X230697425Y-169407302D01*
G37*
G36*
X232858867Y-164768154D02*
G01*
X232859128Y-164768607D01*
X232902702Y-164873806D01*
X232972251Y-164987299D01*
X232972304Y-164989298D01*
X232970598Y-164990343D01*
X232969204Y-164989827D01*
X232918424Y-164943885D01*
X232850099Y-164932563D01*
X232786377Y-164960030D01*
X232761456Y-164988790D01*
X232759566Y-164989444D01*
X232758055Y-164988134D01*
X232758240Y-164986435D01*
X232779731Y-164951366D01*
X232855432Y-164768607D01*
X232857019Y-164767389D01*
X232858867Y-164768154D01*
G37*
G36*
X283663552Y-163981545D02*
G01*
X283663813Y-163981998D01*
X283707387Y-164087197D01*
X283776936Y-164200690D01*
X283776989Y-164202689D01*
X283775283Y-164203734D01*
X283773889Y-164203218D01*
X283723109Y-164157276D01*
X283654784Y-164145954D01*
X283591062Y-164173421D01*
X283566141Y-164202181D01*
X283564251Y-164202835D01*
X283562740Y-164201525D01*
X283562925Y-164199826D01*
X283584416Y-164164757D01*
X283660117Y-163981998D01*
X283661704Y-163980780D01*
X283663552Y-163981545D01*
G37*
G36*
X232713229Y-163451583D02*
G01*
X232764009Y-163497525D01*
X232832334Y-163508847D01*
X232896056Y-163481380D01*
X232920977Y-163452620D01*
X232922867Y-163451966D01*
X232924378Y-163453276D01*
X232924193Y-163454975D01*
X232902702Y-163490044D01*
X232827001Y-163672803D01*
X232825414Y-163674021D01*
X232823566Y-163673256D01*
X232823305Y-163672803D01*
X232779731Y-163567604D01*
X232710182Y-163454111D01*
X232710129Y-163452112D01*
X232711835Y-163451067D01*
X232713229Y-163451583D01*
G37*
G36*
X283517914Y-162664974D02*
G01*
X283568694Y-162710916D01*
X283637019Y-162722238D01*
X283700741Y-162694771D01*
X283725662Y-162666011D01*
X283727552Y-162665357D01*
X283729063Y-162666667D01*
X283728878Y-162668366D01*
X283707387Y-162703435D01*
X283631686Y-162886194D01*
X283630099Y-162887412D01*
X283628251Y-162886647D01*
X283627990Y-162886194D01*
X283584416Y-162780995D01*
X283514867Y-162667502D01*
X283514814Y-162665503D01*
X283516520Y-162664458D01*
X283517914Y-162664974D01*
G37*
G36*
X285900315Y-158021445D02*
G01*
X285900782Y-158023390D01*
X285900569Y-158023867D01*
X285854288Y-158099391D01*
X285793128Y-158247046D01*
X285791541Y-158248264D01*
X285789693Y-158247499D01*
X285789291Y-158246067D01*
X285796611Y-158177979D01*
X285765611Y-158116049D01*
X285705936Y-158080643D01*
X285668022Y-158077386D01*
X285666382Y-158076241D01*
X285666553Y-158074248D01*
X285668036Y-158073399D01*
X285685283Y-158072041D01*
X285898397Y-158020877D01*
X285900315Y-158021445D01*
G37*
G36*
X286869362Y-157110584D02*
G01*
X286869764Y-157112016D01*
X286862444Y-157180104D01*
X286893444Y-157242034D01*
X286953119Y-157277440D01*
X286991033Y-157280697D01*
X286992673Y-157281842D01*
X286992502Y-157283835D01*
X286991019Y-157284684D01*
X286973772Y-157286042D01*
X286760658Y-157337206D01*
X286758740Y-157336638D01*
X286758273Y-157334693D01*
X286758486Y-157334216D01*
X286804767Y-157258692D01*
X286865927Y-157111037D01*
X286867514Y-157109819D01*
X286869362Y-157110584D01*
G37*
G36*
X286855492Y-155987151D02*
G01*
X286898459Y-156040471D01*
X286964175Y-156062343D01*
X287031266Y-156045219D01*
X287080362Y-155990996D01*
X287082266Y-155990383D01*
X287083749Y-155991725D01*
X287083658Y-155993183D01*
X286996422Y-156180262D01*
X286991833Y-156199013D01*
X286994741Y-156217894D01*
X287004650Y-156234225D01*
X287020218Y-156245641D01*
X287139715Y-156301363D01*
X287140862Y-156303002D01*
X287140017Y-156304814D01*
X287138570Y-156305153D01*
X287069519Y-156294665D01*
X287006293Y-156322936D01*
X286968328Y-156380991D01*
X286963643Y-156424413D01*
X286962463Y-156426027D01*
X286960475Y-156425813D01*
X286959661Y-156424355D01*
X286952109Y-156328407D01*
X286896282Y-156095870D01*
X286852087Y-155989171D01*
X286852348Y-155987188D01*
X286854196Y-155986423D01*
X286855492Y-155987151D01*
G37*
G36*
X132246807Y-155303443D02*
G01*
X132246964Y-155305437D01*
X132246680Y-155305875D01*
X132137061Y-155434222D01*
X132098372Y-155497356D01*
X132096615Y-155498310D01*
X132094909Y-155497265D01*
X132094736Y-155495789D01*
X132112617Y-155429686D01*
X132091687Y-155363669D01*
X132038285Y-155319362D01*
X132001349Y-155310215D01*
X131999908Y-155308828D01*
X132000389Y-155306887D01*
X132001987Y-155306280D01*
X132100000Y-155313994D01*
X132245002Y-155302582D01*
X132246807Y-155303443D01*
G37*
G36*
X151296807Y-155303443D02*
G01*
X151296964Y-155305437D01*
X151296680Y-155305875D01*
X151187061Y-155434222D01*
X151148372Y-155497356D01*
X151146615Y-155498310D01*
X151144909Y-155497265D01*
X151144736Y-155495789D01*
X151162617Y-155429686D01*
X151141687Y-155363669D01*
X151088285Y-155319362D01*
X151051349Y-155310215D01*
X151049908Y-155308828D01*
X151050389Y-155306887D01*
X151051987Y-155306280D01*
X151150000Y-155313994D01*
X151295002Y-155302582D01*
X151296807Y-155303443D01*
G37*
G36*
X127020000Y-155313994D02*
G01*
X127119024Y-155306200D01*
X127120829Y-155307061D01*
X127120986Y-155309055D01*
X127119893Y-155310063D01*
X127055908Y-155334450D01*
X127014800Y-155390190D01*
X127010344Y-155459435D01*
X127024656Y-155494695D01*
X127024381Y-155496676D01*
X127022528Y-155497428D01*
X127021098Y-155496492D01*
X126982939Y-155434222D01*
X126873320Y-155305875D01*
X126872956Y-155303908D01*
X126874477Y-155302609D01*
X126874998Y-155302582D01*
X127020000Y-155313994D01*
G37*
G36*
X146070000Y-155313994D02*
G01*
X146169024Y-155306200D01*
X146170829Y-155307061D01*
X146170986Y-155309055D01*
X146169893Y-155310063D01*
X146105908Y-155334450D01*
X146064800Y-155390190D01*
X146060344Y-155459435D01*
X146074656Y-155494695D01*
X146074381Y-155496676D01*
X146072528Y-155497428D01*
X146071098Y-155496492D01*
X146032939Y-155434222D01*
X145923320Y-155305875D01*
X145922956Y-155303908D01*
X145924477Y-155302609D01*
X145924998Y-155302582D01*
X146070000Y-155313994D01*
G37*
G36*
X143847919Y-154907081D02*
G01*
X143867596Y-154974096D01*
X143919939Y-155019451D01*
X143988580Y-155029320D01*
X144033839Y-155012989D01*
X144035808Y-155013341D01*
X144036487Y-155015223D01*
X144035563Y-155016575D01*
X143904222Y-155097061D01*
X143722374Y-155252374D01*
X143684063Y-155297230D01*
X143682178Y-155297898D01*
X143680657Y-155296599D01*
X143680717Y-155295113D01*
X143708718Y-155232622D01*
X143698371Y-155164139D01*
X143652644Y-155112121D01*
X143586379Y-155092921D01*
X143584994Y-155091478D01*
X143585551Y-155089557D01*
X143586936Y-155089000D01*
X143794801Y-155089000D01*
X143813738Y-155085233D01*
X143829620Y-155074620D01*
X143840233Y-155058738D01*
X143844000Y-155039801D01*
X143844000Y-154907644D01*
X143845000Y-154905912D01*
X143847000Y-154905912D01*
X143847919Y-154907081D01*
G37*
G36*
X124797919Y-154907081D02*
G01*
X124817596Y-154974096D01*
X124869939Y-155019451D01*
X124938580Y-155029320D01*
X124983839Y-155012989D01*
X124985808Y-155013341D01*
X124986487Y-155015223D01*
X124985563Y-155016575D01*
X124854222Y-155097061D01*
X124672374Y-155252374D01*
X124634063Y-155297230D01*
X124632178Y-155297898D01*
X124630657Y-155296599D01*
X124630717Y-155295113D01*
X124658718Y-155232622D01*
X124648371Y-155164139D01*
X124602644Y-155112121D01*
X124536379Y-155092921D01*
X124534994Y-155091478D01*
X124535551Y-155089557D01*
X124536936Y-155089000D01*
X124744801Y-155089000D01*
X124763738Y-155085233D01*
X124779620Y-155074620D01*
X124790233Y-155058738D01*
X124794000Y-155039801D01*
X124794000Y-154907644D01*
X124795000Y-154905912D01*
X124797000Y-154905912D01*
X124797919Y-154907081D01*
G37*
G36*
X125748902Y-154623508D02*
G01*
X125787061Y-154685778D01*
X125896680Y-154814125D01*
X125897044Y-154816092D01*
X125895523Y-154817391D01*
X125895002Y-154817418D01*
X125750000Y-154806006D01*
X125650976Y-154813800D01*
X125649171Y-154812939D01*
X125649014Y-154810945D01*
X125650107Y-154809937D01*
X125714092Y-154785550D01*
X125755200Y-154729810D01*
X125759656Y-154660565D01*
X125745344Y-154625305D01*
X125745619Y-154623324D01*
X125747472Y-154622572D01*
X125748902Y-154623508D01*
G37*
G36*
X152425091Y-154622735D02*
G01*
X152425264Y-154624211D01*
X152407383Y-154690314D01*
X152428313Y-154756331D01*
X152481715Y-154800638D01*
X152518651Y-154809785D01*
X152520092Y-154811172D01*
X152519611Y-154813113D01*
X152518013Y-154813720D01*
X152420000Y-154806006D01*
X152274998Y-154817418D01*
X152273193Y-154816557D01*
X152273036Y-154814563D01*
X152273320Y-154814125D01*
X152382939Y-154685778D01*
X152421628Y-154622644D01*
X152423385Y-154621690D01*
X152425091Y-154622735D01*
G37*
G36*
X133375091Y-154622735D02*
G01*
X133375264Y-154624211D01*
X133357383Y-154690314D01*
X133378313Y-154756331D01*
X133431715Y-154800638D01*
X133468651Y-154809785D01*
X133470092Y-154811172D01*
X133469611Y-154813113D01*
X133468013Y-154813720D01*
X133370000Y-154806006D01*
X133224998Y-154817418D01*
X133223193Y-154816557D01*
X133223036Y-154814563D01*
X133223320Y-154814125D01*
X133332939Y-154685778D01*
X133371628Y-154622644D01*
X133373385Y-154621690D01*
X133375091Y-154622735D01*
G37*
G36*
X144798902Y-154623508D02*
G01*
X144837061Y-154685778D01*
X144946680Y-154814125D01*
X144947044Y-154816092D01*
X144945523Y-154817391D01*
X144945002Y-154817418D01*
X144800000Y-154806006D01*
X144700976Y-154813800D01*
X144699171Y-154812939D01*
X144699014Y-154810945D01*
X144700107Y-154809937D01*
X144764092Y-154785550D01*
X144805200Y-154729810D01*
X144809656Y-154660565D01*
X144795344Y-154625305D01*
X144795619Y-154623324D01*
X144797472Y-154622572D01*
X144798902Y-154623508D01*
G37*
G36*
X258849101Y-153416976D02*
G01*
X258849915Y-153418434D01*
X258857467Y-153514382D01*
X258913294Y-153746919D01*
X258957489Y-153853618D01*
X258957228Y-153855601D01*
X258955380Y-153856366D01*
X258954084Y-153855638D01*
X258911117Y-153802318D01*
X258845401Y-153780446D01*
X258778310Y-153797570D01*
X258729214Y-153851793D01*
X258727310Y-153852406D01*
X258725827Y-153851064D01*
X258725918Y-153849606D01*
X258813154Y-153662527D01*
X258817743Y-153643776D01*
X258814835Y-153624895D01*
X258804926Y-153608564D01*
X258789358Y-153597148D01*
X258669861Y-153541426D01*
X258668714Y-153539787D01*
X258669559Y-153537975D01*
X258671006Y-153537636D01*
X258740057Y-153548124D01*
X258803283Y-153519853D01*
X258841248Y-153461798D01*
X258845933Y-153418376D01*
X258847113Y-153416762D01*
X258849101Y-153416976D01*
G37*
G36*
X259050836Y-152506151D02*
G01*
X259051303Y-152508096D01*
X259051090Y-152508573D01*
X259004809Y-152584097D01*
X258943649Y-152731752D01*
X258942062Y-152732970D01*
X258940214Y-152732205D01*
X258939812Y-152730773D01*
X258947132Y-152662685D01*
X258916132Y-152600755D01*
X258856457Y-152565349D01*
X258818543Y-152562092D01*
X258816903Y-152560947D01*
X258817074Y-152558954D01*
X258818557Y-152558105D01*
X258835804Y-152556747D01*
X259048918Y-152505583D01*
X259050836Y-152506151D01*
G37*
G36*
X170346807Y-152103443D02*
G01*
X170346964Y-152105437D01*
X170346680Y-152105875D01*
X170237061Y-152234222D01*
X170198372Y-152297356D01*
X170196615Y-152298310D01*
X170194909Y-152297265D01*
X170194736Y-152295789D01*
X170212617Y-152229686D01*
X170191687Y-152163669D01*
X170138285Y-152119362D01*
X170101349Y-152110215D01*
X170099908Y-152108828D01*
X170100389Y-152106887D01*
X170101987Y-152106280D01*
X170200000Y-152113994D01*
X170345002Y-152102582D01*
X170346807Y-152103443D01*
G37*
G36*
X165120000Y-152113994D02*
G01*
X165219024Y-152106200D01*
X165220829Y-152107061D01*
X165220986Y-152109055D01*
X165219893Y-152110063D01*
X165155908Y-152134450D01*
X165114800Y-152190190D01*
X165110344Y-152259435D01*
X165124656Y-152294695D01*
X165124381Y-152296676D01*
X165122528Y-152297428D01*
X165121098Y-152296492D01*
X165082939Y-152234222D01*
X164973320Y-152105875D01*
X164972956Y-152103908D01*
X164974477Y-152102609D01*
X164974998Y-152102582D01*
X165120000Y-152113994D01*
G37*
G36*
X208446807Y-152083443D02*
G01*
X208446964Y-152085437D01*
X208446680Y-152085875D01*
X208337061Y-152214222D01*
X208298372Y-152277356D01*
X208296615Y-152278310D01*
X208294909Y-152277265D01*
X208294736Y-152275789D01*
X208312617Y-152209686D01*
X208291687Y-152143669D01*
X208238285Y-152099362D01*
X208201349Y-152090215D01*
X208199908Y-152088828D01*
X208200389Y-152086887D01*
X208201987Y-152086280D01*
X208300000Y-152093994D01*
X208445002Y-152082582D01*
X208446807Y-152083443D01*
G37*
G36*
X203220000Y-152093994D02*
G01*
X203319024Y-152086200D01*
X203320829Y-152087061D01*
X203320986Y-152089055D01*
X203319893Y-152090063D01*
X203255908Y-152114450D01*
X203214800Y-152170190D01*
X203210344Y-152239435D01*
X203224656Y-152274695D01*
X203224381Y-152276676D01*
X203222528Y-152277428D01*
X203221098Y-152276492D01*
X203182939Y-152214222D01*
X203073320Y-152085875D01*
X203072956Y-152083908D01*
X203074477Y-152082609D01*
X203074998Y-152082582D01*
X203220000Y-152093994D01*
G37*
G36*
X162897919Y-151707081D02*
G01*
X162917596Y-151774096D01*
X162969939Y-151819451D01*
X163038580Y-151829320D01*
X163083839Y-151812989D01*
X163085808Y-151813341D01*
X163086487Y-151815223D01*
X163085563Y-151816575D01*
X162954222Y-151897061D01*
X162772374Y-152052374D01*
X162734063Y-152097230D01*
X162732178Y-152097898D01*
X162730657Y-152096599D01*
X162730717Y-152095113D01*
X162758718Y-152032622D01*
X162748371Y-151964139D01*
X162702644Y-151912121D01*
X162636379Y-151892921D01*
X162634994Y-151891478D01*
X162635551Y-151889557D01*
X162636936Y-151889000D01*
X162844801Y-151889000D01*
X162863738Y-151885233D01*
X162879620Y-151874620D01*
X162890233Y-151858738D01*
X162894000Y-151839801D01*
X162894000Y-151707644D01*
X162895000Y-151705912D01*
X162897000Y-151705912D01*
X162897919Y-151707081D01*
G37*
G36*
X200997919Y-151687081D02*
G01*
X201017596Y-151754096D01*
X201069939Y-151799451D01*
X201138580Y-151809320D01*
X201183839Y-151792989D01*
X201185808Y-151793341D01*
X201186487Y-151795223D01*
X201185563Y-151796575D01*
X201054222Y-151877061D01*
X200872374Y-152032374D01*
X200834063Y-152077230D01*
X200832178Y-152077898D01*
X200830657Y-152076599D01*
X200830717Y-152075113D01*
X200858718Y-152012622D01*
X200848371Y-151944139D01*
X200802644Y-151892121D01*
X200736379Y-151872921D01*
X200734994Y-151871478D01*
X200735551Y-151869557D01*
X200736936Y-151869000D01*
X200944801Y-151869000D01*
X200963738Y-151865233D01*
X200979620Y-151854620D01*
X200990233Y-151838738D01*
X200994000Y-151819801D01*
X200994000Y-151687644D01*
X200995000Y-151685912D01*
X200997000Y-151685912D01*
X200997919Y-151687081D01*
G37*
G36*
X260019883Y-151595290D02*
G01*
X260020285Y-151596722D01*
X260012965Y-151664810D01*
X260043965Y-151726740D01*
X260103640Y-151762146D01*
X260141554Y-151765403D01*
X260143194Y-151766548D01*
X260143023Y-151768541D01*
X260141540Y-151769390D01*
X260124293Y-151770748D01*
X259911179Y-151821912D01*
X259909261Y-151821344D01*
X259908794Y-151819399D01*
X259909007Y-151818922D01*
X259955288Y-151743398D01*
X260016448Y-151595743D01*
X260018035Y-151594525D01*
X260019883Y-151595290D01*
G37*
G36*
X163848902Y-151423508D02*
G01*
X163887061Y-151485778D01*
X163996680Y-151614125D01*
X163997044Y-151616092D01*
X163995523Y-151617391D01*
X163995002Y-151617418D01*
X163850000Y-151606006D01*
X163750976Y-151613800D01*
X163749171Y-151612939D01*
X163749014Y-151610945D01*
X163750107Y-151609937D01*
X163814092Y-151585550D01*
X163855200Y-151529810D01*
X163859656Y-151460565D01*
X163845344Y-151425305D01*
X163845619Y-151423324D01*
X163847472Y-151422572D01*
X163848902Y-151423508D01*
G37*
G36*
X171475091Y-151422735D02*
G01*
X171475264Y-151424211D01*
X171457383Y-151490314D01*
X171478313Y-151556331D01*
X171531715Y-151600638D01*
X171568651Y-151609785D01*
X171570092Y-151611172D01*
X171569611Y-151613113D01*
X171568013Y-151613720D01*
X171470000Y-151606006D01*
X171324998Y-151617418D01*
X171323193Y-151616557D01*
X171323036Y-151614563D01*
X171323320Y-151614125D01*
X171432939Y-151485778D01*
X171471628Y-151422644D01*
X171473385Y-151421690D01*
X171475091Y-151422735D01*
G37*
G36*
X209575091Y-151402735D02*
G01*
X209575264Y-151404211D01*
X209557383Y-151470314D01*
X209578313Y-151536331D01*
X209631715Y-151580638D01*
X209668651Y-151589785D01*
X209670092Y-151591172D01*
X209669611Y-151593113D01*
X209668013Y-151593720D01*
X209570000Y-151586006D01*
X209424998Y-151597418D01*
X209423193Y-151596557D01*
X209423036Y-151594563D01*
X209423320Y-151594125D01*
X209532939Y-151465778D01*
X209571628Y-151402644D01*
X209573385Y-151401690D01*
X209575091Y-151402735D01*
G37*
G36*
X201948902Y-151403508D02*
G01*
X201987061Y-151465778D01*
X202096680Y-151594125D01*
X202097044Y-151596092D01*
X202095523Y-151597391D01*
X202095002Y-151597418D01*
X201950000Y-151586006D01*
X201850976Y-151593800D01*
X201849171Y-151592939D01*
X201849014Y-151590945D01*
X201850107Y-151589937D01*
X201914092Y-151565550D01*
X201955200Y-151509810D01*
X201959656Y-151440565D01*
X201945344Y-151405305D01*
X201945619Y-151403324D01*
X201947472Y-151402572D01*
X201948902Y-151403508D01*
G37*
G36*
X189396807Y-150503443D02*
G01*
X189396964Y-150505437D01*
X189396680Y-150505875D01*
X189287061Y-150634222D01*
X189248372Y-150697356D01*
X189246615Y-150698310D01*
X189244909Y-150697265D01*
X189244736Y-150695789D01*
X189262617Y-150629686D01*
X189241687Y-150563669D01*
X189188285Y-150519362D01*
X189151349Y-150510215D01*
X189149908Y-150508828D01*
X189150389Y-150506887D01*
X189151987Y-150506280D01*
X189250000Y-150513994D01*
X189395002Y-150502582D01*
X189396807Y-150503443D01*
G37*
G36*
X184170000Y-150513994D02*
G01*
X184269024Y-150506200D01*
X184270829Y-150507061D01*
X184270986Y-150509055D01*
X184269893Y-150510063D01*
X184205908Y-150534450D01*
X184164800Y-150590190D01*
X184160344Y-150659435D01*
X184174656Y-150694695D01*
X184174381Y-150696676D01*
X184172528Y-150697428D01*
X184171098Y-150696492D01*
X184132939Y-150634222D01*
X184023320Y-150505875D01*
X184022956Y-150503908D01*
X184024477Y-150502609D01*
X184024998Y-150502582D01*
X184170000Y-150513994D01*
G37*
G36*
X181947919Y-150107081D02*
G01*
X181967596Y-150174096D01*
X182019939Y-150219451D01*
X182088580Y-150229320D01*
X182133839Y-150212989D01*
X182135808Y-150213341D01*
X182136487Y-150215223D01*
X182135563Y-150216575D01*
X182004222Y-150297061D01*
X181822374Y-150452374D01*
X181784063Y-150497230D01*
X181782178Y-150497898D01*
X181780657Y-150496599D01*
X181780717Y-150495113D01*
X181808718Y-150432622D01*
X181798371Y-150364139D01*
X181752644Y-150312121D01*
X181686379Y-150292921D01*
X181684994Y-150291478D01*
X181685551Y-150289557D01*
X181686936Y-150289000D01*
X181894801Y-150289000D01*
X181913738Y-150285233D01*
X181929620Y-150274620D01*
X181940233Y-150258738D01*
X181944000Y-150239801D01*
X181944000Y-150107644D01*
X181945000Y-150105912D01*
X181947000Y-150105912D01*
X181947919Y-150107081D01*
G37*
G36*
X190525091Y-149822735D02*
G01*
X190525264Y-149824211D01*
X190507383Y-149890314D01*
X190528313Y-149956331D01*
X190581715Y-150000638D01*
X190618651Y-150009785D01*
X190620092Y-150011172D01*
X190619611Y-150013113D01*
X190618013Y-150013720D01*
X190520000Y-150006006D01*
X190374998Y-150017418D01*
X190373193Y-150016557D01*
X190373036Y-150014563D01*
X190373320Y-150014125D01*
X190482939Y-149885778D01*
X190521628Y-149822644D01*
X190523385Y-149821690D01*
X190525091Y-149822735D01*
G37*
G36*
X182898902Y-149823508D02*
G01*
X182937061Y-149885778D01*
X183046680Y-150014125D01*
X183047044Y-150016092D01*
X183045523Y-150017391D01*
X183045002Y-150017418D01*
X182900000Y-150006006D01*
X182800976Y-150013800D01*
X182799171Y-150012939D01*
X182799014Y-150010945D01*
X182800107Y-150009937D01*
X182864092Y-149985550D01*
X182905200Y-149929810D01*
X182909656Y-149860565D01*
X182895344Y-149825305D01*
X182895619Y-149823324D01*
X182897472Y-149822572D01*
X182898902Y-149823508D01*
G37*
G36*
X262181325Y-146956142D02*
G01*
X262181586Y-146956595D01*
X262225160Y-147061794D01*
X262294709Y-147175287D01*
X262294762Y-147177286D01*
X262293056Y-147178331D01*
X262291662Y-147177815D01*
X262240882Y-147131873D01*
X262172557Y-147120551D01*
X262108835Y-147148018D01*
X262083914Y-147176778D01*
X262082024Y-147177432D01*
X262080513Y-147176122D01*
X262080698Y-147174423D01*
X262102189Y-147139354D01*
X262177890Y-146956595D01*
X262179477Y-146955377D01*
X262181325Y-146956142D01*
G37*
G36*
X262035687Y-145639571D02*
G01*
X262086467Y-145685513D01*
X262154792Y-145696835D01*
X262218514Y-145669368D01*
X262243435Y-145640608D01*
X262245325Y-145639954D01*
X262246836Y-145641264D01*
X262246651Y-145642963D01*
X262225160Y-145678032D01*
X262149459Y-145860791D01*
X262147872Y-145862009D01*
X262146024Y-145861244D01*
X262145763Y-145860791D01*
X262102189Y-145755592D01*
X262032640Y-145642099D01*
X262032587Y-145640100D01*
X262034293Y-145639055D01*
X262035687Y-145639571D01*
G37*
G36*
X127486807Y-136253443D02*
G01*
X127486964Y-136255437D01*
X127486680Y-136255875D01*
X127377061Y-136384222D01*
X127338372Y-136447356D01*
X127336615Y-136448310D01*
X127334909Y-136447265D01*
X127334736Y-136445789D01*
X127352617Y-136379686D01*
X127331687Y-136313669D01*
X127278285Y-136269362D01*
X127241349Y-136260215D01*
X127239908Y-136258828D01*
X127240389Y-136256887D01*
X127241987Y-136256280D01*
X127340000Y-136263994D01*
X127485002Y-136252582D01*
X127486807Y-136253443D01*
G37*
G36*
X151296807Y-136253443D02*
G01*
X151296964Y-136255437D01*
X151296680Y-136255875D01*
X151187061Y-136384222D01*
X151148372Y-136447356D01*
X151146615Y-136448310D01*
X151144909Y-136447265D01*
X151144736Y-136445789D01*
X151162617Y-136379686D01*
X151141687Y-136313669D01*
X151088285Y-136269362D01*
X151051349Y-136260215D01*
X151049908Y-136258828D01*
X151050389Y-136256887D01*
X151051987Y-136256280D01*
X151150000Y-136263994D01*
X151295002Y-136252582D01*
X151296807Y-136253443D01*
G37*
G36*
X122260000Y-136263994D02*
G01*
X122359024Y-136256200D01*
X122360829Y-136257061D01*
X122360986Y-136259055D01*
X122359893Y-136260063D01*
X122295908Y-136284450D01*
X122254800Y-136340190D01*
X122250344Y-136409435D01*
X122264656Y-136444695D01*
X122264381Y-136446676D01*
X122262528Y-136447428D01*
X122261098Y-136446492D01*
X122222939Y-136384222D01*
X122113320Y-136255875D01*
X122112956Y-136253908D01*
X122114477Y-136252609D01*
X122114998Y-136252582D01*
X122260000Y-136263994D01*
G37*
G36*
X146070000Y-136263994D02*
G01*
X146169024Y-136256200D01*
X146170829Y-136257061D01*
X146170986Y-136259055D01*
X146169893Y-136260063D01*
X146105908Y-136284450D01*
X146064800Y-136340190D01*
X146060344Y-136409435D01*
X146074656Y-136444695D01*
X146074381Y-136446676D01*
X146072528Y-136447428D01*
X146071098Y-136446492D01*
X146032939Y-136384222D01*
X145923320Y-136255875D01*
X145922956Y-136253908D01*
X145924477Y-136252609D01*
X145924998Y-136252582D01*
X146070000Y-136263994D01*
G37*
G36*
X143847919Y-135857081D02*
G01*
X143867596Y-135924096D01*
X143919939Y-135969451D01*
X143988580Y-135979320D01*
X144033839Y-135962989D01*
X144035808Y-135963341D01*
X144036487Y-135965223D01*
X144035563Y-135966575D01*
X143904222Y-136047061D01*
X143722374Y-136202374D01*
X143684063Y-136247230D01*
X143682178Y-136247898D01*
X143680657Y-136246599D01*
X143680717Y-136245113D01*
X143708718Y-136182622D01*
X143698371Y-136114139D01*
X143652644Y-136062121D01*
X143586379Y-136042921D01*
X143584994Y-136041478D01*
X143585551Y-136039557D01*
X143586936Y-136039000D01*
X143794801Y-136039000D01*
X143813738Y-136035233D01*
X143829620Y-136024620D01*
X143840233Y-136008738D01*
X143844000Y-135989801D01*
X143844000Y-135857644D01*
X143845000Y-135855912D01*
X143847000Y-135855912D01*
X143847919Y-135857081D01*
G37*
G36*
X120037919Y-135857081D02*
G01*
X120057596Y-135924096D01*
X120109939Y-135969451D01*
X120178580Y-135979320D01*
X120223839Y-135962989D01*
X120225808Y-135963341D01*
X120226487Y-135965223D01*
X120225563Y-135966575D01*
X120094222Y-136047061D01*
X119912374Y-136202374D01*
X119874063Y-136247230D01*
X119872178Y-136247898D01*
X119870657Y-136246599D01*
X119870717Y-136245113D01*
X119898718Y-136182622D01*
X119888371Y-136114139D01*
X119842644Y-136062121D01*
X119776379Y-136042921D01*
X119774994Y-136041478D01*
X119775551Y-136039557D01*
X119776936Y-136039000D01*
X119984801Y-136039000D01*
X120003738Y-136035233D01*
X120019620Y-136024620D01*
X120030233Y-136008738D01*
X120034000Y-135989801D01*
X120034000Y-135857644D01*
X120035000Y-135855912D01*
X120037000Y-135855912D01*
X120037919Y-135857081D01*
G37*
G36*
X120988902Y-135573508D02*
G01*
X121027061Y-135635778D01*
X121136680Y-135764125D01*
X121137044Y-135766092D01*
X121135523Y-135767391D01*
X121135002Y-135767418D01*
X120990000Y-135756006D01*
X120890976Y-135763800D01*
X120889171Y-135762939D01*
X120889014Y-135760945D01*
X120890107Y-135759937D01*
X120954092Y-135735550D01*
X120995200Y-135679810D01*
X120999656Y-135610565D01*
X120985344Y-135575305D01*
X120985619Y-135573324D01*
X120987472Y-135572572D01*
X120988902Y-135573508D01*
G37*
G36*
X128615091Y-135572735D02*
G01*
X128615264Y-135574211D01*
X128597383Y-135640314D01*
X128618313Y-135706331D01*
X128671715Y-135750638D01*
X128708651Y-135759785D01*
X128710092Y-135761172D01*
X128709611Y-135763113D01*
X128708013Y-135763720D01*
X128610000Y-135756006D01*
X128464998Y-135767418D01*
X128463193Y-135766557D01*
X128463036Y-135764563D01*
X128463320Y-135764125D01*
X128572939Y-135635778D01*
X128611628Y-135572644D01*
X128613385Y-135571690D01*
X128615091Y-135572735D01*
G37*
G36*
X152425091Y-135572735D02*
G01*
X152425264Y-135574211D01*
X152407383Y-135640314D01*
X152428313Y-135706331D01*
X152481715Y-135750638D01*
X152518651Y-135759785D01*
X152520092Y-135761172D01*
X152519611Y-135763113D01*
X152518013Y-135763720D01*
X152420000Y-135756006D01*
X152274998Y-135767418D01*
X152273193Y-135766557D01*
X152273036Y-135764563D01*
X152273320Y-135764125D01*
X152382939Y-135635778D01*
X152421628Y-135572644D01*
X152423385Y-135571690D01*
X152425091Y-135572735D01*
G37*
G36*
X144798902Y-135573508D02*
G01*
X144837061Y-135635778D01*
X144946680Y-135764125D01*
X144947044Y-135766092D01*
X144945523Y-135767391D01*
X144945002Y-135767418D01*
X144800000Y-135756006D01*
X144700976Y-135763800D01*
X144699171Y-135762939D01*
X144699014Y-135760945D01*
X144700107Y-135759937D01*
X144764092Y-135735550D01*
X144805200Y-135679810D01*
X144809656Y-135610565D01*
X144795344Y-135575305D01*
X144795619Y-135573324D01*
X144797472Y-135572572D01*
X144798902Y-135573508D01*
G37*
G36*
X227496807Y-134343443D02*
G01*
X227496964Y-134345437D01*
X227496680Y-134345875D01*
X227387061Y-134474222D01*
X227348372Y-134537356D01*
X227346615Y-134538310D01*
X227344909Y-134537265D01*
X227344736Y-134535789D01*
X227362617Y-134469686D01*
X227341687Y-134403669D01*
X227288285Y-134359362D01*
X227251349Y-134350215D01*
X227249908Y-134348828D01*
X227250389Y-134346887D01*
X227251987Y-134346280D01*
X227350000Y-134353994D01*
X227495002Y-134342582D01*
X227496807Y-134343443D01*
G37*
G36*
X222270000Y-134353994D02*
G01*
X222369024Y-134346200D01*
X222370829Y-134347061D01*
X222370986Y-134349055D01*
X222369893Y-134350063D01*
X222305908Y-134374450D01*
X222264800Y-134430190D01*
X222260344Y-134499435D01*
X222274656Y-134534695D01*
X222274381Y-134536676D01*
X222272528Y-134537428D01*
X222271098Y-134536492D01*
X222232939Y-134474222D01*
X222123320Y-134345875D01*
X222122956Y-134343908D01*
X222124477Y-134342609D01*
X222124998Y-134342582D01*
X222270000Y-134353994D01*
G37*
G36*
X220047919Y-133947081D02*
G01*
X220067596Y-134014096D01*
X220119939Y-134059451D01*
X220188580Y-134069320D01*
X220233839Y-134052989D01*
X220235808Y-134053341D01*
X220236487Y-134055223D01*
X220235563Y-134056575D01*
X220104222Y-134137061D01*
X219922374Y-134292374D01*
X219884063Y-134337230D01*
X219882178Y-134337898D01*
X219880657Y-134336599D01*
X219880717Y-134335113D01*
X219908718Y-134272622D01*
X219898371Y-134204139D01*
X219852644Y-134152121D01*
X219786379Y-134132921D01*
X219784994Y-134131478D01*
X219785551Y-134129557D01*
X219786936Y-134129000D01*
X219994801Y-134129000D01*
X220013738Y-134125233D01*
X220029620Y-134114620D01*
X220040233Y-134098738D01*
X220044000Y-134079801D01*
X220044000Y-133947644D01*
X220045000Y-133945912D01*
X220047000Y-133945912D01*
X220047919Y-133947081D01*
G37*
G36*
X220998902Y-133663508D02*
G01*
X221037061Y-133725778D01*
X221146680Y-133854125D01*
X221147044Y-133856092D01*
X221145523Y-133857391D01*
X221145002Y-133857418D01*
X221000000Y-133846006D01*
X220900976Y-133853800D01*
X220899171Y-133852939D01*
X220899014Y-133850945D01*
X220900107Y-133849937D01*
X220964092Y-133825550D01*
X221005200Y-133769810D01*
X221009656Y-133700565D01*
X220995344Y-133665305D01*
X220995619Y-133663324D01*
X220997472Y-133662572D01*
X220998902Y-133663508D01*
G37*
G36*
X228625091Y-133662735D02*
G01*
X228625264Y-133664211D01*
X228607383Y-133730314D01*
X228628313Y-133796331D01*
X228681715Y-133840638D01*
X228718651Y-133849785D01*
X228720092Y-133851172D01*
X228719611Y-133853113D01*
X228718013Y-133853720D01*
X228620000Y-133846006D01*
X228474998Y-133857418D01*
X228473193Y-133856557D01*
X228473036Y-133854563D01*
X228473320Y-133854125D01*
X228582939Y-133725778D01*
X228621628Y-133662644D01*
X228623385Y-133661690D01*
X228625091Y-133662735D01*
G37*
G36*
X170346807Y-133073443D02*
G01*
X170346964Y-133075437D01*
X170346680Y-133075875D01*
X170237061Y-133204222D01*
X170198372Y-133267356D01*
X170196615Y-133268310D01*
X170194909Y-133267265D01*
X170194736Y-133265789D01*
X170212617Y-133199686D01*
X170191687Y-133133669D01*
X170138285Y-133089362D01*
X170101349Y-133080215D01*
X170099908Y-133078828D01*
X170100389Y-133076887D01*
X170101987Y-133076280D01*
X170200000Y-133083994D01*
X170345002Y-133072582D01*
X170346807Y-133073443D01*
G37*
G36*
X165120000Y-133083994D02*
G01*
X165219024Y-133076200D01*
X165220829Y-133077061D01*
X165220986Y-133079055D01*
X165219893Y-133080063D01*
X165155908Y-133104450D01*
X165114800Y-133160190D01*
X165110344Y-133229435D01*
X165124656Y-133264695D01*
X165124381Y-133266676D01*
X165122528Y-133267428D01*
X165121098Y-133266492D01*
X165082939Y-133204222D01*
X164973320Y-133075875D01*
X164972956Y-133073908D01*
X164974477Y-133072609D01*
X164974998Y-133072582D01*
X165120000Y-133083994D01*
G37*
G36*
X208446807Y-133043443D02*
G01*
X208446964Y-133045437D01*
X208446680Y-133045875D01*
X208337061Y-133174222D01*
X208298372Y-133237356D01*
X208296615Y-133238310D01*
X208294909Y-133237265D01*
X208294736Y-133235789D01*
X208312617Y-133169686D01*
X208291687Y-133103669D01*
X208238285Y-133059362D01*
X208201349Y-133050215D01*
X208199908Y-133048828D01*
X208200389Y-133046887D01*
X208201987Y-133046280D01*
X208300000Y-133053994D01*
X208445002Y-133042582D01*
X208446807Y-133043443D01*
G37*
G36*
X203220000Y-133053994D02*
G01*
X203319024Y-133046200D01*
X203320829Y-133047061D01*
X203320986Y-133049055D01*
X203319893Y-133050063D01*
X203255908Y-133074450D01*
X203214800Y-133130190D01*
X203210344Y-133199435D01*
X203224656Y-133234695D01*
X203224381Y-133236676D01*
X203222528Y-133237428D01*
X203221098Y-133236492D01*
X203182939Y-133174222D01*
X203073320Y-133045875D01*
X203072956Y-133043908D01*
X203074477Y-133042609D01*
X203074998Y-133042582D01*
X203220000Y-133053994D01*
G37*
G36*
X162897919Y-132677081D02*
G01*
X162917596Y-132744096D01*
X162969939Y-132789451D01*
X163038580Y-132799320D01*
X163083839Y-132782989D01*
X163085808Y-132783341D01*
X163086487Y-132785223D01*
X163085563Y-132786575D01*
X162954222Y-132867061D01*
X162772374Y-133022374D01*
X162734063Y-133067230D01*
X162732178Y-133067898D01*
X162730657Y-133066599D01*
X162730717Y-133065113D01*
X162758718Y-133002622D01*
X162748371Y-132934139D01*
X162702644Y-132882121D01*
X162636379Y-132862921D01*
X162634994Y-132861478D01*
X162635551Y-132859557D01*
X162636936Y-132859000D01*
X162844801Y-132859000D01*
X162863738Y-132855233D01*
X162879620Y-132844620D01*
X162890233Y-132828738D01*
X162894000Y-132809801D01*
X162894000Y-132677644D01*
X162895000Y-132675912D01*
X162897000Y-132675912D01*
X162897919Y-132677081D01*
G37*
G36*
X200997919Y-132647081D02*
G01*
X201017596Y-132714096D01*
X201069939Y-132759451D01*
X201138580Y-132769320D01*
X201183839Y-132752989D01*
X201185808Y-132753341D01*
X201186487Y-132755223D01*
X201185563Y-132756575D01*
X201054222Y-132837061D01*
X200872374Y-132992374D01*
X200834063Y-133037230D01*
X200832178Y-133037898D01*
X200830657Y-133036599D01*
X200830717Y-133035113D01*
X200858718Y-132972622D01*
X200848371Y-132904139D01*
X200802644Y-132852121D01*
X200736379Y-132832921D01*
X200734994Y-132831478D01*
X200735551Y-132829557D01*
X200736936Y-132829000D01*
X200944801Y-132829000D01*
X200963738Y-132825233D01*
X200979620Y-132814620D01*
X200990233Y-132798738D01*
X200994000Y-132779801D01*
X200994000Y-132647644D01*
X200995000Y-132645912D01*
X200997000Y-132645912D01*
X200997919Y-132647081D01*
G37*
G36*
X163848902Y-132393508D02*
G01*
X163887061Y-132455778D01*
X163996680Y-132584125D01*
X163997044Y-132586092D01*
X163995523Y-132587391D01*
X163995002Y-132587418D01*
X163850000Y-132576006D01*
X163750976Y-132583800D01*
X163749171Y-132582939D01*
X163749014Y-132580945D01*
X163750107Y-132579937D01*
X163814092Y-132555550D01*
X163855200Y-132499810D01*
X163859656Y-132430565D01*
X163845344Y-132395305D01*
X163845619Y-132393324D01*
X163847472Y-132392572D01*
X163848902Y-132393508D01*
G37*
G36*
X171475091Y-132392735D02*
G01*
X171475264Y-132394211D01*
X171457383Y-132460314D01*
X171478313Y-132526331D01*
X171531715Y-132570638D01*
X171568651Y-132579785D01*
X171570092Y-132581172D01*
X171569611Y-132583113D01*
X171568013Y-132583720D01*
X171470000Y-132576006D01*
X171324998Y-132587418D01*
X171323193Y-132586557D01*
X171323036Y-132584563D01*
X171323320Y-132584125D01*
X171432939Y-132455778D01*
X171471628Y-132392644D01*
X171473385Y-132391690D01*
X171475091Y-132392735D01*
G37*
G36*
X201948902Y-132363508D02*
G01*
X201987061Y-132425778D01*
X202096680Y-132554125D01*
X202097044Y-132556092D01*
X202095523Y-132557391D01*
X202095002Y-132557418D01*
X201950000Y-132546006D01*
X201850976Y-132553800D01*
X201849171Y-132552939D01*
X201849014Y-132550945D01*
X201850107Y-132549937D01*
X201914092Y-132525550D01*
X201955200Y-132469810D01*
X201959656Y-132400565D01*
X201945344Y-132365305D01*
X201945619Y-132363324D01*
X201947472Y-132362572D01*
X201948902Y-132363508D01*
G37*
G36*
X209575091Y-132362735D02*
G01*
X209575264Y-132364211D01*
X209557383Y-132430314D01*
X209578313Y-132496331D01*
X209631715Y-132540638D01*
X209668651Y-132549785D01*
X209670092Y-132551172D01*
X209669611Y-132553113D01*
X209668013Y-132553720D01*
X209570000Y-132546006D01*
X209424998Y-132557418D01*
X209423193Y-132556557D01*
X209423036Y-132554563D01*
X209423320Y-132554125D01*
X209532939Y-132425778D01*
X209571628Y-132362644D01*
X209573385Y-132361690D01*
X209575091Y-132362735D01*
G37*
G36*
X189396807Y-131463443D02*
G01*
X189396964Y-131465437D01*
X189396680Y-131465875D01*
X189287061Y-131594222D01*
X189248372Y-131657356D01*
X189246615Y-131658310D01*
X189244909Y-131657265D01*
X189244736Y-131655789D01*
X189262617Y-131589686D01*
X189241687Y-131523669D01*
X189188285Y-131479362D01*
X189151349Y-131470215D01*
X189149908Y-131468828D01*
X189150389Y-131466887D01*
X189151987Y-131466280D01*
X189250000Y-131473994D01*
X189395002Y-131462582D01*
X189396807Y-131463443D01*
G37*
G36*
X184170000Y-131473994D02*
G01*
X184269024Y-131466200D01*
X184270829Y-131467061D01*
X184270986Y-131469055D01*
X184269893Y-131470063D01*
X184205908Y-131494450D01*
X184164800Y-131550190D01*
X184160344Y-131619435D01*
X184174656Y-131654695D01*
X184174381Y-131656676D01*
X184172528Y-131657428D01*
X184171098Y-131656492D01*
X184132939Y-131594222D01*
X184023320Y-131465875D01*
X184022956Y-131463908D01*
X184024477Y-131462609D01*
X184024998Y-131462582D01*
X184170000Y-131473994D01*
G37*
G36*
X181947919Y-131067081D02*
G01*
X181967596Y-131134096D01*
X182019939Y-131179451D01*
X182088580Y-131189320D01*
X182133839Y-131172989D01*
X182135808Y-131173341D01*
X182136487Y-131175223D01*
X182135563Y-131176575D01*
X182004222Y-131257061D01*
X181822374Y-131412374D01*
X181784063Y-131457230D01*
X181782178Y-131457898D01*
X181780657Y-131456599D01*
X181780717Y-131455113D01*
X181808718Y-131392622D01*
X181798371Y-131324139D01*
X181752644Y-131272121D01*
X181686379Y-131252921D01*
X181684994Y-131251478D01*
X181685551Y-131249557D01*
X181686936Y-131249000D01*
X181894801Y-131249000D01*
X181913738Y-131245233D01*
X181929620Y-131234620D01*
X181940233Y-131218738D01*
X181944000Y-131199801D01*
X181944000Y-131067644D01*
X181945000Y-131065912D01*
X181947000Y-131065912D01*
X181947919Y-131067081D01*
G37*
G36*
X182898902Y-130783508D02*
G01*
X182937061Y-130845778D01*
X183046680Y-130974125D01*
X183047044Y-130976092D01*
X183045523Y-130977391D01*
X183045002Y-130977418D01*
X182900000Y-130966006D01*
X182800976Y-130973800D01*
X182799171Y-130972939D01*
X182799014Y-130970945D01*
X182800107Y-130969937D01*
X182864092Y-130945550D01*
X182905200Y-130889810D01*
X182909656Y-130820565D01*
X182895344Y-130785305D01*
X182895619Y-130783324D01*
X182897472Y-130782572D01*
X182898902Y-130783508D01*
G37*
G36*
X190525091Y-130782735D02*
G01*
X190525264Y-130784211D01*
X190507383Y-130850314D01*
X190528313Y-130916331D01*
X190581715Y-130960638D01*
X190618651Y-130969785D01*
X190620092Y-130971172D01*
X190619611Y-130973113D01*
X190618013Y-130973720D01*
X190520000Y-130966006D01*
X190374998Y-130977418D01*
X190373193Y-130976557D01*
X190373036Y-130974563D01*
X190373320Y-130974125D01*
X190482939Y-130845778D01*
X190521628Y-130782644D01*
X190523385Y-130781690D01*
X190525091Y-130782735D01*
G37*
G36*
X246546807Y-129583443D02*
G01*
X246546964Y-129585437D01*
X246546680Y-129585875D01*
X246437061Y-129714222D01*
X246398372Y-129777356D01*
X246396615Y-129778310D01*
X246394909Y-129777265D01*
X246394736Y-129775789D01*
X246412617Y-129709686D01*
X246391687Y-129643669D01*
X246338285Y-129599362D01*
X246301349Y-129590215D01*
X246299908Y-129588828D01*
X246300389Y-129586887D01*
X246301987Y-129586280D01*
X246400000Y-129593994D01*
X246545002Y-129582582D01*
X246546807Y-129583443D01*
G37*
G36*
X241320000Y-129593994D02*
G01*
X241419024Y-129586200D01*
X241420829Y-129587061D01*
X241420986Y-129589055D01*
X241419893Y-129590063D01*
X241355908Y-129614450D01*
X241314800Y-129670190D01*
X241310344Y-129739435D01*
X241324656Y-129774695D01*
X241324381Y-129776676D01*
X241322528Y-129777428D01*
X241321098Y-129776492D01*
X241282939Y-129714222D01*
X241173320Y-129585875D01*
X241172956Y-129583908D01*
X241174477Y-129582609D01*
X241174998Y-129582582D01*
X241320000Y-129593994D01*
G37*
G36*
X239097919Y-129187081D02*
G01*
X239117596Y-129254096D01*
X239169939Y-129299451D01*
X239238580Y-129309320D01*
X239283839Y-129292989D01*
X239285808Y-129293341D01*
X239286487Y-129295223D01*
X239285563Y-129296575D01*
X239154222Y-129377061D01*
X238972374Y-129532374D01*
X238934063Y-129577230D01*
X238932178Y-129577898D01*
X238930657Y-129576599D01*
X238930717Y-129575113D01*
X238958718Y-129512622D01*
X238948371Y-129444139D01*
X238902644Y-129392121D01*
X238836379Y-129372921D01*
X238834994Y-129371478D01*
X238835551Y-129369557D01*
X238836936Y-129369000D01*
X239044801Y-129369000D01*
X239063738Y-129365233D01*
X239079620Y-129354620D01*
X239090233Y-129338738D01*
X239094000Y-129319801D01*
X239094000Y-129187644D01*
X239095000Y-129185912D01*
X239097000Y-129185912D01*
X239097919Y-129187081D01*
G37*
G36*
X240048902Y-128903508D02*
G01*
X240087061Y-128965778D01*
X240196680Y-129094125D01*
X240197044Y-129096092D01*
X240195523Y-129097391D01*
X240195002Y-129097418D01*
X240050000Y-129086006D01*
X239950976Y-129093800D01*
X239949171Y-129092939D01*
X239949014Y-129090945D01*
X239950107Y-129089937D01*
X240014092Y-129065550D01*
X240055200Y-129009810D01*
X240059656Y-128940565D01*
X240045344Y-128905305D01*
X240045619Y-128903324D01*
X240047472Y-128902572D01*
X240048902Y-128903508D01*
G37*
G36*
X247675091Y-128902735D02*
G01*
X247675264Y-128904211D01*
X247657383Y-128970314D01*
X247678313Y-129036331D01*
X247731715Y-129080638D01*
X247768651Y-129089785D01*
X247770092Y-129091172D01*
X247769611Y-129093113D01*
X247768013Y-129093720D01*
X247670000Y-129086006D01*
X247524998Y-129097418D01*
X247523193Y-129096557D01*
X247523036Y-129094563D01*
X247523320Y-129094125D01*
X247632939Y-128965778D01*
X247671628Y-128902644D01*
X247673385Y-128901690D01*
X247675091Y-128902735D01*
G37*
G36*
X151288407Y-117215483D02*
G01*
X151288564Y-117217477D01*
X151288280Y-117217915D01*
X151178661Y-117346262D01*
X151139972Y-117409396D01*
X151138215Y-117410350D01*
X151136509Y-117409305D01*
X151136336Y-117407829D01*
X151154217Y-117341726D01*
X151133287Y-117275709D01*
X151079885Y-117231402D01*
X151042949Y-117222255D01*
X151041508Y-117220868D01*
X151041989Y-117218927D01*
X151043587Y-117218320D01*
X151141600Y-117226034D01*
X151286602Y-117214622D01*
X151288407Y-117215483D01*
G37*
G36*
X146061600Y-117226034D02*
G01*
X146160624Y-117218240D01*
X146162429Y-117219101D01*
X146162586Y-117221095D01*
X146161493Y-117222103D01*
X146097508Y-117246490D01*
X146056400Y-117302230D01*
X146051944Y-117371475D01*
X146066256Y-117406735D01*
X146065981Y-117408716D01*
X146064128Y-117409468D01*
X146062698Y-117408532D01*
X146024539Y-117346262D01*
X145914920Y-117217915D01*
X145914556Y-117215948D01*
X145916077Y-117214649D01*
X145916598Y-117214622D01*
X146061600Y-117226034D01*
G37*
G36*
X127492207Y-117207283D02*
G01*
X127492364Y-117209277D01*
X127492080Y-117209715D01*
X127382461Y-117338062D01*
X127343772Y-117401196D01*
X127342015Y-117402150D01*
X127340309Y-117401105D01*
X127340136Y-117399629D01*
X127358017Y-117333526D01*
X127337087Y-117267509D01*
X127283685Y-117223202D01*
X127246749Y-117214055D01*
X127245308Y-117212668D01*
X127245789Y-117210727D01*
X127247387Y-117210120D01*
X127345400Y-117217834D01*
X127490402Y-117206422D01*
X127492207Y-117207283D01*
G37*
G36*
X122265400Y-117217834D02*
G01*
X122364424Y-117210040D01*
X122366229Y-117210901D01*
X122366386Y-117212895D01*
X122365293Y-117213903D01*
X122301308Y-117238290D01*
X122260200Y-117294030D01*
X122255744Y-117363275D01*
X122270056Y-117398535D01*
X122269781Y-117400516D01*
X122267928Y-117401268D01*
X122266498Y-117400332D01*
X122228339Y-117338062D01*
X122118720Y-117209715D01*
X122118356Y-117207748D01*
X122119877Y-117206449D01*
X122120398Y-117206422D01*
X122265400Y-117217834D01*
G37*
G36*
X143839519Y-116819121D02*
G01*
X143859196Y-116886136D01*
X143911539Y-116931491D01*
X143980180Y-116941360D01*
X144025439Y-116925029D01*
X144027408Y-116925381D01*
X144028087Y-116927263D01*
X144027163Y-116928615D01*
X143895822Y-117009101D01*
X143713974Y-117164414D01*
X143675663Y-117209270D01*
X143673778Y-117209938D01*
X143672257Y-117208639D01*
X143672317Y-117207153D01*
X143700318Y-117144662D01*
X143689971Y-117076179D01*
X143644244Y-117024161D01*
X143577979Y-117004961D01*
X143576594Y-117003518D01*
X143577151Y-117001597D01*
X143578536Y-117001040D01*
X143786401Y-117001040D01*
X143805338Y-116997273D01*
X143821220Y-116986660D01*
X143831833Y-116970778D01*
X143835600Y-116951841D01*
X143835600Y-116819684D01*
X143836600Y-116817952D01*
X143838600Y-116817952D01*
X143839519Y-116819121D01*
G37*
G36*
X120043319Y-116810921D02*
G01*
X120062996Y-116877936D01*
X120115339Y-116923291D01*
X120183980Y-116933160D01*
X120229239Y-116916829D01*
X120231208Y-116917181D01*
X120231887Y-116919063D01*
X120230963Y-116920415D01*
X120099622Y-117000901D01*
X119917774Y-117156214D01*
X119879463Y-117201070D01*
X119877578Y-117201738D01*
X119876057Y-117200439D01*
X119876117Y-117198953D01*
X119904118Y-117136462D01*
X119893771Y-117067979D01*
X119848044Y-117015961D01*
X119781779Y-116996761D01*
X119780394Y-116995318D01*
X119780951Y-116993397D01*
X119782336Y-116992840D01*
X119990201Y-116992840D01*
X120009138Y-116989073D01*
X120025020Y-116978460D01*
X120035633Y-116962578D01*
X120039400Y-116943641D01*
X120039400Y-116811484D01*
X120040400Y-116809752D01*
X120042400Y-116809752D01*
X120043319Y-116810921D01*
G37*
G36*
X152416691Y-116534775D02*
G01*
X152416864Y-116536251D01*
X152398983Y-116602354D01*
X152419913Y-116668371D01*
X152473315Y-116712678D01*
X152510251Y-116721825D01*
X152511692Y-116723212D01*
X152511211Y-116725153D01*
X152509613Y-116725760D01*
X152411600Y-116718046D01*
X152266598Y-116729458D01*
X152264793Y-116728597D01*
X152264636Y-116726603D01*
X152264920Y-116726165D01*
X152374539Y-116597818D01*
X152413228Y-116534684D01*
X152414985Y-116533730D01*
X152416691Y-116534775D01*
G37*
G36*
X144790502Y-116535548D02*
G01*
X144828661Y-116597818D01*
X144938280Y-116726165D01*
X144938644Y-116728132D01*
X144937123Y-116729431D01*
X144936602Y-116729458D01*
X144791600Y-116718046D01*
X144692576Y-116725840D01*
X144690771Y-116724979D01*
X144690614Y-116722985D01*
X144691707Y-116721977D01*
X144755692Y-116697590D01*
X144796800Y-116641850D01*
X144801256Y-116572605D01*
X144786944Y-116537345D01*
X144787219Y-116535364D01*
X144789072Y-116534612D01*
X144790502Y-116535548D01*
G37*
G36*
X120994302Y-116527348D02*
G01*
X121032461Y-116589618D01*
X121142080Y-116717965D01*
X121142444Y-116719932D01*
X121140923Y-116721231D01*
X121140402Y-116721258D01*
X120995400Y-116709846D01*
X120896376Y-116717640D01*
X120894571Y-116716779D01*
X120894414Y-116714785D01*
X120895507Y-116713777D01*
X120959492Y-116689390D01*
X121000600Y-116633650D01*
X121005056Y-116564405D01*
X120990744Y-116529145D01*
X120991019Y-116527164D01*
X120992872Y-116526412D01*
X120994302Y-116527348D01*
G37*
G36*
X128620491Y-116526575D02*
G01*
X128620664Y-116528051D01*
X128602783Y-116594154D01*
X128623713Y-116660171D01*
X128677115Y-116704478D01*
X128714051Y-116713625D01*
X128715492Y-116715012D01*
X128715011Y-116716953D01*
X128713413Y-116717560D01*
X128615400Y-116709846D01*
X128470398Y-116721258D01*
X128468593Y-116720397D01*
X128468436Y-116718403D01*
X128468720Y-116717965D01*
X128578339Y-116589618D01*
X128617028Y-116526484D01*
X128618785Y-116525530D01*
X128620491Y-116526575D01*
G37*
G36*
X227496807Y-115314283D02*
G01*
X227496964Y-115316277D01*
X227496680Y-115316715D01*
X227387061Y-115445062D01*
X227348372Y-115508196D01*
X227346615Y-115509150D01*
X227344909Y-115508105D01*
X227344736Y-115506629D01*
X227362617Y-115440526D01*
X227341687Y-115374509D01*
X227288285Y-115330202D01*
X227251349Y-115321055D01*
X227249908Y-115319668D01*
X227250389Y-115317727D01*
X227251987Y-115317120D01*
X227350000Y-115324834D01*
X227495002Y-115313422D01*
X227496807Y-115314283D01*
G37*
G36*
X222270000Y-115324834D02*
G01*
X222369024Y-115317040D01*
X222370829Y-115317901D01*
X222370986Y-115319895D01*
X222369893Y-115320903D01*
X222305908Y-115345290D01*
X222264800Y-115401030D01*
X222260344Y-115470275D01*
X222274656Y-115505535D01*
X222274381Y-115507516D01*
X222272528Y-115508268D01*
X222271098Y-115507332D01*
X222232939Y-115445062D01*
X222123320Y-115316715D01*
X222122956Y-115314748D01*
X222124477Y-115313449D01*
X222124998Y-115313422D01*
X222270000Y-115324834D01*
G37*
G36*
X220047919Y-114917921D02*
G01*
X220067596Y-114984936D01*
X220119939Y-115030291D01*
X220188580Y-115040160D01*
X220233839Y-115023829D01*
X220235808Y-115024181D01*
X220236487Y-115026063D01*
X220235563Y-115027415D01*
X220104222Y-115107901D01*
X219922374Y-115263214D01*
X219884063Y-115308070D01*
X219882178Y-115308738D01*
X219880657Y-115307439D01*
X219880717Y-115305953D01*
X219908718Y-115243462D01*
X219898371Y-115174979D01*
X219852644Y-115122961D01*
X219786379Y-115103761D01*
X219784994Y-115102318D01*
X219785551Y-115100397D01*
X219786936Y-115099840D01*
X219994801Y-115099840D01*
X220013738Y-115096073D01*
X220029620Y-115085460D01*
X220040233Y-115069578D01*
X220044000Y-115050641D01*
X220044000Y-114918484D01*
X220045000Y-114916752D01*
X220047000Y-114916752D01*
X220047919Y-114917921D01*
G37*
G36*
X220998902Y-114634348D02*
G01*
X221037061Y-114696618D01*
X221146680Y-114824965D01*
X221147044Y-114826932D01*
X221145523Y-114828231D01*
X221145002Y-114828258D01*
X221000000Y-114816846D01*
X220900976Y-114824640D01*
X220899171Y-114823779D01*
X220899014Y-114821785D01*
X220900107Y-114820777D01*
X220964092Y-114796390D01*
X221005200Y-114740650D01*
X221009656Y-114671405D01*
X220995344Y-114636145D01*
X220995619Y-114634164D01*
X220997472Y-114633412D01*
X220998902Y-114634348D01*
G37*
G36*
X228625091Y-114633575D02*
G01*
X228625264Y-114635051D01*
X228607383Y-114701154D01*
X228628313Y-114767171D01*
X228681715Y-114811478D01*
X228718651Y-114820625D01*
X228720092Y-114822012D01*
X228719611Y-114823953D01*
X228718013Y-114824560D01*
X228620000Y-114816846D01*
X228474998Y-114828258D01*
X228473193Y-114827397D01*
X228473036Y-114825403D01*
X228473320Y-114824965D01*
X228582939Y-114696618D01*
X228621628Y-114633484D01*
X228623385Y-114632530D01*
X228625091Y-114633575D01*
G37*
G36*
X170346807Y-114023683D02*
G01*
X170346964Y-114025677D01*
X170346680Y-114026115D01*
X170237061Y-114154462D01*
X170198372Y-114217596D01*
X170196615Y-114218550D01*
X170194909Y-114217505D01*
X170194736Y-114216029D01*
X170212617Y-114149926D01*
X170191687Y-114083909D01*
X170138285Y-114039602D01*
X170101349Y-114030455D01*
X170099908Y-114029068D01*
X170100389Y-114027127D01*
X170101987Y-114026520D01*
X170200000Y-114034234D01*
X170345002Y-114022822D01*
X170346807Y-114023683D01*
G37*
G36*
X165120000Y-114034234D02*
G01*
X165219024Y-114026440D01*
X165220829Y-114027301D01*
X165220986Y-114029295D01*
X165219893Y-114030303D01*
X165155908Y-114054690D01*
X165114800Y-114110430D01*
X165110344Y-114179675D01*
X165124656Y-114214935D01*
X165124381Y-114216916D01*
X165122528Y-114217668D01*
X165121098Y-114216732D01*
X165082939Y-114154462D01*
X164973320Y-114026115D01*
X164972956Y-114024148D01*
X164974477Y-114022849D01*
X164974998Y-114022822D01*
X165120000Y-114034234D01*
G37*
G36*
X208446807Y-114003443D02*
G01*
X208446964Y-114005437D01*
X208446680Y-114005875D01*
X208337061Y-114134222D01*
X208298372Y-114197356D01*
X208296615Y-114198310D01*
X208294909Y-114197265D01*
X208294736Y-114195789D01*
X208312617Y-114129686D01*
X208291687Y-114063669D01*
X208238285Y-114019362D01*
X208201349Y-114010215D01*
X208199908Y-114008828D01*
X208200389Y-114006887D01*
X208201987Y-114006280D01*
X208300000Y-114013994D01*
X208445002Y-114002582D01*
X208446807Y-114003443D01*
G37*
G36*
X203220000Y-114013994D02*
G01*
X203319024Y-114006200D01*
X203320829Y-114007061D01*
X203320986Y-114009055D01*
X203319893Y-114010063D01*
X203255908Y-114034450D01*
X203214800Y-114090190D01*
X203210344Y-114159435D01*
X203224656Y-114194695D01*
X203224381Y-114196676D01*
X203222528Y-114197428D01*
X203221098Y-114196492D01*
X203182939Y-114134222D01*
X203073320Y-114005875D01*
X203072956Y-114003908D01*
X203074477Y-114002609D01*
X203074998Y-114002582D01*
X203220000Y-114013994D01*
G37*
G36*
X162897919Y-113627321D02*
G01*
X162917596Y-113694336D01*
X162969939Y-113739691D01*
X163038580Y-113749560D01*
X163083839Y-113733229D01*
X163085808Y-113733581D01*
X163086487Y-113735463D01*
X163085563Y-113736815D01*
X162954222Y-113817301D01*
X162772374Y-113972614D01*
X162734063Y-114017470D01*
X162732178Y-114018138D01*
X162730657Y-114016839D01*
X162730717Y-114015353D01*
X162758718Y-113952862D01*
X162748371Y-113884379D01*
X162702644Y-113832361D01*
X162636379Y-113813161D01*
X162634994Y-113811718D01*
X162635551Y-113809797D01*
X162636936Y-113809240D01*
X162844801Y-113809240D01*
X162863738Y-113805473D01*
X162879620Y-113794860D01*
X162890233Y-113778978D01*
X162894000Y-113760041D01*
X162894000Y-113627884D01*
X162895000Y-113626152D01*
X162897000Y-113626152D01*
X162897919Y-113627321D01*
G37*
G36*
X200997919Y-113607081D02*
G01*
X201017596Y-113674096D01*
X201069939Y-113719451D01*
X201138580Y-113729320D01*
X201183839Y-113712989D01*
X201185808Y-113713341D01*
X201186487Y-113715223D01*
X201185563Y-113716575D01*
X201054222Y-113797061D01*
X200872374Y-113952374D01*
X200834063Y-113997230D01*
X200832178Y-113997898D01*
X200830657Y-113996599D01*
X200830717Y-113995113D01*
X200858718Y-113932622D01*
X200848371Y-113864139D01*
X200802644Y-113812121D01*
X200736379Y-113792921D01*
X200734994Y-113791478D01*
X200735551Y-113789557D01*
X200736936Y-113789000D01*
X200944801Y-113789000D01*
X200963738Y-113785233D01*
X200979620Y-113774620D01*
X200990233Y-113758738D01*
X200994000Y-113739801D01*
X200994000Y-113607644D01*
X200995000Y-113605912D01*
X200997000Y-113605912D01*
X200997919Y-113607081D01*
G37*
G36*
X171475091Y-113342975D02*
G01*
X171475264Y-113344451D01*
X171457383Y-113410554D01*
X171478313Y-113476571D01*
X171531715Y-113520878D01*
X171568651Y-113530025D01*
X171570092Y-113531412D01*
X171569611Y-113533353D01*
X171568013Y-113533960D01*
X171470000Y-113526246D01*
X171324998Y-113537658D01*
X171323193Y-113536797D01*
X171323036Y-113534803D01*
X171323320Y-113534365D01*
X171432939Y-113406018D01*
X171471628Y-113342884D01*
X171473385Y-113341930D01*
X171475091Y-113342975D01*
G37*
G36*
X163848902Y-113343748D02*
G01*
X163887061Y-113406018D01*
X163996680Y-113534365D01*
X163997044Y-113536332D01*
X163995523Y-113537631D01*
X163995002Y-113537658D01*
X163850000Y-113526246D01*
X163750976Y-113534040D01*
X163749171Y-113533179D01*
X163749014Y-113531185D01*
X163750107Y-113530177D01*
X163814092Y-113505790D01*
X163855200Y-113450050D01*
X163859656Y-113380805D01*
X163845344Y-113345545D01*
X163845619Y-113343564D01*
X163847472Y-113342812D01*
X163848902Y-113343748D01*
G37*
G36*
X209575091Y-113322735D02*
G01*
X209575264Y-113324211D01*
X209557383Y-113390314D01*
X209578313Y-113456331D01*
X209631715Y-113500638D01*
X209668651Y-113509785D01*
X209670092Y-113511172D01*
X209669611Y-113513113D01*
X209668013Y-113513720D01*
X209570000Y-113506006D01*
X209424998Y-113517418D01*
X209423193Y-113516557D01*
X209423036Y-113514563D01*
X209423320Y-113514125D01*
X209532939Y-113385778D01*
X209571628Y-113322644D01*
X209573385Y-113321690D01*
X209575091Y-113322735D01*
G37*
G36*
X201948902Y-113323508D02*
G01*
X201987061Y-113385778D01*
X202096680Y-113514125D01*
X202097044Y-113516092D01*
X202095523Y-113517391D01*
X202095002Y-113517418D01*
X201950000Y-113506006D01*
X201850976Y-113513800D01*
X201849171Y-113512939D01*
X201849014Y-113510945D01*
X201850107Y-113509937D01*
X201914092Y-113485550D01*
X201955200Y-113429810D01*
X201959656Y-113360565D01*
X201945344Y-113325305D01*
X201945619Y-113323324D01*
X201947472Y-113322572D01*
X201948902Y-113323508D01*
G37*
G36*
X189396807Y-112420683D02*
G01*
X189396964Y-112422677D01*
X189396680Y-112423115D01*
X189287061Y-112551462D01*
X189248372Y-112614596D01*
X189246615Y-112615550D01*
X189244909Y-112614505D01*
X189244736Y-112613029D01*
X189262617Y-112546926D01*
X189241687Y-112480909D01*
X189188285Y-112436602D01*
X189151349Y-112427455D01*
X189149908Y-112426068D01*
X189150389Y-112424127D01*
X189151987Y-112423520D01*
X189250000Y-112431234D01*
X189395002Y-112419822D01*
X189396807Y-112420683D01*
G37*
G36*
X184170000Y-112431234D02*
G01*
X184269024Y-112423440D01*
X184270829Y-112424301D01*
X184270986Y-112426295D01*
X184269893Y-112427303D01*
X184205908Y-112451690D01*
X184164800Y-112507430D01*
X184160344Y-112576675D01*
X184174656Y-112611935D01*
X184174381Y-112613916D01*
X184172528Y-112614668D01*
X184171098Y-112613732D01*
X184132939Y-112551462D01*
X184023320Y-112423115D01*
X184022956Y-112421148D01*
X184024477Y-112419849D01*
X184024998Y-112419822D01*
X184170000Y-112431234D01*
G37*
G36*
X181947919Y-112024321D02*
G01*
X181967596Y-112091336D01*
X182019939Y-112136691D01*
X182088580Y-112146560D01*
X182133839Y-112130229D01*
X182135808Y-112130581D01*
X182136487Y-112132463D01*
X182135563Y-112133815D01*
X182004222Y-112214301D01*
X181822374Y-112369614D01*
X181784063Y-112414470D01*
X181782178Y-112415138D01*
X181780657Y-112413839D01*
X181780717Y-112412353D01*
X181808718Y-112349862D01*
X181798371Y-112281379D01*
X181752644Y-112229361D01*
X181686379Y-112210161D01*
X181684994Y-112208718D01*
X181685551Y-112206797D01*
X181686936Y-112206240D01*
X181894801Y-112206240D01*
X181913738Y-112202473D01*
X181929620Y-112191860D01*
X181940233Y-112175978D01*
X181944000Y-112157041D01*
X181944000Y-112024884D01*
X181945000Y-112023152D01*
X181947000Y-112023152D01*
X181947919Y-112024321D01*
G37*
G36*
X190525091Y-111739975D02*
G01*
X190525264Y-111741451D01*
X190507383Y-111807554D01*
X190528313Y-111873571D01*
X190581715Y-111917878D01*
X190618651Y-111927025D01*
X190620092Y-111928412D01*
X190619611Y-111930353D01*
X190618013Y-111930960D01*
X190520000Y-111923246D01*
X190374998Y-111934658D01*
X190373193Y-111933797D01*
X190373036Y-111931803D01*
X190373320Y-111931365D01*
X190482939Y-111803018D01*
X190521628Y-111739884D01*
X190523385Y-111738930D01*
X190525091Y-111739975D01*
G37*
G36*
X182898902Y-111740748D02*
G01*
X182937061Y-111803018D01*
X183046680Y-111931365D01*
X183047044Y-111933332D01*
X183045523Y-111934631D01*
X183045002Y-111934658D01*
X182900000Y-111923246D01*
X182800976Y-111931040D01*
X182799171Y-111930179D01*
X182799014Y-111928185D01*
X182800107Y-111927177D01*
X182864092Y-111902790D01*
X182905200Y-111847050D01*
X182909656Y-111777805D01*
X182895344Y-111742545D01*
X182895619Y-111740564D01*
X182897472Y-111739812D01*
X182898902Y-111740748D01*
G37*
G36*
X246546807Y-101029083D02*
G01*
X246546964Y-101031077D01*
X246546680Y-101031515D01*
X246437061Y-101159862D01*
X246398372Y-101222996D01*
X246396615Y-101223950D01*
X246394909Y-101222905D01*
X246394736Y-101221429D01*
X246412617Y-101155326D01*
X246391687Y-101089309D01*
X246338285Y-101045002D01*
X246301349Y-101035855D01*
X246299908Y-101034468D01*
X246300389Y-101032527D01*
X246301987Y-101031920D01*
X246400000Y-101039634D01*
X246545002Y-101028222D01*
X246546807Y-101029083D01*
G37*
G36*
X241320000Y-101039634D02*
G01*
X241419024Y-101031840D01*
X241420829Y-101032701D01*
X241420986Y-101034695D01*
X241419893Y-101035703D01*
X241355908Y-101060090D01*
X241314800Y-101115830D01*
X241310344Y-101185075D01*
X241324656Y-101220335D01*
X241324381Y-101222316D01*
X241322528Y-101223068D01*
X241321098Y-101222132D01*
X241282939Y-101159862D01*
X241173320Y-101031515D01*
X241172956Y-101029548D01*
X241174477Y-101028249D01*
X241174998Y-101028222D01*
X241320000Y-101039634D01*
G37*
G36*
X239097919Y-100632721D02*
G01*
X239117596Y-100699736D01*
X239169939Y-100745091D01*
X239238580Y-100754960D01*
X239283839Y-100738629D01*
X239285808Y-100738981D01*
X239286487Y-100740863D01*
X239285563Y-100742215D01*
X239154222Y-100822701D01*
X238972374Y-100978014D01*
X238934063Y-101022870D01*
X238932178Y-101023538D01*
X238930657Y-101022239D01*
X238930717Y-101020753D01*
X238958718Y-100958262D01*
X238948371Y-100889779D01*
X238902644Y-100837761D01*
X238836379Y-100818561D01*
X238834994Y-100817118D01*
X238835551Y-100815197D01*
X238836936Y-100814640D01*
X239044801Y-100814640D01*
X239063738Y-100810873D01*
X239079620Y-100800260D01*
X239090233Y-100784378D01*
X239094000Y-100765441D01*
X239094000Y-100633284D01*
X239095000Y-100631552D01*
X239097000Y-100631552D01*
X239097919Y-100632721D01*
G37*
G36*
X247675091Y-100348375D02*
G01*
X247675264Y-100349851D01*
X247657383Y-100415954D01*
X247678313Y-100481971D01*
X247731715Y-100526278D01*
X247768651Y-100535425D01*
X247770092Y-100536812D01*
X247769611Y-100538753D01*
X247768013Y-100539360D01*
X247670000Y-100531646D01*
X247524998Y-100543058D01*
X247523193Y-100542197D01*
X247523036Y-100540203D01*
X247523320Y-100539765D01*
X247632939Y-100411418D01*
X247671628Y-100348284D01*
X247673385Y-100347330D01*
X247675091Y-100348375D01*
G37*
G36*
X240048902Y-100349148D02*
G01*
X240087061Y-100411418D01*
X240196680Y-100539765D01*
X240197044Y-100541732D01*
X240195523Y-100543031D01*
X240195002Y-100543058D01*
X240050000Y-100531646D01*
X239950976Y-100539440D01*
X239949171Y-100538579D01*
X239949014Y-100536585D01*
X239950107Y-100535577D01*
X240014092Y-100511190D01*
X240055200Y-100455450D01*
X240059656Y-100386205D01*
X240045344Y-100350945D01*
X240045619Y-100348964D01*
X240047472Y-100348212D01*
X240048902Y-100349148D01*
G37*
G36*
X151282667Y-98176783D02*
G01*
X151282824Y-98178777D01*
X151282540Y-98179215D01*
X151172921Y-98307562D01*
X151134232Y-98370696D01*
X151132475Y-98371650D01*
X151130769Y-98370605D01*
X151130596Y-98369129D01*
X151148477Y-98303026D01*
X151127547Y-98237009D01*
X151074145Y-98192702D01*
X151037209Y-98183555D01*
X151035768Y-98182168D01*
X151036249Y-98180227D01*
X151037847Y-98179620D01*
X151135860Y-98187334D01*
X151280862Y-98175922D01*
X151282667Y-98176783D01*
G37*
G36*
X146055860Y-98187334D02*
G01*
X146154884Y-98179540D01*
X146156689Y-98180401D01*
X146156846Y-98182395D01*
X146155753Y-98183403D01*
X146091768Y-98207790D01*
X146050660Y-98263530D01*
X146046204Y-98332775D01*
X146060516Y-98368035D01*
X146060241Y-98370016D01*
X146058388Y-98370768D01*
X146056958Y-98369832D01*
X146018799Y-98307562D01*
X145909180Y-98179215D01*
X145908816Y-98177248D01*
X145910337Y-98175949D01*
X145910858Y-98175922D01*
X146055860Y-98187334D01*
G37*
G36*
X127481887Y-98167183D02*
G01*
X127482044Y-98169177D01*
X127481760Y-98169615D01*
X127372141Y-98297962D01*
X127333452Y-98361096D01*
X127331695Y-98362050D01*
X127329989Y-98361005D01*
X127329816Y-98359529D01*
X127347697Y-98293426D01*
X127326767Y-98227409D01*
X127273365Y-98183102D01*
X127236429Y-98173955D01*
X127234988Y-98172568D01*
X127235469Y-98170627D01*
X127237067Y-98170020D01*
X127335080Y-98177734D01*
X127480082Y-98166322D01*
X127481887Y-98167183D01*
G37*
G36*
X122255080Y-98177734D02*
G01*
X122354104Y-98169940D01*
X122355909Y-98170801D01*
X122356066Y-98172795D01*
X122354973Y-98173803D01*
X122290988Y-98198190D01*
X122249880Y-98253930D01*
X122245424Y-98323175D01*
X122259736Y-98358435D01*
X122259461Y-98360416D01*
X122257608Y-98361168D01*
X122256178Y-98360232D01*
X122218019Y-98297962D01*
X122108400Y-98169615D01*
X122108036Y-98167648D01*
X122109557Y-98166349D01*
X122110078Y-98166322D01*
X122255080Y-98177734D01*
G37*
G36*
X143833779Y-97780421D02*
G01*
X143853456Y-97847436D01*
X143905799Y-97892791D01*
X143974440Y-97902660D01*
X144019699Y-97886329D01*
X144021668Y-97886681D01*
X144022347Y-97888563D01*
X144021423Y-97889915D01*
X143890082Y-97970401D01*
X143708234Y-98125714D01*
X143669923Y-98170570D01*
X143668038Y-98171238D01*
X143666517Y-98169939D01*
X143666577Y-98168453D01*
X143694578Y-98105962D01*
X143684231Y-98037479D01*
X143638504Y-97985461D01*
X143572239Y-97966261D01*
X143570854Y-97964818D01*
X143571411Y-97962897D01*
X143572796Y-97962340D01*
X143780661Y-97962340D01*
X143799598Y-97958573D01*
X143815480Y-97947960D01*
X143826093Y-97932078D01*
X143829860Y-97913141D01*
X143829860Y-97780984D01*
X143830860Y-97779252D01*
X143832860Y-97779252D01*
X143833779Y-97780421D01*
G37*
G36*
X120032999Y-97770821D02*
G01*
X120052676Y-97837836D01*
X120105019Y-97883191D01*
X120173660Y-97893060D01*
X120218919Y-97876729D01*
X120220888Y-97877081D01*
X120221567Y-97878963D01*
X120220643Y-97880315D01*
X120089302Y-97960801D01*
X119907454Y-98116114D01*
X119869143Y-98160970D01*
X119867258Y-98161638D01*
X119865737Y-98160339D01*
X119865797Y-98158853D01*
X119893798Y-98096362D01*
X119883451Y-98027879D01*
X119837724Y-97975861D01*
X119771459Y-97956661D01*
X119770074Y-97955218D01*
X119770631Y-97953297D01*
X119772016Y-97952740D01*
X119979881Y-97952740D01*
X119998818Y-97948973D01*
X120014700Y-97938360D01*
X120025313Y-97922478D01*
X120029080Y-97903541D01*
X120029080Y-97771384D01*
X120030080Y-97769652D01*
X120032080Y-97769652D01*
X120032999Y-97770821D01*
G37*
G36*
X144784762Y-97496848D02*
G01*
X144822921Y-97559118D01*
X144932540Y-97687465D01*
X144932904Y-97689432D01*
X144931383Y-97690731D01*
X144930862Y-97690758D01*
X144785860Y-97679346D01*
X144686836Y-97687140D01*
X144685031Y-97686279D01*
X144684874Y-97684285D01*
X144685967Y-97683277D01*
X144749952Y-97658890D01*
X144791060Y-97603150D01*
X144795516Y-97533905D01*
X144781204Y-97498645D01*
X144781479Y-97496664D01*
X144783332Y-97495912D01*
X144784762Y-97496848D01*
G37*
G36*
X152410951Y-97496075D02*
G01*
X152411124Y-97497551D01*
X152393243Y-97563654D01*
X152414173Y-97629671D01*
X152467575Y-97673978D01*
X152504511Y-97683125D01*
X152505952Y-97684512D01*
X152505471Y-97686453D01*
X152503873Y-97687060D01*
X152405860Y-97679346D01*
X152260858Y-97690758D01*
X152259053Y-97689897D01*
X152258896Y-97687903D01*
X152259180Y-97687465D01*
X152368799Y-97559118D01*
X152407488Y-97495984D01*
X152409245Y-97495030D01*
X152410951Y-97496075D01*
G37*
G36*
X128610171Y-97486475D02*
G01*
X128610344Y-97487951D01*
X128592463Y-97554054D01*
X128613393Y-97620071D01*
X128666795Y-97664378D01*
X128703731Y-97673525D01*
X128705172Y-97674912D01*
X128704691Y-97676853D01*
X128703093Y-97677460D01*
X128605080Y-97669746D01*
X128460078Y-97681158D01*
X128458273Y-97680297D01*
X128458116Y-97678303D01*
X128458400Y-97677865D01*
X128568019Y-97549518D01*
X128606708Y-97486384D01*
X128608465Y-97485430D01*
X128610171Y-97486475D01*
G37*
G36*
X120983982Y-97487248D02*
G01*
X121022141Y-97549518D01*
X121131760Y-97677865D01*
X121132124Y-97679832D01*
X121130603Y-97681131D01*
X121130082Y-97681158D01*
X120985080Y-97669746D01*
X120886056Y-97677540D01*
X120884251Y-97676679D01*
X120884094Y-97674685D01*
X120885187Y-97673677D01*
X120949172Y-97649290D01*
X120990280Y-97593550D01*
X120994736Y-97524305D01*
X120980424Y-97489045D01*
X120980699Y-97487064D01*
X120982552Y-97486312D01*
X120983982Y-97487248D01*
G37*
G36*
X227454407Y-96269483D02*
G01*
X227454564Y-96271477D01*
X227454280Y-96271915D01*
X227344661Y-96400262D01*
X227305972Y-96463396D01*
X227304215Y-96464350D01*
X227302509Y-96463305D01*
X227302336Y-96461829D01*
X227320217Y-96395726D01*
X227299287Y-96329709D01*
X227245885Y-96285402D01*
X227208949Y-96276255D01*
X227207508Y-96274868D01*
X227207989Y-96272927D01*
X227209587Y-96272320D01*
X227307600Y-96280034D01*
X227452602Y-96268622D01*
X227454407Y-96269483D01*
G37*
G36*
X222227600Y-96280034D02*
G01*
X222326624Y-96272240D01*
X222328429Y-96273101D01*
X222328586Y-96275095D01*
X222327493Y-96276103D01*
X222263508Y-96300490D01*
X222222400Y-96356230D01*
X222217944Y-96425475D01*
X222232256Y-96460735D01*
X222231981Y-96462716D01*
X222230128Y-96463468D01*
X222228698Y-96462532D01*
X222190539Y-96400262D01*
X222080920Y-96271915D01*
X222080556Y-96269948D01*
X222082077Y-96268649D01*
X222082598Y-96268622D01*
X222227600Y-96280034D01*
G37*
G36*
X220005519Y-95873121D02*
G01*
X220025196Y-95940136D01*
X220077539Y-95985491D01*
X220146180Y-95995360D01*
X220191439Y-95979029D01*
X220193408Y-95979381D01*
X220194087Y-95981263D01*
X220193163Y-95982615D01*
X220061822Y-96063101D01*
X219879974Y-96218414D01*
X219841663Y-96263270D01*
X219839778Y-96263938D01*
X219838257Y-96262639D01*
X219838317Y-96261153D01*
X219866318Y-96198662D01*
X219855971Y-96130179D01*
X219810244Y-96078161D01*
X219743979Y-96058961D01*
X219742594Y-96057518D01*
X219743151Y-96055597D01*
X219744536Y-96055040D01*
X219952401Y-96055040D01*
X219971338Y-96051273D01*
X219987220Y-96040660D01*
X219997833Y-96024778D01*
X220001600Y-96005841D01*
X220001600Y-95873684D01*
X220002600Y-95871952D01*
X220004600Y-95871952D01*
X220005519Y-95873121D01*
G37*
G36*
X220956502Y-95589548D02*
G01*
X220994661Y-95651818D01*
X221104280Y-95780165D01*
X221104644Y-95782132D01*
X221103123Y-95783431D01*
X221102602Y-95783458D01*
X220957600Y-95772046D01*
X220858576Y-95779840D01*
X220856771Y-95778979D01*
X220856614Y-95776985D01*
X220857707Y-95775977D01*
X220921692Y-95751590D01*
X220962800Y-95695850D01*
X220967256Y-95626605D01*
X220952944Y-95591345D01*
X220953219Y-95589364D01*
X220955072Y-95588612D01*
X220956502Y-95589548D01*
G37*
G36*
X228582691Y-95588775D02*
G01*
X228582864Y-95590251D01*
X228564983Y-95656354D01*
X228585913Y-95722371D01*
X228639315Y-95766678D01*
X228676251Y-95775825D01*
X228677692Y-95777212D01*
X228677211Y-95779153D01*
X228675613Y-95779760D01*
X228577600Y-95772046D01*
X228432598Y-95783458D01*
X228430793Y-95782597D01*
X228430636Y-95780603D01*
X228430920Y-95780165D01*
X228540539Y-95651818D01*
X228579228Y-95588684D01*
X228580985Y-95587730D01*
X228582691Y-95588775D01*
G37*
G36*
X170331407Y-94976063D02*
G01*
X170331564Y-94978057D01*
X170331280Y-94978495D01*
X170221661Y-95106842D01*
X170182972Y-95169976D01*
X170181215Y-95170930D01*
X170179509Y-95169885D01*
X170179336Y-95168409D01*
X170197217Y-95102306D01*
X170176287Y-95036289D01*
X170122885Y-94991982D01*
X170085949Y-94982835D01*
X170084508Y-94981448D01*
X170084989Y-94979507D01*
X170086587Y-94978900D01*
X170184600Y-94986614D01*
X170329602Y-94975202D01*
X170331407Y-94976063D01*
G37*
G36*
X165104600Y-94986614D02*
G01*
X165203624Y-94978820D01*
X165205429Y-94979681D01*
X165205586Y-94981675D01*
X165204493Y-94982683D01*
X165140508Y-95007070D01*
X165099400Y-95062810D01*
X165094944Y-95132055D01*
X165109256Y-95167315D01*
X165108981Y-95169296D01*
X165107128Y-95170048D01*
X165105698Y-95169112D01*
X165067539Y-95106842D01*
X164957920Y-94978495D01*
X164957556Y-94976528D01*
X164959077Y-94975229D01*
X164959598Y-94975202D01*
X165104600Y-94986614D01*
G37*
G36*
X208421247Y-94958703D02*
G01*
X208421404Y-94960697D01*
X208421120Y-94961135D01*
X208311501Y-95089482D01*
X208272812Y-95152616D01*
X208271055Y-95153570D01*
X208269349Y-95152525D01*
X208269176Y-95151049D01*
X208287057Y-95084946D01*
X208266127Y-95018929D01*
X208212725Y-94974622D01*
X208175789Y-94965475D01*
X208174348Y-94964088D01*
X208174829Y-94962147D01*
X208176427Y-94961540D01*
X208274440Y-94969254D01*
X208419442Y-94957842D01*
X208421247Y-94958703D01*
G37*
G36*
X203194440Y-94969254D02*
G01*
X203293464Y-94961460D01*
X203295269Y-94962321D01*
X203295426Y-94964315D01*
X203294333Y-94965323D01*
X203230348Y-94989710D01*
X203189240Y-95045450D01*
X203184784Y-95114695D01*
X203199096Y-95149955D01*
X203198821Y-95151936D01*
X203196968Y-95152688D01*
X203195538Y-95151752D01*
X203157379Y-95089482D01*
X203047760Y-94961135D01*
X203047396Y-94959168D01*
X203048917Y-94957869D01*
X203049438Y-94957842D01*
X203194440Y-94969254D01*
G37*
G36*
X162882519Y-94579701D02*
G01*
X162902196Y-94646716D01*
X162954539Y-94692071D01*
X163023180Y-94701940D01*
X163068439Y-94685609D01*
X163070408Y-94685961D01*
X163071087Y-94687843D01*
X163070163Y-94689195D01*
X162938822Y-94769681D01*
X162756974Y-94924994D01*
X162718663Y-94969850D01*
X162716778Y-94970518D01*
X162715257Y-94969219D01*
X162715317Y-94967733D01*
X162743318Y-94905242D01*
X162732971Y-94836759D01*
X162687244Y-94784741D01*
X162620979Y-94765541D01*
X162619594Y-94764098D01*
X162620151Y-94762177D01*
X162621536Y-94761620D01*
X162829401Y-94761620D01*
X162848338Y-94757853D01*
X162864220Y-94747240D01*
X162874833Y-94731358D01*
X162878600Y-94712421D01*
X162878600Y-94580264D01*
X162879600Y-94578532D01*
X162881600Y-94578532D01*
X162882519Y-94579701D01*
G37*
G36*
X200972359Y-94562341D02*
G01*
X200992036Y-94629356D01*
X201044379Y-94674711D01*
X201113020Y-94684580D01*
X201158279Y-94668249D01*
X201160248Y-94668601D01*
X201160927Y-94670483D01*
X201160003Y-94671835D01*
X201028662Y-94752321D01*
X200846814Y-94907634D01*
X200808503Y-94952490D01*
X200806618Y-94953158D01*
X200805097Y-94951859D01*
X200805157Y-94950373D01*
X200833158Y-94887882D01*
X200822811Y-94819399D01*
X200777084Y-94767381D01*
X200710819Y-94748181D01*
X200709434Y-94746738D01*
X200709991Y-94744817D01*
X200711376Y-94744260D01*
X200919241Y-94744260D01*
X200938178Y-94740493D01*
X200954060Y-94729880D01*
X200964673Y-94713998D01*
X200968440Y-94695061D01*
X200968440Y-94562904D01*
X200969440Y-94561172D01*
X200971440Y-94561172D01*
X200972359Y-94562341D01*
G37*
G36*
X171459691Y-94295355D02*
G01*
X171459864Y-94296831D01*
X171441983Y-94362934D01*
X171462913Y-94428951D01*
X171516315Y-94473258D01*
X171553251Y-94482405D01*
X171554692Y-94483792D01*
X171554211Y-94485733D01*
X171552613Y-94486340D01*
X171454600Y-94478626D01*
X171309598Y-94490038D01*
X171307793Y-94489177D01*
X171307636Y-94487183D01*
X171307920Y-94486745D01*
X171417539Y-94358398D01*
X171456228Y-94295264D01*
X171457985Y-94294310D01*
X171459691Y-94295355D01*
G37*
G36*
X163833502Y-94296128D02*
G01*
X163871661Y-94358398D01*
X163981280Y-94486745D01*
X163981644Y-94488712D01*
X163980123Y-94490011D01*
X163979602Y-94490038D01*
X163834600Y-94478626D01*
X163735576Y-94486420D01*
X163733771Y-94485559D01*
X163733614Y-94483565D01*
X163734707Y-94482557D01*
X163798692Y-94458170D01*
X163839800Y-94402430D01*
X163844256Y-94333185D01*
X163829944Y-94297925D01*
X163830219Y-94295944D01*
X163832072Y-94295192D01*
X163833502Y-94296128D01*
G37*
G36*
X201923342Y-94278768D02*
G01*
X201961501Y-94341038D01*
X202071120Y-94469385D01*
X202071484Y-94471352D01*
X202069963Y-94472651D01*
X202069442Y-94472678D01*
X201924440Y-94461266D01*
X201825416Y-94469060D01*
X201823611Y-94468199D01*
X201823454Y-94466205D01*
X201824547Y-94465197D01*
X201888532Y-94440810D01*
X201929640Y-94385070D01*
X201934096Y-94315825D01*
X201919784Y-94280565D01*
X201920059Y-94278584D01*
X201921912Y-94277832D01*
X201923342Y-94278768D01*
G37*
G36*
X209549531Y-94277995D02*
G01*
X209549704Y-94279471D01*
X209531823Y-94345574D01*
X209552753Y-94411591D01*
X209606155Y-94455898D01*
X209643091Y-94465045D01*
X209644532Y-94466432D01*
X209644051Y-94468373D01*
X209642453Y-94468980D01*
X209544440Y-94461266D01*
X209399438Y-94472678D01*
X209397633Y-94471817D01*
X209397476Y-94469823D01*
X209397760Y-94469385D01*
X209507379Y-94341038D01*
X209546068Y-94277904D01*
X209547825Y-94276950D01*
X209549531Y-94277995D01*
G37*
G36*
X189375847Y-93372983D02*
G01*
X189376004Y-93374977D01*
X189375720Y-93375415D01*
X189266101Y-93503762D01*
X189227412Y-93566896D01*
X189225655Y-93567850D01*
X189223949Y-93566805D01*
X189223776Y-93565329D01*
X189241657Y-93499226D01*
X189220727Y-93433209D01*
X189167325Y-93388902D01*
X189130389Y-93379755D01*
X189128948Y-93378368D01*
X189129429Y-93376427D01*
X189131027Y-93375820D01*
X189229040Y-93383534D01*
X189374042Y-93372122D01*
X189375847Y-93372983D01*
G37*
G36*
X184149040Y-93383534D02*
G01*
X184248064Y-93375740D01*
X184249869Y-93376601D01*
X184250026Y-93378595D01*
X184248933Y-93379603D01*
X184184948Y-93403990D01*
X184143840Y-93459730D01*
X184139384Y-93528975D01*
X184153696Y-93564235D01*
X184153421Y-93566216D01*
X184151568Y-93566968D01*
X184150138Y-93566032D01*
X184111979Y-93503762D01*
X184002360Y-93375415D01*
X184001996Y-93373448D01*
X184003517Y-93372149D01*
X184004038Y-93372122D01*
X184149040Y-93383534D01*
G37*
G36*
X181926959Y-92976621D02*
G01*
X181946636Y-93043636D01*
X181998979Y-93088991D01*
X182067620Y-93098860D01*
X182112879Y-93082529D01*
X182114848Y-93082881D01*
X182115527Y-93084763D01*
X182114603Y-93086115D01*
X181983262Y-93166601D01*
X181801414Y-93321914D01*
X181763103Y-93366770D01*
X181761218Y-93367438D01*
X181759697Y-93366139D01*
X181759757Y-93364653D01*
X181787758Y-93302162D01*
X181777411Y-93233679D01*
X181731684Y-93181661D01*
X181665419Y-93162461D01*
X181664034Y-93161018D01*
X181664591Y-93159097D01*
X181665976Y-93158540D01*
X181873841Y-93158540D01*
X181892778Y-93154773D01*
X181908660Y-93144160D01*
X181919273Y-93128278D01*
X181923040Y-93109341D01*
X181923040Y-92977184D01*
X181924040Y-92975452D01*
X181926040Y-92975452D01*
X181926959Y-92976621D01*
G37*
G36*
X182877942Y-92693048D02*
G01*
X182916101Y-92755318D01*
X183025720Y-92883665D01*
X183026084Y-92885632D01*
X183024563Y-92886931D01*
X183024042Y-92886958D01*
X182879040Y-92875546D01*
X182780016Y-92883340D01*
X182778211Y-92882479D01*
X182778054Y-92880485D01*
X182779147Y-92879477D01*
X182843132Y-92855090D01*
X182884240Y-92799350D01*
X182888696Y-92730105D01*
X182874384Y-92694845D01*
X182874659Y-92692864D01*
X182876512Y-92692112D01*
X182877942Y-92693048D01*
G37*
G36*
X190504131Y-92692275D02*
G01*
X190504304Y-92693751D01*
X190486423Y-92759854D01*
X190507353Y-92825871D01*
X190560755Y-92870178D01*
X190597691Y-92879325D01*
X190599132Y-92880712D01*
X190598651Y-92882653D01*
X190597053Y-92883260D01*
X190499040Y-92875546D01*
X190354038Y-92886958D01*
X190352233Y-92886097D01*
X190352076Y-92884103D01*
X190352360Y-92883665D01*
X190461979Y-92755318D01*
X190500668Y-92692184D01*
X190502425Y-92691230D01*
X190504131Y-92692275D01*
G37*
G36*
X127478487Y-79124083D02*
G01*
X127478644Y-79126077D01*
X127478360Y-79126515D01*
X127368741Y-79254862D01*
X127330052Y-79317996D01*
X127328295Y-79318950D01*
X127326589Y-79317905D01*
X127326416Y-79316429D01*
X127344297Y-79250326D01*
X127323367Y-79184309D01*
X127269965Y-79140002D01*
X127233029Y-79130855D01*
X127231588Y-79129468D01*
X127232069Y-79127527D01*
X127233667Y-79126920D01*
X127331680Y-79134634D01*
X127476682Y-79123222D01*
X127478487Y-79124083D01*
G37*
G36*
X151283907Y-79124083D02*
G01*
X151284064Y-79126077D01*
X151283780Y-79126515D01*
X151174161Y-79254862D01*
X151135472Y-79317996D01*
X151133715Y-79318950D01*
X151132009Y-79317905D01*
X151131836Y-79316429D01*
X151149717Y-79250326D01*
X151128787Y-79184309D01*
X151075385Y-79140002D01*
X151038449Y-79130855D01*
X151037008Y-79129468D01*
X151037489Y-79127527D01*
X151039087Y-79126920D01*
X151137100Y-79134634D01*
X151282102Y-79123222D01*
X151283907Y-79124083D01*
G37*
G36*
X122251680Y-79134634D02*
G01*
X122350704Y-79126840D01*
X122352509Y-79127701D01*
X122352666Y-79129695D01*
X122351573Y-79130703D01*
X122287588Y-79155090D01*
X122246480Y-79210830D01*
X122242024Y-79280075D01*
X122256336Y-79315335D01*
X122256061Y-79317316D01*
X122254208Y-79318068D01*
X122252778Y-79317132D01*
X122214619Y-79254862D01*
X122105000Y-79126515D01*
X122104636Y-79124548D01*
X122106157Y-79123249D01*
X122106678Y-79123222D01*
X122251680Y-79134634D01*
G37*
G36*
X146057100Y-79134634D02*
G01*
X146156124Y-79126840D01*
X146157929Y-79127701D01*
X146158086Y-79129695D01*
X146156993Y-79130703D01*
X146093008Y-79155090D01*
X146051900Y-79210830D01*
X146047444Y-79280075D01*
X146061756Y-79315335D01*
X146061481Y-79317316D01*
X146059628Y-79318068D01*
X146058198Y-79317132D01*
X146020039Y-79254862D01*
X145910420Y-79126515D01*
X145910056Y-79124548D01*
X145911577Y-79123249D01*
X145912098Y-79123222D01*
X146057100Y-79134634D01*
G37*
G36*
X143835019Y-78727721D02*
G01*
X143854696Y-78794736D01*
X143907039Y-78840091D01*
X143975680Y-78849960D01*
X144020939Y-78833629D01*
X144022908Y-78833981D01*
X144023587Y-78835863D01*
X144022663Y-78837215D01*
X143891322Y-78917701D01*
X143709474Y-79073014D01*
X143671163Y-79117870D01*
X143669278Y-79118538D01*
X143667757Y-79117239D01*
X143667817Y-79115753D01*
X143695818Y-79053262D01*
X143685471Y-78984779D01*
X143639744Y-78932761D01*
X143573479Y-78913561D01*
X143572094Y-78912118D01*
X143572651Y-78910197D01*
X143574036Y-78909640D01*
X143781901Y-78909640D01*
X143800838Y-78905873D01*
X143816720Y-78895260D01*
X143827333Y-78879378D01*
X143831100Y-78860441D01*
X143831100Y-78728284D01*
X143832100Y-78726552D01*
X143834100Y-78726552D01*
X143835019Y-78727721D01*
G37*
G36*
X120029599Y-78727721D02*
G01*
X120049276Y-78794736D01*
X120101619Y-78840091D01*
X120170260Y-78849960D01*
X120215519Y-78833629D01*
X120217488Y-78833981D01*
X120218167Y-78835863D01*
X120217243Y-78837215D01*
X120085902Y-78917701D01*
X119904054Y-79073014D01*
X119865743Y-79117870D01*
X119863858Y-79118538D01*
X119862337Y-79117239D01*
X119862397Y-79115753D01*
X119890398Y-79053262D01*
X119880051Y-78984779D01*
X119834324Y-78932761D01*
X119768059Y-78913561D01*
X119766674Y-78912118D01*
X119767231Y-78910197D01*
X119768616Y-78909640D01*
X119976481Y-78909640D01*
X119995418Y-78905873D01*
X120011300Y-78895260D01*
X120021913Y-78879378D01*
X120025680Y-78860441D01*
X120025680Y-78728284D01*
X120026680Y-78726552D01*
X120028680Y-78726552D01*
X120029599Y-78727721D01*
G37*
G36*
X128606771Y-78443375D02*
G01*
X128606944Y-78444851D01*
X128589063Y-78510954D01*
X128609993Y-78576971D01*
X128663395Y-78621278D01*
X128700331Y-78630425D01*
X128701772Y-78631812D01*
X128701291Y-78633753D01*
X128699693Y-78634360D01*
X128601680Y-78626646D01*
X128456678Y-78638058D01*
X128454873Y-78637197D01*
X128454716Y-78635203D01*
X128455000Y-78634765D01*
X128564619Y-78506418D01*
X128603308Y-78443284D01*
X128605065Y-78442330D01*
X128606771Y-78443375D01*
G37*
G36*
X120980582Y-78444148D02*
G01*
X121018741Y-78506418D01*
X121128360Y-78634765D01*
X121128724Y-78636732D01*
X121127203Y-78638031D01*
X121126682Y-78638058D01*
X120981680Y-78626646D01*
X120882656Y-78634440D01*
X120880851Y-78633579D01*
X120880694Y-78631585D01*
X120881787Y-78630577D01*
X120945772Y-78606190D01*
X120986880Y-78550450D01*
X120991336Y-78481205D01*
X120977024Y-78445945D01*
X120977299Y-78443964D01*
X120979152Y-78443212D01*
X120980582Y-78444148D01*
G37*
G36*
X144786002Y-78444148D02*
G01*
X144824161Y-78506418D01*
X144933780Y-78634765D01*
X144934144Y-78636732D01*
X144932623Y-78638031D01*
X144932102Y-78638058D01*
X144787100Y-78626646D01*
X144688076Y-78634440D01*
X144686271Y-78633579D01*
X144686114Y-78631585D01*
X144687207Y-78630577D01*
X144751192Y-78606190D01*
X144792300Y-78550450D01*
X144796756Y-78481205D01*
X144782444Y-78445945D01*
X144782719Y-78443964D01*
X144784572Y-78443212D01*
X144786002Y-78444148D01*
G37*
G36*
X152412191Y-78443375D02*
G01*
X152412364Y-78444851D01*
X152394483Y-78510954D01*
X152415413Y-78576971D01*
X152468815Y-78621278D01*
X152505751Y-78630425D01*
X152507192Y-78631812D01*
X152506711Y-78633753D01*
X152505113Y-78634360D01*
X152407100Y-78626646D01*
X152262098Y-78638058D01*
X152260293Y-78637197D01*
X152260136Y-78635203D01*
X152260420Y-78634765D01*
X152370039Y-78506418D01*
X152408728Y-78443284D01*
X152410485Y-78442330D01*
X152412191Y-78443375D01*
G37*
G36*
X227496807Y-77216963D02*
G01*
X227496964Y-77218957D01*
X227496680Y-77219395D01*
X227387061Y-77347742D01*
X227348372Y-77410876D01*
X227346615Y-77411830D01*
X227344909Y-77410785D01*
X227344736Y-77409309D01*
X227362617Y-77343206D01*
X227341687Y-77277189D01*
X227288285Y-77232882D01*
X227251349Y-77223735D01*
X227249908Y-77222348D01*
X227250389Y-77220407D01*
X227251987Y-77219800D01*
X227350000Y-77227514D01*
X227495002Y-77216102D01*
X227496807Y-77216963D01*
G37*
G36*
X222270000Y-77227514D02*
G01*
X222369024Y-77219720D01*
X222370829Y-77220581D01*
X222370986Y-77222575D01*
X222369893Y-77223583D01*
X222305908Y-77247970D01*
X222264800Y-77303710D01*
X222260344Y-77372955D01*
X222274656Y-77408215D01*
X222274381Y-77410196D01*
X222272528Y-77410948D01*
X222271098Y-77410012D01*
X222232939Y-77347742D01*
X222123320Y-77219395D01*
X222122956Y-77217428D01*
X222124477Y-77216129D01*
X222124998Y-77216102D01*
X222270000Y-77227514D01*
G37*
G36*
X246546807Y-77209383D02*
G01*
X246546964Y-77211377D01*
X246546680Y-77211815D01*
X246437061Y-77340162D01*
X246398372Y-77403296D01*
X246396615Y-77404250D01*
X246394909Y-77403205D01*
X246394736Y-77401729D01*
X246412617Y-77335626D01*
X246391687Y-77269609D01*
X246338285Y-77225302D01*
X246301349Y-77216155D01*
X246299908Y-77214768D01*
X246300389Y-77212827D01*
X246301987Y-77212220D01*
X246400000Y-77219934D01*
X246545002Y-77208522D01*
X246546807Y-77209383D01*
G37*
G36*
X241320000Y-77219934D02*
G01*
X241419024Y-77212140D01*
X241420829Y-77213001D01*
X241420986Y-77214995D01*
X241419893Y-77216003D01*
X241355908Y-77240390D01*
X241314800Y-77296130D01*
X241310344Y-77365375D01*
X241324656Y-77400635D01*
X241324381Y-77402616D01*
X241322528Y-77403368D01*
X241321098Y-77402432D01*
X241282939Y-77340162D01*
X241173320Y-77211815D01*
X241172956Y-77209848D01*
X241174477Y-77208549D01*
X241174998Y-77208522D01*
X241320000Y-77219934D01*
G37*
G36*
X220047919Y-76820601D02*
G01*
X220067596Y-76887616D01*
X220119939Y-76932971D01*
X220188580Y-76942840D01*
X220233839Y-76926509D01*
X220235808Y-76926861D01*
X220236487Y-76928743D01*
X220235563Y-76930095D01*
X220104222Y-77010581D01*
X219922374Y-77165894D01*
X219884063Y-77210750D01*
X219882178Y-77211418D01*
X219880657Y-77210119D01*
X219880717Y-77208633D01*
X219908718Y-77146142D01*
X219898371Y-77077659D01*
X219852644Y-77025641D01*
X219786379Y-77006441D01*
X219784994Y-77004998D01*
X219785551Y-77003077D01*
X219786936Y-77002520D01*
X219994801Y-77002520D01*
X220013738Y-76998753D01*
X220029620Y-76988140D01*
X220040233Y-76972258D01*
X220044000Y-76953321D01*
X220044000Y-76821164D01*
X220045000Y-76819432D01*
X220047000Y-76819432D01*
X220047919Y-76820601D01*
G37*
G36*
X239097919Y-76813021D02*
G01*
X239117596Y-76880036D01*
X239169939Y-76925391D01*
X239238580Y-76935260D01*
X239283839Y-76918929D01*
X239285808Y-76919281D01*
X239286487Y-76921163D01*
X239285563Y-76922515D01*
X239154222Y-77003001D01*
X238972374Y-77158314D01*
X238934063Y-77203170D01*
X238932178Y-77203838D01*
X238930657Y-77202539D01*
X238930717Y-77201053D01*
X238958718Y-77138562D01*
X238948371Y-77070079D01*
X238902644Y-77018061D01*
X238836379Y-76998861D01*
X238834994Y-76997418D01*
X238835551Y-76995497D01*
X238836936Y-76994940D01*
X239044801Y-76994940D01*
X239063738Y-76991173D01*
X239079620Y-76980560D01*
X239090233Y-76964678D01*
X239094000Y-76945741D01*
X239094000Y-76813584D01*
X239095000Y-76811852D01*
X239097000Y-76811852D01*
X239097919Y-76813021D01*
G37*
G36*
X228625091Y-76536255D02*
G01*
X228625264Y-76537731D01*
X228607383Y-76603834D01*
X228628313Y-76669851D01*
X228681715Y-76714158D01*
X228718651Y-76723305D01*
X228720092Y-76724692D01*
X228719611Y-76726633D01*
X228718013Y-76727240D01*
X228620000Y-76719526D01*
X228474998Y-76730938D01*
X228473193Y-76730077D01*
X228473036Y-76728083D01*
X228473320Y-76727645D01*
X228582939Y-76599298D01*
X228621628Y-76536164D01*
X228623385Y-76535210D01*
X228625091Y-76536255D01*
G37*
G36*
X220998902Y-76537028D02*
G01*
X221037061Y-76599298D01*
X221146680Y-76727645D01*
X221147044Y-76729612D01*
X221145523Y-76730911D01*
X221145002Y-76730938D01*
X221000000Y-76719526D01*
X220900976Y-76727320D01*
X220899171Y-76726459D01*
X220899014Y-76724465D01*
X220900107Y-76723457D01*
X220964092Y-76699070D01*
X221005200Y-76643330D01*
X221009656Y-76574085D01*
X220995344Y-76538825D01*
X220995619Y-76536844D01*
X220997472Y-76536092D01*
X220998902Y-76537028D01*
G37*
G36*
X247675091Y-76528675D02*
G01*
X247675264Y-76530151D01*
X247657383Y-76596254D01*
X247678313Y-76662271D01*
X247731715Y-76706578D01*
X247768651Y-76715725D01*
X247770092Y-76717112D01*
X247769611Y-76719053D01*
X247768013Y-76719660D01*
X247670000Y-76711946D01*
X247524998Y-76723358D01*
X247523193Y-76722497D01*
X247523036Y-76720503D01*
X247523320Y-76720065D01*
X247632939Y-76591718D01*
X247671628Y-76528584D01*
X247673385Y-76527630D01*
X247675091Y-76528675D01*
G37*
G36*
X240048902Y-76529448D02*
G01*
X240087061Y-76591718D01*
X240196680Y-76720065D01*
X240197044Y-76722032D01*
X240195523Y-76723331D01*
X240195002Y-76723358D01*
X240050000Y-76711946D01*
X239950976Y-76719740D01*
X239949171Y-76718879D01*
X239949014Y-76716885D01*
X239950107Y-76715877D01*
X240014092Y-76691490D01*
X240055200Y-76635750D01*
X240059656Y-76566505D01*
X240045344Y-76531245D01*
X240045619Y-76529264D01*
X240047472Y-76528512D01*
X240048902Y-76529448D01*
G37*
G36*
X170333907Y-75934083D02*
G01*
X170334064Y-75936077D01*
X170333780Y-75936515D01*
X170224161Y-76064862D01*
X170185472Y-76127996D01*
X170183715Y-76128950D01*
X170182009Y-76127905D01*
X170181836Y-76126429D01*
X170199717Y-76060326D01*
X170178787Y-75994309D01*
X170125385Y-75950002D01*
X170088449Y-75940855D01*
X170087008Y-75939468D01*
X170087489Y-75937527D01*
X170089087Y-75936920D01*
X170187100Y-75944634D01*
X170332102Y-75933222D01*
X170333907Y-75934083D01*
G37*
G36*
X165107100Y-75944634D02*
G01*
X165206124Y-75936840D01*
X165207929Y-75937701D01*
X165208086Y-75939695D01*
X165206993Y-75940703D01*
X165143008Y-75965090D01*
X165101900Y-76020830D01*
X165097444Y-76090075D01*
X165111756Y-76125335D01*
X165111481Y-76127316D01*
X165109628Y-76128068D01*
X165108198Y-76127132D01*
X165070039Y-76064862D01*
X164960420Y-75936515D01*
X164960056Y-75934548D01*
X164961577Y-75933249D01*
X164962098Y-75933222D01*
X165107100Y-75944634D01*
G37*
G36*
X208421407Y-75920863D02*
G01*
X208421564Y-75922857D01*
X208421280Y-75923295D01*
X208311661Y-76051642D01*
X208272972Y-76114776D01*
X208271215Y-76115730D01*
X208269509Y-76114685D01*
X208269336Y-76113209D01*
X208287217Y-76047106D01*
X208266287Y-75981089D01*
X208212885Y-75936782D01*
X208175949Y-75927635D01*
X208174508Y-75926248D01*
X208174989Y-75924307D01*
X208176587Y-75923700D01*
X208274600Y-75931414D01*
X208419602Y-75920002D01*
X208421407Y-75920863D01*
G37*
G36*
X203194600Y-75931414D02*
G01*
X203293624Y-75923620D01*
X203295429Y-75924481D01*
X203295586Y-75926475D01*
X203294493Y-75927483D01*
X203230508Y-75951870D01*
X203189400Y-76007610D01*
X203184944Y-76076855D01*
X203199256Y-76112115D01*
X203198981Y-76114096D01*
X203197128Y-76114848D01*
X203195698Y-76113912D01*
X203157539Y-76051642D01*
X203047920Y-75923295D01*
X203047556Y-75921328D01*
X203049077Y-75920029D01*
X203049598Y-75920002D01*
X203194600Y-75931414D01*
G37*
G36*
X162885019Y-75537721D02*
G01*
X162904696Y-75604736D01*
X162957039Y-75650091D01*
X163025680Y-75659960D01*
X163070939Y-75643629D01*
X163072908Y-75643981D01*
X163073587Y-75645863D01*
X163072663Y-75647215D01*
X162941322Y-75727701D01*
X162759474Y-75883014D01*
X162721163Y-75927870D01*
X162719278Y-75928538D01*
X162717757Y-75927239D01*
X162717817Y-75925753D01*
X162745818Y-75863262D01*
X162735471Y-75794779D01*
X162689744Y-75742761D01*
X162623479Y-75723561D01*
X162622094Y-75722118D01*
X162622651Y-75720197D01*
X162624036Y-75719640D01*
X162831901Y-75719640D01*
X162850838Y-75715873D01*
X162866720Y-75705260D01*
X162877333Y-75689378D01*
X162881100Y-75670441D01*
X162881100Y-75538284D01*
X162882100Y-75536552D01*
X162884100Y-75536552D01*
X162885019Y-75537721D01*
G37*
G36*
X200972519Y-75524501D02*
G01*
X200992196Y-75591516D01*
X201044539Y-75636871D01*
X201113180Y-75646740D01*
X201158439Y-75630409D01*
X201160408Y-75630761D01*
X201161087Y-75632643D01*
X201160163Y-75633995D01*
X201028822Y-75714481D01*
X200846974Y-75869794D01*
X200808663Y-75914650D01*
X200806778Y-75915318D01*
X200805257Y-75914019D01*
X200805317Y-75912533D01*
X200833318Y-75850042D01*
X200822971Y-75781559D01*
X200777244Y-75729541D01*
X200710979Y-75710341D01*
X200709594Y-75708898D01*
X200710151Y-75706977D01*
X200711536Y-75706420D01*
X200919401Y-75706420D01*
X200938338Y-75702653D01*
X200954220Y-75692040D01*
X200964833Y-75676158D01*
X200968600Y-75657221D01*
X200968600Y-75525064D01*
X200969600Y-75523332D01*
X200971600Y-75523332D01*
X200972519Y-75524501D01*
G37*
G36*
X163836002Y-75254148D02*
G01*
X163874161Y-75316418D01*
X163983780Y-75444765D01*
X163984144Y-75446732D01*
X163982623Y-75448031D01*
X163982102Y-75448058D01*
X163837100Y-75436646D01*
X163738076Y-75444440D01*
X163736271Y-75443579D01*
X163736114Y-75441585D01*
X163737207Y-75440577D01*
X163801192Y-75416190D01*
X163842300Y-75360450D01*
X163846756Y-75291205D01*
X163832444Y-75255945D01*
X163832719Y-75253964D01*
X163834572Y-75253212D01*
X163836002Y-75254148D01*
G37*
G36*
X171462191Y-75253375D02*
G01*
X171462364Y-75254851D01*
X171444483Y-75320954D01*
X171465413Y-75386971D01*
X171518815Y-75431278D01*
X171555751Y-75440425D01*
X171557192Y-75441812D01*
X171556711Y-75443753D01*
X171555113Y-75444360D01*
X171457100Y-75436646D01*
X171312098Y-75448058D01*
X171310293Y-75447197D01*
X171310136Y-75445203D01*
X171310420Y-75444765D01*
X171420039Y-75316418D01*
X171458728Y-75253284D01*
X171460485Y-75252330D01*
X171462191Y-75253375D01*
G37*
G36*
X201923502Y-75240928D02*
G01*
X201961661Y-75303198D01*
X202071280Y-75431545D01*
X202071644Y-75433512D01*
X202070123Y-75434811D01*
X202069602Y-75434838D01*
X201924600Y-75423426D01*
X201825576Y-75431220D01*
X201823771Y-75430359D01*
X201823614Y-75428365D01*
X201824707Y-75427357D01*
X201888692Y-75402970D01*
X201929800Y-75347230D01*
X201934256Y-75277985D01*
X201919944Y-75242725D01*
X201920219Y-75240744D01*
X201922072Y-75239992D01*
X201923502Y-75240928D01*
G37*
G36*
X209549691Y-75240155D02*
G01*
X209549864Y-75241631D01*
X209531983Y-75307734D01*
X209552913Y-75373751D01*
X209606315Y-75418058D01*
X209643251Y-75427205D01*
X209644692Y-75428592D01*
X209644211Y-75430533D01*
X209642613Y-75431140D01*
X209544600Y-75423426D01*
X209399598Y-75434838D01*
X209397793Y-75433977D01*
X209397636Y-75431983D01*
X209397920Y-75431545D01*
X209507539Y-75303198D01*
X209546228Y-75240064D01*
X209547985Y-75239110D01*
X209549691Y-75240155D01*
G37*
G36*
X189379507Y-74328523D02*
G01*
X189379664Y-74330517D01*
X189379380Y-74330955D01*
X189269761Y-74459302D01*
X189231072Y-74522436D01*
X189229315Y-74523390D01*
X189227609Y-74522345D01*
X189227436Y-74520869D01*
X189245317Y-74454766D01*
X189224387Y-74388749D01*
X189170985Y-74344442D01*
X189134049Y-74335295D01*
X189132608Y-74333908D01*
X189133089Y-74331967D01*
X189134687Y-74331360D01*
X189232700Y-74339074D01*
X189377702Y-74327662D01*
X189379507Y-74328523D01*
G37*
G36*
X184152700Y-74339074D02*
G01*
X184251724Y-74331280D01*
X184253529Y-74332141D01*
X184253686Y-74334135D01*
X184252593Y-74335143D01*
X184188608Y-74359530D01*
X184147500Y-74415270D01*
X184143044Y-74484515D01*
X184157356Y-74519775D01*
X184157081Y-74521756D01*
X184155228Y-74522508D01*
X184153798Y-74521572D01*
X184115639Y-74459302D01*
X184006020Y-74330955D01*
X184005656Y-74328988D01*
X184007177Y-74327689D01*
X184007698Y-74327662D01*
X184152700Y-74339074D01*
G37*
G36*
X181930619Y-73932161D02*
G01*
X181950296Y-73999176D01*
X182002639Y-74044531D01*
X182071280Y-74054400D01*
X182116539Y-74038069D01*
X182118508Y-74038421D01*
X182119187Y-74040303D01*
X182118263Y-74041655D01*
X181986922Y-74122141D01*
X181805074Y-74277454D01*
X181766763Y-74322310D01*
X181764878Y-74322978D01*
X181763357Y-74321679D01*
X181763417Y-74320193D01*
X181791418Y-74257702D01*
X181781071Y-74189219D01*
X181735344Y-74137201D01*
X181669079Y-74118001D01*
X181667694Y-74116558D01*
X181668251Y-74114637D01*
X181669636Y-74114080D01*
X181877501Y-74114080D01*
X181896438Y-74110313D01*
X181912320Y-74099700D01*
X181922933Y-74083818D01*
X181926700Y-74064881D01*
X181926700Y-73932724D01*
X181927700Y-73930992D01*
X181929700Y-73930992D01*
X181930619Y-73932161D01*
G37*
G36*
X182881602Y-73648588D02*
G01*
X182919761Y-73710858D01*
X183029380Y-73839205D01*
X183029744Y-73841172D01*
X183028223Y-73842471D01*
X183027702Y-73842498D01*
X182882700Y-73831086D01*
X182783676Y-73838880D01*
X182781871Y-73838019D01*
X182781714Y-73836025D01*
X182782807Y-73835017D01*
X182846792Y-73810630D01*
X182887900Y-73754890D01*
X182892356Y-73685645D01*
X182878044Y-73650385D01*
X182878319Y-73648404D01*
X182880172Y-73647652D01*
X182881602Y-73648588D01*
G37*
G36*
X190507791Y-73647815D02*
G01*
X190507964Y-73649291D01*
X190490083Y-73715394D01*
X190511013Y-73781411D01*
X190564415Y-73825718D01*
X190601351Y-73834865D01*
X190602792Y-73836252D01*
X190602311Y-73838193D01*
X190600713Y-73838800D01*
X190502700Y-73831086D01*
X190357698Y-73842498D01*
X190355893Y-73841637D01*
X190355736Y-73839643D01*
X190356020Y-73839205D01*
X190465639Y-73710858D01*
X190504328Y-73647724D01*
X190506085Y-73646770D01*
X190507791Y-73647815D01*
G37*
G36*
X151286807Y-60087083D02*
G01*
X151286964Y-60089077D01*
X151286680Y-60089515D01*
X151177061Y-60217862D01*
X151138372Y-60280996D01*
X151136615Y-60281950D01*
X151134909Y-60280905D01*
X151134736Y-60279429D01*
X151152617Y-60213326D01*
X151131687Y-60147309D01*
X151078285Y-60103002D01*
X151041349Y-60093855D01*
X151039908Y-60092468D01*
X151040389Y-60090527D01*
X151041987Y-60089920D01*
X151140000Y-60097634D01*
X151285002Y-60086222D01*
X151286807Y-60087083D01*
G37*
G36*
X146060000Y-60097634D02*
G01*
X146159024Y-60089840D01*
X146160829Y-60090701D01*
X146160986Y-60092695D01*
X146159893Y-60093703D01*
X146095908Y-60118090D01*
X146054800Y-60173830D01*
X146050344Y-60243075D01*
X146064656Y-60278335D01*
X146064381Y-60280316D01*
X146062528Y-60281068D01*
X146061098Y-60280132D01*
X146022939Y-60217862D01*
X145913320Y-60089515D01*
X145912956Y-60087548D01*
X145914477Y-60086249D01*
X145914998Y-60086222D01*
X146060000Y-60097634D01*
G37*
G36*
X143837919Y-59690721D02*
G01*
X143857596Y-59757736D01*
X143909939Y-59803091D01*
X143978580Y-59812960D01*
X144023839Y-59796629D01*
X144025808Y-59796981D01*
X144026487Y-59798863D01*
X144025563Y-59800215D01*
X143894222Y-59880701D01*
X143712374Y-60036014D01*
X143674063Y-60080870D01*
X143672178Y-60081538D01*
X143670657Y-60080239D01*
X143670717Y-60078753D01*
X143698718Y-60016262D01*
X143688371Y-59947779D01*
X143642644Y-59895761D01*
X143576379Y-59876561D01*
X143574994Y-59875118D01*
X143575551Y-59873197D01*
X143576936Y-59872640D01*
X143784801Y-59872640D01*
X143803738Y-59868873D01*
X143819620Y-59858260D01*
X143830233Y-59842378D01*
X143834000Y-59823441D01*
X143834000Y-59691284D01*
X143835000Y-59689552D01*
X143837000Y-59689552D01*
X143837919Y-59690721D01*
G37*
G36*
X144788902Y-59407148D02*
G01*
X144827061Y-59469418D01*
X144936680Y-59597765D01*
X144937044Y-59599732D01*
X144935523Y-59601031D01*
X144935002Y-59601058D01*
X144790000Y-59589646D01*
X144690976Y-59597440D01*
X144689171Y-59596579D01*
X144689014Y-59594585D01*
X144690107Y-59593577D01*
X144754092Y-59569190D01*
X144795200Y-59513450D01*
X144799656Y-59444205D01*
X144785344Y-59408945D01*
X144785619Y-59406964D01*
X144787472Y-59406212D01*
X144788902Y-59407148D01*
G37*
G36*
X152415091Y-59406375D02*
G01*
X152415264Y-59407851D01*
X152397383Y-59473954D01*
X152418313Y-59539971D01*
X152471715Y-59584278D01*
X152508651Y-59593425D01*
X152510092Y-59594812D01*
X152509611Y-59596753D01*
X152508013Y-59597360D01*
X152410000Y-59589646D01*
X152264998Y-59601058D01*
X152263193Y-59600197D01*
X152263036Y-59598203D01*
X152263320Y-59597765D01*
X152372939Y-59469418D01*
X152411628Y-59406284D01*
X152413385Y-59405330D01*
X152415091Y-59406375D01*
G37*
G36*
X246546807Y-58169083D02*
G01*
X246546964Y-58171077D01*
X246546680Y-58171515D01*
X246437061Y-58299862D01*
X246398372Y-58362996D01*
X246396615Y-58363950D01*
X246394909Y-58362905D01*
X246394736Y-58361429D01*
X246412617Y-58295326D01*
X246391687Y-58229309D01*
X246338285Y-58185002D01*
X246301349Y-58175855D01*
X246299908Y-58174468D01*
X246300389Y-58172527D01*
X246301987Y-58171920D01*
X246400000Y-58179634D01*
X246545002Y-58168222D01*
X246546807Y-58169083D01*
G37*
G36*
X241320000Y-58179634D02*
G01*
X241419024Y-58171840D01*
X241420829Y-58172701D01*
X241420986Y-58174695D01*
X241419893Y-58175703D01*
X241355908Y-58200090D01*
X241314800Y-58255830D01*
X241310344Y-58325075D01*
X241324656Y-58360335D01*
X241324381Y-58362316D01*
X241322528Y-58363068D01*
X241321098Y-58362132D01*
X241282939Y-58299862D01*
X241173320Y-58171515D01*
X241172956Y-58169548D01*
X241174477Y-58168249D01*
X241174998Y-58168222D01*
X241320000Y-58179634D01*
G37*
G36*
X227454558Y-58167083D02*
G01*
X227454715Y-58169077D01*
X227454431Y-58169515D01*
X227344812Y-58297862D01*
X227306123Y-58360996D01*
X227304366Y-58361950D01*
X227302660Y-58360905D01*
X227302487Y-58359429D01*
X227320368Y-58293326D01*
X227299438Y-58227309D01*
X227246036Y-58183002D01*
X227209100Y-58173855D01*
X227207659Y-58172468D01*
X227208140Y-58170527D01*
X227209738Y-58169920D01*
X227307751Y-58177634D01*
X227452753Y-58166222D01*
X227454558Y-58167083D01*
G37*
G36*
X222227751Y-58177634D02*
G01*
X222326775Y-58169840D01*
X222328580Y-58170701D01*
X222328737Y-58172695D01*
X222327644Y-58173703D01*
X222263659Y-58198090D01*
X222222551Y-58253830D01*
X222218095Y-58323075D01*
X222232407Y-58358335D01*
X222232132Y-58360316D01*
X222230279Y-58361068D01*
X222228849Y-58360132D01*
X222190690Y-58297862D01*
X222081071Y-58169515D01*
X222080707Y-58167548D01*
X222082228Y-58166249D01*
X222082749Y-58166222D01*
X222227751Y-58177634D01*
G37*
G36*
X239097919Y-57772721D02*
G01*
X239117596Y-57839736D01*
X239169939Y-57885091D01*
X239238580Y-57894960D01*
X239283839Y-57878629D01*
X239285808Y-57878981D01*
X239286487Y-57880863D01*
X239285563Y-57882215D01*
X239154222Y-57962701D01*
X238972374Y-58118014D01*
X238934063Y-58162870D01*
X238932178Y-58163538D01*
X238930657Y-58162239D01*
X238930717Y-58160753D01*
X238958718Y-58098262D01*
X238948371Y-58029779D01*
X238902644Y-57977761D01*
X238836379Y-57958561D01*
X238834994Y-57957118D01*
X238835551Y-57955197D01*
X238836936Y-57954640D01*
X239044801Y-57954640D01*
X239063738Y-57950873D01*
X239079620Y-57940260D01*
X239090233Y-57924378D01*
X239094000Y-57905441D01*
X239094000Y-57773284D01*
X239095000Y-57771552D01*
X239097000Y-57771552D01*
X239097919Y-57772721D01*
G37*
G36*
X220005670Y-57770721D02*
G01*
X220025347Y-57837736D01*
X220077690Y-57883091D01*
X220146331Y-57892960D01*
X220191590Y-57876629D01*
X220193559Y-57876981D01*
X220194238Y-57878863D01*
X220193314Y-57880215D01*
X220061973Y-57960701D01*
X219880125Y-58116014D01*
X219841814Y-58160870D01*
X219839929Y-58161538D01*
X219838408Y-58160239D01*
X219838468Y-58158753D01*
X219866469Y-58096262D01*
X219856122Y-58027779D01*
X219810395Y-57975761D01*
X219744130Y-57956561D01*
X219742745Y-57955118D01*
X219743302Y-57953197D01*
X219744687Y-57952640D01*
X219952552Y-57952640D01*
X219971489Y-57948873D01*
X219987371Y-57938260D01*
X219997984Y-57922378D01*
X220001751Y-57903441D01*
X220001751Y-57771284D01*
X220002751Y-57769552D01*
X220004751Y-57769552D01*
X220005670Y-57770721D01*
G37*
G36*
X240048902Y-57489148D02*
G01*
X240087061Y-57551418D01*
X240196680Y-57679765D01*
X240197044Y-57681732D01*
X240195523Y-57683031D01*
X240195002Y-57683058D01*
X240050000Y-57671646D01*
X239950976Y-57679440D01*
X239949171Y-57678579D01*
X239949014Y-57676585D01*
X239950107Y-57675577D01*
X240014092Y-57651190D01*
X240055200Y-57595450D01*
X240059656Y-57526205D01*
X240045344Y-57490945D01*
X240045619Y-57488964D01*
X240047472Y-57488212D01*
X240048902Y-57489148D01*
G37*
G36*
X247675091Y-57488375D02*
G01*
X247675264Y-57489851D01*
X247657383Y-57555954D01*
X247678313Y-57621971D01*
X247731715Y-57666278D01*
X247768651Y-57675425D01*
X247770092Y-57676812D01*
X247769611Y-57678753D01*
X247768013Y-57679360D01*
X247670000Y-57671646D01*
X247524998Y-57683058D01*
X247523193Y-57682197D01*
X247523036Y-57680203D01*
X247523320Y-57679765D01*
X247632939Y-57551418D01*
X247671628Y-57488284D01*
X247673385Y-57487330D01*
X247675091Y-57488375D01*
G37*
G36*
X220956653Y-57487148D02*
G01*
X220994812Y-57549418D01*
X221104431Y-57677765D01*
X221104795Y-57679732D01*
X221103274Y-57681031D01*
X221102753Y-57681058D01*
X220957751Y-57669646D01*
X220858727Y-57677440D01*
X220856922Y-57676579D01*
X220856765Y-57674585D01*
X220857858Y-57673577D01*
X220921843Y-57649190D01*
X220962951Y-57593450D01*
X220967407Y-57524205D01*
X220953095Y-57488945D01*
X220953370Y-57486964D01*
X220955223Y-57486212D01*
X220956653Y-57487148D01*
G37*
G36*
X228582842Y-57486375D02*
G01*
X228583015Y-57487851D01*
X228565134Y-57553954D01*
X228586064Y-57619971D01*
X228639466Y-57664278D01*
X228676402Y-57673425D01*
X228677843Y-57674812D01*
X228677362Y-57676753D01*
X228675764Y-57677360D01*
X228577751Y-57669646D01*
X228432749Y-57681058D01*
X228430944Y-57680197D01*
X228430787Y-57678203D01*
X228431071Y-57677765D01*
X228540690Y-57549418D01*
X228579379Y-57486284D01*
X228581136Y-57485330D01*
X228582842Y-57486375D01*
G37*
G36*
X170336807Y-56880483D02*
G01*
X170336964Y-56882477D01*
X170336680Y-56882915D01*
X170227061Y-57011262D01*
X170188372Y-57074396D01*
X170186615Y-57075350D01*
X170184909Y-57074305D01*
X170184736Y-57072829D01*
X170202617Y-57006726D01*
X170181687Y-56940709D01*
X170128285Y-56896402D01*
X170091349Y-56887255D01*
X170089908Y-56885868D01*
X170090389Y-56883927D01*
X170091987Y-56883320D01*
X170190000Y-56891034D01*
X170335002Y-56879622D01*
X170336807Y-56880483D01*
G37*
G36*
X165110000Y-56891034D02*
G01*
X165209024Y-56883240D01*
X165210829Y-56884101D01*
X165210986Y-56886095D01*
X165209893Y-56887103D01*
X165145908Y-56911490D01*
X165104800Y-56967230D01*
X165100344Y-57036475D01*
X165114656Y-57071735D01*
X165114381Y-57073716D01*
X165112528Y-57074468D01*
X165111098Y-57073532D01*
X165072939Y-57011262D01*
X164963320Y-56882915D01*
X164962956Y-56880948D01*
X164964477Y-56879649D01*
X164964998Y-56879622D01*
X165110000Y-56891034D01*
G37*
G36*
X208416807Y-56867083D02*
G01*
X208416964Y-56869077D01*
X208416680Y-56869515D01*
X208307061Y-56997862D01*
X208268372Y-57060996D01*
X208266615Y-57061950D01*
X208264909Y-57060905D01*
X208264736Y-57059429D01*
X208282617Y-56993326D01*
X208261687Y-56927309D01*
X208208285Y-56883002D01*
X208171349Y-56873855D01*
X208169908Y-56872468D01*
X208170389Y-56870527D01*
X208171987Y-56869920D01*
X208270000Y-56877634D01*
X208415002Y-56866222D01*
X208416807Y-56867083D01*
G37*
G36*
X203190000Y-56877634D02*
G01*
X203289024Y-56869840D01*
X203290829Y-56870701D01*
X203290986Y-56872695D01*
X203289893Y-56873703D01*
X203225908Y-56898090D01*
X203184800Y-56953830D01*
X203180344Y-57023075D01*
X203194656Y-57058335D01*
X203194381Y-57060316D01*
X203192528Y-57061068D01*
X203191098Y-57060132D01*
X203152939Y-56997862D01*
X203043320Y-56869515D01*
X203042956Y-56867548D01*
X203044477Y-56866249D01*
X203044998Y-56866222D01*
X203190000Y-56877634D01*
G37*
G36*
X162887919Y-56484121D02*
G01*
X162907596Y-56551136D01*
X162959939Y-56596491D01*
X163028580Y-56606360D01*
X163073839Y-56590029D01*
X163075808Y-56590381D01*
X163076487Y-56592263D01*
X163075563Y-56593615D01*
X162944222Y-56674101D01*
X162762374Y-56829414D01*
X162724063Y-56874270D01*
X162722178Y-56874938D01*
X162720657Y-56873639D01*
X162720717Y-56872153D01*
X162748718Y-56809662D01*
X162738371Y-56741179D01*
X162692644Y-56689161D01*
X162626379Y-56669961D01*
X162624994Y-56668518D01*
X162625551Y-56666597D01*
X162626936Y-56666040D01*
X162834801Y-56666040D01*
X162853738Y-56662273D01*
X162869620Y-56651660D01*
X162880233Y-56635778D01*
X162884000Y-56616841D01*
X162884000Y-56484684D01*
X162885000Y-56482952D01*
X162887000Y-56482952D01*
X162887919Y-56484121D01*
G37*
G36*
X200967919Y-56470721D02*
G01*
X200987596Y-56537736D01*
X201039939Y-56583091D01*
X201108580Y-56592960D01*
X201153839Y-56576629D01*
X201155808Y-56576981D01*
X201156487Y-56578863D01*
X201155563Y-56580215D01*
X201024222Y-56660701D01*
X200842374Y-56816014D01*
X200804063Y-56860870D01*
X200802178Y-56861538D01*
X200800657Y-56860239D01*
X200800717Y-56858753D01*
X200828718Y-56796262D01*
X200818371Y-56727779D01*
X200772644Y-56675761D01*
X200706379Y-56656561D01*
X200704994Y-56655118D01*
X200705551Y-56653197D01*
X200706936Y-56652640D01*
X200914801Y-56652640D01*
X200933738Y-56648873D01*
X200949620Y-56638260D01*
X200960233Y-56622378D01*
X200964000Y-56603441D01*
X200964000Y-56471284D01*
X200965000Y-56469552D01*
X200967000Y-56469552D01*
X200967919Y-56470721D01*
G37*
G36*
X163838902Y-56200548D02*
G01*
X163877061Y-56262818D01*
X163986680Y-56391165D01*
X163987044Y-56393132D01*
X163985523Y-56394431D01*
X163985002Y-56394458D01*
X163840000Y-56383046D01*
X163740976Y-56390840D01*
X163739171Y-56389979D01*
X163739014Y-56387985D01*
X163740107Y-56386977D01*
X163804092Y-56362590D01*
X163845200Y-56306850D01*
X163849656Y-56237605D01*
X163835344Y-56202345D01*
X163835619Y-56200364D01*
X163837472Y-56199612D01*
X163838902Y-56200548D01*
G37*
G36*
X171465091Y-56199775D02*
G01*
X171465264Y-56201251D01*
X171447383Y-56267354D01*
X171468313Y-56333371D01*
X171521715Y-56377678D01*
X171558651Y-56386825D01*
X171560092Y-56388212D01*
X171559611Y-56390153D01*
X171558013Y-56390760D01*
X171460000Y-56383046D01*
X171314998Y-56394458D01*
X171313193Y-56393597D01*
X171313036Y-56391603D01*
X171313320Y-56391165D01*
X171422939Y-56262818D01*
X171461628Y-56199684D01*
X171463385Y-56198730D01*
X171465091Y-56199775D01*
G37*
G36*
X209545091Y-56186375D02*
G01*
X209545264Y-56187851D01*
X209527383Y-56253954D01*
X209548313Y-56319971D01*
X209601715Y-56364278D01*
X209638651Y-56373425D01*
X209640092Y-56374812D01*
X209639611Y-56376753D01*
X209638013Y-56377360D01*
X209540000Y-56369646D01*
X209394998Y-56381058D01*
X209393193Y-56380197D01*
X209393036Y-56378203D01*
X209393320Y-56377765D01*
X209502939Y-56249418D01*
X209541628Y-56186284D01*
X209543385Y-56185330D01*
X209545091Y-56186375D01*
G37*
G36*
X201918902Y-56187148D02*
G01*
X201957061Y-56249418D01*
X202066680Y-56377765D01*
X202067044Y-56379732D01*
X202065523Y-56381031D01*
X202065002Y-56381058D01*
X201920000Y-56369646D01*
X201820976Y-56377440D01*
X201819171Y-56376579D01*
X201819014Y-56374585D01*
X201820107Y-56373577D01*
X201884092Y-56349190D01*
X201925200Y-56293450D01*
X201929656Y-56224205D01*
X201915344Y-56188945D01*
X201915619Y-56186964D01*
X201917472Y-56186212D01*
X201918902Y-56187148D01*
G37*
G36*
X189376807Y-55283083D02*
G01*
X189376964Y-55285077D01*
X189376680Y-55285515D01*
X189267061Y-55413862D01*
X189228372Y-55476996D01*
X189226615Y-55477950D01*
X189224909Y-55476905D01*
X189224736Y-55475429D01*
X189242617Y-55409326D01*
X189221687Y-55343309D01*
X189168285Y-55299002D01*
X189131349Y-55289855D01*
X189129908Y-55288468D01*
X189130389Y-55286527D01*
X189131987Y-55285920D01*
X189230000Y-55293634D01*
X189375002Y-55282222D01*
X189376807Y-55283083D01*
G37*
G36*
X184150000Y-55293634D02*
G01*
X184249024Y-55285840D01*
X184250829Y-55286701D01*
X184250986Y-55288695D01*
X184249893Y-55289703D01*
X184185908Y-55314090D01*
X184144800Y-55369830D01*
X184140344Y-55439075D01*
X184154656Y-55474335D01*
X184154381Y-55476316D01*
X184152528Y-55477068D01*
X184151098Y-55476132D01*
X184112939Y-55413862D01*
X184003320Y-55285515D01*
X184002956Y-55283548D01*
X184004477Y-55282249D01*
X184004998Y-55282222D01*
X184150000Y-55293634D01*
G37*
G36*
X181927919Y-54886721D02*
G01*
X181947596Y-54953736D01*
X181999939Y-54999091D01*
X182068580Y-55008960D01*
X182113839Y-54992629D01*
X182115808Y-54992981D01*
X182116487Y-54994863D01*
X182115563Y-54996215D01*
X181984222Y-55076701D01*
X181802374Y-55232014D01*
X181764063Y-55276870D01*
X181762178Y-55277538D01*
X181760657Y-55276239D01*
X181760717Y-55274753D01*
X181788718Y-55212262D01*
X181778371Y-55143779D01*
X181732644Y-55091761D01*
X181666379Y-55072561D01*
X181664994Y-55071118D01*
X181665551Y-55069197D01*
X181666936Y-55068640D01*
X181874801Y-55068640D01*
X181893738Y-55064873D01*
X181909620Y-55054260D01*
X181920233Y-55038378D01*
X181924000Y-55019441D01*
X181924000Y-54887284D01*
X181925000Y-54885552D01*
X181927000Y-54885552D01*
X181927919Y-54886721D01*
G37*
G36*
X182878902Y-54603148D02*
G01*
X182917061Y-54665418D01*
X183026680Y-54793765D01*
X183027044Y-54795732D01*
X183025523Y-54797031D01*
X183025002Y-54797058D01*
X182880000Y-54785646D01*
X182780976Y-54793440D01*
X182779171Y-54792579D01*
X182779014Y-54790585D01*
X182780107Y-54789577D01*
X182844092Y-54765190D01*
X182885200Y-54709450D01*
X182889656Y-54640205D01*
X182875344Y-54604945D01*
X182875619Y-54602964D01*
X182877472Y-54602212D01*
X182878902Y-54603148D01*
G37*
G36*
X190505091Y-54602375D02*
G01*
X190505264Y-54603851D01*
X190487383Y-54669954D01*
X190508313Y-54735971D01*
X190561715Y-54780278D01*
X190598651Y-54789425D01*
X190600092Y-54790812D01*
X190599611Y-54792753D01*
X190598013Y-54793360D01*
X190500000Y-54785646D01*
X190354998Y-54797058D01*
X190353193Y-54796197D01*
X190353036Y-54794203D01*
X190353320Y-54793765D01*
X190462939Y-54665418D01*
X190501628Y-54602284D01*
X190503385Y-54601330D01*
X190505091Y-54602375D01*
G37*
M02*
