M48
; DRILL file {KiCad (6.0.9-0)} date Wednesday, 19 April 2023 at 09:40:34 pm
; FORMAT={-:-/ absolute / inch / decimal}
; #@! TF.CreationDate,2023-04-19T21:40:34+10:00
; #@! TF.GenerationSoftware,Kicad,Pcbnew,(6.0.9-0)
; #@! TF.FileFunction,Plated,1,2,PTH
FMAT,2
INCH
; #@! TA.AperFunction,Plated,PTH,ViaDrill
T1C0.0200
; #@! TA.AperFunction,Plated,PTH,ComponentDrill
T2C0.0354
; #@! TA.AperFunction,Plated,PTH,ComponentDrill
T3C0.0390
; #@! TA.AperFunction,Plated,PTH,ComponentDrill
T4C0.0433
%
G90
G05
T1
X4.563Y-3.2262
X4.5631Y-3.976
X4.5633Y-5.4754
X4.5635Y-4.7256
X4.7507Y-6.2254
X4.9571Y-2.8185
X5.02Y-2.7827
X5.1083Y-3.1262
X5.1084Y-3.876
X5.1086Y-5.3754
X5.1088Y-4.6256
X5.12Y-2.98
X5.23Y-2.87
X5.24Y-3.262
X5.296Y-6.1254
X5.3365Y-2.78
X5.37Y-3.11
X5.39Y-3.41
X5.4263Y-2.7643
X5.5002Y-3.9763
X5.5002Y-3.2262
X5.5003Y-2.4767
X5.5004Y-4.7259
X5.5007Y-5.4754
X5.5007Y-6.2254
X5.5118Y-5.9055
X5.703Y-3.0455
X5.8645Y-2.8575
X6.0455Y-3.8763
X6.0455Y-3.1262
X6.0456Y-2.3767
X6.0457Y-4.6259
X6.046Y-5.3754
X6.046Y-6.1254
X6.2501Y-3.8503
X6.2502Y-3.1006
X6.2503Y-2.3505
X6.2507Y-4.6002
X6.2507Y-5.3502
X6.2507Y-6.0994
X6.7954Y-3.7503
X6.7955Y-3.0006
X6.7956Y-2.2505
X6.796Y-4.5002
X6.796Y-5.2502
X6.796Y-5.9994
X6.9999Y-3.7872
X6.9999Y-2.2876
X7.0001Y-3.0374
X7.0007Y-6.0364
X7.0007Y-5.2868
X7.0007Y-4.5371
X7.5452Y-3.6872
X7.5452Y-2.1876
X7.5453Y-2.9374
X7.546Y-5.9364
X7.546Y-5.1868
X7.546Y-4.4371
X7.5928Y-2.3367
X7.7496Y-2.35
X7.7497Y-3.8496
X7.7497Y-3.1001
X7.7507Y-4.5994
X7.7507Y-5.349
X7.7507Y-6.0987
X7.7756Y-2.7559
X7.84Y-1.82
X8.2948Y-2.25
X8.295Y-3.7496
X8.295Y-3.0001
X8.296Y-4.4994
X8.296Y-5.249
X8.296Y-5.9987
X8.4646Y-2.8543
X8.4991Y-3.9013
X8.4991Y-2.4012
X8.5007Y-4.651
X8.5007Y-3.1512
X8.5007Y-5.4002
X8.981Y-6.9403
X9.0443Y-3.8013
X9.0443Y-2.3012
X9.046Y-4.551
X9.046Y-3.0512
X9.046Y-5.3002
X9.1208Y-6.4039
X9.2507Y-2.6012
X9.2507Y-3.1509
X9.2507Y-5.2128
X9.2507Y-4.0886
X9.661Y-7.256
X9.796Y-2.3012
X9.796Y-3.0509
X9.796Y-5.1128
X9.796Y-3.9886
X9.8008Y-6.7196
X10.1355Y-6.2391
X10.1818Y-7.9145
X10.2753Y-5.7026
X10.3216Y-7.378
X10.498Y-7.2357
X10.6378Y-6.6993
X11.108Y-6.6375
X11.2478Y-6.101
T2
X5.2206Y-3.3467
X5.2206Y-3.6616
X5.2208Y-4.0964
X5.2208Y-4.4114
X5.221Y-5.5959
X5.221Y-5.9108
X5.2212Y-4.846
X5.2212Y-5.161
X5.4126Y-6.3246
X5.4126Y-6.6396
X6.1398Y-2.6327
X6.1398Y-2.9476
X6.14Y-6.3325
X6.14Y-6.6475
X6.1551Y-4.1319
X6.1551Y-4.4469
X6.1551Y-3.3818
X6.1551Y-3.6968
X6.1553Y-4.8815
X6.1553Y-5.1965
X6.1584Y-5.6496
X6.1584Y-5.9646
X6.8678Y-2.5009
X6.8678Y-2.8159
X6.8899Y-3.9907
X6.8899Y-4.3056
X6.89Y-3.241
X6.89Y-3.5559
X6.8906Y-6.2398
X6.8906Y-6.5547
X6.8906Y-4.7406
X6.8906Y-5.0555
X6.8906Y-5.4906
X6.8906Y-5.8055
X7.6323Y-3.1852
X7.6323Y-3.5002
X7.6347Y-2.4348
X7.6347Y-2.7498
X7.6442Y-4.6783
X7.6442Y-4.9933
X7.645Y-5.4219
X7.645Y-5.7369
X7.6468Y-6.1946
X7.6468Y-6.5096
X7.647Y-3.9328
X7.647Y-4.2478
X8.3923Y-2.4921
X8.3923Y-2.8071
X8.3934Y-5.4819
X8.3934Y-5.7969
X8.3978Y-3.9849
X8.3978Y-4.2999
X8.4005Y-4.7452
X8.4005Y-5.0602
X8.403Y-3.2521
X8.403Y-3.5671
X8.4084Y-6.2191
X8.4084Y-6.5341
X8.7435Y-6.5547
X8.8766Y-6.2693
X9.1387Y-4.0275
X9.1387Y-4.3425
X9.1567Y-2.5216
X9.1567Y-2.8366
X9.1584Y-3.2716
X9.1584Y-3.5866
X9.1584Y-4.7715
X9.1584Y-5.0865
X9.1584Y-5.5207
X9.1584Y-5.8356
X9.4901Y-4.6507
X9.4901Y-5.6707
X9.5001Y-2.8707
X9.5001Y-3.7007
X9.6569Y-6.1651
X9.8051Y-4.6507
X9.8051Y-5.6707
X9.8151Y-2.8707
X9.8151Y-3.7007
X9.9423Y-6.2983
X9.9539Y-5.9778
X10.087Y-5.6924
X10.2729Y-6.4468
X10.5473Y-7.3634
X10.5583Y-6.58
X10.5864Y-6.3963
X10.7195Y-6.1109
X10.8327Y-7.4966
T3
X7.3817Y-1.6406
X7.7817Y-1.6406
X8.1273Y-1.6406
X8.5273Y-1.6406
T4
X4.7007Y-1.5423
X4.7007Y-1.6423
X4.7007Y-1.7423
X4.7007Y-1.8423
X4.7007Y-1.9423
X4.7007Y-2.0423
X4.7007Y-2.1423
X4.7007Y-2.2423
X4.7007Y-2.3423
X4.7007Y-2.4423
X4.7007Y-2.5423
X4.7007Y-2.6423
X5.3007Y-1.5423
X5.3007Y-1.6423
X5.3007Y-1.7423
X5.3007Y-1.8423
X5.3007Y-1.9423
X5.3007Y-2.0423
X5.3007Y-2.1423
X5.3007Y-2.2423
X5.3007Y-2.3423
X5.3007Y-2.4423
X5.3007Y-2.5423
X5.3007Y-2.6423
T2
G00X8.9645Y-1.9268
M15
G01X8.9645Y-1.9504
M16
G05
G00X9.1456Y-1.6079
M15
G01X9.1456Y-1.6315
M16
G05
G00X9.1456Y-1.726
M15
G01X9.1456Y-1.7496
M16
G05
G00X9.1456Y-1.8835
M15
G01X9.1456Y-1.9071
M16
G05
G00X9.3267Y-1.9268
M15
G01X9.3267Y-1.9504
M16
G05
T0
M30
