G04 #@! TF.GenerationSoftware,KiCad,Pcbnew,(6.0.9-0)*
G04 #@! TF.CreationDate,2023-04-19T21:40:38+10:00*
G04 #@! TF.ProjectId,ErgoMaxReversible,4572676f-4d61-4785-9265-766572736962,rev?*
G04 #@! TF.SameCoordinates,Original*
G04 #@! TF.FileFunction,Copper,L2,Bot*
G04 #@! TF.FilePolarity,Positive*
%FSLAX46Y46*%
G04 Gerber Fmt 4.6, Leading zero omitted, Abs format (unit mm)*
G04 Created by KiCad (PCBNEW (6.0.9-0)) date 2023-04-19 21:40:38*
%MOMM*%
%LPD*%
G01*
G04 APERTURE LIST*
G04 Aperture macros list*
%AMRotRect*
0 Rectangle, with rotation*
0 The origin of the aperture is its center*
0 $1 length*
0 $2 width*
0 $3 Rotation angle, in degrees counterclockwise*
0 Add horizontal line*
21,1,$1,$2,0,0,$3*%
G04 Aperture macros list end*
G04 #@! TA.AperFunction,SMDPad,CuDef*
%ADD10R,2.550000X2.500000*%
G04 #@! TD*
G04 #@! TA.AperFunction,SMDPad,CuDef*
%ADD11RotRect,2.550000X2.500000X65.000000*%
G04 #@! TD*
G04 #@! TA.AperFunction,SMDPad,CuDef*
%ADD12RotRect,2.550000X2.500000X245.000000*%
G04 #@! TD*
G04 #@! TA.AperFunction,ComponentPad*
%ADD13R,1.600000X1.600000*%
G04 #@! TD*
G04 #@! TA.AperFunction,ComponentPad*
%ADD14C,1.600000*%
G04 #@! TD*
G04 #@! TA.AperFunction,ComponentPad*
%ADD15C,2.000000*%
G04 #@! TD*
G04 #@! TA.AperFunction,ComponentPad*
%ADD16R,2.000000X2.000000*%
G04 #@! TD*
G04 #@! TA.AperFunction,ComponentPad*
%ADD17RotRect,2.000000X2.000000X245.000000*%
G04 #@! TD*
G04 #@! TA.AperFunction,ComponentPad*
%ADD18RotRect,2.000000X2.000000X65.000000*%
G04 #@! TD*
G04 #@! TA.AperFunction,ComponentPad*
%ADD19RotRect,2.000000X2.000000X155.000000*%
G04 #@! TD*
G04 #@! TA.AperFunction,ComponentPad*
%ADD20RotRect,2.000000X2.000000X335.000000*%
G04 #@! TD*
G04 #@! TA.AperFunction,ComponentPad*
%ADD21O,1.600000X2.200000*%
G04 #@! TD*
G04 #@! TA.AperFunction,ComponentPad*
%ADD22C,1.651000*%
G04 #@! TD*
G04 #@! TA.AperFunction,ViaPad*
%ADD23C,0.609600*%
G04 #@! TD*
G04 #@! TA.AperFunction,Conductor*
%ADD24C,0.600000*%
G04 #@! TD*
G04 APERTURE END LIST*
D10*
X153558616Y-60369377D03*
X139708616Y-62909377D03*
D11*
X258622550Y-201025158D03*
X262173791Y-187399345D03*
X245394683Y-184300563D03*
X248945924Y-170674750D03*
X228124037Y-176282385D03*
X231675278Y-162656572D03*
D10*
X196868618Y-154905742D03*
X210718618Y-152365742D03*
X177818613Y-153325740D03*
X191668613Y-150785740D03*
X158768620Y-154925739D03*
X172618620Y-152385739D03*
X139718622Y-158125742D03*
X153568622Y-155585742D03*
X120668611Y-158125738D03*
X134518611Y-155585738D03*
D11*
X266655410Y-183785536D03*
X270206651Y-170159723D03*
D10*
X234968619Y-132405741D03*
X248818619Y-129865741D03*
X215918618Y-137165739D03*
X229768618Y-134625739D03*
X196868617Y-135865743D03*
X210718617Y-133325743D03*
X177818616Y-134285741D03*
X191668616Y-131745741D03*
X158768619Y-135895738D03*
X172618619Y-133355738D03*
X139718620Y-139075744D03*
X153568620Y-136535744D03*
X115908614Y-139075738D03*
X129758614Y-136535738D03*
D12*
X285700321Y-154963898D03*
X282149080Y-168589711D03*
D11*
X257446495Y-158470364D03*
X260997736Y-144844551D03*
D10*
X215918610Y-118136582D03*
X229768610Y-115596582D03*
X196868616Y-116825743D03*
X210718616Y-114285743D03*
X177818625Y-115242981D03*
X191668625Y-112702981D03*
X158768619Y-116845985D03*
X172618619Y-114305985D03*
X139710213Y-120037779D03*
X153560213Y-117497779D03*
X115914015Y-120029582D03*
X129764015Y-117489582D03*
X234968620Y-103851381D03*
X248818620Y-101311381D03*
X215876214Y-99091780D03*
X229726214Y-96551780D03*
X210693057Y-95241000D03*
X196843057Y-97781000D03*
X177797655Y-96195284D03*
X191647655Y-93655284D03*
X172603216Y-95258359D03*
X158753216Y-97798359D03*
X153554471Y-98459081D03*
X139704471Y-100999081D03*
X129753700Y-98449480D03*
X115903700Y-100989480D03*
X234968619Y-80031673D03*
X248818619Y-77491673D03*
X215918613Y-80039260D03*
X229768613Y-77499260D03*
X210693216Y-76203164D03*
X196843216Y-78743164D03*
X191651315Y-74610823D03*
X177801315Y-77150823D03*
X158755716Y-78756383D03*
X172605716Y-76216383D03*
X153555714Y-79406383D03*
X139705714Y-81946383D03*
X129750296Y-79406382D03*
X115900296Y-81946382D03*
X248818614Y-58451380D03*
X234968614Y-60991380D03*
X229726369Y-58449383D03*
X215876369Y-60989383D03*
X210688616Y-57149381D03*
X196838616Y-59689381D03*
X191648615Y-55565384D03*
X177798615Y-58105384D03*
X172608623Y-57162783D03*
X158758623Y-59702783D03*
D13*
X119398274Y-39174381D03*
D14*
X119398274Y-41714381D03*
X119398274Y-44254381D03*
X119398274Y-46794381D03*
X119398274Y-49334381D03*
X119398274Y-51874381D03*
X119398274Y-54414381D03*
X119398274Y-56954381D03*
X119398274Y-59494381D03*
X119398274Y-62034381D03*
X119398274Y-64574381D03*
X119398274Y-67114381D03*
X134638274Y-67114381D03*
X134638274Y-64574381D03*
X134638274Y-62034381D03*
X134638274Y-59494381D03*
X134638274Y-56954381D03*
X134638274Y-54414381D03*
X134638274Y-51874381D03*
X134638274Y-49334381D03*
X134638274Y-46794381D03*
X134638274Y-44254381D03*
X134638274Y-41714381D03*
X134638274Y-39174381D03*
D15*
X194162249Y-118829278D03*
D16*
X194162249Y-126829278D03*
X213372274Y-128528543D03*
D15*
X213372274Y-120528543D03*
X232622775Y-121195905D03*
D16*
X232622775Y-129195905D03*
D17*
X252829802Y-151836731D03*
D15*
X256210748Y-144586269D03*
X272276253Y-155216169D03*
D17*
X268895307Y-162466631D03*
D16*
X132612777Y-150135071D03*
D15*
X132612777Y-142135071D03*
X156422778Y-143500000D03*
D16*
X156422778Y-151500000D03*
X175020003Y-147460007D03*
D15*
X175020003Y-139460007D03*
X194182580Y-137716718D03*
D16*
X194182580Y-145716718D03*
X132618182Y-131088904D03*
D15*
X132618182Y-123088904D03*
X175020003Y-120410246D03*
D16*
X175020003Y-128410246D03*
X156345306Y-131990147D03*
D15*
X156345306Y-123990147D03*
X222085646Y-166489987D03*
D18*
X225466592Y-159239525D03*
D16*
X213572778Y-165965071D03*
D15*
X213572778Y-157965071D03*
X194228302Y-157343298D03*
D16*
X194228302Y-165343298D03*
X175020000Y-166490000D03*
D15*
X175020000Y-158490000D03*
X155956000Y-160846000D03*
D16*
X155956000Y-168846000D03*
X137479610Y-168645298D03*
D15*
X137479610Y-160645298D03*
X268181048Y-167130788D03*
D19*
X260930586Y-163749842D03*
D16*
X249048615Y-144035742D03*
D15*
X241048615Y-144035742D03*
X232622776Y-140225065D03*
D16*
X232622776Y-148225065D03*
D19*
X245284186Y-156594665D03*
D15*
X252534648Y-159975611D03*
X213191931Y-139240720D03*
D16*
X213191931Y-147240720D03*
X193920957Y-69844382D03*
D15*
X193920957Y-61844382D03*
X213163990Y-63299808D03*
D16*
X213163990Y-71299808D03*
X232580533Y-72048711D03*
D15*
X232580533Y-64048711D03*
D16*
X249302616Y-72915738D03*
D15*
X241302616Y-72915738D03*
D16*
X132604462Y-93005705D03*
D15*
X132604462Y-85005705D03*
X156340799Y-85898745D03*
D16*
X156340799Y-93898745D03*
X175007099Y-90320650D03*
D15*
X175007099Y-82320650D03*
X193860000Y-80904541D03*
D16*
X193860000Y-88904541D03*
D20*
X275151231Y-190412473D03*
D15*
X267900769Y-187031527D03*
X232622770Y-83098589D03*
D16*
X232622770Y-91098589D03*
X213435777Y-90603799D03*
D15*
X213435777Y-82603799D03*
X155950000Y-66870000D03*
D16*
X155950000Y-74870000D03*
X232122553Y-110298961D03*
D15*
X232122553Y-102298961D03*
X174441045Y-63522798D03*
D16*
X174441045Y-71522798D03*
X249048615Y-118127743D03*
D15*
X241048615Y-118127743D03*
X213303701Y-101216917D03*
D16*
X213303701Y-109216917D03*
X194233377Y-107893586D03*
D15*
X194233377Y-99893586D03*
X175004603Y-101362626D03*
D16*
X175004603Y-109362626D03*
X156339569Y-112951443D03*
D15*
X156339569Y-104951443D03*
X132607859Y-104048807D03*
D16*
X132607859Y-112048807D03*
D15*
X241302617Y-93997740D03*
D16*
X249302617Y-93997740D03*
D21*
X232297818Y-44139940D03*
X232297818Y-41139940D03*
X232297818Y-48139940D03*
X227697818Y-49239940D03*
X236897818Y-49239940D03*
D22*
X216594537Y-41671202D03*
X206434537Y-41671202D03*
X197656294Y-41671199D03*
X187496294Y-41671199D03*
D23*
X210718618Y-152365742D03*
X133096000Y-82855483D03*
X136906000Y-86614000D03*
X130048000Y-75692000D03*
X136398000Y-78994000D03*
X148959477Y-72579378D03*
X132842000Y-72898000D03*
X144856382Y-77356382D03*
X137828816Y-70214258D03*
X125909600Y-71590400D03*
X199136000Y-46228000D03*
X135547374Y-70612000D03*
X127508000Y-70681300D03*
X139708616Y-62909377D03*
X140000000Y-150000000D03*
X234968619Y-80031673D03*
X215918613Y-80039260D03*
X196843216Y-78743164D03*
X177801315Y-77150823D03*
X158755716Y-78756383D03*
X139705714Y-81946383D03*
X139704471Y-100999081D03*
X158753216Y-97798359D03*
X177797655Y-96195284D03*
X196843057Y-97781000D03*
X215876214Y-99091780D03*
X234968620Y-103851381D03*
X215918610Y-118136582D03*
X196868616Y-116825743D03*
X177818625Y-115242981D03*
X158768619Y-116845985D03*
X139710213Y-120037779D03*
X158758623Y-59702783D03*
X177798615Y-58105384D03*
X196838616Y-59689381D03*
X215876369Y-60989383D03*
X234968614Y-66071380D03*
X215000000Y-72500000D03*
X197500000Y-70000000D03*
X192857283Y-59352864D03*
X234968619Y-132405741D03*
X215918618Y-137165739D03*
X196868617Y-135865743D03*
X177818616Y-134285741D03*
X158768619Y-135895738D03*
X139718620Y-139075744D03*
X115908614Y-139075738D03*
X196868618Y-154905742D03*
X177818613Y-153325740D03*
X158768620Y-154925739D03*
X139718622Y-158125742D03*
X120668611Y-158125738D03*
X115914015Y-120029582D03*
X115903700Y-100989480D03*
X115900296Y-81946382D03*
X210718617Y-133325743D03*
X129750296Y-79406382D03*
X129753700Y-98449480D03*
X129764015Y-117489582D03*
X129758614Y-136535738D03*
X134518611Y-155585738D03*
X153568620Y-136535744D03*
X153560213Y-117497779D03*
X153554471Y-98459081D03*
X153555714Y-79406383D03*
X153558616Y-60369377D03*
X172608623Y-57162783D03*
X172605716Y-76216383D03*
X172603216Y-95258359D03*
X172618619Y-114305985D03*
X172618619Y-133355738D03*
X153568622Y-155585742D03*
X172618620Y-152385739D03*
X191668613Y-150785740D03*
X191668616Y-131745741D03*
X191668625Y-112702981D03*
X191647655Y-93655284D03*
X191651315Y-74610823D03*
X191648615Y-55565384D03*
X210688616Y-57149381D03*
X210693216Y-76203164D03*
X210693057Y-95241000D03*
X210718616Y-114285743D03*
X248818619Y-129865741D03*
X248818620Y-101311381D03*
X248818619Y-77491673D03*
X248818614Y-58451380D03*
X229726369Y-58449383D03*
X229768613Y-77499260D03*
X229726214Y-96551780D03*
X229768610Y-115596582D03*
X229768618Y-134625739D03*
X231669429Y-162658913D03*
X248940075Y-170677093D03*
X260991875Y-144846900D03*
X285694464Y-154966236D03*
X257440642Y-158472714D03*
X282143223Y-168592048D03*
X270200797Y-170162067D03*
X266649557Y-183787874D03*
X228118183Y-176284726D03*
X245388828Y-184302905D03*
X258616698Y-201027510D03*
X262167937Y-187401697D03*
D24*
X158768619Y-116845985D02*
X163358620Y-112255984D01*
X163358620Y-112255984D02*
X174831628Y-112255984D01*
X174831628Y-112255984D02*
X177818625Y-115242981D01*
X155000000Y-150000000D02*
X157500000Y-147500000D01*
X170000000Y-147500000D02*
X172500000Y-145000000D01*
X157500000Y-147500000D02*
X170000000Y-147500000D01*
X172500000Y-145000000D02*
X177500000Y-145000000D01*
X215535744Y-145535744D02*
X216835740Y-146835740D01*
X177500000Y-145000000D02*
X178388082Y-144111918D01*
X251471609Y-158528391D02*
X251629189Y-158370811D01*
X178388082Y-144111918D02*
X196611918Y-144111918D01*
X196611918Y-144111918D02*
X198035744Y-145535744D01*
X253370811Y-158370811D02*
X258749842Y-163749842D01*
X258749842Y-163749842D02*
X260930586Y-163749842D01*
X216835740Y-146835740D02*
X226867757Y-146835740D01*
X140000000Y-150000000D02*
X155000000Y-150000000D01*
X198035744Y-145535744D02*
X215535744Y-145535744D01*
X226867757Y-146835740D02*
X238560408Y-158528391D01*
X238560408Y-158528391D02*
X251471609Y-158528391D01*
X251629189Y-158370811D02*
X253370811Y-158370811D01*
X227697818Y-49239940D02*
X228495878Y-50038000D01*
X228495878Y-50038000D02*
X236220000Y-50038000D01*
X133147483Y-82855483D02*
X136906000Y-86614000D01*
X133096000Y-82855483D02*
X133147483Y-82855483D01*
X133350000Y-78994000D02*
X130048000Y-75692000D01*
X136398000Y-78994000D02*
X133350000Y-78994000D01*
X147836237Y-62419378D02*
X146276235Y-60859376D01*
X146276235Y-60859376D02*
X141758617Y-60859376D01*
X141758617Y-60859376D02*
X139708616Y-62909377D01*
X134638274Y-62034381D02*
X134638274Y-62068175D01*
X145149477Y-72579378D02*
X148959477Y-72579378D01*
X134638274Y-62068175D02*
X145149477Y-72579378D01*
X132842000Y-72898000D02*
X137300382Y-77356382D01*
X137300382Y-77356382D02*
X144856382Y-77356382D01*
X125909600Y-71590400D02*
X136452674Y-71590400D01*
X136452674Y-71590400D02*
X137828816Y-70214258D01*
X212037739Y-46228000D02*
X216594537Y-41671202D01*
X199136000Y-46228000D02*
X212037739Y-46228000D01*
X127508000Y-70681300D02*
X127577300Y-70612000D01*
X127577300Y-70612000D02*
X135547374Y-70612000D01*
X234968614Y-66071380D02*
X234968614Y-60991380D01*
X214595392Y-72904608D02*
X216690784Y-75000000D01*
X216690784Y-75000000D02*
X232838844Y-75000000D01*
X234968614Y-72870230D02*
X234968614Y-66071380D01*
X232838844Y-75000000D02*
X234968614Y-72870230D01*
X214595392Y-72904608D02*
X215000000Y-72500000D01*
X211129260Y-72904608D02*
X214595392Y-72904608D01*
X208224652Y-70000000D02*
X211129260Y-72904608D01*
X197500000Y-70000000D02*
X208224652Y-70000000D01*
X177798615Y-58105384D02*
X179848616Y-56055383D01*
X185027986Y-56055383D02*
X187580718Y-58608115D01*
X187580718Y-58608115D02*
X192112534Y-58608115D01*
X179848616Y-56055383D02*
X185027986Y-56055383D01*
X192112534Y-58608115D02*
X192857283Y-59352864D01*
X158758623Y-59702783D02*
X160808624Y-57652782D01*
X160808624Y-57652782D02*
X165326242Y-57652782D01*
X167673460Y-60000000D02*
X175903999Y-60000000D01*
X165326242Y-57652782D02*
X167673460Y-60000000D01*
X175903999Y-60000000D02*
X177798615Y-58105384D01*
X156042028Y-62419378D02*
X158758623Y-59702783D01*
X147836237Y-62419378D02*
X156042028Y-62419378D01*
X215918613Y-80039260D02*
X217968614Y-77989259D01*
X217968614Y-77989259D02*
X222989259Y-77989259D01*
X222989259Y-77989259D02*
X225031673Y-80031673D01*
X225031673Y-80031673D02*
X234968619Y-80031673D01*
X196843216Y-78743164D02*
X198893217Y-76693163D01*
X198893217Y-76693163D02*
X204534075Y-76693163D01*
X207723175Y-79882263D02*
X215761616Y-79882263D01*
X204534075Y-76693163D02*
X207723175Y-79882263D01*
X215761616Y-79882263D02*
X215918613Y-80039260D01*
X179851316Y-75100822D02*
X185100822Y-75100822D01*
X185100822Y-75100822D02*
X187500000Y-77500000D01*
X177801315Y-77150823D02*
X179851316Y-75100822D01*
X195600052Y-77500000D02*
X196843216Y-78743164D01*
X187500000Y-77500000D02*
X195600052Y-77500000D01*
X158755716Y-78756383D02*
X160805717Y-76706382D01*
X160805717Y-76706382D02*
X166446576Y-76706382D01*
X166446576Y-76706382D02*
X169635676Y-79895482D01*
X169635676Y-79895482D02*
X175056656Y-79895482D01*
X175056656Y-79895482D02*
X177801315Y-77150823D01*
X139705714Y-81946383D02*
X141755715Y-79896382D01*
X147396573Y-79896382D02*
X148956575Y-81456384D01*
X148956575Y-81456384D02*
X156055715Y-81456384D01*
X141755715Y-79896382D02*
X147396573Y-79896382D01*
X156055715Y-81456384D02*
X158755716Y-78756383D01*
X115900296Y-81946382D02*
X117950297Y-79896381D01*
X117950297Y-79896381D02*
X123591155Y-79896381D01*
X123591155Y-79896381D02*
X125641157Y-81946383D01*
X125641157Y-81946383D02*
X139705714Y-81946383D01*
X215876214Y-99091780D02*
X217926215Y-97041779D01*
X232967239Y-100000000D02*
X234968620Y-102001381D01*
X234968620Y-102001381D02*
X234968620Y-103851381D01*
X217926215Y-97041779D02*
X222443833Y-97041779D01*
X222443833Y-97041779D02*
X225402054Y-100000000D01*
X225402054Y-100000000D02*
X232967239Y-100000000D01*
X196843057Y-97781000D02*
X198893058Y-95730999D01*
X198893058Y-95730999D02*
X203230999Y-95730999D01*
X203230999Y-95730999D02*
X205277099Y-97777099D01*
X205277099Y-97777099D02*
X214561533Y-97777099D01*
X214561533Y-97777099D02*
X215876214Y-99091780D01*
X177797655Y-96195284D02*
X182387656Y-91605283D01*
X182387656Y-91605283D02*
X194105283Y-91605283D01*
X194105283Y-91605283D02*
X196843057Y-94343057D01*
X196843057Y-94343057D02*
X196843057Y-97781000D01*
X158753216Y-97798359D02*
X163343217Y-93208358D01*
X163343217Y-93208358D02*
X174810729Y-93208358D01*
X174810729Y-93208358D02*
X177797655Y-96195284D01*
X155000000Y-100313881D02*
X156237694Y-100313881D01*
X156237694Y-100313881D02*
X158753216Y-97798359D01*
X139704471Y-100999081D02*
X141754472Y-98949080D01*
X141754472Y-98949080D02*
X146950918Y-98949080D01*
X148510920Y-100509082D02*
X154804799Y-100509082D01*
X146950918Y-98949080D02*
X148510920Y-100509082D01*
X154804799Y-100509082D02*
X155000000Y-100313881D01*
X115903700Y-100989480D02*
X117953701Y-98939479D01*
X117953701Y-98939479D02*
X122471319Y-98939479D01*
X124530921Y-100999081D02*
X139704471Y-100999081D01*
X122471319Y-98939479D02*
X124530921Y-100999081D01*
X215918610Y-118136582D02*
X217968611Y-116086581D01*
X242500000Y-128803600D02*
X242500000Y-131319502D01*
X217968611Y-116086581D02*
X223586581Y-116086581D01*
X223586581Y-116086581D02*
X226775681Y-119275681D01*
X256505886Y-157529755D02*
X257446495Y-158470364D01*
X226775681Y-119275681D02*
X232972081Y-119275681D01*
X256505886Y-147150937D02*
X256505886Y-157529755D01*
X232972081Y-119275681D02*
X242500000Y-128803600D01*
X242500000Y-131319502D02*
X245072520Y-133892022D01*
X245072520Y-133892022D02*
X245072520Y-135717571D01*
X245072520Y-135717571D02*
X256505886Y-147150937D01*
X196868616Y-116825743D02*
X198918617Y-114775742D01*
X198918617Y-114775742D02*
X204559475Y-114775742D01*
X204559475Y-114775742D02*
X207748575Y-117964842D01*
X207748575Y-117964842D02*
X215746870Y-117964842D01*
X215746870Y-117964842D02*
X215918610Y-118136582D01*
X177818625Y-115242981D02*
X179868626Y-113192980D01*
X179868626Y-113192980D02*
X182417764Y-113192980D01*
X182417764Y-113192980D02*
X184224784Y-115000000D01*
X184224784Y-115000000D02*
X195042873Y-115000000D01*
X195042873Y-115000000D02*
X196868616Y-116825743D01*
X139710213Y-120037779D02*
X141760214Y-117987778D01*
X141760214Y-117987778D02*
X147401072Y-117987778D01*
X147401072Y-117987778D02*
X148961074Y-119547780D01*
X148961074Y-119547780D02*
X156066824Y-119547780D01*
X156066824Y-119547780D02*
X158768619Y-116845985D01*
X115914015Y-120029582D02*
X118443597Y-117500000D01*
X118443597Y-117500000D02*
X123125293Y-117500000D01*
X123125293Y-117500000D02*
X125663072Y-120037779D01*
X125663072Y-120037779D02*
X139710213Y-120037779D01*
X215918618Y-137165739D02*
X220678616Y-132405741D01*
X220678616Y-132405741D02*
X234968619Y-132405741D01*
X196868617Y-135865743D02*
X198918618Y-133815742D01*
X206119478Y-135375744D02*
X214128623Y-135375744D01*
X198918618Y-133815742D02*
X204559476Y-133815742D01*
X214128623Y-135375744D02*
X215918618Y-137165739D01*
X204559476Y-133815742D02*
X206119478Y-135375744D01*
X177818616Y-134285741D02*
X179868617Y-132235740D01*
X196427714Y-135424840D02*
X196868617Y-135865743D01*
X179868617Y-132235740D02*
X185509475Y-132235740D01*
X185509475Y-132235740D02*
X188698575Y-135424840D01*
X188698575Y-135424840D02*
X196427714Y-135424840D01*
X158768619Y-135895738D02*
X160818620Y-133845737D01*
X160818620Y-133845737D02*
X166459478Y-133845737D01*
X166459478Y-133845737D02*
X168019480Y-135405739D01*
X176698618Y-135405739D02*
X177818616Y-134285741D01*
X168019480Y-135405739D02*
X176698618Y-135405739D01*
X139718620Y-139075744D02*
X144308621Y-134485743D01*
X144308621Y-134485743D02*
X157358624Y-134485743D01*
X157358624Y-134485743D02*
X158768619Y-135895738D01*
X115908614Y-139075738D02*
X117958615Y-137025737D01*
X125649480Y-139075744D02*
X139718620Y-139075744D01*
X117958615Y-137025737D02*
X123599473Y-137025737D01*
X123599473Y-137025737D02*
X125649480Y-139075744D01*
X177818613Y-153325740D02*
X182408614Y-148735739D01*
X182408614Y-148735739D02*
X193353212Y-148735739D01*
X193353212Y-148735739D02*
X196868618Y-152251145D01*
X196868618Y-152251145D02*
X196868618Y-154905742D01*
X158768620Y-154925739D02*
X160818621Y-152875738D01*
X160818621Y-152875738D02*
X165524260Y-152875738D01*
X165524260Y-152875738D02*
X167648522Y-155000000D01*
X167648522Y-155000000D02*
X176144353Y-155000000D01*
X176144353Y-155000000D02*
X177818613Y-153325740D01*
X139718622Y-158125742D02*
X144308623Y-153535741D01*
X144308623Y-153535741D02*
X157378622Y-153535741D01*
X157378622Y-153535741D02*
X158768620Y-154925739D01*
X120668611Y-158125738D02*
X122718612Y-156075737D01*
X127236230Y-156075737D02*
X129286235Y-158125742D01*
X122718612Y-156075737D02*
X127236230Y-156075737D01*
X129286235Y-158125742D02*
X139718622Y-158125742D01*
X134638274Y-51874381D02*
X149286879Y-51874381D01*
X249302616Y-68197384D02*
X249302616Y-72915738D01*
X149286879Y-51874381D02*
X151375660Y-49785600D01*
X151375660Y-49785600D02*
X209785600Y-49785600D01*
X209785600Y-49785600D02*
X214095200Y-54095200D01*
X214095200Y-54095200D02*
X244095200Y-54095200D01*
X244095200Y-54095200D02*
X245000000Y-55000000D01*
X245000000Y-55000000D02*
X249101834Y-55000000D01*
X250698414Y-66801586D02*
X249302616Y-68197384D01*
X249101834Y-55000000D02*
X250698414Y-56596580D01*
X250698414Y-56596580D02*
X250698414Y-66801586D01*
X231606169Y-56606169D02*
X231606169Y-60893831D01*
X134638274Y-54414381D02*
X148026459Y-54414381D01*
X148026459Y-54414381D02*
X151750440Y-50690400D01*
X151750440Y-50690400D02*
X209243816Y-50690401D01*
X209243816Y-50690401D02*
X213553415Y-55000000D01*
X213553415Y-55000000D02*
X230000000Y-55000000D01*
X230000000Y-55000000D02*
X231606169Y-56606169D01*
X232048711Y-72048711D02*
X232580533Y-72048711D01*
X231606169Y-60893831D02*
X230000000Y-62500000D01*
X230000000Y-70000000D02*
X232048711Y-72048711D01*
X230000000Y-62500000D02*
X230000000Y-70000000D01*
X134638274Y-56954381D02*
X146766039Y-56954381D01*
X211559190Y-69695008D02*
X213163990Y-71299808D01*
X146766039Y-56954381D02*
X152125220Y-51595200D01*
X152125220Y-51595200D02*
X208869035Y-51595200D01*
X213828720Y-60365548D02*
X211559190Y-62635078D01*
X208869035Y-51595200D02*
X213828720Y-56554885D01*
X213828720Y-56554885D02*
X213828720Y-60365548D01*
X211559190Y-62635078D02*
X211559190Y-69695008D01*
X134638274Y-59494381D02*
X145505619Y-59494381D01*
X194958816Y-58536993D02*
X192316157Y-61179652D01*
X145505619Y-59494381D02*
X152500000Y-52500000D01*
X192316157Y-68239582D02*
X193920957Y-69844382D01*
X152500000Y-52500000D02*
X192317831Y-52500000D01*
X192317831Y-52500000D02*
X194958816Y-55140985D01*
X194958816Y-55140985D02*
X194958816Y-58536993D01*
X192316157Y-61179652D02*
X192316157Y-68239582D01*
M02*
