M48
; DRILL file {KiCad (6.0.9-0)} date Friday, 17 February 2023 at 07:07:08 pm
; FORMAT={-:-/ absolute / inch / decimal}
; #@! TF.CreationDate,2023-02-17T19:07:08+11:00
; #@! TF.GenerationSoftware,Kicad,Pcbnew,(6.0.9-0)
; #@! TF.FileFunction,Plated,1,2,PTH
FMAT,2
INCH
; #@! TA.AperFunction,Plated,PTH,ViaDrill
T1C0.0200
; #@! TA.AperFunction,Plated,PTH,ComponentDrill
T2C0.0354
; #@! TA.AperFunction,Plated,PTH,ComponentDrill
T3C0.0390
; #@! TA.AperFunction,Plated,PTH,ComponentDrill
T4C0.0433
%
G90
G05
T1
X4.4571Y-5.162
X4.4648Y-4.4197
X4.5009Y-3.7066
X4.5526Y-5.2575
X4.5702Y-4.5251
X4.5996Y-3.8053
X4.6234Y-4.8175
X4.6244Y-4.0763
X4.6246Y-3.3165
X4.6248Y-5.5683
X4.8115Y-6.3527
X5.1517Y-3.7062
X5.1527Y-2.9573
X5.1528Y-5.1892
X5.1529Y-4.4508
X5.341Y-5.9445
X5.354Y-3.1083
X5.3701Y-6.4535
X5.4131Y-5.5931
X5.4385Y-2.9573
X5.5367Y-3.0555
X5.56Y-4.0659
X5.5601Y-3.315
X5.5604Y-4.822
X5.5607Y-5.5625
X5.5609Y-2.5633
X5.561Y-6.3537
X5.7869Y-2.8418
X5.9183Y-2.8418
X6.0889Y-3.6796
X6.089Y-5.9287
X6.0891Y-2.9299
X6.0899Y-2.1798
X6.0902Y-4.4295
X6.0903Y-5.1795
X6.1015Y-4.1493
X6.1359Y-6.3556
X6.1647Y-4.2325
X6.2868Y-2.1798
X6.309Y-3.1867
X6.3113Y-2.4425
X6.3113Y-4.6886
X6.3115Y-3.9453
X6.3116Y-6.231
X6.3124Y-5.4436
X6.8391Y-2.0441
X6.8391Y-3.5799
X6.8394Y-2.8272
X6.84Y-4.3294
X6.8406Y-5.0645
X6.8433Y-5.8469
X7.0594Y-3.1375
X7.0601Y-6.1377
X7.061Y-2.3714
X7.061Y-4.6351
X7.0613Y-3.8872
X7.0622Y-5.3703
X7.5875Y-3.5158
X7.5891Y-5.0042
X7.5893Y-5.7839
X7.5899Y-2.0152
X7.5905Y-4.267
X7.5907Y-2.7652
X7.6037Y-3.2327
X7.6847Y-3.3137
X7.8094Y-3.1957
X7.8105Y-2.4386
X7.8108Y-3.9488
X7.8119Y-4.6968
X7.8125Y-5.4391
X7.9872Y-5.7871
X8.0152Y-6.2443
X8.0278Y-6.4049
X8.1242Y-6.5013
X8.3382Y-2.8296
X8.3389Y-3.5759
X8.3396Y-2.0759
X8.3399Y-4.3252
X8.3407Y-5.0727
X8.3692Y-4.8096
X8.4529Y-4.8933
X8.559Y-2.5045
X8.5593Y-5.4813
X8.56Y-3.9885
X8.5621Y-3.2437
X8.5624Y-4.7491
X8.8568Y-6.6265
X9.0621Y-2.118
X9.0885Y-3.6258
X9.0899Y-5.115
X9.0901Y-2.875
X9.0909Y-4.3784
X9.1027Y-3.3448
X9.107Y-5.028
X9.1227Y-2.526
X9.1227Y-2.6164
X9.1765Y-5.1745
X9.1809Y-3.423
X9.2395Y-6.8624
X9.292Y-5.888
X9.3111Y-4.1672
X9.3113Y-2.5033
X9.312Y-3.2367
X9.3435Y-5.665
X9.376Y-5.376
X9.405Y-4.547
X9.405Y-4.7586
X9.4666Y-2.8519
X9.4681Y-2.1131
X9.4687Y-3.79
X9.4721Y-4.9181
X9.5714Y-6.9474
X9.5996Y-5.387
X9.6475Y-7.344
X9.6475Y-7.461
X9.7263Y-5.6779
X9.7263Y-5.7845
X9.9838Y-7.179
X10.159Y-7.5121
X10.4333Y-6.8876
X10.512Y-7.8375
X10.5476Y-5.8615
X10.6645Y-5.9405
X10.772Y-6.2152
X10.772Y-6.3406
X10.772Y-5.9405
X10.8321Y-7.1565
X11.3459Y-6.4312
T2
X5.2731Y-3.276
X5.2731Y-3.5909
X5.2732Y-4.0257
X5.2732Y-4.3407
X5.2734Y-5.5252
X5.2734Y-5.8401
X5.2736Y-4.7753
X5.2736Y-5.0903
X5.465Y-6.2539
X5.465Y-6.5689
X6.1949Y-2.5268
X6.1949Y-2.8418
X6.2102Y-4.0261
X6.2102Y-4.341
X6.2103Y-3.276
X6.2103Y-3.5909
X6.2105Y-4.7756
X6.2105Y-5.0906
X6.2108Y-5.5252
X6.2108Y-5.8401
X6.2253Y-6.2495
X6.2253Y-6.5645
X6.938Y-2.4103
X6.938Y-2.7253
X6.9602Y-3.9001
X6.9602Y-4.215
X6.9603Y-3.1504
X6.9603Y-3.4654
X6.9608Y-4.65
X6.9608Y-4.9649
X6.9608Y-5.4
X6.9608Y-5.7149
X6.9608Y-6.1492
X6.9608Y-6.4641
X7.6847Y-3.1145
X7.6847Y-3.4295
X7.6871Y-2.3641
X7.6871Y-2.6791
X7.6966Y-4.6076
X7.6966Y-4.9226
X7.6974Y-5.3512
X7.6974Y-5.6662
X7.6992Y-6.1239
X7.6992Y-6.4389
X7.6994Y-3.8621
X7.6994Y-4.1771
X8.4447Y-2.4214
X8.4447Y-2.7364
X8.4458Y-5.4112
X8.4458Y-5.7262
X8.4502Y-3.9142
X8.4502Y-4.2292
X8.4529Y-4.6745
X8.4529Y-4.9895
X8.4554Y-3.1814
X8.4554Y-3.4964
X8.4608Y-6.1484
X8.4608Y-6.4634
X8.7959Y-6.484
X8.9291Y-6.1986
X9.1911Y-3.9568
X9.1911Y-4.2718
X9.2091Y-2.4509
X9.2091Y-2.7659
X9.2108Y-3.2009
X9.2108Y-3.5159
X9.2108Y-4.7008
X9.2108Y-5.0158
X9.2108Y-5.45
X9.2108Y-5.7649
X9.7093Y-6.0944
X9.9005Y-4.1536
X9.9005Y-4.4686
X9.9006Y-5.3092
X9.9006Y-5.6242
X9.9021Y-3.2039
X9.9021Y-3.5189
X9.9039Y-2.4502
X9.9039Y-2.7652
X9.9947Y-6.2276
X10.0063Y-5.9071
X10.1395Y-5.6217
X10.3253Y-6.3761
X10.6029Y-7.2711
X10.6107Y-6.5093
X10.6388Y-6.3256
X10.772Y-6.0402
X10.8883Y-7.4043
T3
X7.4342Y-1.5699
X7.8342Y-1.5699
X8.1798Y-1.5699
X8.5798Y-1.5699
T4
X4.7531Y-1.4716
X4.7531Y-1.5716
X4.7531Y-1.6716
X4.7531Y-1.7716
X4.7531Y-1.8716
X4.7531Y-1.9716
X4.7531Y-2.0716
X4.7531Y-2.1716
X4.7531Y-2.2716
X4.7531Y-2.3716
X4.7531Y-2.4716
X4.7531Y-2.5716
X5.3531Y-1.4716
X5.3531Y-1.5716
X5.3531Y-1.6716
X5.3531Y-1.7716
X5.3531Y-1.8716
X5.3531Y-1.9716
X5.3531Y-2.0716
X5.3531Y-2.1716
X5.3531Y-2.2716
X5.3531Y-2.3716
X5.3531Y-2.4716
X5.3531Y-2.5716
T2
G00X9.0169Y-1.8561
M15
G01X9.0169Y-1.8797
M16
G05
G00X9.198Y-1.5372
M15
G01X9.198Y-1.5608
M16
G05
G00X9.198Y-1.6553
M15
G01X9.198Y-1.6789
M16
G05
G00X9.198Y-1.8128
M15
G01X9.198Y-1.8364
M16
G05
G00X9.3791Y-1.8561
M15
G01X9.3791Y-1.8797
M16
G05
T0
M30
