M48
; DRILL file {KiCad (6.0.9-0)} date Friday, 21 April 2023 at 01:05:00 pm
; FORMAT={-:-/ absolute / inch / decimal}
; #@! TF.CreationDate,2023-04-21T13:05:00+10:00
; #@! TF.GenerationSoftware,Kicad,Pcbnew,(6.0.9-0)
; #@! TF.FileFunction,NonPlated,1,2,NPTH
FMAT,2
INCH
; #@! TA.AperFunction,NonPlated,NPTH,ComponentDrill
T1C0.0591
; #@! TA.AperFunction,NonPlated,NPTH,ComponentDrill
T2C0.0670
; #@! TA.AperFunction,NonPlated,NPTH,ComponentDrill
T3C0.1181
; #@! TA.AperFunction,NonPlated,NPTH,ComponentDrill
T4C0.1200
; #@! TA.AperFunction,NonPlated,NPTH,ComponentDrill
T5C0.1570
; #@! TA.AperFunction,NonPlated,NPTH,ComponentDrill
T6C0.2510
%
G90
G05
T1
X9.055Y-1.5567
X9.055Y-1.8323
X9.2361Y-1.5567
X9.2361Y-1.8323
T2
X4.6606Y-3.3262
X4.6608Y-4.076
X4.661Y-5.5754
X4.6612Y-4.8256
X4.8484Y-6.3254
X5.0606Y-3.3262
X5.0608Y-4.076
X5.061Y-5.5754
X5.0612Y-4.8256
X5.2484Y-6.3254
X5.5978Y-4.0763
X5.5979Y-3.3262
X5.598Y-2.5767
X5.598Y-4.8259
X5.5984Y-5.5754
X5.5984Y-6.3254
X5.9978Y-4.0763
X5.9979Y-3.3262
X5.998Y-2.5767
X5.998Y-4.8259
X5.9984Y-5.5754
X5.9984Y-6.3254
X6.3478Y-3.9503
X6.3479Y-3.2006
X6.348Y-2.4505
X6.3484Y-4.7002
X6.3484Y-5.4502
X6.3484Y-6.1994
X6.7478Y-3.9503
X6.7479Y-3.2006
X6.748Y-2.4505
X6.7484Y-4.7002
X6.7484Y-5.4502
X6.7484Y-6.1994
X7.0975Y-3.8872
X7.0976Y-2.3876
X7.0977Y-3.1374
X7.0984Y-6.1364
X7.0984Y-5.3868
X7.0984Y-4.6371
X7.4975Y-3.8872
X7.4976Y-2.3876
X7.4977Y-3.1374
X7.4984Y-6.1364
X7.4984Y-5.3868
X7.4984Y-4.6371
X7.8472Y-2.45
X7.8474Y-3.9496
X7.8474Y-3.2001
X7.8484Y-4.6994
X7.8484Y-5.449
X7.8484Y-6.1987
X8.2472Y-2.45
X8.2474Y-3.9496
X8.2474Y-3.2001
X8.2484Y-4.6994
X8.2484Y-5.449
X8.2484Y-6.1987
X8.5967Y-4.0013
X8.5967Y-2.5012
X8.5984Y-4.751
X8.5984Y-3.2512
X8.5984Y-5.5002
X8.9967Y-4.0013
X8.9967Y-2.5012
X8.9984Y-4.751
X8.9984Y-3.2512
X8.9984Y-5.5002
X9.1132Y-6.894
X9.2822Y-6.5315
X9.3484Y-2.5012
X9.3484Y-3.2509
X9.3484Y-5.3128
X9.3484Y-4.1886
X9.7484Y-2.5012
X9.7484Y-3.2509
X9.7484Y-5.3128
X9.7484Y-4.1886
X9.7931Y-7.2097
X9.9621Y-6.8472
X10.2676Y-6.1928
X10.3139Y-7.8681
X10.4366Y-5.8302
X10.4829Y-7.5056
X10.6301Y-7.1894
X10.7992Y-6.8269
X10.9471Y-6.5097
X11.1161Y-6.1472
T3
X4.7106Y-3.2262
X4.7106Y-3.4262
X4.7108Y-3.976
X4.7108Y-4.176
X4.711Y-5.4754
X4.711Y-5.6754
X4.7112Y-4.7256
X4.7112Y-4.9256
X4.8984Y-6.2254
X4.8984Y-6.4254
X4.9606Y-3.1262
X4.9606Y-3.5262
X4.9608Y-3.876
X4.9608Y-4.276
X4.961Y-5.3754
X4.961Y-5.7754
X4.9612Y-4.6256
X4.9612Y-5.0256
X5.1484Y-6.1254
X5.1484Y-6.5254
X5.6478Y-3.9763
X5.6478Y-4.1763
X5.6479Y-3.2262
X5.6479Y-3.4262
X5.648Y-2.4767
X5.648Y-2.6767
X5.648Y-4.7259
X5.648Y-4.9259
X5.6484Y-5.4754
X5.6484Y-5.6754
X5.6484Y-6.2254
X5.6484Y-6.4254
X5.8978Y-3.8763
X5.8978Y-4.2763
X5.8979Y-3.1262
X5.8979Y-3.5262
X5.898Y-2.3767
X5.898Y-2.7767
X5.898Y-4.6259
X5.898Y-5.0259
X5.8984Y-5.3754
X5.8984Y-5.7754
X5.8984Y-6.1254
X5.8984Y-6.5254
X6.3978Y-3.8503
X6.3978Y-4.0503
X6.3979Y-3.1006
X6.3979Y-3.3006
X6.398Y-2.3505
X6.398Y-2.5505
X6.3984Y-4.6002
X6.3984Y-4.8002
X6.3984Y-5.3502
X6.3984Y-5.5502
X6.3984Y-6.0994
X6.3984Y-6.2994
X6.6478Y-3.7503
X6.6478Y-4.1503
X6.6479Y-3.0006
X6.6479Y-3.4006
X6.648Y-2.2505
X6.648Y-2.6505
X6.6484Y-4.5002
X6.6484Y-4.9002
X6.6484Y-5.2502
X6.6484Y-5.6502
X6.6484Y-5.9994
X6.6484Y-6.3994
X7.1475Y-3.7872
X7.1475Y-3.9872
X7.1476Y-2.2876
X7.1476Y-2.4876
X7.1477Y-3.0374
X7.1477Y-3.2374
X7.1484Y-6.0364
X7.1484Y-6.2364
X7.1484Y-5.2868
X7.1484Y-5.4868
X7.1484Y-4.5371
X7.1484Y-4.7371
X7.3975Y-3.6872
X7.3975Y-4.0872
X7.3976Y-2.1876
X7.3976Y-2.5876
X7.3977Y-2.9374
X7.3977Y-3.3374
X7.3984Y-5.9364
X7.3984Y-6.3364
X7.3984Y-5.1868
X7.3984Y-5.5868
X7.3984Y-4.4371
X7.3984Y-4.8371
X7.8972Y-2.35
X7.8972Y-2.55
X7.8974Y-3.8496
X7.8974Y-4.0496
X7.8974Y-3.1001
X7.8974Y-3.3001
X7.8984Y-4.5994
X7.8984Y-4.7994
X7.8984Y-5.349
X7.8984Y-5.549
X7.8984Y-6.0987
X7.8984Y-6.2987
X8.1472Y-2.25
X8.1472Y-2.65
X8.1474Y-3.7496
X8.1474Y-4.1496
X8.1474Y-3.0001
X8.1474Y-3.4001
X8.1484Y-4.4994
X8.1484Y-4.8994
X8.1484Y-5.249
X8.1484Y-5.649
X8.1484Y-5.9987
X8.1484Y-6.3987
X8.6467Y-3.9013
X8.6467Y-4.1013
X8.6467Y-2.4012
X8.6467Y-2.6012
X8.6484Y-4.651
X8.6484Y-4.851
X8.6484Y-3.1512
X8.6484Y-3.3512
X8.6484Y-5.4002
X8.6484Y-5.6002
X8.8967Y-3.8013
X8.8967Y-4.2013
X8.8967Y-2.3012
X8.8967Y-2.7012
X8.8984Y-4.551
X8.8984Y-4.951
X8.8984Y-3.0512
X8.8984Y-3.4512
X8.8984Y-5.3002
X8.8984Y-5.7002
X9.0437Y-6.8064
X9.0587Y-6.5376
X9.2249Y-6.891
X9.3984Y-2.4012
X9.3984Y-2.6012
X9.3984Y-3.1509
X9.3984Y-3.3509
X9.3984Y-5.2128
X9.3984Y-5.4128
X9.3984Y-4.0886
X9.3984Y-4.2886
X9.4212Y-6.7067
X9.6484Y-2.3012
X9.6484Y-2.7012
X9.6484Y-3.0509
X9.6484Y-3.4509
X9.6484Y-5.1128
X9.6484Y-5.5128
X9.6484Y-3.9886
X9.6484Y-4.3886
X9.7236Y-7.1221
X9.7386Y-6.8533
X9.9049Y-7.2066
X10.1011Y-7.0223
X10.1981Y-6.1052
X10.2131Y-5.8363
X10.2444Y-7.7806
X10.2594Y-7.5117
X10.3793Y-6.1897
X10.4256Y-7.8651
X10.5606Y-7.1018
X10.5756Y-6.0054
X10.5757Y-6.833
X10.6219Y-7.6808
X10.7419Y-7.1864
X10.8081Y-6.3345
X10.9382Y-7.0021
X11.0044Y-6.1502
X11.1706Y-6.5036
X11.1856Y-6.2347
T4
X9.2483Y-7.2549
X9.4298Y-7.3382
X9.6455Y-6.403
X9.827Y-6.4863
T5
X4.8606Y-3.3262
X4.8608Y-4.076
X4.861Y-5.5754
X4.8612Y-4.8256
X5.0484Y-6.3254
X5.7978Y-4.0763
X5.7979Y-3.3262
X5.798Y-2.5767
X5.798Y-4.8259
X5.7984Y-5.5754
X5.7984Y-6.3254
X6.5478Y-3.9503
X6.5479Y-3.2006
X6.548Y-2.4505
X6.5484Y-4.7002
X6.5484Y-5.4502
X6.5484Y-6.1994
X7.2975Y-3.8872
X7.2976Y-2.3876
X7.2977Y-3.1374
X7.2984Y-6.1364
X7.2984Y-5.3868
X7.2984Y-4.6371
X8.0472Y-2.45
X8.0474Y-3.9496
X8.0474Y-3.2001
X8.0484Y-4.6994
X8.0484Y-5.449
X8.0484Y-6.1987
X8.7045Y-7.0014
X8.7967Y-4.0013
X8.7967Y-2.5012
X8.7984Y-4.751
X8.7984Y-3.2512
X8.7984Y-5.5002
X9.1018Y-6.1494
X9.1977Y-6.7128
X9.5484Y-2.5012
X9.5484Y-3.2509
X9.5484Y-5.3128
X9.5484Y-4.1886
X9.8776Y-7.0284
X9.9735Y-7.5918
X10.3521Y-6.0115
X10.3708Y-6.7398
X10.3984Y-7.6869
X10.7147Y-7.0082
X11.0316Y-6.3284
T6
X4.4547Y-6.2025
X4.4863Y-1.6863
X7.113Y-1.684
X8.2485Y-6.8965
X9.7053Y-1.7105
X10.0492Y-5.4775
T0
M30
