M48
; DRILL file {KiCad (6.0.9-0)} date Friday, 17 February 2023 at 07:07:08 pm
; FORMAT={-:-/ absolute / inch / decimal}
; #@! TF.CreationDate,2023-02-17T19:07:08+11:00
; #@! TF.GenerationSoftware,Kicad,Pcbnew,(6.0.9-0)
; #@! TF.FileFunction,NonPlated,1,2,NPTH
FMAT,2
INCH
; #@! TA.AperFunction,NonPlated,NPTH,ComponentDrill
T1C0.0591
; #@! TA.AperFunction,NonPlated,NPTH,ComponentDrill
T2C0.1161
; #@! TA.AperFunction,NonPlated,NPTH,ComponentDrill
T3C0.1200
; #@! TA.AperFunction,NonPlated,NPTH,ComponentDrill
T4C0.1567
; #@! TA.AperFunction,NonPlated,NPTH,ComponentDrill
T5C0.1570
; #@! TA.AperFunction,NonPlated,NPTH,ComponentDrill
T6C0.2510
%
G90
G05
T1
X9.1074Y-1.486
X9.1074Y-1.7616
X9.2886Y-1.486
X9.2886Y-1.7616
T2
X4.7631Y-3.1555
X4.7632Y-3.9053
X4.7634Y-5.4047
X4.7636Y-4.6549
X4.8131Y-3.0555
X4.8132Y-3.8053
X4.8134Y-5.3047
X4.8136Y-4.5549
X4.9508Y-6.1547
X5.0008Y-6.0547
X5.0131Y-3.0555
X5.0132Y-3.8053
X5.0134Y-5.3047
X5.0136Y-4.5549
X5.0631Y-3.1555
X5.0632Y-3.9053
X5.0634Y-5.4047
X5.0636Y-4.6549
X5.2008Y-6.0547
X5.2508Y-6.1547
X5.7002Y-3.9056
X5.7003Y-3.1555
X5.7004Y-2.406
X5.7005Y-4.6552
X5.7008Y-5.4047
X5.7008Y-6.1547
X5.7502Y-3.8056
X5.7503Y-3.0555
X5.7504Y-2.306
X5.7505Y-4.5552
X5.7508Y-5.3047
X5.7508Y-6.0547
X5.9502Y-3.8056
X5.9503Y-3.0555
X5.9504Y-2.306
X5.9505Y-4.5552
X5.9508Y-5.3047
X5.9508Y-6.0547
X6.0002Y-3.9056
X6.0003Y-3.1555
X6.0004Y-2.406
X6.0005Y-4.6552
X6.0008Y-5.4047
X6.0008Y-6.1547
X6.4502Y-3.7796
X6.4503Y-3.0299
X6.4504Y-2.2798
X6.4508Y-4.5295
X6.4508Y-5.2795
X6.4508Y-6.0287
X6.5002Y-3.6796
X6.5003Y-2.9299
X6.5004Y-2.1798
X6.5008Y-4.4295
X6.5008Y-5.1795
X6.5008Y-5.9287
X6.7002Y-3.6796
X6.7003Y-2.9299
X6.7004Y-2.1798
X6.7008Y-4.4295
X6.7008Y-5.1795
X6.7008Y-5.9287
X6.7502Y-3.7796
X6.7503Y-3.0299
X6.7504Y-2.2798
X6.7508Y-4.5295
X6.7508Y-5.2795
X6.7508Y-6.0287
X7.2Y-3.7165
X7.2Y-2.2169
X7.2001Y-2.9667
X7.2008Y-4.4664
X7.2008Y-5.2161
X7.2008Y-5.9657
X7.25Y-3.6165
X7.25Y-2.1169
X7.2501Y-2.8667
X7.2508Y-4.3664
X7.2508Y-5.1161
X7.2508Y-5.8657
X7.45Y-3.6165
X7.45Y-2.1169
X7.4501Y-2.8667
X7.4508Y-4.3664
X7.4508Y-5.1161
X7.4508Y-5.8657
X7.5Y-3.7165
X7.5Y-2.2169
X7.5001Y-2.9667
X7.5008Y-4.4664
X7.5008Y-5.2161
X7.5008Y-5.9657
X7.9496Y-2.2793
X7.9498Y-3.7789
X7.9498Y-3.0294
X7.9508Y-4.5287
X7.9508Y-5.2783
X7.9508Y-6.028
X7.9996Y-2.1793
X7.9998Y-3.6789
X7.9998Y-2.9294
X8.0008Y-4.4287
X8.0008Y-5.1783
X8.0008Y-5.928
X8.1996Y-2.1793
X8.1998Y-3.6789
X8.1998Y-2.9294
X8.2008Y-4.4287
X8.2008Y-5.1783
X8.2008Y-5.928
X8.2496Y-2.2793
X8.2498Y-3.7789
X8.2498Y-3.0294
X8.2508Y-4.5287
X8.2508Y-5.2783
X8.2508Y-6.028
X8.6991Y-3.8306
X8.6991Y-2.3305
X8.7008Y-3.0805
X8.7008Y-4.5803
X8.7008Y-5.3295
X8.7491Y-3.7306
X8.7491Y-2.2305
X8.7508Y-2.9805
X8.7508Y-4.4803
X8.7508Y-5.2295
X8.9491Y-3.7306
X8.9491Y-2.2305
X8.9508Y-2.9805
X8.9508Y-4.4803
X8.9508Y-5.2295
X8.9991Y-3.8306
X8.9991Y-2.3305
X9.0008Y-3.0805
X9.0008Y-4.5803
X9.0008Y-5.3295
X9.0266Y-6.6482
X9.0961Y-6.7357
X9.1111Y-6.4669
X9.2229Y-6.4639
X9.4508Y-2.3305
X9.4508Y-3.0802
X9.4508Y-4.0179
X9.4508Y-5.1421
X9.5008Y-2.2305
X9.5008Y-2.9802
X9.5008Y-3.9179
X9.5008Y-5.0421
X9.7008Y-2.2305
X9.7008Y-2.9802
X9.7008Y-3.9179
X9.7008Y-5.0421
X9.7065Y-6.9638
X9.7508Y-2.3305
X9.7508Y-3.0802
X9.7508Y-4.0179
X9.7508Y-5.1421
X9.776Y-7.0514
X9.791Y-6.7826
X9.9028Y-6.7795
X10.181Y-5.9469
X10.2273Y-7.6223
X10.2505Y-6.0345
X10.2655Y-5.7656
X10.2968Y-7.7099
X10.3118Y-7.441
X10.3773Y-5.7626
X10.4236Y-7.438
X10.5436Y-6.9436
X10.6131Y-7.0311
X10.6281Y-6.7623
X10.7398Y-6.7593
X11.1113Y-6.4359
X11.223Y-6.4329
X11.2381Y-6.164
X11.3076Y-6.2516
T3
X9.3007Y-7.1842
X9.4822Y-7.2675
X9.698Y-6.3323
X9.8794Y-6.4156
T4
X4.9131Y-3.2555
X4.9132Y-4.0053
X4.9134Y-5.5047
X4.9136Y-4.7549
X5.1008Y-6.2547
X5.8502Y-4.0056
X5.8503Y-3.2555
X5.8504Y-2.506
X5.8505Y-4.7552
X5.8508Y-5.5047
X5.8508Y-6.2547
X6.6002Y-3.8796
X6.6003Y-3.1299
X6.6004Y-2.3798
X6.6008Y-4.6295
X6.6008Y-5.3795
X6.6008Y-6.1287
X7.35Y-3.8165
X7.35Y-2.3169
X7.3501Y-3.0667
X7.3508Y-4.5664
X7.3508Y-5.3161
X7.3508Y-6.0657
X8.0996Y-2.3793
X8.0998Y-3.8789
X8.0998Y-3.1294
X8.1008Y-4.6287
X8.1008Y-5.3783
X8.1008Y-6.128
X8.8491Y-3.9306
X8.8491Y-2.4305
X8.8508Y-3.1805
X8.8508Y-4.6803
X8.8508Y-5.4295
X9.2501Y-6.6421
X9.6008Y-2.4305
X9.6008Y-3.1802
X9.6008Y-4.1179
X9.6008Y-5.2421
X9.93Y-6.9577
X10.4045Y-5.9408
X10.4508Y-7.6162
X10.7671Y-6.9375
X11.084Y-6.2577
T5
X8.7569Y-6.9307
X9.1542Y-6.0787
X10.026Y-7.5211
X10.4232Y-6.6691
T6
X4.5071Y-6.1318
X4.5387Y-1.6156
X7.1654Y-1.6133
X8.3009Y-6.8258
X9.7577Y-1.6398
X10.1016Y-5.4068
T0
M30
