G04 #@! TF.GenerationSoftware,KiCad,Pcbnew,(6.0.9-0)*
G04 #@! TF.CreationDate,2023-04-19T21:40:39+10:00*
G04 #@! TF.ProjectId,ErgoMaxReversible,4572676f-4d61-4785-9265-766572736962,rev?*
G04 #@! TF.SameCoordinates,Original*
G04 #@! TF.FileFunction,Soldermask,Top*
G04 #@! TF.FilePolarity,Negative*
%FSLAX46Y46*%
G04 Gerber Fmt 4.6, Leading zero omitted, Abs format (unit mm)*
G04 Created by KiCad (PCBNEW (6.0.9-0)) date 2023-04-19 21:40:39*
%MOMM*%
%LPD*%
G01*
G04 APERTURE LIST*
G04 Aperture macros list*
%AMRoundRect*
0 Rectangle with rounded corners*
0 $1 Rounding radius*
0 $2 $3 $4 $5 $6 $7 $8 $9 X,Y pos of 4 corners*
0 Add a 4 corners polygon primitive as box body*
4,1,4,$2,$3,$4,$5,$6,$7,$8,$9,$2,$3,0*
0 Add four circle primitives for the rounded corners*
1,1,$1+$1,$2,$3*
1,1,$1+$1,$4,$5*
1,1,$1+$1,$6,$7*
1,1,$1+$1,$8,$9*
0 Add four rect primitives between the rounded corners*
20,1,$1+$1,$2,$3,$4,$5,0*
20,1,$1+$1,$4,$5,$6,$7,0*
20,1,$1+$1,$6,$7,$8,$9,0*
20,1,$1+$1,$8,$9,$2,$3,0*%
G04 Aperture macros list end*
%ADD10C,4.089800*%
%ADD11C,1.803800*%
%ADD12C,3.102000*%
%ADD13RoundRect,0.051000X-1.275000X-1.250000X1.275000X-1.250000X1.275000X1.250000X-1.275000X1.250000X0*%
%ADD14RoundRect,0.051000X0.594046X-1.683815X1.671723X0.627270X-0.594046X1.683815X-1.671723X-0.627270X0*%
%ADD15RoundRect,0.051000X-0.594046X1.683815X-1.671723X-0.627270X0.594046X-1.683815X1.671723X0.627270X0*%
%ADD16RoundRect,0.051000X-0.800000X0.800000X-0.800000X-0.800000X0.800000X-0.800000X0.800000X0.800000X0*%
%ADD17C,1.702000*%
%ADD18C,2.102000*%
%ADD19RoundRect,0.051000X-1.000000X1.000000X-1.000000X-1.000000X1.000000X-1.000000X1.000000X1.000000X0*%
%ADD20RoundRect,0.051000X-0.483690X1.328926X-1.328926X-0.483690X0.483690X-1.328926X1.328926X0.483690X0*%
%ADD21RoundRect,0.051000X0.483690X-1.328926X1.328926X0.483690X-0.483690X1.328926X-1.328926X-0.483690X0*%
%ADD22RoundRect,0.051000X1.328926X0.483690X-0.483690X1.328926X-1.328926X-0.483690X0.483690X-1.328926X0*%
%ADD23RoundRect,0.051000X-1.000000X-1.000000X1.000000X-1.000000X1.000000X1.000000X-1.000000X1.000000X0*%
%ADD24RoundRect,0.051000X-1.328926X-0.483690X0.483690X-1.328926X1.328926X0.483690X-0.483690X1.328926X0*%
%ADD25O,1.702000X2.302000*%
%ADD26C,1.602000*%
%ADD27C,3.150000*%
%ADD28C,5.867400*%
%ADD29C,1.753000*%
G04 APERTURE END LIST*
D10*
X147268616Y-65449377D03*
D11*
X152348616Y-65449377D03*
X142188616Y-65449377D03*
D12*
X143458616Y-62909377D03*
X143458616Y-67989377D03*
X149808616Y-70529377D03*
X149808616Y-60369377D03*
D13*
X153558616Y-70529377D03*
X139708616Y-67989377D03*
D14*
X263226594Y-203172059D03*
X271381878Y-191693147D03*
D12*
X260588973Y-190797999D03*
X269797060Y-195091801D03*
X264811412Y-199773405D03*
X260207369Y-197626504D03*
D11*
X261972665Y-199850966D03*
X266266467Y-190642878D03*
D10*
X264119566Y-195246922D03*
D14*
X249998727Y-186447464D03*
X258154011Y-174968552D03*
D12*
X247361106Y-174073404D03*
X256569193Y-178367206D03*
X251583545Y-183048810D03*
X246979502Y-180901909D03*
D11*
X248744798Y-183126371D03*
X253038600Y-173918283D03*
D10*
X250891699Y-178522327D03*
D14*
X232728081Y-178429286D03*
X240883365Y-166950374D03*
D12*
X230090460Y-166055226D03*
X239298547Y-170349028D03*
X234312899Y-175030632D03*
X229708856Y-172883731D03*
D11*
X231474152Y-175108193D03*
X235767954Y-165900105D03*
D10*
X233621053Y-170504149D03*
D13*
X196868618Y-159985742D03*
X210718618Y-162525742D03*
D12*
X206968618Y-152365742D03*
X206968618Y-162525742D03*
X200618618Y-159985742D03*
X200618618Y-154905742D03*
D11*
X199348618Y-157445742D03*
X209508618Y-157445742D03*
D10*
X204428618Y-157445742D03*
D13*
X177818613Y-158405740D03*
X191668613Y-160945740D03*
D12*
X187918613Y-150785740D03*
X187918613Y-160945740D03*
X181568613Y-158405740D03*
X181568613Y-153325740D03*
D11*
X180298613Y-155865740D03*
X190458613Y-155865740D03*
D10*
X185378613Y-155865740D03*
D13*
X158768620Y-160005739D03*
X172618620Y-162545739D03*
D12*
X168868620Y-152385739D03*
X168868620Y-162545739D03*
X162518620Y-160005739D03*
X162518620Y-154925739D03*
D11*
X161248620Y-157465739D03*
X171408620Y-157465739D03*
D10*
X166328620Y-157465739D03*
D13*
X139718622Y-163205742D03*
X153568622Y-165745742D03*
D12*
X149818622Y-155585742D03*
X149818622Y-165745742D03*
X143468622Y-163205742D03*
X143468622Y-158125742D03*
D11*
X142198622Y-160665742D03*
X152358622Y-160665742D03*
D10*
X147278622Y-160665742D03*
D13*
X120668611Y-163205738D03*
X134518611Y-165745738D03*
D12*
X130768611Y-155585738D03*
X130768611Y-165745738D03*
X124418611Y-163205738D03*
X124418611Y-158125738D03*
D11*
X123148611Y-160665738D03*
X133308611Y-160665738D03*
D10*
X128228611Y-160665738D03*
D14*
X271259454Y-185932437D03*
X279414738Y-174453525D03*
D12*
X268621833Y-173558377D03*
X277829920Y-177852179D03*
X272844272Y-182533783D03*
X268240229Y-180386882D03*
D11*
X270005525Y-182611344D03*
X274299327Y-173403256D03*
D10*
X272152426Y-178007300D03*
D13*
X234968619Y-137485741D03*
X248818619Y-140025741D03*
D12*
X245068619Y-129865741D03*
X245068619Y-140025741D03*
X238718619Y-137485741D03*
X238718619Y-132405741D03*
D11*
X237448619Y-134945741D03*
X247608619Y-134945741D03*
D10*
X242528619Y-134945741D03*
D13*
X215918618Y-142245739D03*
X229768618Y-144785739D03*
D12*
X226018618Y-134625739D03*
X226018618Y-144785739D03*
X219668618Y-142245739D03*
X219668618Y-137165739D03*
D11*
X218398618Y-139705739D03*
X228558618Y-139705739D03*
D10*
X223478618Y-139705739D03*
D13*
X196868617Y-140945743D03*
X210718617Y-143485743D03*
D12*
X206968617Y-133325743D03*
X206968617Y-143485743D03*
X200618617Y-140945743D03*
X200618617Y-135865743D03*
D11*
X199348617Y-138405743D03*
X209508617Y-138405743D03*
D10*
X204428617Y-138405743D03*
D13*
X177818616Y-139365741D03*
X191668616Y-141905741D03*
D12*
X187918616Y-131745741D03*
X187918616Y-141905741D03*
X181568616Y-139365741D03*
X181568616Y-134285741D03*
D11*
X180298616Y-136825741D03*
X190458616Y-136825741D03*
D10*
X185378616Y-136825741D03*
D13*
X158768619Y-140975738D03*
X172618619Y-143515738D03*
D12*
X168868619Y-133355738D03*
X168868619Y-143515738D03*
X162518619Y-140975738D03*
X162518619Y-135895738D03*
D11*
X161248619Y-138435738D03*
X171408619Y-138435738D03*
D10*
X166328619Y-138435738D03*
D13*
X139718620Y-144155744D03*
X153568620Y-146695744D03*
D12*
X149818620Y-136535744D03*
X149818620Y-146695744D03*
X143468620Y-144155744D03*
X143468620Y-139075744D03*
D11*
X142198620Y-141615744D03*
X152358620Y-141615744D03*
D10*
X147278620Y-141615744D03*
D13*
X115908614Y-144155738D03*
X129758614Y-146695738D03*
D12*
X126008614Y-136535738D03*
X126008614Y-146695738D03*
X119658614Y-144155738D03*
X119658614Y-139075738D03*
D11*
X118388614Y-141615738D03*
X128548614Y-141615738D03*
D10*
X123468614Y-141615738D03*
D15*
X281096277Y-152816997D03*
X272940993Y-164295909D03*
D12*
X283733898Y-165191057D03*
X274525811Y-160897255D03*
X279511459Y-156215651D03*
X284115502Y-158362552D03*
D11*
X282350206Y-156138090D03*
X278056404Y-165346178D03*
D10*
X280203305Y-160742134D03*
D14*
X262050539Y-160617265D03*
X270205823Y-149138353D03*
D12*
X259412918Y-148243205D03*
X268621005Y-152537007D03*
X263635357Y-157218611D03*
X259031314Y-155071710D03*
D11*
X260796610Y-157296172D03*
X265090412Y-148088084D03*
D10*
X262943511Y-152692128D03*
D13*
X215918610Y-123216582D03*
X229768610Y-125756582D03*
D12*
X226018610Y-115596582D03*
X226018610Y-125756582D03*
X219668610Y-123216582D03*
X219668610Y-118136582D03*
D11*
X218398610Y-120676582D03*
X228558610Y-120676582D03*
D10*
X223478610Y-120676582D03*
D13*
X196868616Y-121905743D03*
X210718616Y-124445743D03*
D12*
X206968616Y-114285743D03*
X206968616Y-124445743D03*
X200618616Y-121905743D03*
X200618616Y-116825743D03*
D11*
X199348616Y-119365743D03*
X209508616Y-119365743D03*
D10*
X204428616Y-119365743D03*
D13*
X177818625Y-120322981D03*
X191668625Y-122862981D03*
D12*
X187918625Y-112702981D03*
X187918625Y-122862981D03*
X181568625Y-120322981D03*
X181568625Y-115242981D03*
D11*
X180298625Y-117782981D03*
X190458625Y-117782981D03*
D10*
X185378625Y-117782981D03*
D13*
X158768619Y-121925985D03*
X172618619Y-124465985D03*
D12*
X168868619Y-114305985D03*
X168868619Y-124465985D03*
X162518619Y-121925985D03*
X162518619Y-116845985D03*
D11*
X161248619Y-119385985D03*
X171408619Y-119385985D03*
D10*
X166328619Y-119385985D03*
D13*
X139710213Y-125117779D03*
X153560213Y-127657779D03*
D12*
X149810213Y-117497779D03*
X149810213Y-127657779D03*
X143460213Y-125117779D03*
X143460213Y-120037779D03*
D11*
X142190213Y-122577779D03*
X152350213Y-122577779D03*
D10*
X147270213Y-122577779D03*
D13*
X115914015Y-125109582D03*
X129764015Y-127649582D03*
D12*
X126014015Y-117489582D03*
X126014015Y-127649582D03*
X119664015Y-125109582D03*
X119664015Y-120029582D03*
D11*
X118394015Y-122569582D03*
X128554015Y-122569582D03*
D10*
X123474015Y-122569582D03*
D13*
X234968620Y-108931381D03*
X248818620Y-111471381D03*
D12*
X245068620Y-101311381D03*
X245068620Y-111471381D03*
X238718620Y-108931381D03*
X238718620Y-103851381D03*
D11*
X237448620Y-106391381D03*
X247608620Y-106391381D03*
D10*
X242528620Y-106391381D03*
D13*
X215876214Y-104171780D03*
X229726214Y-106711780D03*
D12*
X225976214Y-96551780D03*
X225976214Y-106711780D03*
X219626214Y-104171780D03*
X219626214Y-99091780D03*
D11*
X218356214Y-101631780D03*
X228516214Y-101631780D03*
D10*
X223436214Y-101631780D03*
X204403057Y-100321000D03*
D11*
X209483057Y-100321000D03*
X199323057Y-100321000D03*
D12*
X200593057Y-97781000D03*
X200593057Y-102861000D03*
X206943057Y-105401000D03*
X206943057Y-95241000D03*
D13*
X210693057Y-105401000D03*
X196843057Y-102861000D03*
X177797655Y-101275284D03*
X191647655Y-103815284D03*
D12*
X187897655Y-93655284D03*
X187897655Y-103815284D03*
X181547655Y-101275284D03*
X181547655Y-96195284D03*
D11*
X180277655Y-98735284D03*
X190437655Y-98735284D03*
D10*
X185357655Y-98735284D03*
X166313216Y-100338359D03*
D11*
X171393216Y-100338359D03*
X161233216Y-100338359D03*
D12*
X162503216Y-97798359D03*
X162503216Y-102878359D03*
X168853216Y-105418359D03*
X168853216Y-95258359D03*
D13*
X172603216Y-105418359D03*
X158753216Y-102878359D03*
D10*
X147264471Y-103539081D03*
D11*
X152344471Y-103539081D03*
X142184471Y-103539081D03*
D12*
X143454471Y-100999081D03*
X143454471Y-106079081D03*
X149804471Y-108619081D03*
X149804471Y-98459081D03*
D13*
X153554471Y-108619081D03*
X139704471Y-106079081D03*
D10*
X123463700Y-103529480D03*
D11*
X128543700Y-103529480D03*
X118383700Y-103529480D03*
D12*
X119653700Y-100989480D03*
X119653700Y-106069480D03*
X126003700Y-108609480D03*
X126003700Y-98449480D03*
D13*
X129753700Y-108609480D03*
X115903700Y-106069480D03*
X234968619Y-85111673D03*
X248818619Y-87651673D03*
D12*
X245068619Y-77491673D03*
X245068619Y-87651673D03*
X238718619Y-85111673D03*
X238718619Y-80031673D03*
D11*
X237448619Y-82571673D03*
X247608619Y-82571673D03*
D10*
X242528619Y-82571673D03*
D13*
X215918613Y-85119260D03*
X229768613Y-87659260D03*
D12*
X226018613Y-77499260D03*
X226018613Y-87659260D03*
X219668613Y-85119260D03*
X219668613Y-80039260D03*
D11*
X218398613Y-82579260D03*
X228558613Y-82579260D03*
D10*
X223478613Y-82579260D03*
X204403216Y-81283164D03*
D11*
X209483216Y-81283164D03*
X199323216Y-81283164D03*
D12*
X200593216Y-78743164D03*
X200593216Y-83823164D03*
X206943216Y-86363164D03*
X206943216Y-76203164D03*
D13*
X210693216Y-86363164D03*
X196843216Y-83823164D03*
D10*
X185361315Y-79690823D03*
D11*
X190441315Y-79690823D03*
X180281315Y-79690823D03*
D12*
X181551315Y-77150823D03*
X181551315Y-82230823D03*
X187901315Y-84770823D03*
X187901315Y-74610823D03*
D13*
X191651315Y-84770823D03*
X177801315Y-82230823D03*
X158755716Y-83836383D03*
X172605716Y-86376383D03*
D12*
X168855716Y-76216383D03*
X168855716Y-86376383D03*
X162505716Y-83836383D03*
X162505716Y-78756383D03*
D11*
X161235716Y-81296383D03*
X171395716Y-81296383D03*
D10*
X166315716Y-81296383D03*
X147265714Y-84486383D03*
D11*
X152345714Y-84486383D03*
X142185714Y-84486383D03*
D12*
X143455714Y-81946383D03*
X143455714Y-87026383D03*
X149805714Y-89566383D03*
X149805714Y-79406383D03*
D13*
X153555714Y-89566383D03*
X139705714Y-87026383D03*
D10*
X123460296Y-84486382D03*
D11*
X128540296Y-84486382D03*
X118380296Y-84486382D03*
D12*
X119650296Y-81946382D03*
X119650296Y-87026382D03*
X126000296Y-89566382D03*
X126000296Y-79406382D03*
D13*
X129750296Y-89566382D03*
X115900296Y-87026382D03*
D10*
X242528614Y-63531380D03*
D11*
X247608614Y-63531380D03*
X237448614Y-63531380D03*
D12*
X238718614Y-60991380D03*
X238718614Y-66071380D03*
X245068614Y-68611380D03*
X245068614Y-58451380D03*
D13*
X248818614Y-68611380D03*
X234968614Y-66071380D03*
D10*
X223436369Y-63529383D03*
D11*
X228516369Y-63529383D03*
X218356369Y-63529383D03*
D12*
X219626369Y-60989383D03*
X219626369Y-66069383D03*
X225976369Y-68609383D03*
X225976369Y-58449383D03*
D13*
X229726369Y-68609383D03*
X215876369Y-66069383D03*
D10*
X204398616Y-62229381D03*
D11*
X209478616Y-62229381D03*
X199318616Y-62229381D03*
D12*
X200588616Y-59689381D03*
X200588616Y-64769381D03*
X206938616Y-67309381D03*
X206938616Y-57149381D03*
D13*
X210688616Y-67309381D03*
X196838616Y-64769381D03*
D10*
X185358615Y-60645384D03*
D11*
X190438615Y-60645384D03*
X180278615Y-60645384D03*
D12*
X181548615Y-58105384D03*
X181548615Y-63185384D03*
X187898615Y-65725384D03*
X187898615Y-55565384D03*
D13*
X191648615Y-65725384D03*
X177798615Y-63185384D03*
D10*
X166318623Y-62242783D03*
D11*
X171398623Y-62242783D03*
X161238623Y-62242783D03*
D12*
X162508623Y-59702783D03*
X162508623Y-64782783D03*
X168858623Y-67322783D03*
X168858623Y-57162783D03*
D13*
X172608623Y-67322783D03*
X158758623Y-64782783D03*
D16*
X119398274Y-39174381D03*
D17*
X119398274Y-41714381D03*
X119398274Y-44254381D03*
X119398274Y-46794381D03*
X119398274Y-49334381D03*
X119398274Y-51874381D03*
X119398274Y-54414381D03*
X119398274Y-56954381D03*
X119398274Y-59494381D03*
X119398274Y-62034381D03*
X119398274Y-64574381D03*
X119398274Y-67114381D03*
X134638274Y-67114381D03*
X134638274Y-64574381D03*
X134638274Y-62034381D03*
X134638274Y-59494381D03*
X134638274Y-56954381D03*
X134638274Y-54414381D03*
X134638274Y-51874381D03*
X134638274Y-49334381D03*
X134638274Y-46794381D03*
X134638274Y-44254381D03*
X134638274Y-41714381D03*
X134638274Y-39174381D03*
D18*
X194162249Y-118829278D03*
D19*
X194162249Y-126829278D03*
X213372274Y-128528543D03*
D18*
X213372274Y-120528543D03*
X232622775Y-121195905D03*
D19*
X232622775Y-129195905D03*
D20*
X252829802Y-151836731D03*
D18*
X256210748Y-144586269D03*
X272276253Y-155216169D03*
D20*
X268895307Y-162466631D03*
D19*
X132612777Y-150135071D03*
D18*
X132612777Y-142135071D03*
X156422778Y-143500000D03*
D19*
X156422778Y-151500000D03*
X175020003Y-147460007D03*
D18*
X175020003Y-139460007D03*
X194182580Y-137716718D03*
D19*
X194182580Y-145716718D03*
X132618182Y-131088904D03*
D18*
X132618182Y-123088904D03*
X175020003Y-120410246D03*
D19*
X175020003Y-128410246D03*
X156345306Y-131990147D03*
D18*
X156345306Y-123990147D03*
X222085646Y-166489987D03*
D21*
X225466592Y-159239525D03*
D19*
X213572778Y-165965071D03*
D18*
X213572778Y-157965071D03*
X194228302Y-157343298D03*
D19*
X194228302Y-165343298D03*
X175020000Y-166490000D03*
D18*
X175020000Y-158490000D03*
X155956000Y-160846000D03*
D19*
X155956000Y-168846000D03*
X137479610Y-168645298D03*
D18*
X137479610Y-160645298D03*
X268181048Y-167130788D03*
D22*
X260930586Y-163749842D03*
D23*
X249048615Y-144035742D03*
D18*
X241048615Y-144035742D03*
X232622776Y-140225065D03*
D19*
X232622776Y-148225065D03*
D22*
X245284186Y-156594665D03*
D18*
X252534648Y-159975611D03*
X213191931Y-139240720D03*
D19*
X213191931Y-147240720D03*
X193920957Y-69844382D03*
D18*
X193920957Y-61844382D03*
X213163990Y-63299808D03*
D19*
X213163990Y-71299808D03*
X232580533Y-72048711D03*
D18*
X232580533Y-64048711D03*
D23*
X249302616Y-72915738D03*
D18*
X241302616Y-72915738D03*
D19*
X132604462Y-93005705D03*
D18*
X132604462Y-85005705D03*
X156340799Y-85898745D03*
D19*
X156340799Y-93898745D03*
X175007099Y-90320650D03*
D18*
X175007099Y-82320650D03*
X193860000Y-80904541D03*
D19*
X193860000Y-88904541D03*
D24*
X275151231Y-190412473D03*
D18*
X267900769Y-187031527D03*
X232622770Y-83098589D03*
D19*
X232622770Y-91098589D03*
X213435777Y-90603799D03*
D18*
X213435777Y-82603799D03*
X155950000Y-66870000D03*
D19*
X155950000Y-74870000D03*
X232122553Y-110298961D03*
D18*
X232122553Y-102298961D03*
X174441045Y-63522798D03*
D19*
X174441045Y-71522798D03*
D23*
X249048615Y-118127743D03*
D18*
X241048615Y-118127743D03*
X213303701Y-101216917D03*
D19*
X213303701Y-109216917D03*
X194233377Y-107893586D03*
D18*
X194233377Y-99893586D03*
X175004603Y-101362626D03*
D19*
X175004603Y-109362626D03*
X156339569Y-112951443D03*
D18*
X156339569Y-104951443D03*
X132607859Y-104048807D03*
D19*
X132607859Y-112048807D03*
D18*
X241302617Y-93997740D03*
D23*
X249302617Y-93997740D03*
D25*
X232297818Y-44139940D03*
D26*
X229997818Y-39539940D03*
X229997818Y-46539940D03*
D25*
X232297818Y-41139940D03*
X232297818Y-48139940D03*
X227697818Y-49239940D03*
X236897818Y-49239940D03*
D26*
X234597818Y-39539940D03*
X234597818Y-46539940D03*
D10*
X263418487Y-171191537D03*
X253328053Y-192830543D03*
D27*
X249606356Y-164750836D03*
X239515922Y-186389841D03*
X244996830Y-162636635D03*
X234906396Y-184275640D03*
D10*
X231184699Y-156195933D03*
X221094265Y-177834939D03*
D28*
X255248737Y-139127902D03*
X180670994Y-42772623D03*
X113951593Y-42831982D03*
X246514197Y-43446662D03*
X113148587Y-157542819D03*
X209511368Y-175171403D03*
D29*
X216594537Y-41671202D03*
X206434537Y-41671202D03*
X197656294Y-41671199D03*
X187496294Y-41671199D03*
M02*
